<?xml version="1.0" encoding="UTF-8" standalone="no"?>
<!DOCTYPE svg PUBLIC "-//W3C//DTD SVG 1.1//EN" "http://www.w3.org/Graphics/SVG/1.1/DTD/svg11.dtd">
<!-- Generated by Microsoft Visio, SVG Export ad-hoc-exploration.svg Page-2 -->
<svg xmlns="http://www.w3.org/2000/svg" xmlns:xlink="http://www.w3.org/1999/xlink" xmlns:ev="http://www.w3.org/2001/xml-events"
		xmlns:v="http://schemas.microsoft.com/visio/2003/SVGExtensions/" width="11in" height="8.5in" viewBox="0 0 792 612"
		xml:space="preserve" color-interpolation-filters="sRGB" class="st17">
	<v:documentProperties v:langID="1033" v:viewMarkup="false">
		<v:userDefs>
			<v:ud v:nameU="msvSubprocessMaster" v:prompt="" v:val="VT4(Rectangle)"/>
			<v:ud v:nameU="msvNoAutoConnect" v:val="VT0(1):26"/>
		</v:userDefs>
	</v:documentProperties>

	<style type="text/css">
	<![CDATA[
		.st1 {visibility:visible}
		.st2 {fill:#bdd0e9;fill-opacity:0.22;filter:url(#filter_2);stroke:#bdd0e9;stroke-opacity:0.22}
		.st3 {fill:#bdd0e9;stroke:#c7c8c8;stroke-width:0.25}
		.st4 {fill:#feffff;font-family:Calibri;font-size:1.00001em}
		.st5 {fill:none;stroke:none;stroke-width:0.25}
		.st6 {fill:#1e4e79;font-family:Calibri;font-size:0.916672em}
		.st7 {font-size:1em}
		.st8 {fill:#5b9bd5;fill-opacity:0.22;filter:url(#filter_2);stroke:none}
		.st9 {fill:#0078d7;stroke:none;stroke-width:0.25}
		.st10 {fill:#1e4e79;font-family:Calibri;font-size:0.75em}
		.st11 {marker-end:url(#mrkr4-43);stroke:#5b9bd5;stroke-linecap:round;stroke-linejoin:round;stroke-width:1}
		.st12 {fill:#5b9bd5;fill-opacity:1;stroke:#5b9bd5;stroke-opacity:1;stroke-width:0.28409090909091}
		.st13 {fill:#5b9bd5;fill-opacity:0.22;filter:url(#filter_2);stroke:#5b9bd5;stroke-opacity:0.22}
		.st14 {fill:#0070c0;stroke:#c7c8c8;stroke-width:0.25}
		.st15 {fill:#ffffff;stroke:none;stroke-width:0.25}
		.st16 {fill:#1e4e79;font-family:Calibri;font-size:0.833336em}
		.st17 {fill:none;fill-rule:evenodd;font-size:12px;overflow:visible;stroke-linecap:square;stroke-miterlimit:3}
	]]>
	</style>

	<defs id="Markers">
		<g id="lend4">
			<path d="M 2 1 L 0 0 L 2 -1 L 2 1 " style="stroke:none"/>
		</g>
		<marker id="mrkr4-43" class="st12" v:arrowType="4" v:arrowSize="2" v:setback="7.04" refX="-7.04" orient="auto"
				markerUnits="strokeWidth" overflow="visible">
			<use xlink:href="#lend4" transform="scale(-3.52,-3.52) "/>
		</marker>
	</defs>
	<defs id="Filters">
		<filter id="filter_2">
			<feGaussianBlur stdDeviation="2"/>
		</filter>
	</defs>
	<g v:mID="4" v:index="2" v:groupContext="foregroundPage">
		<v:userDefs>
			<v:ud v:nameU="msvThemeOrder" v:val="VT0(0):26"/>
		</v:userDefs>
		<title>Page-2</title>
		<v:pageProperties v:drawingScale="1" v:pageScale="1" v:drawingUnits="0" v:shadowOffsetX="8.50394"
				v:shadowOffsetY="-8.50394"/>
		<v:layer v:name="Connector" v:index="0"/>
		<g id="group66-1" transform="translate(236.48,-294.244)" v:mID="66" v:groupContext="group">
			<title>Sheet.66</title>
			<g id="group65-2" transform="translate(143.372,0)" v:mID="65" v:groupContext="group">
				<title>Sheet.65</title>
				<g id="shape45-3" v:mID="45" v:groupContext="shape">
					<title>Sheet.45</title>
					<desc>Virtual network</desc>
					<v:textBlock v:margins="rect(4,4,4,4)" v:verticalAlign="0"/>
					<v:textRect cx="123.501" cy="504.872" width="247.01" height="214.256"/>
					<g id="shadow45-4" v:groupContext="shadow" v:shadowOffsetX="0.345598" v:shadowOffsetY="-1.97279"
							v:shadowType="1" transform="matrix(1,0,0,1,0.345598,1.97279)" class="st1">
						<rect x="0" y="397.744" width="247.002" height="214.256" class="st2"/>
					</g>
					<rect x="0" y="397.744" width="247.002" height="214.256" class="st3"/>
					<text x="85.44" y="412.54" class="st4" v:langID="1033"><v:paragraph v:horizAlign="1"/><v:tabList/>Virtual network</text>				</g>
				<g id="group64-9" v:mID="64" v:groupContext="group">
					<title>Sheet.64</title>
					<g id="shape44-10" v:mID="44" v:groupContext="shape" transform="translate(161.963,0)">
						<title>Sheet.44</title>
						<desc>Elasticsearch cluster</desc>
						<v:textBlock v:margins="rect(4,4,4,4)"/>
						<v:textRect cx="42.5197" cy="597.445" width="85.04" height="29.1103"/>
						<rect x="0" y="582.89" width="85.0394" height="29.1103" class="st5"/>
						<text x="13.7" y="594.14" class="st6" v:langID="1033"><v:paragraph v:horizAlign="1"/><v:tabList/>Elasticsearch<v:newlineChar/><tspan
									x="27.39" dy="1.2em" class="st7">cluster</tspan></text>					</g>
					<g id="shape46-14" v:mID="46" v:groupContext="shape" transform="translate(103.421,-104.511)">
						<title>Azure load balancer</title>
						<g id="shadow46-15" v:groupContext="shadow" v:shadowOffsetX="0.3456" v:shadowOffsetY="-1.9728"
								v:shadowType="1" transform="matrix(1,0,0,1,0.3456,1.9728)" class="st1">
							<path d="M38.98 609.39 L35.44 587.16 C35.39 586.23 34.61 586.14 34.36 586.14 L5.03 586.14 C4.79 586.14
										 4.01 586.23 3.96 587.16 L0.03 609.39 L0.02 609.39 C0.02 609.4 0.02 609.43 0.02 609.44 L0
										 609.56 L0.02 609.58 C0.01 609.72 0 609.84 0 609.99 C0 611.63 1.35 611.99 1.65 612 L1.65
										 612 L1.66 612 L2.75 612 L37.34 612 C37.62 612 39 611.65 39 609.99 C39 609.77 39 609.57 38.98
										 609.39 ZM26.7 603.72 L22.39 603.72 C22.04 603.72 21.76 603.45 21.76 603.1 C21.76 602.75
										 22.04 602.47 22.39 602.47 L24.44 602.47 L19.57 597.6 L19.57 607.33 L21.08 605.81 C21.33
										 605.57 21.72 605.57 21.97 605.81 C22.21 606.06 22.21 606.45 21.97 606.7 L18.92 609.75 L15.86
										 606.7 C15.74 606.58 15.68 606.42 15.68 606.26 C15.68 606.1 15.74 605.93 15.86 605.81 C16.11
										 605.57 16.51 605.57 16.75 605.81 L18.32 607.39 L18.32 597.6 L13.44 602.47 L15.63 602.47
										 C15.97 602.47 16.26 602.75 16.26 603.1 C16.26 603.45 15.97 603.72 15.63 603.72 L11.32 603.72
										 L11.32 599.41 C11.32 599.06 11.59 598.78 11.94 598.78 C12.28 598.78 12.57 599.06 12.57 599.41
										 L12.57 601.58 L18.32 595.83 L18.32 592.81 C17.53 592.54 16.96 591.81 16.96 590.94 C16.96
										 589.84 17.85 588.96 18.94 588.96 C20.04 588.96 20.92 589.84 20.92 590.94 C20.92 591.81 20.35
										 592.54 19.57 592.81 L19.57 595.83 L25.46 601.72 L25.46 599.4 C25.46 599.06 25.73 598.78
										 26.08 598.78 C26.43 598.78 26.7 599.06 26.7 599.4 L26.7 603.72 L26.7 603.72 Z" class="st8"/>
						</g>
						<path d="M38.98 609.39 L35.44 587.16 C35.39 586.23 34.61 586.14 34.36 586.14 L5.03 586.14 C4.79 586.14 4.01
									 586.23 3.96 587.16 L0.03 609.39 L0.02 609.39 C0.02 609.4 0.02 609.43 0.02 609.44 L0 609.56 L0.02
									 609.58 C0.01 609.72 0 609.84 0 609.99 C0 611.63 1.35 611.99 1.65 612 L1.65 612 L1.66 612 L2.75
									 612 L37.34 612 C37.62 612 39 611.65 39 609.99 C39 609.77 39 609.57 38.98 609.39 ZM26.7 603.72
									 L22.39 603.72 C22.04 603.72 21.76 603.45 21.76 603.1 C21.76 602.75 22.04 602.47 22.39 602.47
									 L24.44 602.47 L19.57 597.6 L19.57 607.33 L21.08 605.81 C21.33 605.57 21.72 605.57 21.97 605.81
									 C22.21 606.06 22.21 606.45 21.97 606.7 L18.92 609.75 L15.86 606.7 C15.74 606.58 15.68 606.42
									 15.68 606.26 C15.68 606.1 15.74 605.93 15.86 605.81 C16.11 605.57 16.51 605.57 16.75 605.81
									 L18.32 607.39 L18.32 597.6 L13.44 602.47 L15.63 602.47 C15.97 602.47 16.26 602.75 16.26 603.1
									 C16.26 603.45 15.97 603.72 15.63 603.72 L11.32 603.72 L11.32 599.41 C11.32 599.06 11.59 598.78
									 11.94 598.78 C12.28 598.78 12.57 599.06 12.57 599.41 L12.57 601.58 L18.32 595.83 L18.32 592.81
									 C17.53 592.54 16.96 591.81 16.96 590.94 C16.96 589.84 17.85 588.96 18.94 588.96 C20.04 588.96
									 20.92 589.84 20.92 590.94 C20.92 591.81 20.35 592.54 19.57 592.81 L19.57 595.83 L25.46 601.72
									 L25.46 599.4 C25.46 599.06 25.73 598.78 26.08 598.78 C26.43 598.78 26.7 599.06 26.7 599.4 L26.7
									 603.72 L26.7 603.72 Z" class="st9"/>
					</g>
					<g id="shape47-19" v:mID="47" v:groupContext="shape" transform="translate(84.9017,-142)">
						<title>Sheet.47</title>
						<desc>Internal load balancer</desc>
						<v:textBlock v:margins="rect(4,4,4,4)"/>
						<v:textRect cx="36.2991" cy="602" width="72.6" height="20"/>
						<rect x="0" y="592" width="72.5983" height="20" class="st5"/>
						<text x="12.99" y="599.3" class="st10" v:langID="1033"><v:paragraph v:horizAlign="1"/><v:tabList/>Internal load <tspan
									x="20.52" dy="1.2em" class="st7">balancer</tspan></text>					</g>
					<g id="group51-23" transform="translate(0,-69.3089)" v:mID="51" v:groupContext="group">
						<title>Sheet.51</title>
						<g id="group31-24" transform="translate(13.5374,-24.9458)" v:mID="31" v:groupContext="group">
							<title>Virtual machine</title>
							<g id="shape32-25" v:mID="32" v:groupContext="shape" transform="translate(18.9774,-20.8171)">
								<title>Sheet.32</title>
								<g id="shadow32-26" v:groupContext="shadow" v:shadowOffsetX="0.3456" v:shadowOffsetY="-1.9728"
										v:shadowType="1" transform="matrix(1,0,0,1,0.3456,1.9728)" class="st1">
									<path d="M0 612 L21.89 612 L21.89 597.33 L0 597.33 L0 612 ZM15.76 607.72 L11.65 610.09 L11.65
												 605.36 L15.76 602.98 L15.76 607.72 ZM11.27 599.93 L15.39 602.32 L11.3 604.68 L7.17
												 602.31 L11.27 599.93 ZM6.77 602.96 L10.89 605.33 L10.89 610.09 L6.77 607.72 L6.77
												 602.96 Z" class="st8"/>
								</g>
								<path d="M0 612 L21.89 612 L21.89 597.33 L0 597.33 L0 612 ZM15.76 607.72 L11.65 610.09 L11.65 605.36
											 L15.76 602.98 L15.76 607.72 ZM11.27 599.93 L15.39 602.32 L11.3 604.68 L7.17 602.31 L11.27
											 599.93 ZM6.77 602.96 L10.89 605.33 L10.89 610.09 L6.77 607.72 L6.77 602.96 Z"
										class="st9"/>
							</g>
							<g id="shape33-30" v:mID="33" v:groupContext="shape">
								<title>Sheet.33</title>
								<g id="shadow33-31" v:groupContext="shadow" v:shadowOffsetX="0.3456" v:shadowOffsetY="-1.9728"
										v:shadowType="1" transform="matrix(1,0,0,1,0.3456,1.9728)" class="st1">
									<path d="M55.41 565.63 L2.56 565.63 C1.15 565.63 0 566.78 0 568.19 L0 609.44 C0 610.86 1.15 612
												 2.56 612 L55.41 612 C56.83 612 57.96 610.86 57.96 609.44 L57.96 568.19 C57.96 566.78
												 56.83 565.63 55.41 565.63 ZM28.79 604.02 L27.18 608.81 C27.17 608.86 27.15 608.9
												 27.13 608.93 C27.1 608.95 27.07 608.98 27.02 608.99 C26.97 609.01 26.9 609.02 26.81
												 609.02 C26.73 609.03 26.61 609.03 26.48 609.03 C26.36 609.03 26.27 609.03 26.19
												 609.03 C26.11 609.02 26.04 609.02 25.99 609.01 C25.93 609.01 25.88 609 25.85 608.99
												 C25.82 608.98 25.79 608.96 25.76 608.95 C25.74 608.93 25.72 608.91 25.71 608.89
												 C25.7 608.86 25.68 608.83 25.67 608.8 L24.06 604.01 C24.03 603.91 24.01 603.83 24
												 603.77 C24 603.71 24.01 603.67 24.05 603.64 C24.08 603.61 24.14 603.59 24.22 603.58
												 C24.3 603.58 24.42 603.57 24.57 603.57 C24.7 603.57 24.8 603.58 24.87 603.58 C24.95
												 603.59 25 603.6 25.04 603.61 C25.08 603.62 25.11 603.65 25.12 603.67 C25.14 603.7
												 25.15 603.74 25.17 603.78 L26.48 607.94 L26.48 607.94 L27.77 603.8 C27.79 603.75
												 27.8 603.71 27.82 603.68 C27.83 603.66 27.86 603.63 27.9 603.62 C27.94 603.6 28
												 603.59 28.07 603.58 C28.15 603.58 28.25 603.58 28.38 603.58 C28.51 603.58 28.61
												 603.58 28.68 603.59 C28.75 603.6 28.8 603.62 28.83 603.65 C28.85 603.68 28.86 603.72
												 28.85 603.78 C28.85 603.84 28.83 603.92 28.79 604.02 ZM35.84 608.85 C35.84 608.88
												 35.84 608.91 35.82 608.93 C35.81 608.95 35.78 608.97 35.74 608.98 C35.7 609 35.64
												 609.01 35.58 609.02 C35.51 609.02 35.43 609.03 35.32 609.03 C35.22 609.03 35.14
												 609.02 35.07 609.02 C35.01 609.01 34.95 609 34.91 608.98 C34.87 608.97 34.85 608.95
												 34.83 608.93 C34.81 608.91 34.81 608.88 34.81 608.85 L34.81 604.46 L34.8 604.46
												 L33.23 608.85 C33.22 608.89 33.2 608.91 33.18 608.94 C33.15 608.96 33.12 608.98
												 33.07 609 C33.03 609.01 32.97 609.02 32.91 609.02 C32.84 609.03 32.76 609.03 32.67
												 609.03 C32.57 609.03 32.49 609.03 32.42 609.02 C32.36 609.01 32.3 609 32.26 608.99
												 C32.22 608.97 32.18 608.95 32.16 608.93 C32.13 608.91 32.11 608.88 32.1 608.85 L30.59
												 604.46 L30.58 604.46 L30.58 608.85 C30.58 608.88 30.58 608.91 30.56 608.93 C30.55
												 608.95 30.52 608.97 30.48 608.98 C30.44 609 30.38 609.01 30.32 609.02 C30.25 609.02
												 30.17 609.03 30.06 609.03 C29.96 609.03 29.88 609.02 29.81 609.02 C29.74 609.01
												 29.69 609 29.65 608.98 C29.61 608.97 29.58 608.95 29.57 608.93 C29.55 608.91 29.54
												 608.88 29.54 608.85 L29.54 604.04 C29.54 603.9 29.58 603.79 29.66 603.71 C29.73
												 603.64 29.83 603.6 29.96 603.6 L30.68 603.6 C30.8 603.6 30.91 603.61 31.01 603.63
												 C31.1 603.65 31.18 603.69 31.24 603.74 C31.31 603.79 31.37 603.85 31.41 603.93 C31.45
												 604.01 31.49 604.11 31.53 604.22 L32.7 607.44 L32.71 607.44 L33.92 604.23 C33.96
												 604.11 34 604.02 34.04 603.93 C34.09 603.85 34.14 603.79 34.19 603.74 C34.25 603.69
												 34.32 603.65 34.4 603.63 C34.47 603.61 34.57 603.6 34.67 603.6 L35.41 603.6 C35.48
												 603.6 35.55 603.61 35.6 603.63 C35.66 603.65 35.7 603.68 35.74 603.71 C35.77 603.75
												 35.8 603.8 35.81 603.85 C35.83 603.91 35.84 603.97 35.84 604.04 L35.84 608.85 L35.84
												 608.85 ZM42.65 591.58 C42.65 592.35 42.04 592.97 41.26 592.97 L33.31 592.97 C32.53
												 596.08 32.9 596.46 38.28 596.46 L38.28 597.74 L32.01 597.74 L27.44 597.74 L21.57
												 597.74 L21.57 596.46 C26.4 596.46 27.2 596.08 26.44 592.97 L18.59 592.97 C17.81
												 592.97 17.19 592.35 17.19 591.58 L17.19 576.12 C17.19 575.35 17.81 574.71 18.59
												 574.71 L41.27 574.71 C42.04 574.71 42.66 575.35 42.66 576.12 L42.66 591.58 L42.65
												 591.58 Z" class="st8"/>
								</g>
								<path d="M55.41 565.63 L2.56 565.63 C1.15 565.63 0 566.78 0 568.19 L0 609.44 C0 610.86 1.15 612 2.56
											 612 L55.41 612 C56.83 612 57.96 610.86 57.96 609.44 L57.96 568.19 C57.96 566.78 56.83
											 565.63 55.41 565.63 ZM28.79 604.02 L27.18 608.81 C27.17 608.86 27.15 608.9 27.13 608.93
											 C27.1 608.95 27.07 608.98 27.02 608.99 C26.97 609.01 26.9 609.02 26.81 609.02 C26.73
											 609.03 26.61 609.03 26.48 609.03 C26.36 609.03 26.27 609.03 26.19 609.03 C26.11 609.02
											 26.04 609.02 25.99 609.01 C25.93 609.01 25.88 609 25.85 608.99 C25.82 608.98 25.79 608.96
											 25.76 608.95 C25.74 608.93 25.72 608.91 25.71 608.89 C25.7 608.86 25.68 608.83 25.67
											 608.8 L24.06 604.01 C24.03 603.91 24.01 603.83 24 603.77 C24 603.71 24.01 603.67 24.05
											 603.64 C24.08 603.61 24.14 603.59 24.22 603.58 C24.3 603.58 24.42 603.57 24.57 603.57
											 C24.7 603.57 24.8 603.58 24.87 603.58 C24.95 603.59 25 603.6 25.04 603.61 C25.08 603.62
											 25.11 603.65 25.12 603.67 C25.14 603.7 25.15 603.74 25.17 603.78 L26.48 607.94 L26.48
											 607.94 L27.77 603.8 C27.79 603.75 27.8 603.71 27.82 603.68 C27.83 603.66 27.86 603.63
											 27.9 603.62 C27.94 603.6 28 603.59 28.07 603.58 C28.15 603.58 28.25 603.58 28.38 603.58
											 C28.51 603.58 28.61 603.58 28.68 603.59 C28.75 603.6 28.8 603.62 28.83 603.65 C28.85
											 603.68 28.86 603.72 28.85 603.78 C28.85 603.84 28.83 603.92 28.79 604.02 ZM35.84 608.85
											 C35.84 608.88 35.84 608.91 35.82 608.93 C35.81 608.95 35.78 608.97 35.74 608.98 C35.7
											 609 35.64 609.01 35.58 609.02 C35.51 609.02 35.43 609.03 35.32 609.03 C35.22 609.03
											 35.14 609.02 35.07 609.02 C35.01 609.01 34.95 609 34.91 608.98 C34.87 608.97 34.85 608.95
											 34.83 608.93 C34.81 608.91 34.81 608.88 34.81 608.85 L34.81 604.46 L34.8 604.46 L33.23
											 608.85 C33.22 608.89 33.2 608.91 33.18 608.94 C33.15 608.96 33.12 608.98 33.07 609 C33.03
											 609.01 32.97 609.02 32.91 609.02 C32.84 609.03 32.76 609.03 32.67 609.03 C32.57 609.03
											 32.49 609.03 32.42 609.02 C32.36 609.01 32.3 609 32.26 608.99 C32.22 608.97 32.18 608.95
											 32.16 608.93 C32.13 608.91 32.11 608.88 32.1 608.85 L30.59 604.46 L30.58 604.46 L30.58
											 608.85 C30.58 608.88 30.58 608.91 30.56 608.93 C30.55 608.95 30.52 608.97 30.48 608.98
											 C30.44 609 30.38 609.01 30.32 609.02 C30.25 609.02 30.17 609.03 30.06 609.03 C29.96
											 609.03 29.88 609.02 29.81 609.02 C29.74 609.01 29.69 609 29.65 608.98 C29.61 608.97
											 29.58 608.95 29.57 608.93 C29.55 608.91 29.54 608.88 29.54 608.85 L29.54 604.04 C29.54
											 603.9 29.58 603.79 29.66 603.71 C29.73 603.64 29.83 603.6 29.96 603.6 L30.68 603.6 C30.8
											 603.6 30.91 603.61 31.01 603.63 C31.1 603.65 31.18 603.69 31.24 603.74 C31.31 603.79
											 31.37 603.85 31.41 603.93 C31.45 604.01 31.49 604.11 31.53 604.22 L32.7 607.44 L32.71
											 607.44 L33.92 604.23 C33.96 604.11 34 604.02 34.04 603.93 C34.09 603.85 34.14 603.79
											 34.19 603.74 C34.25 603.69 34.32 603.65 34.4 603.63 C34.47 603.61 34.57 603.6 34.67
											 603.6 L35.41 603.6 C35.48 603.6 35.55 603.61 35.6 603.63 C35.66 603.65 35.7 603.68 35.74
											 603.71 C35.77 603.75 35.8 603.8 35.81 603.85 C35.83 603.91 35.84 603.97 35.84 604.04
											 L35.84 608.85 L35.84 608.85 ZM42.65 591.58 C42.65 592.35 42.04 592.97 41.26 592.97 L33.31
											 592.97 C32.53 596.08 32.9 596.46 38.28 596.46 L38.28 597.74 L32.01 597.74 L27.44 597.74
											 L21.57 597.74 L21.57 596.46 C26.4 596.46 27.2 596.08 26.44 592.97 L18.59 592.97 C17.81
											 592.97 17.19 592.35 17.19 591.58 L17.19 576.12 C17.19 575.35 17.81 574.71 18.59 574.71
											 L41.27 574.71 C42.04 574.71 42.66 575.35 42.66 576.12 L42.66 591.58 L42.65 591.58 Z"
										class="st9"/>
							</g>
						</g>
						<g id="shape34-35" v:mID="34" v:groupContext="shape">
							<title>Sheet.34</title>
							<desc>Event processor</desc>
							<v:textBlock v:margins="rect(4,4,4,4)"/>
							<v:textRect cx="42.5197" cy="602" width="85.04" height="20"/>
							<rect x="0" y="592" width="85.0394" height="20" class="st5"/>
							<text x="6.75" y="605.3" class="st6" v:langID="1033"><v:paragraph v:horizAlign="1"/><v:tabList/>Event processor</text>						</g>
					</g>
					<g id="shape56-38" v:mID="56" v:groupContext="shape" v:layerMember="0" transform="translate(73.4936,-108.44)">
						<title>Dynamic connector.56</title>
						<path d="M0 603 L24.64 603" class="st11"/>
					</g>
					<g id="group57-44" transform="translate(175.5,-39.8148)" v:mID="57" v:groupContext="group">
						<title>Sheet.57</title>
						<g id="group35-45" transform="translate(0,-108)" v:mID="35" v:groupContext="group">
							<title>Virtual machine.35</title>
							<g id="shape36-46" v:mID="36" v:groupContext="shape" transform="translate(18.9774,-20.8171)">
								<title>Sheet.36</title>
								<g id="shadow36-47" v:groupContext="shadow" v:shadowOffsetX="0.3456" v:shadowOffsetY="-1.9728"
										v:shadowType="1" transform="matrix(1,0,0,1,0.3456,1.9728)" class="st1">
									<path d="M0 612 L21.89 612 L21.89 597.33 L0 597.33 L0 612 ZM15.76 607.72 L11.65 610.09 L11.65
												 605.36 L15.76 602.98 L15.76 607.72 ZM11.27 599.93 L15.39 602.32 L11.3 604.68 L7.17
												 602.31 L11.27 599.93 ZM6.77 602.96 L10.89 605.33 L10.89 610.09 L6.77 607.72 L6.77
												 602.96 Z" class="st8"/>
								</g>
								<path d="M0 612 L21.89 612 L21.89 597.33 L0 597.33 L0 612 ZM15.76 607.72 L11.65 610.09 L11.65 605.36
											 L15.76 602.98 L15.76 607.72 ZM11.27 599.93 L15.39 602.32 L11.3 604.68 L7.17 602.31 L11.27
											 599.93 ZM6.77 602.96 L10.89 605.33 L10.89 610.09 L6.77 607.72 L6.77 602.96 Z"
										class="st9"/>
							</g>
							<g id="shape37-51" v:mID="37" v:groupContext="shape">
								<title>Sheet.37</title>
								<g id="shadow37-52" v:groupContext="shadow" v:shadowOffsetX="0.3456" v:shadowOffsetY="-1.9728"
										v:shadowType="1" transform="matrix(1,0,0,1,0.3456,1.9728)" class="st1">
									<path d="M55.41 565.63 L2.56 565.63 C1.15 565.63 0 566.78 0 568.19 L0 609.44 C0 610.86 1.15 612
												 2.56 612 L55.41 612 C56.83 612 57.96 610.86 57.96 609.44 L57.96 568.19 C57.96 566.78
												 56.83 565.63 55.41 565.63 ZM28.79 604.02 L27.18 608.81 C27.17 608.86 27.15 608.9
												 27.13 608.93 C27.1 608.95 27.07 608.98 27.02 608.99 C26.97 609.01 26.9 609.02 26.81
												 609.02 C26.73 609.03 26.61 609.03 26.48 609.03 C26.36 609.03 26.27 609.03 26.19
												 609.03 C26.11 609.02 26.04 609.02 25.99 609.01 C25.93 609.01 25.88 609 25.85 608.99
												 C25.82 608.98 25.79 608.96 25.76 608.95 C25.74 608.93 25.72 608.91 25.71 608.89
												 C25.7 608.86 25.68 608.83 25.67 608.8 L24.06 604.01 C24.03 603.91 24.01 603.83 24
												 603.77 C24 603.71 24.01 603.67 24.05 603.64 C24.08 603.61 24.14 603.59 24.22 603.58
												 C24.3 603.58 24.42 603.57 24.57 603.57 C24.7 603.57 24.8 603.58 24.87 603.58 C24.95
												 603.59 25 603.6 25.04 603.61 C25.08 603.62 25.11 603.65 25.12 603.67 C25.14 603.7
												 25.15 603.74 25.17 603.78 L26.48 607.94 L26.48 607.94 L27.77 603.8 C27.79 603.75
												 27.8 603.71 27.82 603.68 C27.83 603.66 27.86 603.63 27.9 603.62 C27.94 603.6 28
												 603.59 28.07 603.58 C28.15 603.58 28.25 603.58 28.38 603.58 C28.51 603.58 28.61
												 603.58 28.68 603.59 C28.75 603.6 28.8 603.62 28.83 603.65 C28.85 603.68 28.86 603.72
												 28.85 603.78 C28.85 603.84 28.83 603.92 28.79 604.02 ZM35.84 608.85 C35.84 608.88
												 35.84 608.91 35.82 608.93 C35.81 608.95 35.78 608.97 35.74 608.98 C35.7 609 35.64
												 609.01 35.58 609.02 C35.51 609.02 35.43 609.03 35.32 609.03 C35.22 609.03 35.14
												 609.02 35.07 609.02 C35.01 609.01 34.95 609 34.91 608.98 C34.87 608.97 34.85 608.95
												 34.83 608.93 C34.81 608.91 34.81 608.88 34.81 608.85 L34.81 604.46 L34.8 604.46
												 L33.23 608.85 C33.22 608.89 33.2 608.91 33.18 608.94 C33.15 608.96 33.12 608.98
												 33.07 609 C33.03 609.01 32.97 609.02 32.91 609.02 C32.84 609.03 32.76 609.03 32.67
												 609.03 C32.57 609.03 32.49 609.03 32.42 609.02 C32.36 609.01 32.3 609 32.26 608.99
												 C32.22 608.97 32.18 608.95 32.16 608.93 C32.13 608.91 32.11 608.88 32.1 608.85 L30.59
												 604.46 L30.58 604.46 L30.58 608.85 C30.58 608.88 30.58 608.91 30.56 608.93 C30.55
												 608.95 30.52 608.97 30.48 608.98 C30.44 609 30.38 609.01 30.32 609.02 C30.25 609.02
												 30.17 609.03 30.06 609.03 C29.96 609.03 29.88 609.02 29.81 609.02 C29.74 609.01
												 29.69 609 29.65 608.98 C29.61 608.97 29.58 608.95 29.57 608.93 C29.55 608.91 29.54
												 608.88 29.54 608.85 L29.54 604.04 C29.54 603.9 29.58 603.79 29.66 603.71 C29.73
												 603.64 29.83 603.6 29.96 603.6 L30.68 603.6 C30.8 603.6 30.91 603.61 31.01 603.63
												 C31.1 603.65 31.18 603.69 31.24 603.74 C31.31 603.79 31.37 603.85 31.41 603.93 C31.45
												 604.01 31.49 604.11 31.53 604.22 L32.7 607.44 L32.71 607.44 L33.92 604.23 C33.96
												 604.11 34 604.02 34.04 603.93 C34.09 603.85 34.14 603.79 34.19 603.74 C34.25 603.69
												 34.32 603.65 34.4 603.63 C34.47 603.61 34.57 603.6 34.67 603.6 L35.41 603.6 C35.48
												 603.6 35.55 603.61 35.6 603.63 C35.66 603.65 35.7 603.68 35.74 603.71 C35.77 603.75
												 35.8 603.8 35.81 603.85 C35.83 603.91 35.84 603.97 35.84 604.04 L35.84 608.85 L35.84
												 608.85 ZM42.65 591.58 C42.65 592.35 42.04 592.97 41.26 592.97 L33.31 592.97 C32.53
												 596.08 32.9 596.46 38.28 596.46 L38.28 597.74 L32.01 597.74 L27.44 597.74 L21.57
												 597.74 L21.57 596.46 C26.4 596.46 27.2 596.08 26.44 592.97 L18.59 592.97 C17.81
												 592.97 17.19 592.35 17.19 591.58 L17.19 576.12 C17.19 575.35 17.81 574.71 18.59
												 574.71 L41.27 574.71 C42.04 574.71 42.66 575.35 42.66 576.12 L42.66 591.58 L42.65
												 591.58 Z" class="st8"/>
								</g>
								<path d="M55.41 565.63 L2.56 565.63 C1.15 565.63 0 566.78 0 568.19 L0 609.44 C0 610.86 1.15 612 2.56
											 612 L55.41 612 C56.83 612 57.96 610.86 57.96 609.44 L57.96 568.19 C57.96 566.78 56.83
											 565.63 55.41 565.63 ZM28.79 604.02 L27.18 608.81 C27.17 608.86 27.15 608.9 27.13 608.93
											 C27.1 608.95 27.07 608.98 27.02 608.99 C26.97 609.01 26.9 609.02 26.81 609.02 C26.73
											 609.03 26.61 609.03 26.48 609.03 C26.36 609.03 26.27 609.03 26.19 609.03 C26.11 609.02
											 26.04 609.02 25.99 609.01 C25.93 609.01 25.88 609 25.85 608.99 C25.82 608.98 25.79 608.96
											 25.76 608.95 C25.74 608.93 25.72 608.91 25.71 608.89 C25.7 608.86 25.68 608.83 25.67
											 608.8 L24.06 604.01 C24.03 603.91 24.01 603.83 24 603.77 C24 603.71 24.01 603.67 24.05
											 603.64 C24.08 603.61 24.14 603.59 24.22 603.58 C24.3 603.58 24.42 603.57 24.57 603.57
											 C24.7 603.57 24.8 603.58 24.87 603.58 C24.95 603.59 25 603.6 25.04 603.61 C25.08 603.62
											 25.11 603.65 25.12 603.67 C25.14 603.7 25.15 603.74 25.17 603.78 L26.48 607.94 L26.48
											 607.94 L27.77 603.8 C27.79 603.75 27.8 603.71 27.82 603.68 C27.83 603.66 27.86 603.63
											 27.9 603.62 C27.94 603.6 28 603.59 28.07 603.58 C28.15 603.58 28.25 603.58 28.38 603.58
											 C28.51 603.58 28.61 603.58 28.68 603.59 C28.75 603.6 28.8 603.62 28.83 603.65 C28.85
											 603.68 28.86 603.72 28.85 603.78 C28.85 603.84 28.83 603.92 28.79 604.02 ZM35.84 608.85
											 C35.84 608.88 35.84 608.91 35.82 608.93 C35.81 608.95 35.78 608.97 35.74 608.98 C35.7
											 609 35.64 609.01 35.58 609.02 C35.51 609.02 35.43 609.03 35.32 609.03 C35.22 609.03
											 35.14 609.02 35.07 609.02 C35.01 609.01 34.95 609 34.91 608.98 C34.87 608.97 34.85 608.95
											 34.83 608.93 C34.81 608.91 34.81 608.88 34.81 608.85 L34.81 604.46 L34.8 604.46 L33.23
											 608.85 C33.22 608.89 33.2 608.91 33.18 608.94 C33.15 608.96 33.12 608.98 33.07 609 C33.03
											 609.01 32.97 609.02 32.91 609.02 C32.84 609.03 32.76 609.03 32.67 609.03 C32.57 609.03
											 32.49 609.03 32.42 609.02 C32.36 609.01 32.3 609 32.26 608.99 C32.22 608.97 32.18 608.95
											 32.16 608.93 C32.13 608.91 32.11 608.88 32.1 608.85 L30.59 604.46 L30.58 604.46 L30.58
											 608.85 C30.58 608.88 30.58 608.91 30.56 608.93 C30.55 608.95 30.52 608.97 30.48 608.98
											 C30.44 609 30.38 609.01 30.32 609.02 C30.25 609.02 30.17 609.03 30.06 609.03 C29.96
											 609.03 29.88 609.02 29.81 609.02 C29.74 609.01 29.69 609 29.65 608.98 C29.61 608.97
											 29.58 608.95 29.57 608.93 C29.55 608.91 29.54 608.88 29.54 608.85 L29.54 604.04 C29.54
											 603.9 29.58 603.79 29.66 603.71 C29.73 603.64 29.83 603.6 29.96 603.6 L30.68 603.6 C30.8
											 603.6 30.91 603.61 31.01 603.63 C31.1 603.65 31.18 603.69 31.24 603.74 C31.31 603.79
											 31.37 603.85 31.41 603.93 C31.45 604.01 31.49 604.11 31.53 604.22 L32.7 607.44 L32.71
											 607.44 L33.92 604.23 C33.96 604.11 34 604.02 34.04 603.93 C34.09 603.85 34.14 603.79
											 34.19 603.74 C34.25 603.69 34.32 603.65 34.4 603.63 C34.47 603.61 34.57 603.6 34.67
											 603.6 L35.41 603.6 C35.48 603.6 35.55 603.61 35.6 603.63 C35.66 603.65 35.7 603.68 35.74
											 603.71 C35.77 603.75 35.8 603.8 35.81 603.85 C35.83 603.91 35.84 603.97 35.84 604.04
											 L35.84 608.85 L35.84 608.85 ZM42.65 591.58 C42.65 592.35 42.04 592.97 41.26 592.97 L33.31
											 592.97 C32.53 596.08 32.9 596.46 38.28 596.46 L38.28 597.74 L32.01 597.74 L27.44 597.74
											 L21.57 597.74 L21.57 596.46 C26.4 596.46 27.2 596.08 26.44 592.97 L18.59 592.97 C17.81
											 592.97 17.19 592.35 17.19 591.58 L17.19 576.12 C17.19 575.35 17.81 574.71 18.59 574.71
											 L41.27 574.71 C42.04 574.71 42.66 575.35 42.66 576.12 L42.66 591.58 L42.65 591.58 Z"
										class="st9"/>
							</g>
						</g>
						<g id="group38-56" transform="translate(0,-54)" v:mID="38" v:groupContext="group">
							<title>Virtual machine.38</title>
							<g id="shape39-57" v:mID="39" v:groupContext="shape" transform="translate(18.9774,-20.8171)">
								<title>Sheet.39</title>
								<g id="shadow39-58" v:groupContext="shadow" v:shadowOffsetX="0.3456" v:shadowOffsetY="-1.9728"
										v:shadowType="1" transform="matrix(1,0,0,1,0.3456,1.9728)" class="st1">
									<path d="M0 612 L21.89 612 L21.89 597.33 L0 597.33 L0 612 ZM15.76 607.72 L11.65 610.09 L11.65
												 605.36 L15.76 602.98 L15.76 607.72 ZM11.27 599.93 L15.39 602.32 L11.3 604.68 L7.17
												 602.31 L11.27 599.93 ZM6.77 602.96 L10.89 605.33 L10.89 610.09 L6.77 607.72 L6.77
												 602.96 Z" class="st8"/>
								</g>
								<path d="M0 612 L21.89 612 L21.89 597.33 L0 597.33 L0 612 ZM15.76 607.72 L11.65 610.09 L11.65 605.36
											 L15.76 602.98 L15.76 607.72 ZM11.27 599.93 L15.39 602.32 L11.3 604.68 L7.17 602.31 L11.27
											 599.93 ZM6.77 602.96 L10.89 605.33 L10.89 610.09 L6.77 607.72 L6.77 602.96 Z"
										class="st9"/>
							</g>
							<g id="shape40-62" v:mID="40" v:groupContext="shape">
								<title>Sheet.40</title>
								<g id="shadow40-63" v:groupContext="shadow" v:shadowOffsetX="0.3456" v:shadowOffsetY="-1.9728"
										v:shadowType="1" transform="matrix(1,0,0,1,0.3456,1.9728)" class="st1">
									<path d="M55.41 565.63 L2.56 565.63 C1.15 565.63 0 566.78 0 568.19 L0 609.44 C0 610.86 1.15 612
												 2.56 612 L55.41 612 C56.83 612 57.96 610.86 57.96 609.44 L57.96 568.19 C57.96 566.78
												 56.83 565.63 55.41 565.63 ZM28.79 604.02 L27.18 608.81 C27.17 608.86 27.15 608.9
												 27.13 608.93 C27.1 608.95 27.07 608.98 27.02 608.99 C26.97 609.01 26.9 609.02 26.81
												 609.02 C26.73 609.03 26.61 609.03 26.48 609.03 C26.36 609.03 26.27 609.03 26.19
												 609.03 C26.11 609.02 26.04 609.02 25.99 609.01 C25.93 609.01 25.88 609 25.85 608.99
												 C25.82 608.98 25.79 608.96 25.76 608.95 C25.74 608.93 25.72 608.91 25.71 608.89
												 C25.7 608.86 25.68 608.83 25.67 608.8 L24.06 604.01 C24.03 603.91 24.01 603.83 24
												 603.77 C24 603.71 24.01 603.67 24.05 603.64 C24.08 603.61 24.14 603.59 24.22 603.58
												 C24.3 603.58 24.42 603.57 24.57 603.57 C24.7 603.57 24.8 603.58 24.87 603.58 C24.95
												 603.59 25 603.6 25.04 603.61 C25.08 603.62 25.11 603.65 25.12 603.67 C25.14 603.7
												 25.15 603.74 25.17 603.78 L26.48 607.94 L26.48 607.94 L27.77 603.8 C27.79 603.75
												 27.8 603.71 27.82 603.68 C27.83 603.66 27.86 603.63 27.9 603.62 C27.94 603.6 28
												 603.59 28.07 603.58 C28.15 603.58 28.25 603.58 28.38 603.58 C28.51 603.58 28.61
												 603.58 28.68 603.59 C28.75 603.6 28.8 603.62 28.83 603.65 C28.85 603.68 28.86 603.72
												 28.85 603.78 C28.85 603.84 28.83 603.92 28.79 604.02 ZM35.84 608.85 C35.84 608.88
												 35.84 608.91 35.82 608.93 C35.81 608.95 35.78 608.97 35.74 608.98 C35.7 609 35.64
												 609.01 35.58 609.02 C35.51 609.02 35.43 609.03 35.32 609.03 C35.22 609.03 35.14
												 609.02 35.07 609.02 C35.01 609.01 34.95 609 34.91 608.98 C34.87 608.97 34.85 608.95
												 34.83 608.93 C34.81 608.91 34.81 608.88 34.81 608.85 L34.81 604.46 L34.8 604.46
												 L33.23 608.85 C33.22 608.89 33.2 608.91 33.18 608.94 C33.15 608.96 33.12 608.98
												 33.07 609 C33.03 609.01 32.97 609.02 32.91 609.02 C32.84 609.03 32.76 609.03 32.67
												 609.03 C32.57 609.03 32.49 609.03 32.42 609.02 C32.36 609.01 32.3 609 32.26 608.99
												 C32.22 608.97 32.18 608.95 32.16 608.93 C32.13 608.91 32.11 608.88 32.1 608.85 L30.59
												 604.46 L30.58 604.46 L30.58 608.85 C30.58 608.88 30.58 608.91 30.56 608.93 C30.55
												 608.95 30.52 608.97 30.48 608.98 C30.44 609 30.38 609.01 30.32 609.02 C30.25 609.02
												 30.17 609.03 30.06 609.03 C29.96 609.03 29.88 609.02 29.81 609.02 C29.74 609.01
												 29.69 609 29.65 608.98 C29.61 608.97 29.58 608.95 29.57 608.93 C29.55 608.91 29.54
												 608.88 29.54 608.85 L29.54 604.04 C29.54 603.9 29.58 603.79 29.66 603.71 C29.73
												 603.64 29.83 603.6 29.96 603.6 L30.68 603.6 C30.8 603.6 30.91 603.61 31.01 603.63
												 C31.1 603.65 31.18 603.69 31.24 603.74 C31.31 603.79 31.37 603.85 31.41 603.93 C31.45
												 604.01 31.49 604.11 31.53 604.22 L32.7 607.44 L32.71 607.44 L33.92 604.23 C33.96
												 604.11 34 604.02 34.04 603.93 C34.09 603.85 34.14 603.79 34.19 603.74 C34.25 603.69
												 34.32 603.65 34.4 603.63 C34.47 603.61 34.57 603.6 34.67 603.6 L35.41 603.6 C35.48
												 603.6 35.55 603.61 35.6 603.63 C35.66 603.65 35.7 603.68 35.74 603.71 C35.77 603.75
												 35.8 603.8 35.81 603.85 C35.83 603.91 35.84 603.97 35.84 604.04 L35.84 608.85 L35.84
												 608.85 ZM42.65 591.58 C42.65 592.35 42.04 592.97 41.26 592.97 L33.31 592.97 C32.53
												 596.08 32.9 596.46 38.28 596.46 L38.28 597.74 L32.01 597.74 L27.44 597.74 L21.57
												 597.74 L21.57 596.46 C26.4 596.46 27.2 596.08 26.44 592.97 L18.59 592.97 C17.81
												 592.97 17.19 592.35 17.19 591.58 L17.19 576.12 C17.19 575.35 17.81 574.71 18.59
												 574.71 L41.27 574.71 C42.04 574.71 42.66 575.35 42.66 576.12 L42.66 591.58 L42.65
												 591.58 Z" class="st8"/>
								</g>
								<path d="M55.41 565.63 L2.56 565.63 C1.15 565.63 0 566.78 0 568.19 L0 609.44 C0 610.86 1.15 612 2.56
											 612 L55.41 612 C56.83 612 57.96 610.86 57.96 609.44 L57.96 568.19 C57.96 566.78 56.83
											 565.63 55.41 565.63 ZM28.79 604.02 L27.18 608.81 C27.17 608.86 27.15 608.9 27.13 608.93
											 C27.1 608.95 27.07 608.98 27.02 608.99 C26.97 609.01 26.9 609.02 26.81 609.02 C26.73
											 609.03 26.61 609.03 26.48 609.03 C26.36 609.03 26.27 609.03 26.19 609.03 C26.11 609.02
											 26.04 609.02 25.99 609.01 C25.93 609.01 25.88 609 25.85 608.99 C25.82 608.98 25.79 608.96
											 25.76 608.95 C25.74 608.93 25.72 608.91 25.71 608.89 C25.7 608.86 25.68 608.83 25.67
											 608.8 L24.06 604.01 C24.03 603.91 24.01 603.83 24 603.77 C24 603.71 24.01 603.67 24.05
											 603.64 C24.08 603.61 24.14 603.59 24.22 603.58 C24.3 603.58 24.42 603.57 24.57 603.57
											 C24.7 603.57 24.8 603.58 24.87 603.58 C24.95 603.59 25 603.6 25.04 603.61 C25.08 603.62
											 25.11 603.65 25.12 603.67 C25.14 603.7 25.15 603.74 25.17 603.78 L26.48 607.94 L26.48
											 607.94 L27.77 603.8 C27.79 603.75 27.8 603.71 27.82 603.68 C27.83 603.66 27.86 603.63
											 27.9 603.62 C27.94 603.6 28 603.59 28.07 603.58 C28.15 603.58 28.25 603.58 28.38 603.58
											 C28.51 603.58 28.61 603.58 28.68 603.59 C28.75 603.6 28.8 603.62 28.83 603.65 C28.85
											 603.68 28.86 603.72 28.85 603.78 C28.85 603.84 28.83 603.92 28.79 604.02 ZM35.84 608.85
											 C35.84 608.88 35.84 608.91 35.82 608.93 C35.81 608.95 35.78 608.97 35.74 608.98 C35.7
											 609 35.64 609.01 35.58 609.02 C35.51 609.02 35.43 609.03 35.32 609.03 C35.22 609.03
											 35.14 609.02 35.07 609.02 C35.01 609.01 34.95 609 34.91 608.98 C34.87 608.97 34.85 608.95
											 34.83 608.93 C34.81 608.91 34.81 608.88 34.81 608.85 L34.81 604.46 L34.8 604.46 L33.23
											 608.85 C33.22 608.89 33.2 608.91 33.18 608.94 C33.15 608.96 33.12 608.98 33.07 609 C33.03
											 609.01 32.97 609.02 32.91 609.02 C32.84 609.03 32.76 609.03 32.67 609.03 C32.57 609.03
											 32.49 609.03 32.42 609.02 C32.36 609.01 32.3 609 32.26 608.99 C32.22 608.97 32.18 608.95
											 32.16 608.93 C32.13 608.91 32.11 608.88 32.1 608.85 L30.59 604.46 L30.58 604.46 L30.58
											 608.85 C30.58 608.88 30.58 608.91 30.56 608.93 C30.55 608.95 30.52 608.97 30.48 608.98
											 C30.44 609 30.38 609.01 30.32 609.02 C30.25 609.02 30.17 609.03 30.06 609.03 C29.96
											 609.03 29.88 609.02 29.81 609.02 C29.74 609.01 29.69 609 29.65 608.98 C29.61 608.97
											 29.58 608.95 29.57 608.93 C29.55 608.91 29.54 608.88 29.54 608.85 L29.54 604.04 C29.54
											 603.9 29.58 603.79 29.66 603.71 C29.73 603.64 29.83 603.6 29.96 603.6 L30.68 603.6 C30.8
											 603.6 30.91 603.61 31.01 603.63 C31.1 603.65 31.18 603.69 31.24 603.74 C31.31 603.79
											 31.37 603.85 31.41 603.93 C31.45 604.01 31.49 604.11 31.53 604.22 L32.7 607.44 L32.71
											 607.44 L33.92 604.23 C33.96 604.11 34 604.02 34.04 603.93 C34.09 603.85 34.14 603.79
											 34.19 603.74 C34.25 603.69 34.32 603.65 34.4 603.63 C34.47 603.61 34.57 603.6 34.67
											 603.6 L35.41 603.6 C35.48 603.6 35.55 603.61 35.6 603.63 C35.66 603.65 35.7 603.68 35.74
											 603.71 C35.77 603.75 35.8 603.8 35.81 603.85 C35.83 603.91 35.84 603.97 35.84 604.04
											 L35.84 608.85 L35.84 608.85 ZM42.65 591.58 C42.65 592.35 42.04 592.97 41.26 592.97 L33.31
											 592.97 C32.53 596.08 32.9 596.46 38.28 596.46 L38.28 597.74 L32.01 597.74 L27.44 597.74
											 L21.57 597.74 L21.57 596.46 C26.4 596.46 27.2 596.08 26.44 592.97 L18.59 592.97 C17.81
											 592.97 17.19 592.35 17.19 591.58 L17.19 576.12 C17.19 575.35 17.81 574.71 18.59 574.71
											 L41.27 574.71 C42.04 574.71 42.66 575.35 42.66 576.12 L42.66 591.58 L42.65 591.58 Z"
										class="st9"/>
							</g>
						</g>
						<g id="group41-67" v:mID="41" v:groupContext="group">
							<title>Virtual machine.41</title>
							<g id="shape42-68" v:mID="42" v:groupContext="shape" transform="translate(18.9774,-20.8171)">
								<title>Sheet.42</title>
								<g id="shadow42-69" v:groupContext="shadow" v:shadowOffsetX="0.3456" v:shadowOffsetY="-1.9728"
										v:shadowType="1" transform="matrix(1,0,0,1,0.3456,1.9728)" class="st1">
									<path d="M0 612 L21.89 612 L21.89 597.33 L0 597.33 L0 612 ZM15.76 607.72 L11.65 610.09 L11.65
												 605.36 L15.76 602.98 L15.76 607.72 ZM11.27 599.93 L15.39 602.32 L11.3 604.68 L7.17
												 602.31 L11.27 599.93 ZM6.77 602.96 L10.89 605.33 L10.89 610.09 L6.77 607.72 L6.77
												 602.96 Z" class="st8"/>
								</g>
								<path d="M0 612 L21.89 612 L21.89 597.33 L0 597.33 L0 612 ZM15.76 607.72 L11.65 610.09 L11.65 605.36
											 L15.76 602.98 L15.76 607.72 ZM11.27 599.93 L15.39 602.32 L11.3 604.68 L7.17 602.31 L11.27
											 599.93 ZM6.77 602.96 L10.89 605.33 L10.89 610.09 L6.77 607.72 L6.77 602.96 Z"
										class="st9"/>
							</g>
							<g id="shape43-73" v:mID="43" v:groupContext="shape">
								<title>Sheet.43</title>
								<g id="shadow43-74" v:groupContext="shadow" v:shadowOffsetX="0.3456" v:shadowOffsetY="-1.9728"
										v:shadowType="1" transform="matrix(1,0,0,1,0.3456,1.9728)" class="st1">
									<path d="M55.41 565.63 L2.56 565.63 C1.15 565.63 0 566.78 0 568.19 L0 609.44 C0 610.86 1.15 612
												 2.56 612 L55.41 612 C56.83 612 57.96 610.86 57.96 609.44 L57.96 568.19 C57.96 566.78
												 56.83 565.63 55.41 565.63 ZM28.79 604.02 L27.18 608.81 C27.17 608.86 27.15 608.9
												 27.13 608.93 C27.1 608.95 27.07 608.98 27.02 608.99 C26.97 609.01 26.9 609.02 26.81
												 609.02 C26.73 609.03 26.61 609.03 26.48 609.03 C26.36 609.03 26.27 609.03 26.19
												 609.03 C26.11 609.02 26.04 609.02 25.99 609.01 C25.93 609.01 25.88 609 25.85 608.99
												 C25.82 608.98 25.79 608.96 25.76 608.95 C25.74 608.93 25.72 608.91 25.71 608.89
												 C25.7 608.86 25.68 608.83 25.67 608.8 L24.06 604.01 C24.03 603.91 24.01 603.83 24
												 603.77 C24 603.71 24.01 603.67 24.05 603.64 C24.08 603.61 24.14 603.59 24.22 603.58
												 C24.3 603.58 24.42 603.57 24.57 603.57 C24.7 603.57 24.8 603.58 24.87 603.58 C24.95
												 603.59 25 603.6 25.04 603.61 C25.08 603.62 25.11 603.65 25.12 603.67 C25.14 603.7
												 25.15 603.74 25.17 603.78 L26.48 607.94 L26.48 607.94 L27.77 603.8 C27.79 603.75
												 27.8 603.71 27.82 603.68 C27.83 603.66 27.86 603.63 27.9 603.62 C27.94 603.6 28
												 603.59 28.07 603.58 C28.15 603.58 28.25 603.58 28.38 603.58 C28.51 603.58 28.61
												 603.58 28.68 603.59 C28.75 603.6 28.8 603.62 28.83 603.65 C28.85 603.68 28.86 603.72
												 28.85 603.78 C28.85 603.84 28.83 603.92 28.79 604.02 ZM35.84 608.85 C35.84 608.88
												 35.84 608.91 35.82 608.93 C35.81 608.95 35.78 608.97 35.74 608.98 C35.7 609 35.64
												 609.01 35.58 609.02 C35.51 609.02 35.43 609.03 35.32 609.03 C35.22 609.03 35.14
												 609.02 35.07 609.02 C35.01 609.01 34.95 609 34.91 608.98 C34.87 608.97 34.85 608.95
												 34.83 608.93 C34.81 608.91 34.81 608.88 34.81 608.85 L34.81 604.46 L34.8 604.46
												 L33.23 608.85 C33.22 608.89 33.2 608.91 33.18 608.94 C33.15 608.96 33.12 608.98
												 33.07 609 C33.03 609.01 32.97 609.02 32.91 609.02 C32.84 609.03 32.76 609.03 32.67
												 609.03 C32.57 609.03 32.49 609.03 32.42 609.02 C32.36 609.01 32.3 609 32.26 608.99
												 C32.22 608.97 32.18 608.95 32.16 608.93 C32.13 608.91 32.11 608.88 32.1 608.85 L30.59
												 604.46 L30.58 604.46 L30.58 608.85 C30.58 608.88 30.58 608.91 30.56 608.93 C30.55
												 608.95 30.52 608.97 30.48 608.98 C30.44 609 30.38 609.01 30.32 609.02 C30.25 609.02
												 30.17 609.03 30.06 609.03 C29.96 609.03 29.88 609.02 29.81 609.02 C29.74 609.01
												 29.69 609 29.65 608.98 C29.61 608.97 29.58 608.95 29.57 608.93 C29.55 608.91 29.54
												 608.88 29.54 608.85 L29.54 604.04 C29.54 603.9 29.58 603.79 29.66 603.71 C29.73
												 603.64 29.83 603.6 29.96 603.6 L30.68 603.6 C30.8 603.6 30.91 603.61 31.01 603.63
												 C31.1 603.65 31.18 603.69 31.24 603.74 C31.31 603.79 31.37 603.85 31.41 603.93 C31.45
												 604.01 31.49 604.11 31.53 604.22 L32.7 607.44 L32.71 607.44 L33.92 604.23 C33.96
												 604.11 34 604.02 34.04 603.93 C34.09 603.85 34.14 603.79 34.19 603.74 C34.25 603.69
												 34.32 603.65 34.4 603.63 C34.47 603.61 34.57 603.6 34.67 603.6 L35.41 603.6 C35.48
												 603.6 35.55 603.61 35.6 603.63 C35.66 603.65 35.7 603.68 35.74 603.71 C35.77 603.75
												 35.8 603.8 35.81 603.85 C35.83 603.91 35.84 603.97 35.84 604.04 L35.84 608.85 L35.84
												 608.85 ZM42.65 591.58 C42.65 592.35 42.04 592.97 41.26 592.97 L33.31 592.97 C32.53
												 596.08 32.9 596.46 38.28 596.46 L38.28 597.74 L32.01 597.74 L27.44 597.74 L21.57
												 597.74 L21.57 596.46 C26.4 596.46 27.2 596.08 26.44 592.97 L18.59 592.97 C17.81
												 592.97 17.19 592.35 17.19 591.58 L17.19 576.12 C17.19 575.35 17.81 574.71 18.59
												 574.71 L41.27 574.71 C42.04 574.71 42.66 575.35 42.66 576.12 L42.66 591.58 L42.65
												 591.58 Z" class="st8"/>
								</g>
								<path d="M55.41 565.63 L2.56 565.63 C1.15 565.63 0 566.78 0 568.19 L0 609.44 C0 610.86 1.15 612 2.56
											 612 L55.41 612 C56.83 612 57.96 610.86 57.96 609.44 L57.96 568.19 C57.96 566.78 56.83
											 565.63 55.41 565.63 ZM28.79 604.02 L27.18 608.81 C27.17 608.86 27.15 608.9 27.13 608.93
											 C27.1 608.95 27.07 608.98 27.02 608.99 C26.97 609.01 26.9 609.02 26.81 609.02 C26.73
											 609.03 26.61 609.03 26.48 609.03 C26.36 609.03 26.27 609.03 26.19 609.03 C26.11 609.02
											 26.04 609.02 25.99 609.01 C25.93 609.01 25.88 609 25.85 608.99 C25.82 608.98 25.79 608.96
											 25.76 608.95 C25.74 608.93 25.72 608.91 25.71 608.89 C25.7 608.86 25.68 608.83 25.67
											 608.8 L24.06 604.01 C24.03 603.91 24.01 603.83 24 603.77 C24 603.71 24.01 603.67 24.05
											 603.64 C24.08 603.61 24.14 603.59 24.22 603.58 C24.3 603.58 24.42 603.57 24.57 603.57
											 C24.7 603.57 24.8 603.58 24.87 603.58 C24.95 603.59 25 603.6 25.04 603.61 C25.08 603.62
											 25.11 603.65 25.12 603.67 C25.14 603.7 25.15 603.74 25.17 603.78 L26.48 607.94 L26.48
											 607.94 L27.77 603.8 C27.79 603.75 27.8 603.71 27.82 603.68 C27.83 603.66 27.86 603.63
											 27.9 603.62 C27.94 603.6 28 603.59 28.07 603.58 C28.15 603.58 28.25 603.58 28.38 603.58
											 C28.51 603.58 28.61 603.58 28.68 603.59 C28.75 603.6 28.8 603.62 28.83 603.65 C28.85
											 603.68 28.86 603.72 28.85 603.78 C28.85 603.84 28.83 603.92 28.79 604.02 ZM35.84 608.85
											 C35.84 608.88 35.84 608.91 35.82 608.93 C35.81 608.95 35.78 608.97 35.74 608.98 C35.7
											 609 35.64 609.01 35.58 609.02 C35.51 609.02 35.43 609.03 35.32 609.03 C35.22 609.03
											 35.14 609.02 35.07 609.02 C35.01 609.01 34.95 609 34.91 608.98 C34.87 608.97 34.85 608.95
											 34.83 608.93 C34.81 608.91 34.81 608.88 34.81 608.85 L34.81 604.46 L34.8 604.46 L33.23
											 608.85 C33.22 608.89 33.2 608.91 33.18 608.94 C33.15 608.96 33.12 608.98 33.07 609 C33.03
											 609.01 32.97 609.02 32.91 609.02 C32.84 609.03 32.76 609.03 32.67 609.03 C32.57 609.03
											 32.49 609.03 32.42 609.02 C32.36 609.01 32.3 609 32.26 608.99 C32.22 608.97 32.18 608.95
											 32.16 608.93 C32.13 608.91 32.11 608.88 32.1 608.85 L30.59 604.46 L30.58 604.46 L30.58
											 608.85 C30.58 608.88 30.58 608.91 30.56 608.93 C30.55 608.95 30.52 608.97 30.48 608.98
											 C30.44 609 30.38 609.01 30.32 609.02 C30.25 609.02 30.17 609.03 30.06 609.03 C29.96
											 609.03 29.88 609.02 29.81 609.02 C29.74 609.01 29.69 609 29.65 608.98 C29.61 608.97
											 29.58 608.95 29.57 608.93 C29.55 608.91 29.54 608.88 29.54 608.85 L29.54 604.04 C29.54
											 603.9 29.58 603.79 29.66 603.71 C29.73 603.64 29.83 603.6 29.96 603.6 L30.68 603.6 C30.8
											 603.6 30.91 603.61 31.01 603.63 C31.1 603.65 31.18 603.69 31.24 603.74 C31.31 603.79
											 31.37 603.85 31.41 603.93 C31.45 604.01 31.49 604.11 31.53 604.22 L32.7 607.44 L32.71
											 607.44 L33.92 604.23 C33.96 604.11 34 604.02 34.04 603.93 C34.09 603.85 34.14 603.79
											 34.19 603.74 C34.25 603.69 34.32 603.65 34.4 603.63 C34.47 603.61 34.57 603.6 34.67
											 603.6 L35.41 603.6 C35.48 603.6 35.55 603.61 35.6 603.63 C35.66 603.65 35.7 603.68 35.74
											 603.71 C35.77 603.75 35.8 603.8 35.81 603.85 C35.83 603.91 35.84 603.97 35.84 604.04
											 L35.84 608.85 L35.84 608.85 ZM42.65 591.58 C42.65 592.35 42.04 592.97 41.26 592.97 L33.31
											 592.97 C32.53 596.08 32.9 596.46 38.28 596.46 L38.28 597.74 L32.01 597.74 L27.44 597.74
											 L21.57 597.74 L21.57 596.46 C26.4 596.46 27.2 596.08 26.44 592.97 L18.59 592.97 C17.81
											 592.97 17.19 592.35 17.19 591.58 L17.19 576.12 C17.19 575.35 17.81 574.71 18.59 574.71
											 L41.27 574.71 C42.04 574.71 42.66 575.35 42.66 576.12 L42.66 591.58 L42.65 591.58 Z"
										class="st9"/>
							</g>
						</g>
					</g>
					<g id="shape60-78" v:mID="60" v:groupContext="shape" transform="translate(669.725,186.663) rotate(59.7947)">
						<title>Sheet.60</title>
						<path d="M0 612 L55.95 612" class="st11"/>
					</g>
					<g id="shape61-83" v:mID="61" v:groupContext="shape" transform="translate(-385.887,182.909) rotate(-59.3872)">
						<title>Sheet.61</title>
						<path d="M0 612 L55.19 612" class="st11"/>
					</g>
					<g id="shape62-88" v:mID="62" v:groupContext="shape" transform="translate(149.311,-117.381) rotate(0.795158)">
						<title>Sheet.62</title>
						<path d="M0 612 L24.65 612" class="st11"/>
					</g>
				</g>
			</g>
			<g id="shape16-93" v:mID="16" v:groupContext="shape" v:layerMember="0" transform="translate(81.6409,-108.44)">
				<title>Dynamic connector</title>
				<path d="M0 603 L65.24 603" class="st11"/>
			</g>
			<g id="group20-98" transform="translate(3.39851,-85.7716)" v:mID="20" v:groupContext="group">
				<title>Sheet.20</title>
				<g id="group21-99" v:mID="21" v:groupContext="group">
					<title>Sheet.21</title>
					<g id="shape22-100" v:mID="22" v:groupContext="shape">
						<title>Rounded Rectangle.150</title>
						<v:userDefs>
							<v:ud v:nameU="CTypeTopLeftSnip" v:prompt="" v:val="VT0(0):5"/>
							<v:ud v:nameU="CTypeTopRightSnip" v:prompt="" v:val="VT0(0):5"/>
							<v:ud v:nameU="CTypeBotLeftSnip" v:prompt="" v:val="VT0(0):5"/>
							<v:ud v:nameU="CTypeBotRightSnip" v:prompt="" v:val="VT0(0):5"/>
							<v:ud v:nameU="CornerLockHoriz" v:prompt="" v:val="VT0(1):5"/>
							<v:ud v:nameU="CornerLockVert" v:prompt="" v:val="VT0(1):5"/>
							<v:ud v:nameU="CornerLockDiag" v:prompt="" v:val="VT0(0):5"/>
							<v:ud v:nameU="TopLeftOffset" v:prompt="" v:val="VT0(0.15748031496063):24"/>
							<v:ud v:nameU="TopRightOffset" v:prompt="" v:val="VT0(0.15748031496063):24"/>
							<v:ud v:nameU="BotLeftOffset" v:prompt="" v:val="VT0(0.15748031496063):24"/>
							<v:ud v:nameU="BotRightOffset" v:prompt="" v:val="VT0(0.15748031496063):24"/>
							<v:ud v:nameU="visVersion" v:prompt="" v:val="VT0(15):26"/>
							<v:ud v:nameU="TopLeftOffset" v:prompt="" v:val="VT0(0.10866993968937):1"/>
							<v:ud v:nameU="TopRightOffset" v:prompt="" v:val="VT0(0.10866993968937):1"/>
							<v:ud v:nameU="BotLeftOffset" v:prompt="" v:val="VT0(0.10866993968937):1"/>
							<v:ud v:nameU="BotRightOffset" v:prompt="" v:val="VT0(0.10866993968937):1"/>
						</v:userDefs>
						<g id="shadow22-101" v:groupContext="shadow" v:shadowOffsetX="0.345598" v:shadowOffsetY="-1.97279"
								v:shadowType="1" transform="matrix(1,0,0,1,0.345598,1.97279)" class="st1">
							<path d="M7.82 612 L70.42 612 A7.82411 7.82411 -180 0 0 78.24 604.18 L78.24 556.49 A7.82411 7.82411 -180
										 0 0 70.42 548.66 L7.82 548.66 A7.82411 7.82411 -180 0 0 0 556.49 L0 604.18 A7.82411 7.82411
										 -180 0 0 7.82 612 Z" class="st13"/>
						</g>
						<path d="M7.82 612 L70.42 612 A7.82411 7.82411 -180 0 0 78.24 604.18 L78.24 556.49 A7.82411 7.82411 -180
									 0 0 70.42 548.66 L7.82 548.66 A7.82411 7.82411 -180 0 0 0 556.49 L0 604.18 A7.82411 7.82411
									 -180 0 0 7.82 612 Z" class="st14"/>
					</g>
				</g>
				<g id="shape23-105" v:mID="23" v:groupContext="shape" transform="translate(171.054,7.42703) rotate(15)">
					<title>Automation.249</title>
					<g id="shadow23-106" v:groupContext="shadow" v:shadowOffsetX="0.3456" v:shadowOffsetY="-1.9728"
							v:shadowType="1" transform="matrix(1,0,0,1,0.844422,1.81613)" class="st1">
						<path d="M4.99 572.88 L4.46 575.78 L3.54 580.83 L3.11 583.25 L2.72 585.37 L0.06 600 C0 600.28 0.08 600.52
									 0.27 600.52 L2.73 600.52 C2.81 600.52 2.87 600.56 2.9 600.62 C2.96 600.72 2.97 600.87 2.94 601.02
									 L0.4 611.66 C0.33 611.94 0.37 612 0.49 611.76 L8.53 596.03 C8.64 595.78 8.59 595.6 8.42 595.6
									 L5.78 595.63 L5.3 595.64 C5.12 595.64 5.04 595.43 5.14 595.16 L7.64 587.45 L8.24 585.61 L8.92
									 583.49 L10.38 579.03 L11.21 576.42 C9.34 574.55 7.24 573.31 4.99 572.88 Z" class="st8"/>
					</g>
					<path d="M4.99 572.88 L4.46 575.78 L3.54 580.83 L3.11 583.25 L2.72 585.37 L0.06 600 C0 600.28 0.08 600.52 0.27
								 600.52 L2.73 600.52 C2.81 600.52 2.87 600.56 2.9 600.62 C2.96 600.72 2.97 600.87 2.94 601.02 L0.4
								 611.66 C0.33 611.94 0.37 612 0.49 611.76 L8.53 596.03 C8.64 595.78 8.59 595.6 8.42 595.6 L5.78 595.63
								 L5.3 595.64 C5.12 595.64 5.04 595.43 5.14 595.16 L7.64 587.45 L8.24 585.61 L8.92 583.49 L10.38 579.03
								 L11.21 576.42 C9.34 574.55 7.24 573.31 4.99 572.88 Z" class="st15"/>
				</g>
				<g id="shape24-110" v:mID="24" v:groupContext="shape" transform="translate(203.56,7.80052) rotate(15)">
					<title>Automation.251</title>
					<g id="shadow24-111" v:groupContext="shadow" v:shadowOffsetX="0.3456" v:shadowOffsetY="-1.9728"
							v:shadowType="1" transform="matrix(1,0,0,1,0.844422,1.81613)" class="st1">
						<path d="M4.99 572.88 L4.46 575.78 L3.54 580.83 L3.11 583.25 L2.72 585.37 L0.06 600 C0 600.28 0.08 600.52
									 0.27 600.52 L2.73 600.52 C2.81 600.52 2.87 600.56 2.9 600.62 C2.96 600.72 2.97 600.87 2.94 601.02
									 L0.4 611.66 C0.33 611.94 0.37 612 0.49 611.76 L8.53 596.03 C8.64 595.78 8.59 595.6 8.42 595.6
									 L5.78 595.63 L5.3 595.64 C5.12 595.64 5.04 595.43 5.14 595.16 L7.64 587.45 L8.24 585.61 L8.92
									 583.49 L10.38 579.03 L11.21 576.42 C9.34 574.55 7.24 573.31 4.99 572.88 Z" class="st8"/>
					</g>
					<path d="M4.99 572.88 L4.46 575.78 L3.54 580.83 L3.11 583.25 L2.72 585.37 L0.06 600 C0 600.28 0.08 600.52 0.27
								 600.52 L2.73 600.52 C2.81 600.52 2.87 600.56 2.9 600.62 C2.96 600.72 2.97 600.87 2.94 601.02 L0.4
								 611.66 C0.33 611.94 0.37 612 0.49 611.76 L8.53 596.03 C8.64 595.78 8.59 595.6 8.42 595.6 L5.78 595.63
								 L5.3 595.64 C5.12 595.64 5.04 595.43 5.14 595.16 L7.64 587.45 L8.24 585.61 L8.92 583.49 L10.38 579.03
								 L11.21 576.42 C9.34 574.55 7.24 573.31 4.99 572.88 Z" class="st15"/>
				</g>
				<g id="shape25-115" v:mID="25" v:groupContext="shape" transform="translate(187.307,7.80052) rotate(15)">
					<title>Automation.252</title>
					<g id="shadow25-116" v:groupContext="shadow" v:shadowOffsetX="0.3456" v:shadowOffsetY="-1.9728"
							v:shadowType="1" transform="matrix(1,0,0,1,0.844422,1.81613)" class="st1">
						<path d="M4.99 572.88 L4.46 575.78 L3.54 580.83 L3.11 583.25 L2.72 585.37 L0.06 600 C0 600.28 0.08 600.52
									 0.27 600.52 L2.73 600.52 C2.81 600.52 2.87 600.56 2.9 600.62 C2.96 600.72 2.97 600.87 2.94 601.02
									 L0.4 611.66 C0.33 611.94 0.37 612 0.49 611.76 L8.53 596.03 C8.64 595.78 8.59 595.6 8.42 595.6
									 L5.78 595.63 L5.3 595.64 C5.12 595.64 5.04 595.43 5.14 595.16 L7.64 587.45 L8.24 585.61 L8.92
									 583.49 L10.38 579.03 L11.21 576.42 C9.34 574.55 7.24 573.31 4.99 572.88 Z" class="st8"/>
					</g>
					<path d="M4.99 572.88 L4.46 575.78 L3.54 580.83 L3.11 583.25 L2.72 585.37 L0.06 600 C0 600.28 0.08 600.52 0.27
								 600.52 L2.73 600.52 C2.81 600.52 2.87 600.56 2.9 600.62 C2.96 600.72 2.97 600.87 2.94 601.02 L0.4
								 611.66 C0.33 611.94 0.37 612 0.49 611.76 L8.53 596.03 C8.64 595.78 8.59 595.6 8.42 595.6 L5.78 595.63
								 L5.3 595.64 C5.12 595.64 5.04 595.43 5.14 595.16 L7.64 587.45 L8.24 585.61 L8.92 583.49 L10.38 579.03
								 L11.21 576.42 C9.34 574.55 7.24 573.31 4.99 572.88 Z" class="st15"/>
				</g>
			</g>
			<g id="shape26-120" v:mID="26" v:groupContext="shape" transform="translate(3.19744E-14,-60.356)">
				<title>Sheet.26</title>
				<desc>Event Hubs</desc>
				<v:textBlock v:margins="rect(4,4,4,4)"/>
				<v:textRect cx="42.5197" cy="602" width="85.04" height="20"/>
				<rect x="0" y="592" width="85.0394" height="20" class="st5"/>
				<text x="17.28" y="605.3" class="st6" v:langID="1033"><v:paragraph v:horizAlign="1"/><v:tabList/>Event Hubs</text>			</g>
			<g id="shape29-123" v:mID="29" v:groupContext="shape" transform="translate(85.5374,-117.608)">
				<title>Sheet.29</title>
				<desc>Raw event data</desc>
				<v:textBlock v:margins="rect(4,4,4,4)"/>
				<v:textRect cx="28.9823" cy="596.25" width="57.97" height="31.5"/>
				<rect x="0" y="580.5" width="57.9645" height="31.5" class="st5"/>
				<text x="7.63" y="593.25" class="st16" v:langID="1033"><v:paragraph v:horizAlign="1"/><v:tabList/>Raw event <tspan
							x="19.89" dy="1.2em" class="st7">data</tspan></text>			</g>
		</g>
	</g>
</svg>
