<?xml version="1.0" encoding="UTF-8" standalone="no"?>
<!DOCTYPE svg PUBLIC "-//W3C//DTD SVG 1.1//EN" "http://www.w3.org/Graphics/SVG/1.1/DTD/svg11.dtd">
<!-- Generated by Microsoft Visio, SVG Export logical-architecture.svg Page-1 -->
<svg xmlns="http://www.w3.org/2000/svg" xmlns:xlink="http://www.w3.org/1999/xlink" xmlns:ev="http://www.w3.org/2001/xml-events"
		xmlns:v="http://schemas.microsoft.com/visio/2003/SVGExtensions/" width="11.6929in" height="8.26772in"
		viewBox="0 0 841.89 595.276" xml:space="preserve" color-interpolation-filters="sRGB" class="st10">
	<v:documentProperties v:langID="1033" v:metric="true" v:viewMarkup="false">
		<v:userDefs>
			<v:ud v:nameU="msvSubprocessMaster" v:prompt="" v:val="VT4(Rectangle)"/>
			<v:ud v:nameU="msvNoAutoConnect" v:val="VT0(1):26"/>
		</v:userDefs>
	</v:documentProperties>

	<style type="text/css">
	<![CDATA[
		.st1 {visibility:visible}
		.st2 {fill:#5b9bd5;fill-opacity:0.22;filter:url(#filter_2);stroke:#5b9bd5;stroke-opacity:0.22}
		.st3 {fill:#0070c0;stroke:#c7c8c8;stroke-width:0.25}
		.st4 {fill:#feffff;font-family:Calibri;font-size:1.5em}
		.st5 {font-size:1em}
		.st6 {marker-end:url(#mrkr4-100);stroke:#000000;stroke-linecap:round;stroke-linejoin:round;stroke-width:3}
		.st7 {fill:#000000;fill-opacity:1;stroke:#000000;stroke-opacity:1;stroke-width:0.54347826086957}
		.st8 {marker-end:url(#mrkr4-106);stroke:#000000;stroke-linecap:round;stroke-linejoin:round;stroke-width:3}
		.st9 {marker-end:url(#mrkr13-140);marker-start:url(#mrkr13-138);stroke:#000000;stroke-linecap:round;stroke-linejoin:round;stroke-width:3}
		.st10 {fill:none;fill-rule:evenodd;font-size:12px;overflow:visible;stroke-linecap:square;stroke-miterlimit:3}
	]]>
	</style>

	<defs id="Markers">
		<g id="lend4">
			<path d="M 2 1 L 0 0 L 2 -1 L 2 1 " style="stroke:none"/>
		</g>
		<marker id="mrkr4-100" class="st7" v:arrowType="4" v:arrowSize="2" v:setback="3.56" refX="-3.56" orient="auto"
				markerUnits="strokeWidth" overflow="visible">
			<use xlink:href="#lend4" transform="scale(-1.84,-1.84) "/>
		</marker>
		<marker id="mrkr4-106" class="st7" v:arrowType="4" v:arrowSize="2" v:setback="3.68" refX="-3.68" orient="auto"
				markerUnits="strokeWidth" overflow="visible">
			<use xlink:href="#lend4" transform="scale(-1.84,-1.84) "/>
		</marker>
		<g id="lend13">
			<path d="M 3 1 L 0 0 L 3 -1 L 3 1 " style="stroke:none"/>
		</g>
		<marker id="mrkr13-138" class="st7" v:arrowType="13" v:arrowSize="2" v:setback="5.4" refX="5.4" orient="auto"
				markerUnits="strokeWidth" overflow="visible">
			<use xlink:href="#lend13" transform="scale(1.84) "/>
		</marker>
		<marker id="mrkr13-140" class="st7" v:arrowType="13" v:arrowSize="2" v:setback="5.4" refX="-5.4" orient="auto"
				markerUnits="strokeWidth" overflow="visible">
			<use xlink:href="#lend13" transform="scale(-1.84,-1.84) "/>
		</marker>
	</defs>
	<defs id="Filters">
		<filter id="filter_2">
			<feGaussianBlur stdDeviation="2"/>
		</filter>
	</defs>
	<g v:mID="0" v:index="1" v:groupContext="foregroundPage">
		<v:userDefs>
			<v:ud v:nameU="msvThemeOrder" v:val="VT0(0):26"/>
		</v:userDefs>
		<title>Page-1</title>
		<v:pageProperties v:drawingScale="0.0393701" v:pageScale="0.0393701" v:drawingUnits="24" v:shadowOffsetX="8.50394"
				v:shadowOffsetY="-8.50394"/>
		<v:layer v:name="Connector" v:index="0"/>
		<g id="shape1-1" v:mID="1" v:groupContext="shape" transform="translate(42.5197,-510.236)">
			<title>Rounded Rectangle</title>
			<v:userDefs>
				<v:ud v:nameU="CTypeTopLeftSnip" v:prompt="" v:val="VT0(0):5"/>
				<v:ud v:nameU="CTypeTopRightSnip" v:prompt="" v:val="VT0(0):5"/>
				<v:ud v:nameU="CTypeBotLeftSnip" v:prompt="" v:val="VT0(0):5"/>
				<v:ud v:nameU="CTypeBotRightSnip" v:prompt="" v:val="VT0(0):5"/>
				<v:ud v:nameU="CornerLockHoriz" v:prompt="" v:val="VT0(1):5"/>
				<v:ud v:nameU="CornerLockVert" v:prompt="" v:val="VT0(1):5"/>
				<v:ud v:nameU="CornerLockDiag" v:prompt="" v:val="VT0(0):5"/>
				<v:ud v:nameU="TopLeftOffset" v:prompt="" v:val="VT0(0.15748031496063):24"/>
				<v:ud v:nameU="TopRightOffset" v:prompt="" v:val="VT0(0.15748031496063):24"/>
				<v:ud v:nameU="BotLeftOffset" v:prompt="" v:val="VT0(0.15748031496063):24"/>
				<v:ud v:nameU="BotRightOffset" v:prompt="" v:val="VT0(0.15748031496063):24"/>
				<v:ud v:nameU="visVersion" v:prompt="" v:val="VT0(15):26"/>
				<v:ud v:nameU="TopLeftOffset" v:prompt="" v:val="VT0(0.11811023622047):1"/>
				<v:ud v:nameU="TopRightOffset" v:prompt="" v:val="VT0(0.11811023622047):1"/>
				<v:ud v:nameU="BotLeftOffset" v:prompt="" v:val="VT0(0.11811023622047):1"/>
				<v:ud v:nameU="BotRightOffset" v:prompt="" v:val="VT0(0.11811023622047):1"/>
			</v:userDefs>
			<g id="shadow1-2" v:groupContext="shadow" v:shadowOffsetX="0.345598" v:shadowOffsetY="-1.97279" v:shadowType="1"
					transform="matrix(1,0,0,1,0.345598,1.97279)" class="st1">
				<path d="M8.5 595.28 L76.54 595.28 A8.5038 8.5038 -180 0 0 85.04 586.77 L85.04 561.26 A8.5038 8.5038 -180 0 0 76.54
							 552.76 L8.5 552.76 A8.5038 8.5038 -180 0 0 0 561.26 L0 586.77 A8.5038 8.5038 -180 0 0 8.5 595.28 Z"
						class="st2"/>
			</g>
			<path d="M8.5 595.28 L76.54 595.28 A8.5038 8.5038 -180 0 0 85.04 586.77 L85.04 561.26 A8.5038 8.5038 -180 0 0 76.54 552.76
						 L8.5 552.76 A8.5038 8.5038 -180 0 0 0 561.26 L0 586.77 A8.5038 8.5038 -180 0 0 8.5 595.28 Z" class="st3"/>
		</g>
		<g id="shape2-6" v:mID="2" v:groupContext="shape" transform="translate(53.8583,-496.063)">
			<title>Rounded Rectangle.2</title>
			<v:userDefs>
				<v:ud v:nameU="CTypeTopLeftSnip" v:prompt="" v:val="VT0(0):5"/>
				<v:ud v:nameU="CTypeTopRightSnip" v:prompt="" v:val="VT0(0):5"/>
				<v:ud v:nameU="CTypeBotLeftSnip" v:prompt="" v:val="VT0(0):5"/>
				<v:ud v:nameU="CTypeBotRightSnip" v:prompt="" v:val="VT0(0):5"/>
				<v:ud v:nameU="CornerLockHoriz" v:prompt="" v:val="VT0(1):5"/>
				<v:ud v:nameU="CornerLockVert" v:prompt="" v:val="VT0(1):5"/>
				<v:ud v:nameU="CornerLockDiag" v:prompt="" v:val="VT0(0):5"/>
				<v:ud v:nameU="TopLeftOffset" v:prompt="" v:val="VT0(0.15748031496063):24"/>
				<v:ud v:nameU="TopRightOffset" v:prompt="" v:val="VT0(0.15748031496063):24"/>
				<v:ud v:nameU="BotLeftOffset" v:prompt="" v:val="VT0(0.15748031496063):24"/>
				<v:ud v:nameU="BotRightOffset" v:prompt="" v:val="VT0(0.15748031496063):24"/>
				<v:ud v:nameU="visVersion" v:prompt="" v:val="VT0(15):26"/>
				<v:ud v:nameU="TopLeftOffset" v:prompt="" v:val="VT0(0.11811023622047):1"/>
				<v:ud v:nameU="TopRightOffset" v:prompt="" v:val="VT0(0.11811023622047):1"/>
				<v:ud v:nameU="BotLeftOffset" v:prompt="" v:val="VT0(0.11811023622047):1"/>
				<v:ud v:nameU="BotRightOffset" v:prompt="" v:val="VT0(0.11811023622047):1"/>
			</v:userDefs>
			<g id="shadow2-7" v:groupContext="shadow" v:shadowOffsetX="0.345598" v:shadowOffsetY="-1.97279" v:shadowType="1"
					transform="matrix(1,0,0,1,0.345598,1.97279)" class="st1">
				<path d="M8.5 595.28 L76.54 595.28 A8.5038 8.5038 -180 0 0 85.04 586.77 L85.04 561.26 A8.5038 8.5038 -180 0 0 76.54
							 552.76 L8.5 552.76 A8.5038 8.5038 -180 0 0 0 561.26 L0 586.77 A8.5038 8.5038 -180 0 0 8.5 595.28 Z"
						class="st2"/>
			</g>
			<path d="M8.5 595.28 L76.54 595.28 A8.5038 8.5038 -180 0 0 85.04 586.77 L85.04 561.26 A8.5038 8.5038 -180 0 0 76.54 552.76
						 L8.5 552.76 A8.5038 8.5038 -180 0 0 0 561.26 L0 586.77 A8.5038 8.5038 -180 0 0 8.5 595.28 Z" class="st3"/>
		</g>
		<g id="shape3-11" v:mID="3" v:groupContext="shape" transform="translate(65.1969,-481.89)">
			<title>Rounded Rectangle.3</title>
			<v:userDefs>
				<v:ud v:nameU="CTypeTopLeftSnip" v:prompt="" v:val="VT0(0):5"/>
				<v:ud v:nameU="CTypeTopRightSnip" v:prompt="" v:val="VT0(0):5"/>
				<v:ud v:nameU="CTypeBotLeftSnip" v:prompt="" v:val="VT0(0):5"/>
				<v:ud v:nameU="CTypeBotRightSnip" v:prompt="" v:val="VT0(0):5"/>
				<v:ud v:nameU="CornerLockHoriz" v:prompt="" v:val="VT0(1):5"/>
				<v:ud v:nameU="CornerLockVert" v:prompt="" v:val="VT0(1):5"/>
				<v:ud v:nameU="CornerLockDiag" v:prompt="" v:val="VT0(0):5"/>
				<v:ud v:nameU="TopLeftOffset" v:prompt="" v:val="VT0(0.15748031496063):24"/>
				<v:ud v:nameU="TopRightOffset" v:prompt="" v:val="VT0(0.15748031496063):24"/>
				<v:ud v:nameU="BotLeftOffset" v:prompt="" v:val="VT0(0.15748031496063):24"/>
				<v:ud v:nameU="BotRightOffset" v:prompt="" v:val="VT0(0.15748031496063):24"/>
				<v:ud v:nameU="visVersion" v:prompt="" v:val="VT0(15):26"/>
				<v:ud v:nameU="TopLeftOffset" v:prompt="" v:val="VT0(0.11811023622047):1"/>
				<v:ud v:nameU="TopRightOffset" v:prompt="" v:val="VT0(0.11811023622047):1"/>
				<v:ud v:nameU="BotLeftOffset" v:prompt="" v:val="VT0(0.11811023622047):1"/>
				<v:ud v:nameU="BotRightOffset" v:prompt="" v:val="VT0(0.11811023622047):1"/>
			</v:userDefs>
			<g id="shadow3-12" v:groupContext="shadow" v:shadowOffsetX="0.345598" v:shadowOffsetY="-1.97279" v:shadowType="1"
					transform="matrix(1,0,0,1,0.345598,1.97279)" class="st1">
				<path d="M8.5 595.28 L76.54 595.28 A8.5038 8.5038 -180 0 0 85.04 586.77 L85.04 561.26 A8.5038 8.5038 -180 0 0 76.54
							 552.76 L8.5 552.76 A8.5038 8.5038 -180 0 0 0 561.26 L0 586.77 A8.5038 8.5038 -180 0 0 8.5 595.28 Z"
						class="st2"/>
			</g>
			<path d="M8.5 595.28 L76.54 595.28 A8.5038 8.5038 -180 0 0 85.04 586.77 L85.04 561.26 A8.5038 8.5038 -180 0 0 76.54 552.76
						 L8.5 552.76 A8.5038 8.5038 -180 0 0 0 561.26 L0 586.77 A8.5038 8.5038 -180 0 0 8.5 595.28 Z" class="st3"/>
		</g>
		<g id="shape4-16" v:mID="4" v:groupContext="shape" transform="translate(79.3701,-467.717)">
			<title>Rounded Rectangle.4</title>
			<desc>Devices</desc>
			<v:userDefs>
				<v:ud v:nameU="CTypeTopLeftSnip" v:prompt="" v:val="VT0(0):5"/>
				<v:ud v:nameU="CTypeTopRightSnip" v:prompt="" v:val="VT0(0):5"/>
				<v:ud v:nameU="CTypeBotLeftSnip" v:prompt="" v:val="VT0(0):5"/>
				<v:ud v:nameU="CTypeBotRightSnip" v:prompt="" v:val="VT0(0):5"/>
				<v:ud v:nameU="CornerLockHoriz" v:prompt="" v:val="VT0(1):5"/>
				<v:ud v:nameU="CornerLockVert" v:prompt="" v:val="VT0(1):5"/>
				<v:ud v:nameU="CornerLockDiag" v:prompt="" v:val="VT0(0):5"/>
				<v:ud v:nameU="TopLeftOffset" v:prompt="" v:val="VT0(0.15748031496063):24"/>
				<v:ud v:nameU="TopRightOffset" v:prompt="" v:val="VT0(0.15748031496063):24"/>
				<v:ud v:nameU="BotLeftOffset" v:prompt="" v:val="VT0(0.15748031496063):24"/>
				<v:ud v:nameU="BotRightOffset" v:prompt="" v:val="VT0(0.15748031496063):24"/>
				<v:ud v:nameU="visVersion" v:prompt="" v:val="VT0(15):26"/>
				<v:ud v:nameU="TopLeftOffset" v:prompt="" v:val="VT0(0.11811023622047):1"/>
				<v:ud v:nameU="TopRightOffset" v:prompt="" v:val="VT0(0.11811023622047):1"/>
				<v:ud v:nameU="BotLeftOffset" v:prompt="" v:val="VT0(0.11811023622047):1"/>
				<v:ud v:nameU="BotRightOffset" v:prompt="" v:val="VT0(0.11811023622047):1"/>
			</v:userDefs>
			<v:textBlock v:margins="rect(4,4,4,4)" v:tabSpace="42.5197"/>
			<v:textRect cx="42.5197" cy="574.016" width="85.04" height="42.5197"/>
			<g id="shadow4-17" v:groupContext="shadow" v:shadowOffsetX="0.345598" v:shadowOffsetY="-1.97279" v:shadowType="1"
					transform="matrix(1,0,0,1,0.345598,1.97279)" class="st1">
				<path d="M8.5 595.28 L76.54 595.28 A8.5038 8.5038 -180 0 0 85.04 586.77 L85.04 561.26 A8.5038 8.5038 -180 0 0 76.54
							 552.76 L8.5 552.76 A8.5038 8.5038 -180 0 0 0 561.26 L0 586.77 A8.5038 8.5038 -180 0 0 8.5 595.28 Z"
						class="st2"/>
			</g>
			<path d="M8.5 595.28 L76.54 595.28 A8.5038 8.5038 -180 0 0 85.04 586.77 L85.04 561.26 A8.5038 8.5038 -180 0 0 76.54 552.76
						 L8.5 552.76 A8.5038 8.5038 -180 0 0 0 561.26 L0 586.77 A8.5038 8.5038 -180 0 0 8.5 595.28 Z" class="st3"/>
			<text x="14.57" y="579.42" class="st4" v:langID="2057"><v:paragraph v:horizAlign="1"/><v:tabList/>Devices</text>		</g>
		<g id="shape5-22" v:mID="5" v:groupContext="shape" transform="translate(255.118,-420.945)">
			<title>Rounded Rectangle.5</title>
			<desc>Cloud Gateway</desc>
			<v:userDefs>
				<v:ud v:nameU="CTypeTopLeftSnip" v:prompt="" v:val="VT0(0):5"/>
				<v:ud v:nameU="CTypeTopRightSnip" v:prompt="" v:val="VT0(0):5"/>
				<v:ud v:nameU="CTypeBotLeftSnip" v:prompt="" v:val="VT0(0):5"/>
				<v:ud v:nameU="CTypeBotRightSnip" v:prompt="" v:val="VT0(0):5"/>
				<v:ud v:nameU="CornerLockHoriz" v:prompt="" v:val="VT0(1):5"/>
				<v:ud v:nameU="CornerLockVert" v:prompt="" v:val="VT0(1):5"/>
				<v:ud v:nameU="CornerLockDiag" v:prompt="" v:val="VT0(0):5"/>
				<v:ud v:nameU="TopLeftOffset" v:prompt="" v:val="VT0(0.15748031496063):24"/>
				<v:ud v:nameU="TopRightOffset" v:prompt="" v:val="VT0(0.15748031496063):24"/>
				<v:ud v:nameU="BotLeftOffset" v:prompt="" v:val="VT0(0.15748031496063):24"/>
				<v:ud v:nameU="BotRightOffset" v:prompt="" v:val="VT0(0.15748031496063):24"/>
				<v:ud v:nameU="visVersion" v:prompt="" v:val="VT0(15):26"/>
				<v:ud v:nameU="TopLeftOffset" v:prompt="" v:val="VT0(0.13779527559055):1"/>
				<v:ud v:nameU="TopRightOffset" v:prompt="" v:val="VT0(0.13779527559055):1"/>
				<v:ud v:nameU="BotLeftOffset" v:prompt="" v:val="VT0(0.13779527559055):1"/>
				<v:ud v:nameU="BotRightOffset" v:prompt="" v:val="VT0(0.13779527559055):1"/>
			</v:userDefs>
			<v:textBlock v:margins="rect(4,4,4,4)" v:tabSpace="42.5197"/>
			<v:textRect cx="49.6063" cy="529.37" width="99.22" height="131.811"/>
			<g id="shadow5-23" v:groupContext="shadow" v:shadowOffsetX="0.345598" v:shadowOffsetY="-1.97279" v:shadowType="1"
					transform="matrix(1,0,0,1,0.345598,1.97279)" class="st1">
				<path d="M9.92 595.28 L89.29 595.28 A9.9211 9.9211 -180 0 0 99.21 585.35 L99.21 473.39 A9.9211 9.9211 -180 0 0 89.29
							 463.46 L9.92 463.46 A9.9211 9.9211 -180 0 0 0 473.39 L0 585.35 A9.9211 9.9211 -180 0 0 9.92 595.28 Z"
						class="st2"/>
			</g>
			<path d="M9.92 595.28 L89.29 595.28 A9.9211 9.9211 -180 0 0 99.21 585.35 L99.21 473.39 A9.9211 9.9211 -180 0 0 89.29
						 463.46 L9.92 463.46 A9.9211 9.9211 -180 0 0 0 473.39 L0 585.35 A9.9211 9.9211 -180 0 0 9.92 595.28 Z"
					class="st3"/>
			<text x="28.54" y="523.97" class="st4" v:langID="2057"><v:paragraph v:horizAlign="1"/><v:tabList/>Cloud <tspan
						x="17.31" dy="1.2em" class="st5">Gateway</tspan></text>		</g>
		<g id="shape12-29" v:mID="12" v:groupContext="shape" transform="translate(425.197,-453.543)">
			<title>Rounded Rectangle.12</title>
			<desc>Event Processing</desc>
			<v:userDefs>
				<v:ud v:nameU="CTypeTopLeftSnip" v:prompt="" v:val="VT0(0):5"/>
				<v:ud v:nameU="CTypeTopRightSnip" v:prompt="" v:val="VT0(0):5"/>
				<v:ud v:nameU="CTypeBotLeftSnip" v:prompt="" v:val="VT0(0):5"/>
				<v:ud v:nameU="CTypeBotRightSnip" v:prompt="" v:val="VT0(0):5"/>
				<v:ud v:nameU="CornerLockHoriz" v:prompt="" v:val="VT0(1):5"/>
				<v:ud v:nameU="CornerLockVert" v:prompt="" v:val="VT0(1):5"/>
				<v:ud v:nameU="CornerLockDiag" v:prompt="" v:val="VT0(0):5"/>
				<v:ud v:nameU="TopLeftOffset" v:prompt="" v:val="VT0(0.15748031496063):24"/>
				<v:ud v:nameU="TopRightOffset" v:prompt="" v:val="VT0(0.15748031496063):24"/>
				<v:ud v:nameU="BotLeftOffset" v:prompt="" v:val="VT0(0.15748031496063):24"/>
				<v:ud v:nameU="BotRightOffset" v:prompt="" v:val="VT0(0.15748031496063):24"/>
				<v:ud v:nameU="visVersion" v:prompt="" v:val="VT0(15):26"/>
				<v:ud v:nameU="TopLeftOffset" v:prompt="" v:val="VT0(0.16535433070866):1"/>
				<v:ud v:nameU="TopRightOffset" v:prompt="" v:val="VT0(0.16535433070866):1"/>
				<v:ud v:nameU="BotLeftOffset" v:prompt="" v:val="VT0(0.16535433070866):1"/>
				<v:ud v:nameU="BotRightOffset" v:prompt="" v:val="VT0(0.16535433070866):1"/>
			</v:userDefs>
			<v:textBlock v:margins="rect(4,4,4,4)" v:tabSpace="42.5197"/>
			<v:textRect cx="59.5276" cy="561.969" width="119.06" height="66.6142"/>
			<g id="shadow12-30" v:groupContext="shadow" v:shadowOffsetX="0.345598" v:shadowOffsetY="-1.97279" v:shadowType="1"
					transform="matrix(1,0,0,1,0.345598,1.97279)" class="st1">
				<path d="M11.91 595.28 L107.15 595.28 A11.9053 11.9053 -180 0 0 119.06 583.37 L119.06 540.57 A11.9053 11.9053 -180
							 0 0 107.15 528.66 L11.91 528.66 A11.9053 11.9053 -180 0 0 0 540.57 L0 583.37 A11.9053 11.9053 -180 0
							 0 11.91 595.28 Z" class="st2"/>
			</g>
			<path d="M11.91 595.28 L107.15 595.28 A11.9053 11.9053 -180 0 0 119.06 583.37 L119.06 540.57 A11.9053 11.9053 -180 0
						 0 107.15 528.66 L11.91 528.66 A11.9053 11.9053 -180 0 0 0 540.57 L0 583.37 A11.9053 11.9053 -180 0 0 11.91
						 595.28 Z" class="st3"/>
			<text x="38.85" y="556.57" class="st4" v:langID="2057"><v:paragraph v:horizAlign="1"/><v:tabList/>Event <tspan
						x="20.64" dy="1.2em" class="st5">Processing</tspan></text>		</g>
		<g id="group13-36" transform="translate(269.291,-250.866)" v:mID="13" v:groupContext="group">
			<v:userDefs>
				<v:ud v:nameU="visVersion" v:prompt="" v:val="VT0(15):26"/>
			</v:userDefs>
			<title>Can</title>
			<desc>Device Registry</desc>
			<g id="shape14-37" v:mID="14" v:groupContext="shape">
				<title>Sheet.14</title>
				<v:userDefs>
					<v:ud v:nameU="ControlHalfHeight" v:prompt="" v:val="VT0(0.11811023622047):24"/>
					<v:ud v:nameU="FillForegnd" v:prompt="" v:val="VT0(1):26"/>
					<v:ud v:nameU="FillForegnd" v:prompt="" v:val="VT5(#0070c0)"/>
				</v:userDefs>
				<g id="shadow14-38" v:groupContext="shadow" v:shadowOffsetX="0.345598" v:shadowOffsetY="-1.97279" v:shadowType="1"
						transform="matrix(1,0,0,1,0.345598,1.97279)" class="st1">
					<path d="M0 586.77 A42.5197 8.50394 -180 1 0 85.04 586.77 L85.04 518.74 L0 518.74 L0 586.77 Z" class="st2"/>
				</g>
				<path d="M0 586.77 A42.5197 8.50394 -180 1 0 85.04 586.77 L85.04 518.74 L0 518.74 L0 586.77 Z" class="st3"/>
			</g>
			<g id="shape13-42" v:mID="13" v:groupContext="groupContent">
				<v:textBlock v:margins="rect(4,4,4,4)" v:tabSpace="42.5197"/>
				<v:textRect cx="42.5197" cy="552.756" width="85.04" height="85.0394"/>
				<g id="shadow13-43" v:groupContext="shadow" v:shadowOffsetX="0.345598" v:shadowOffsetY="-1.97279" v:shadowType="1"
						transform="matrix(1,0,0,1,0.345598,1.97279)" class="st1">
					<ellipse cx="42.5197" cy="518.74" rx="42.5197" ry="8.50394" class="st2"/>
				</g>
				<ellipse cx="42.5197" cy="518.74" rx="42.5197" ry="8.50394" class="st3"/>
				<text x="18.09" y="547.36" class="st4" v:langID="2057"><v:paragraph v:horizAlign="1"/><v:tabList/>Device <tspan
							x="13.11" dy="1.2em" class="st5">Registry</tspan></text>			</g>
		</g>
		<g id="group15-49" transform="translate(595.276,-347.244)" v:mID="15" v:groupContext="group">
			<v:userDefs>
				<v:ud v:nameU="visVersion" v:prompt="" v:val="VT0(15):26"/>
			</v:userDefs>
			<title>Can.15</title>
			<desc>Warm Storage</desc>
			<g id="shape16-50" v:mID="16" v:groupContext="shape">
				<title>Sheet.16</title>
				<v:userDefs>
					<v:ud v:nameU="ControlHalfHeight" v:prompt="" v:val="VT0(0.11811023622047):24"/>
					<v:ud v:nameU="FillForegnd" v:prompt="" v:val="VT0(1):26"/>
					<v:ud v:nameU="FillForegnd" v:prompt="" v:val="VT5(#0070c0)"/>
				</v:userDefs>
				<g id="shadow16-51" v:groupContext="shadow" v:shadowOffsetX="0.345598" v:shadowOffsetY="-1.97279" v:shadowType="1"
						transform="matrix(1,0,0,1,0.345598,1.97279)" class="st1">
					<path d="M0 586.77 A42.5197 8.50394 -180 1 0 85.04 586.77 L85.04 518.74 L0 518.74 L0 586.77 Z" class="st2"/>
				</g>
				<path d="M0 586.77 A42.5197 8.50394 -180 1 0 85.04 586.77 L85.04 518.74 L0 518.74 L0 586.77 Z" class="st3"/>
			</g>
			<g id="shape15-55" v:mID="15" v:groupContext="groupContent">
				<v:textBlock v:margins="rect(4,4,4,4)" v:tabSpace="42.5197"/>
				<v:textRect cx="42.5197" cy="552.756" width="85.04" height="85.0394"/>
				<g id="shadow15-56" v:groupContext="shadow" v:shadowOffsetX="0.345598" v:shadowOffsetY="-1.97279" v:shadowType="1"
						transform="matrix(1,0,0,1,0.345598,1.97279)" class="st1">
					<ellipse cx="42.5197" cy="518.74" rx="42.5197" ry="8.50394" class="st2"/>
				</g>
				<ellipse cx="42.5197" cy="518.74" rx="42.5197" ry="8.50394" class="st3"/>
				<text x="19.87" y="547.36" class="st4" v:langID="2057"><v:paragraph v:horizAlign="1"/><v:tabList/>Warm <tspan
							x="14.46" dy="1.2em" class="st5">Storage</tspan></text>			</g>
		</g>
		<g id="group17-62" transform="translate(722.835,-347.244)" v:mID="17" v:groupContext="group">
			<v:userDefs>
				<v:ud v:nameU="visVersion" v:prompt="" v:val="VT0(15):26"/>
			</v:userDefs>
			<title>Can.17</title>
			<desc>Cold Storage</desc>
			<g id="shape18-63" v:mID="18" v:groupContext="shape">
				<title>Sheet.18</title>
				<v:userDefs>
					<v:ud v:nameU="ControlHalfHeight" v:prompt="" v:val="VT0(0.11811023622047):24"/>
					<v:ud v:nameU="FillForegnd" v:prompt="" v:val="VT0(1):26"/>
					<v:ud v:nameU="FillForegnd" v:prompt="" v:val="VT5(#0070c0)"/>
				</v:userDefs>
				<g id="shadow18-64" v:groupContext="shadow" v:shadowOffsetX="0.345598" v:shadowOffsetY="-1.97279" v:shadowType="1"
						transform="matrix(1,0,0,1,0.345598,1.97279)" class="st1">
					<path d="M0 586.77 A42.5197 8.50394 -180 1 0 85.04 586.77 L85.04 518.74 L0 518.74 L0 586.77 Z" class="st2"/>
				</g>
				<path d="M0 586.77 A42.5197 8.50394 -180 1 0 85.04 586.77 L85.04 518.74 L0 518.74 L0 586.77 Z" class="st3"/>
			</g>
			<g id="shape17-68" v:mID="17" v:groupContext="groupContent">
				<v:textBlock v:margins="rect(4,4,4,4)" v:tabSpace="42.5197"/>
				<v:textRect cx="42.5197" cy="552.756" width="85.04" height="85.0394"/>
				<g id="shadow17-69" v:groupContext="shadow" v:shadowOffsetX="0.345598" v:shadowOffsetY="-1.97279" v:shadowType="1"
						transform="matrix(1,0,0,1,0.345598,1.97279)" class="st1">
					<ellipse cx="42.5197" cy="518.74" rx="42.5197" ry="8.50394" class="st2"/>
				</g>
				<ellipse cx="42.5197" cy="518.74" rx="42.5197" ry="8.50394" class="st3"/>
				<text x="26.18" y="547.36" class="st4" v:langID="2057"><v:paragraph v:horizAlign="1"/><v:tabList/>Cold <tspan
							x="14.46" dy="1.2em" class="st5">Storage</tspan></text>			</g>
		</g>
		<g id="shape19-75" v:mID="19" v:groupContext="shape" transform="translate(705.827,-231.024)">
			<title>Rounded Rectangle.19</title>
			<desc>Batch Analytics</desc>
			<v:userDefs>
				<v:ud v:nameU="CTypeTopLeftSnip" v:prompt="" v:val="VT0(0):5"/>
				<v:ud v:nameU="CTypeTopRightSnip" v:prompt="" v:val="VT0(0):5"/>
				<v:ud v:nameU="CTypeBotLeftSnip" v:prompt="" v:val="VT0(0):5"/>
				<v:ud v:nameU="CTypeBotRightSnip" v:prompt="" v:val="VT0(0):5"/>
				<v:ud v:nameU="CornerLockHoriz" v:prompt="" v:val="VT0(1):5"/>
				<v:ud v:nameU="CornerLockVert" v:prompt="" v:val="VT0(1):5"/>
				<v:ud v:nameU="CornerLockDiag" v:prompt="" v:val="VT0(0):5"/>
				<v:ud v:nameU="TopLeftOffset" v:prompt="" v:val="VT0(0.15748031496063):24"/>
				<v:ud v:nameU="TopRightOffset" v:prompt="" v:val="VT0(0.15748031496063):24"/>
				<v:ud v:nameU="BotLeftOffset" v:prompt="" v:val="VT0(0.15748031496063):24"/>
				<v:ud v:nameU="BotRightOffset" v:prompt="" v:val="VT0(0.15748031496063):24"/>
				<v:ud v:nameU="visVersion" v:prompt="" v:val="VT0(15):26"/>
				<v:ud v:nameU="TopLeftOffset" v:prompt="" v:val="VT0(0.16535433070866):1"/>
				<v:ud v:nameU="TopRightOffset" v:prompt="" v:val="VT0(0.16535433070866):1"/>
				<v:ud v:nameU="BotLeftOffset" v:prompt="" v:val="VT0(0.16535433070866):1"/>
				<v:ud v:nameU="BotRightOffset" v:prompt="" v:val="VT0(0.16535433070866):1"/>
			</v:userDefs>
			<v:textBlock v:margins="rect(4,4,4,4)" v:tabSpace="42.5197"/>
			<v:textRect cx="59.5276" cy="561.969" width="119.06" height="66.6142"/>
			<g id="shadow19-76" v:groupContext="shadow" v:shadowOffsetX="0.345598" v:shadowOffsetY="-1.97279" v:shadowType="1"
					transform="matrix(1,0,0,1,0.345598,1.97279)" class="st1">
				<path d="M11.91 595.28 L107.15 595.28 A11.9053 11.9053 -180 0 0 119.06 583.37 L119.06 540.57 A11.9053 11.9053 -180
							 0 0 107.15 528.66 L11.91 528.66 A11.9053 11.9053 -180 0 0 0 540.57 L0 583.37 A11.9053 11.9053 -180 0
							 0 11.91 595.28 Z" class="st2"/>
			</g>
			<path d="M11.91 595.28 L107.15 595.28 A11.9053 11.9053 -180 0 0 119.06 583.37 L119.06 540.57 A11.9053 11.9053 -180 0
						 0 107.15 528.66 L11.91 528.66 A11.9053 11.9053 -180 0 0 0 540.57 L0 583.37 A11.9053 11.9053 -180 0 0 11.91
						 595.28 Z" class="st3"/>
			<text x="38.77" y="556.57" class="st4" v:langID="2057"><v:paragraph v:horizAlign="1"/><v:tabList/>Batch <tspan
						x="26.74" dy="1.2em" class="st5">Analytics</tspan></text>		</g>
		<g id="shape20-82" v:mID="20" v:groupContext="shape" transform="translate(436.535,-250.866)">
			<title>Rounded Rectangle.20</title>
			<desc>Dashboard</desc>
			<v:userDefs>
				<v:ud v:nameU="CTypeTopLeftSnip" v:prompt="" v:val="VT0(0):5"/>
				<v:ud v:nameU="CTypeTopRightSnip" v:prompt="" v:val="VT0(0):5"/>
				<v:ud v:nameU="CTypeBotLeftSnip" v:prompt="" v:val="VT0(0):5"/>
				<v:ud v:nameU="CTypeBotRightSnip" v:prompt="" v:val="VT0(0):5"/>
				<v:ud v:nameU="CornerLockHoriz" v:prompt="" v:val="VT0(1):5"/>
				<v:ud v:nameU="CornerLockVert" v:prompt="" v:val="VT0(1):5"/>
				<v:ud v:nameU="CornerLockDiag" v:prompt="" v:val="VT0(0):5"/>
				<v:ud v:nameU="TopLeftOffset" v:prompt="" v:val="VT0(0.15748031496063):24"/>
				<v:ud v:nameU="TopRightOffset" v:prompt="" v:val="VT0(0.15748031496063):24"/>
				<v:ud v:nameU="BotLeftOffset" v:prompt="" v:val="VT0(0.15748031496063):24"/>
				<v:ud v:nameU="BotRightOffset" v:prompt="" v:val="VT0(0.15748031496063):24"/>
				<v:ud v:nameU="visVersion" v:prompt="" v:val="VT0(15):26"/>
				<v:ud v:nameU="TopLeftOffset" v:prompt="" v:val="VT0(0.16535433070866):1"/>
				<v:ud v:nameU="TopRightOffset" v:prompt="" v:val="VT0(0.16535433070866):1"/>
				<v:ud v:nameU="BotLeftOffset" v:prompt="" v:val="VT0(0.16535433070866):1"/>
				<v:ud v:nameU="BotRightOffset" v:prompt="" v:val="VT0(0.16535433070866):1"/>
			</v:userDefs>
			<v:textBlock v:margins="rect(4,4,4,4)" v:tabSpace="42.5197"/>
			<v:textRect cx="59.5276" cy="561.969" width="119.06" height="66.6142"/>
			<g id="shadow20-83" v:groupContext="shadow" v:shadowOffsetX="0.345598" v:shadowOffsetY="-1.97279" v:shadowType="1"
					transform="matrix(1,0,0,1,0.345598,1.97279)" class="st1">
				<path d="M11.91 595.28 L107.15 595.28 A11.9053 11.9053 -180 0 0 119.06 583.37 L119.06 540.57 A11.9053 11.9053 -180
							 0 0 107.15 528.66 L11.91 528.66 A11.9053 11.9053 -180 0 0 0 540.57 L0 583.37 A11.9053 11.9053 -180 0
							 0 11.91 595.28 Z" class="st2"/>
			</g>
			<path d="M11.91 595.28 L107.15 595.28 A11.9053 11.9053 -180 0 0 119.06 583.37 L119.06 540.57 A11.9053 11.9053 -180 0
						 0 107.15 528.66 L11.91 528.66 A11.9053 11.9053 -180 0 0 0 540.57 L0 583.37 A11.9053 11.9053 -180 0 0 11.91
						 595.28 Z" class="st3"/>
			<text x="19.78" y="567.37" class="st4" v:langID="2057"><v:paragraph v:horizAlign="1"/><v:tabList/>Dashboard</text>		</g>
		<g id="shape21-88" v:mID="21" v:groupContext="shape" transform="translate(62.3622,-250.866)">
			<title>Rounded Rectangle.21</title>
			<desc>Provisioning User Interface</desc>
			<v:userDefs>
				<v:ud v:nameU="CTypeTopLeftSnip" v:prompt="" v:val="VT0(0):5"/>
				<v:ud v:nameU="CTypeTopRightSnip" v:prompt="" v:val="VT0(0):5"/>
				<v:ud v:nameU="CTypeBotLeftSnip" v:prompt="" v:val="VT0(0):5"/>
				<v:ud v:nameU="CTypeBotRightSnip" v:prompt="" v:val="VT0(0):5"/>
				<v:ud v:nameU="CornerLockHoriz" v:prompt="" v:val="VT0(1):5"/>
				<v:ud v:nameU="CornerLockVert" v:prompt="" v:val="VT0(1):5"/>
				<v:ud v:nameU="CornerLockDiag" v:prompt="" v:val="VT0(0):5"/>
				<v:ud v:nameU="TopLeftOffset" v:prompt="" v:val="VT0(0.15748031496063):24"/>
				<v:ud v:nameU="TopRightOffset" v:prompt="" v:val="VT0(0.15748031496063):24"/>
				<v:ud v:nameU="BotLeftOffset" v:prompt="" v:val="VT0(0.15748031496063):24"/>
				<v:ud v:nameU="BotRightOffset" v:prompt="" v:val="VT0(0.15748031496063):24"/>
				<v:ud v:nameU="visVersion" v:prompt="" v:val="VT0(15):26"/>
				<v:ud v:nameU="TopLeftOffset" v:prompt="" v:val="VT0(0.16535433070866):1"/>
				<v:ud v:nameU="TopRightOffset" v:prompt="" v:val="VT0(0.16535433070866):1"/>
				<v:ud v:nameU="BotLeftOffset" v:prompt="" v:val="VT0(0.16535433070866):1"/>
				<v:ud v:nameU="BotRightOffset" v:prompt="" v:val="VT0(0.16535433070866):1"/>
			</v:userDefs>
			<v:textBlock v:margins="rect(4,4,4,4)" v:tabSpace="42.5197"/>
			<v:textRect cx="59.5276" cy="561.969" width="119.06" height="66.6142"/>
			<g id="shadow21-89" v:groupContext="shadow" v:shadowOffsetX="0.345598" v:shadowOffsetY="-1.97279" v:shadowType="1"
					transform="matrix(1,0,0,1,0.345598,1.97279)" class="st1">
				<path d="M11.91 595.28 L107.15 595.28 A11.9053 11.9053 -180 0 0 119.06 583.37 L119.06 540.57 A11.9053 11.9053 -180
							 0 0 107.15 528.66 L11.91 528.66 A11.9053 11.9053 -180 0 0 0 540.57 L0 583.37 A11.9053 11.9053 -180 0
							 0 11.91 595.28 Z" class="st2"/>
			</g>
			<path d="M11.91 595.28 L107.15 595.28 A11.9053 11.9053 -180 0 0 119.06 583.37 L119.06 540.57 A11.9053 11.9053 -180 0
						 0 107.15 528.66 L11.91 528.66 A11.9053 11.9053 -180 0 0 0 540.57 L0 583.37 A11.9053 11.9053 -180 0 0 11.91
						 595.28 Z" class="st3"/>
			<text x="14.77" y="556.57" class="st4" v:langID="2057"><v:paragraph v:horizAlign="1"/><v:tabList/>Provisioning <tspan
						x="7.61" dy="1.2em" class="st5">User Interface</tspan></text>		</g>
		<g id="shape22-95" v:mID="22" v:groupContext="shape" v:layerMember="0" transform="translate(147.745,-521.919)">
			<title>Dynamic connector</title>
			<path d="M0 595.28 C90.46 595.28 49.87 625.31 96.35 629.8 L96.71 629.82" class="st6"/>
		</g>
		<g id="shape23-101" v:mID="23" v:groupContext="shape" v:layerMember="0" transform="translate(354.331,-479.764)">
			<title>Dynamic connector.23</title>
			<path d="M0 588.19 C14.54 588.19 41.01 588.19 59.83 588.19" class="st8"/>
		</g>
		<g id="shape24-107" v:mID="24" v:groupContext="shape" v:layerMember="0" transform="translate(544.252,-486.85)">
			<title>Dynamic connector.24</title>
			<path d="M0 595.28 C23.39 595.28 60.89 595.28 78.35 606.97 C89.74 614.61 92.59 627.22 93.3 638.81 L93.31 639.17"
					class="st6"/>
		</g>
		<g id="shape25-112" v:mID="25" v:groupContext="shape" v:layerMember="0" transform="translate(544.252,-486.85)">
			<title>Dynamic connector.25</title>
			<path d="M0 595.28 C79.37 571.89 154.74 592.34 190.39 610.76 C209 620.37 216.77 629.44 219.64 638.9 L219.69 639.26"
					class="st6"/>
		</g>
		<g id="shape26-117" v:mID="26" v:groupContext="shape" v:layerMember="0" transform="translate(758.268,-347.244)">
			<title>Dynamic connector.26</title>
			<path d="M7.09 595.28 C7.09 604.63 7.09 621.02 7.09 633.84" class="st8"/>
		</g>
		<g id="shape27-122" v:mID="27" v:groupContext="shape" v:layerMember="0" transform="translate(637.795,-347.244)">
			<title>Dynamic connector.27</title>
			<path d="M0 595.28 C-0 630.71 -35.62 620.02 -71.24 605.76 C-103.65 592.78 -136.06 576.83 -141.07 614.02 L-141.09 614.38"
					class="st6"/>
		</g>
		<g id="shape28-127" v:mID="28" v:groupContext="shape" v:layerMember="0" transform="translate(354.331,-295.866)">
			<title>Dynamic connector.28</title>
			<path d="M0 597.76 C14.17 593.5 30.69 595.37 39.11 597.94 C50 601.25 47.36 605.75 71.17 606.76 L71.53 606.77"
					class="st6"/>
		</g>
		<g id="shape29-132" v:mID="29" v:groupContext="shape" v:layerMember="0" transform="translate(301.181,-420.945)">
			<title>Dynamic connector.29</title>
			<path d="M9.91 610.17 L10.05 610.51 C14.61 617.68 19.74 624.93 18.82 630.55 C17.03 641.41 -7.43 646.13 1.4 666.57 L1.6
						 666.87" class="st9"/>
		</g>
		<g id="shape30-141" v:mID="30" v:groupContext="shape" v:layerMember="0" transform="translate(181.417,-281.693)">
			<title>Dynamic connector.30</title>
			<path d="M12.91 583.01 L13.19 582.79 C13.44 582.49 13.71 582.19 13.99 581.9 C20.81 574.81 39.55 567.37 72.38 577.75 L72.71
						 577.87" class="st9"/>
		</g>
	</g>
</svg>
