<?xml version="1.0" encoding="UTF-8" standalone="no"?>
<!DOCTYPE svg PUBLIC "-//W3C//DTD SVG 1.1//EN" "http://www.w3.org/Graphics/SVG/1.1/DTD/svg11.dtd">
<!-- Generated by Microsoft Visio, SVG Export physical-architecture-cloud-service.svg Page-1 -->
<svg xmlns="http://www.w3.org/2000/svg" xmlns:xlink="http://www.w3.org/1999/xlink" xmlns:ev="http://www.w3.org/2001/xml-events"
		xmlns:v="http://schemas.microsoft.com/visio/2003/SVGExtensions/" width="11.6929in" height="8.26772in"
		viewBox="0 0 841.89 595.276" xml:space="preserve" color-interpolation-filters="sRGB" class="st19">
	<v:documentProperties v:langID="1033" v:metric="true" v:viewMarkup="false">
		<v:userDefs>
			<v:ud v:nameU="msvSubprocessMaster" v:prompt="" v:val="VT4(Rectangle)"/>
			<v:ud v:nameU="msvNoAutoConnect" v:val="VT0(1):26"/>
		</v:userDefs>
	</v:documentProperties>

	<style type="text/css">
	<![CDATA[
		.st1 {visibility:visible}
		.st2 {fill:#5b9bd5;fill-opacity:0.22;filter:url(#filter_2)}
		.st3 {fill:none;filter:url(#filter_2);stroke:none}
		.st4 {fill:#0070c0}
		.st5 {stroke:none;stroke-width:0.25}
		.st6 {fill:#5b9bd5;fill-opacity:0.22;filter:url(#filter_2);stroke:none}
		.st7 {fill:#ffffff;stroke:none;stroke-width:0.25}
		.st8 {stroke:none;stroke-linecap:butt;stroke-width:1}
		.st9 {fill:none;stroke:none;stroke-width:0.25}
		.st10 {fill:#000000;font-family:Calibri;font-size:1.00001em}
		.st11 {font-size:1em}
		.st12 {fill:#000000;font-family:Calibri;font-size:0.833336em}
		.st13 {fill:#5b9bd5;fill-opacity:0.22;filter:url(#filter_2);stroke:#5b9bd5;stroke-opacity:0.22}
		.st14 {fill:#0070c0;stroke:#c7c8c8;stroke-width:0.25}
		.st15 {fill:#feffff;font-family:Calibri;font-size:0.916672em}
		.st16 {marker-end:url(#mrkr4-83);stroke:#5b9bd5;stroke-linecap:round;stroke-linejoin:round;stroke-width:1}
		.st17 {fill:#5b9bd5;fill-opacity:1;stroke:#5b9bd5;stroke-opacity:1;stroke-width:0.28409090909091}
		.st18 {fill:#0070c0;stroke:none;stroke-width:0.25}
		.st19 {fill:none;fill-rule:evenodd;font-size:12px;overflow:visible;stroke-linecap:square;stroke-miterlimit:3}
	]]>
	</style>

	<defs id="Markers">
		<g id="lend4">
			<path d="M 2 1 L 0 0 L 2 -1 L 2 1 " style="stroke:none"/>
		</g>
		<marker id="mrkr4-83" class="st17" v:arrowType="4" v:arrowSize="2" v:setback="7.04" refX="-7.04" orient="auto"
				markerUnits="strokeWidth" overflow="visible">
			<use xlink:href="#lend4" transform="scale(-3.52,-3.52) "/>
		</marker>
	</defs>
	<defs id="Filters">
		<filter id="filter_2">
			<feGaussianBlur stdDeviation="2"/>
		</filter>
	</defs>
	<g v:mID="0" v:index="1" v:groupContext="foregroundPage">
		<v:userDefs>
			<v:ud v:nameU="msvThemeOrder" v:val="VT0(0):26"/>
		</v:userDefs>
		<title>Page-1</title>
		<v:pageProperties v:drawingScale="0.0393701" v:pageScale="0.0393701" v:drawingUnits="24" v:shadowOffsetX="8.50394"
				v:shadowOffsetY="-8.50394"/>
		<v:layer v:name="Connector" v:index="0"/>
		<g id="group130-1" transform="translate(-291.258,237.666) rotate(-90)" v:mID="130" v:groupContext="group">
			<title>Sheet.130</title>
			<g id="shape119-2" v:mID="119" v:groupContext="shape">
				<title>Sheet.119</title>
				<g id="shadow119-3" v:groupContext="shadow" v:shadowOffsetX="0.3456" v:shadowOffsetY="-1.9728" v:shadowType="1"
						transform="matrix(1,0,0,1,-1.9728,0.3456)" class="st1">
					<path d="M0.88 595.28 C0.63 595.28 0.38 594.83 0.22 594.07 C0.06 593.31 0 592.3 0.05 591.34 L6.66 555.24 C6.74
								 553.74 7.08 552.67 7.48 552.67 L58.33 552.67 C58.73 552.67 59.07 553.74 59.16 555.24 L65.06 591.06
								 C65.09 591.36 65.1 591.69 65.1 592.03 C65.1 593.82 64.72 595.28 64.25 595.28 L64.25 595.28 L0.88
								 595.28 Z" class="st2"/>
					<path d="M0.88 595.28 C0.63 595.28 0.38 594.83 0.22 594.07 C0.06 593.31 0 592.3 0.05 591.34 L6.66 555.24 C6.74
								 553.74 7.08 552.67 7.48 552.67 L58.33 552.67 C58.73 552.67 59.07 553.74 59.16 555.24 L65.06 591.06
								 C65.09 591.36 65.1 591.69 65.1 592.03 C65.1 593.82 64.72 595.28 64.25 595.28 L64.25 595.28"
							class="st3"/>
				</g>
				<path d="M0.88 595.28 C0.63 595.28 0.38 594.83 0.22 594.07 C0.06 593.31 0 592.3 0.05 591.34 L6.66 555.24 C6.74 553.74
							 7.08 552.67 7.48 552.67 L58.33 552.67 C58.73 552.67 59.07 553.74 59.16 555.24 L65.06 591.06 C65.09 591.36
							 65.1 591.69 65.1 592.03 C65.1 593.82 64.72 595.28 64.25 595.28 L64.25 595.28 L0.88 595.28 Z"
						class="st4"/>
				<path d="M0.88 595.28 C0.63 595.28 0.38 594.83 0.22 594.07 C0.06 593.31 0 592.3 0.05 591.34 L6.66 555.24 C6.74 553.74
							 7.08 552.67 7.48 552.67 L58.33 552.67 C58.73 552.67 59.07 553.74 59.16 555.24 L65.06 591.06 C65.09 591.36
							 65.1 591.69 65.1 592.03 C65.1 593.82 64.72 595.28 64.25 595.28 L64.25 595.28" class="st5"/>
			</g>
			<g id="group120-10" transform="translate(22.4322,-7.63089)" v:mID="120" v:groupContext="group">
				<title>Sheet.120</title>
				<g id="group121-11" transform="translate(7.42113,-1.98548)" v:mID="121" v:groupContext="group">
					<title>Sheet.121</title>
					<g id="shape122-12" v:mID="122" v:groupContext="shape" transform="translate(0,-20.1465)">
						<title>Sheet.122</title>
						<g id="shadow122-13" v:groupContext="shadow" v:shadowOffsetX="0.3456" v:shadowOffsetY="-1.9728"
								v:shadowType="1" transform="matrix(1,0,0,1,-1.9728,0.3456)" class="st1">
							<ellipse cx="2.60511" cy="592.67" rx="2.60511" ry="2.60511" class="st6"/>
						</g>
						<ellipse cx="2.60511" cy="592.67" rx="2.60511" ry="2.60511" class="st7"/>
					</g>
					<g id="group123-17" transform="translate(1.78295,0)" v:mID="123" v:groupContext="group">
						<title>Sheet.123</title>
						<g id="shape124-18" v:mID="124" v:groupContext="shape" transform="translate(596.098,572.525) rotate(90)">
							<title>Sheet.124</title>
							<path d="M0 595.28 L22.75 595.28" class="st8"/>
						</g>
						<g id="shape125-21" v:mID="125" v:groupContext="shape">
							<title>Sheet.125</title>
							<g id="shadow125-22" v:groupContext="shadow" v:shadowOffsetX="0.3456" v:shadowOffsetY="-1.9728"
									v:shadowType="1" transform="matrix(1,0,0,1,-1.9728,0.3456)" class="st1">
								<rect x="0" y="572.525" width="1.64432" height="22.7504" class="st6"/>
							</g>
							<rect x="0" y="572.525" width="1.64432" height="22.7504" class="st7"/>
						</g>
					</g>
				</g>
				<g id="shape126-26" v:mID="126" v:groupContext="shape" transform="translate(0.256774,-8.18904)">
					<title>Sheet.126</title>
					<g id="shadow126-27" v:groupContext="shadow" v:shadowOffsetX="0.3456" v:shadowOffsetY="-1.9728"
							v:shadowType="1" transform="matrix(1,0,0,1,-1.9728,0.3456)" class="st1">
						<path d="M0 594.11 L9.77 584.34 L19.54 594.11 L18.38 595.28 L9.77 586.67 L1.16 595.28 L0 594.11 Z"
								class="st6"/>
					</g>
					<path d="M0 594.11 L9.77 584.34 L19.54 594.11 L18.38 595.28 L9.77 586.67 L1.16 595.28 L0 594.11 Z" class="st7"/>
				</g>
				<g id="shape127-31" v:mID="127" v:groupContext="shape" transform="translate(5.73823,0)">
					<title>Sheet.127</title>
					<g id="shadow127-32" v:groupContext="shadow" v:shadowOffsetX="0.3456" v:shadowOffsetY="-1.9728"
							v:shadowType="1" transform="matrix(1,0,0,1,-1.9728,0.3456)" class="st1">
						<path d="M0 590.68 C0 590.47 0.08 590.26 0.24 590.1 C0.56 589.78 1.08 589.78 1.4 590.1 L4.25 592.95 L7.11
									 590.1 C7.43 589.78 7.95 589.78 8.27 590.1 C8.59 590.42 8.59 590.94 8.27 591.26 L4.25 595.28
									 L0.24 591.26 C0.08 591.1 0 590.89 0 590.68 Z" class="st6"/>
					</g>
					<path d="M0 590.68 C0 590.47 0.08 590.26 0.24 590.1 C0.56 589.78 1.08 589.78 1.4 590.1 L4.25 592.95 L7.11 590.1
								 C7.43 589.78 7.95 589.78 8.27 590.1 C8.59 590.42 8.59 590.94 8.27 591.26 L4.25 595.28 L0.24 591.26
								 C0.08 591.1 0 590.89 0 590.68 Z" class="st7"/>
				</g>
				<g id="shape128-36" v:mID="128" v:groupContext="shape" transform="translate(13.732,-7.92503)">
					<title>Sheet.128</title>
					<g id="shadow128-37" v:groupContext="shadow" v:shadowOffsetX="0.3456" v:shadowOffsetY="-1.9728"
							v:shadowType="1" transform="matrix(1,0,0,1,-1.9728,0.3456)" class="st1">
						<path d="M0 594.45 C0 594 0.37 593.63 0.82 593.63 L4.86 593.63 L4.86 589.6 C4.86 589.14 5.23 588.77 5.68
									 588.77 C6.13 588.77 6.5 589.14 6.5 589.6 L6.5 595.27 L0.83 595.27 C0.37 595.28 0 594.91 0 594.45
									 Z" class="st6"/>
					</g>
					<path d="M0 594.45 C0 594 0.37 593.63 0.82 593.63 L4.86 593.63 L4.86 589.6 C4.86 589.14 5.23 588.77 5.68 588.77
								 C6.13 588.77 6.5 589.14 6.5 589.6 L6.5 595.27 L0.83 595.27 C0.37 595.28 0 594.91 0 594.45 Z"
							class="st7"/>
				</g>
				<g id="shape129-41" v:mID="129" v:groupContext="shape" transform="translate(1.0042E-13,-7.92383)">
					<title>Sheet.129</title>
					<g id="shadow129-42" v:groupContext="shadow" v:shadowOffsetX="0.3456" v:shadowOffsetY="-1.9728"
							v:shadowType="1" transform="matrix(1,0,0,1,-1.9728,0.3456)" class="st1">
						<path d="M0 595.27 L0 589.6 C0 589.14 0.37 588.78 0.82 588.78 C1.28 588.78 1.64 589.14 1.64 589.6 L1.64 593.63
									 L5.68 593.63 C6.13 593.63 6.5 594 6.5 594.45 C6.5 594.91 6.13 595.28 5.68 595.28 L0 595.28 L0
									 595.27 Z" class="st6"/>
					</g>
					<path d="M0 595.27 L0 589.6 C0 589.14 0.37 588.78 0.82 588.78 C1.28 588.78 1.64 589.14 1.64 589.6 L1.64 593.63
								 L5.68 593.63 C6.13 593.63 6.5 594 6.5 594.45 C6.5 594.91 6.13 595.28 5.68 595.28 L0 595.28 L0 595.27
								 Z" class="st7"/>
				</g>
			</g>
		</g>
		<g id="shape135-46" v:mID="135" v:groupContext="shape" transform="translate(358.482,-501.731)">
			<title>Sheet.135</title>
			<desc>Web Roles</desc>
			<v:textBlock v:margins="rect(4,4,4,4)" v:tabSpace="42.5197"/>
			<v:textRect cx="31.169" cy="586.77" width="62.34" height="17.0111"/>
			<rect x="0" y="578.264" width="62.3381" height="17.0111" class="st9"/>
			<text x="5.21" y="590.37" class="st10" v:langID="2057"><v:paragraph v:horizAlign="1"/><v:tabList/>Web Roles</text>		</g>
		<g id="shape137-49" v:mID="137" v:groupContext="shape" transform="translate(242.763,-492.062)">
			<title>Sheet.137</title>
			<desc>Azure Load Balancer</desc>
			<v:textBlock v:margins="rect(4,4,4,4)" v:tabSpace="42.5197"/>
			<v:textRect cx="39.9522" cy="577.101" width="79.91" height="36.3494"/>
			<rect x="0" y="558.926" width="79.9045" height="36.3494" class="st9"/>
			<text x="12.81" y="573.5" class="st10" v:langID="2057"><v:paragraph v:horizAlign="1"/><v:tabList/>Azure Load <tspan
						x="18.8" dy="1.2em" class="st11">Balancer</tspan></text>		</g>
		<g id="shape138-53" v:mID="138" v:groupContext="shape" transform="translate(211.228,-371.88)">
			<title>Sheet.138</title>
			<desc>HTTP</desc>
			<v:textBlock v:margins="rect(4,4,4,4)" v:tabSpace="42.5197"/>
			<v:textRect cx="20.7649" cy="586.77" width="41.53" height="17.0111"/>
			<rect x="0" y="578.264" width="41.5299" height="17.0111" class="st9"/>
			<text x="10.19" y="589.77" class="st12" v:langID="2057"><v:paragraph v:horizAlign="1"/><v:tabList/>HTTP</text>		</g>
		<g id="group197-56" transform="translate(98.8978,-371.88)" v:mID="197" v:groupContext="group">
			<title>Sheet.197</title>
			<g id="shape1-57" v:mID="1" v:groupContext="shape" transform="translate(-1.59872E-14,-36.1653)">
				<title>Rounded Rectangle</title>
				<v:userDefs>
					<v:ud v:nameU="CTypeTopLeftSnip" v:prompt="" v:val="VT0(0):5"/>
					<v:ud v:nameU="CTypeTopRightSnip" v:prompt="" v:val="VT0(0):5"/>
					<v:ud v:nameU="CTypeBotLeftSnip" v:prompt="" v:val="VT0(0):5"/>
					<v:ud v:nameU="CTypeBotRightSnip" v:prompt="" v:val="VT0(0):5"/>
					<v:ud v:nameU="CornerLockHoriz" v:prompt="" v:val="VT0(1):5"/>
					<v:ud v:nameU="CornerLockVert" v:prompt="" v:val="VT0(1):5"/>
					<v:ud v:nameU="CornerLockDiag" v:prompt="" v:val="VT0(0):5"/>
					<v:ud v:nameU="TopLeftOffset" v:prompt="" v:val="VT0(0.15748031496063):24"/>
					<v:ud v:nameU="TopRightOffset" v:prompt="" v:val="VT0(0.15748031496063):24"/>
					<v:ud v:nameU="BotLeftOffset" v:prompt="" v:val="VT0(0.15748031496063):24"/>
					<v:ud v:nameU="BotRightOffset" v:prompt="" v:val="VT0(0.15748031496063):24"/>
					<v:ud v:nameU="visVersion" v:prompt="" v:val="VT0(15):26"/>
					<v:ud v:nameU="TopLeftOffset" v:prompt="" v:val="VT0(0.10045928768678):1"/>
					<v:ud v:nameU="TopRightOffset" v:prompt="" v:val="VT0(0.10045928768678):1"/>
					<v:ud v:nameU="BotLeftOffset" v:prompt="" v:val="VT0(0.10045928768678):1"/>
					<v:ud v:nameU="BotRightOffset" v:prompt="" v:val="VT0(0.10045928768678):1"/>
				</v:userDefs>
				<g id="shadow1-58" v:groupContext="shadow" v:shadowOffsetX="0.345598" v:shadowOffsetY="-1.97279" v:shadowType="1"
						transform="matrix(1,0,0,1,0.345598,1.97279)" class="st1">
					<path d="M7.23 595.28 L65.1 595.28 A7.23295 7.23295 -180 0 0 72.33 588.04 L72.33 566.34 A7.23295 7.23295 -180
								 0 0 65.1 559.11 L7.23 559.11 A7.23295 7.23295 -180 0 0 0 566.34 L0 588.04 A7.23295 7.23295 -180
								 0 0 7.23 595.28 Z" class="st13"/>
				</g>
				<path d="M7.23 595.28 L65.1 595.28 A7.23295 7.23295 -180 0 0 72.33 588.04 L72.33 566.34 A7.23295 7.23295 -180 0 0
							 65.1 559.11 L7.23 559.11 A7.23295 7.23295 -180 0 0 0 566.34 L0 588.04 A7.23295 7.23295 -180 0 0 7.23
							 595.28 Z" class="st14"/>
			</g>
			<g id="shape2-62" v:mID="2" v:groupContext="shape" transform="translate(9.64409,-24.1102)">
				<title>Rounded Rectangle.2</title>
				<v:userDefs>
					<v:ud v:nameU="CTypeTopLeftSnip" v:prompt="" v:val="VT0(0):5"/>
					<v:ud v:nameU="CTypeTopRightSnip" v:prompt="" v:val="VT0(0):5"/>
					<v:ud v:nameU="CTypeBotLeftSnip" v:prompt="" v:val="VT0(0):5"/>
					<v:ud v:nameU="CTypeBotRightSnip" v:prompt="" v:val="VT0(0):5"/>
					<v:ud v:nameU="CornerLockHoriz" v:prompt="" v:val="VT0(1):5"/>
					<v:ud v:nameU="CornerLockVert" v:prompt="" v:val="VT0(1):5"/>
					<v:ud v:nameU="CornerLockDiag" v:prompt="" v:val="VT0(0):5"/>
					<v:ud v:nameU="TopLeftOffset" v:prompt="" v:val="VT0(0.15748031496063):24"/>
					<v:ud v:nameU="TopRightOffset" v:prompt="" v:val="VT0(0.15748031496063):24"/>
					<v:ud v:nameU="BotLeftOffset" v:prompt="" v:val="VT0(0.15748031496063):24"/>
					<v:ud v:nameU="BotRightOffset" v:prompt="" v:val="VT0(0.15748031496063):24"/>
					<v:ud v:nameU="visVersion" v:prompt="" v:val="VT0(15):26"/>
					<v:ud v:nameU="TopLeftOffset" v:prompt="" v:val="VT0(0.10045928768678):1"/>
					<v:ud v:nameU="TopRightOffset" v:prompt="" v:val="VT0(0.10045928768678):1"/>
					<v:ud v:nameU="BotLeftOffset" v:prompt="" v:val="VT0(0.10045928768678):1"/>
					<v:ud v:nameU="BotRightOffset" v:prompt="" v:val="VT0(0.10045928768678):1"/>
				</v:userDefs>
				<g id="shadow2-63" v:groupContext="shadow" v:shadowOffsetX="0.345598" v:shadowOffsetY="-1.97279" v:shadowType="1"
						transform="matrix(1,0,0,1,0.345598,1.97279)" class="st1">
					<path d="M7.23 595.28 L65.1 595.28 A7.23295 7.23295 -180 0 0 72.33 588.04 L72.33 566.34 A7.23295 7.23295 -180
								 0 0 65.1 559.11 L7.23 559.11 A7.23295 7.23295 -180 0 0 0 566.34 L0 588.04 A7.23295 7.23295 -180
								 0 0 7.23 595.28 Z" class="st13"/>
				</g>
				<path d="M7.23 595.28 L65.1 595.28 A7.23295 7.23295 -180 0 0 72.33 588.04 L72.33 566.34 A7.23295 7.23295 -180 0 0
							 65.1 559.11 L7.23 559.11 A7.23295 7.23295 -180 0 0 0 566.34 L0 588.04 A7.23295 7.23295 -180 0 0 7.23
							 595.28 Z" class="st14"/>
			</g>
			<g id="shape3-67" v:mID="3" v:groupContext="shape" transform="translate(19.2882,-12.0551)">
				<title>Rounded Rectangle.3</title>
				<v:userDefs>
					<v:ud v:nameU="CTypeTopLeftSnip" v:prompt="" v:val="VT0(0):5"/>
					<v:ud v:nameU="CTypeTopRightSnip" v:prompt="" v:val="VT0(0):5"/>
					<v:ud v:nameU="CTypeBotLeftSnip" v:prompt="" v:val="VT0(0):5"/>
					<v:ud v:nameU="CTypeBotRightSnip" v:prompt="" v:val="VT0(0):5"/>
					<v:ud v:nameU="CornerLockHoriz" v:prompt="" v:val="VT0(1):5"/>
					<v:ud v:nameU="CornerLockVert" v:prompt="" v:val="VT0(1):5"/>
					<v:ud v:nameU="CornerLockDiag" v:prompt="" v:val="VT0(0):5"/>
					<v:ud v:nameU="TopLeftOffset" v:prompt="" v:val="VT0(0.15748031496063):24"/>
					<v:ud v:nameU="TopRightOffset" v:prompt="" v:val="VT0(0.15748031496063):24"/>
					<v:ud v:nameU="BotLeftOffset" v:prompt="" v:val="VT0(0.15748031496063):24"/>
					<v:ud v:nameU="BotRightOffset" v:prompt="" v:val="VT0(0.15748031496063):24"/>
					<v:ud v:nameU="visVersion" v:prompt="" v:val="VT0(15):26"/>
					<v:ud v:nameU="TopLeftOffset" v:prompt="" v:val="VT0(0.10045928768678):1"/>
					<v:ud v:nameU="TopRightOffset" v:prompt="" v:val="VT0(0.10045928768678):1"/>
					<v:ud v:nameU="BotLeftOffset" v:prompt="" v:val="VT0(0.10045928768678):1"/>
					<v:ud v:nameU="BotRightOffset" v:prompt="" v:val="VT0(0.10045928768678):1"/>
				</v:userDefs>
				<g id="shadow3-68" v:groupContext="shadow" v:shadowOffsetX="0.345598" v:shadowOffsetY="-1.97279" v:shadowType="1"
						transform="matrix(1,0,0,1,0.345598,1.97279)" class="st1">
					<path d="M7.23 595.28 L65.1 595.28 A7.23295 7.23295 -180 0 0 72.33 588.04 L72.33 566.34 A7.23295 7.23295 -180
								 0 0 65.1 559.11 L7.23 559.11 A7.23295 7.23295 -180 0 0 0 566.34 L0 588.04 A7.23295 7.23295 -180
								 0 0 7.23 595.28 Z" class="st13"/>
				</g>
				<path d="M7.23 595.28 L65.1 595.28 A7.23295 7.23295 -180 0 0 72.33 588.04 L72.33 566.34 A7.23295 7.23295 -180 0 0
							 65.1 559.11 L7.23 559.11 A7.23295 7.23295 -180 0 0 0 566.34 L0 588.04 A7.23295 7.23295 -180 0 0 7.23
							 595.28 Z" class="st14"/>
			</g>
			<g id="shape4-72" v:mID="4" v:groupContext="shape" transform="translate(31.3433,0)">
				<title>Rounded Rectangle.4</title>
				<desc>Devices</desc>
				<v:userDefs>
					<v:ud v:nameU="CTypeTopLeftSnip" v:prompt="" v:val="VT0(0):5"/>
					<v:ud v:nameU="CTypeTopRightSnip" v:prompt="" v:val="VT0(0):5"/>
					<v:ud v:nameU="CTypeBotLeftSnip" v:prompt="" v:val="VT0(0):5"/>
					<v:ud v:nameU="CTypeBotRightSnip" v:prompt="" v:val="VT0(0):5"/>
					<v:ud v:nameU="CornerLockHoriz" v:prompt="" v:val="VT0(1):5"/>
					<v:ud v:nameU="CornerLockVert" v:prompt="" v:val="VT0(1):5"/>
					<v:ud v:nameU="CornerLockDiag" v:prompt="" v:val="VT0(0):5"/>
					<v:ud v:nameU="TopLeftOffset" v:prompt="" v:val="VT0(0.15748031496063):24"/>
					<v:ud v:nameU="TopRightOffset" v:prompt="" v:val="VT0(0.15748031496063):24"/>
					<v:ud v:nameU="BotLeftOffset" v:prompt="" v:val="VT0(0.15748031496063):24"/>
					<v:ud v:nameU="BotRightOffset" v:prompt="" v:val="VT0(0.15748031496063):24"/>
					<v:ud v:nameU="visVersion" v:prompt="" v:val="VT0(15):26"/>
					<v:ud v:nameU="TopLeftOffset" v:prompt="" v:val="VT0(0.10045928768678):1"/>
					<v:ud v:nameU="TopRightOffset" v:prompt="" v:val="VT0(0.10045928768678):1"/>
					<v:ud v:nameU="BotLeftOffset" v:prompt="" v:val="VT0(0.10045928768678):1"/>
					<v:ud v:nameU="BotRightOffset" v:prompt="" v:val="VT0(0.10045928768678):1"/>
				</v:userDefs>
				<v:textBlock v:margins="rect(4,4,4,4)" v:tabSpace="42.5197"/>
				<v:textRect cx="36.1653" cy="577.193" width="72.34" height="36.1653"/>
				<g id="shadow4-73" v:groupContext="shadow" v:shadowOffsetX="0.345598" v:shadowOffsetY="-1.97279" v:shadowType="1"
						transform="matrix(1,0,0,1,0.345598,1.97279)" class="st1">
					<path d="M7.23 595.28 L65.1 595.28 A7.23295 7.23295 -180 0 0 72.33 588.04 L72.33 566.34 A7.23295 7.23295 -180
								 0 0 65.1 559.11 L7.23 559.11 A7.23295 7.23295 -180 0 0 0 566.34 L0 588.04 A7.23295 7.23295 -180
								 0 0 7.23 595.28 Z" class="st13"/>
				</g>
				<path d="M7.23 595.28 L65.1 595.28 A7.23295 7.23295 -180 0 0 72.33 588.04 L72.33 566.34 A7.23295 7.23295 -180 0 0
							 65.1 559.11 L7.23 559.11 A7.23295 7.23295 -180 0 0 0 566.34 L0 588.04 A7.23295 7.23295 -180 0 0 7.23
							 595.28 Z" class="st14"/>
				<text x="19.09" y="580.49" class="st15" v:langID="2057"><v:paragraph v:horizAlign="1"/><v:tabList/>Devices</text>			</g>
		</g>
		<g id="shape208-78" v:mID="208" v:groupContext="shape" v:layerMember="0" transform="translate(202.572,-382.876)">
			<title>Dynamic connector</title>
			<path d="M0 588.19 L51.8 588.19" class="st16"/>
		</g>
		<g id="shape209-84" v:mID="209" v:groupContext="shape" v:layerMember="0" transform="translate(304.017,-402.049)">
			<title>Dynamic connector.209</title>
			<path d="M0 588.19 L51.8 588.19" class="st16"/>
		</g>
		<g id="shape210-89" v:mID="210" v:groupContext="shape" v:layerMember="0" transform="translate(282.715,-419.853)">
			<title>Dynamic connector.210</title>
			<path d="M0 595.28 L0 543.69 L73.1 543.69" class="st16"/>
		</g>
		<g id="shape211-94" v:mID="211" v:groupContext="shape" v:layerMember="0" transform="translate(304.017,-364.094)">
			<title>Dynamic connector.211</title>
			<path d="M0 588.19 L51.8 588.19" class="st16"/>
		</g>
		<g id="shape212-99" v:mID="212" v:groupContext="shape" v:layerMember="0" transform="translate(282.715,-360.839)">
			<title>Dynamic connector.212</title>
			<path d="M0 595.28 L0 647.24 L73.1 647.24" class="st16"/>
		</g>
		<g id="group218-104" transform="translate(362.859,-287.188)" v:mID="218" v:groupContext="group">
			<title>Sheet.218</title>
			<g id="group31-105" transform="translate(-1.59872E-14,-162.564)" v:mID="31" v:groupContext="group">
				<title>Web Role</title>
				<g id="shape32-106" v:mID="32" v:groupContext="shape" transform="translate(19.9036,-9.3983)">
					<title>Sheet.32</title>
					<g id="shadow32-107" v:groupContext="shadow" v:shadowOffsetX="0.3456" v:shadowOffsetY="-1.9728"
							v:shadowType="1" transform="matrix(1,0,0,1,0.3456,1.9728)" class="st1">
						<path d="M6.29 595.28 L6.29 589.5 C4 589.54 1.83 589.99 0 590.77 C1.53 593.43 3.77 595.14 6.29 595.28 Z"
								class="st6"/>
					</g>
					<path d="M6.29 595.28 L6.29 589.5 C4 589.54 1.83 589.99 0 590.77 C1.53 593.43 3.77 595.14 6.29 595.28 Z"
							class="st18"/>
				</g>
				<g id="shape33-111" v:mID="33" v:groupContext="shape" transform="translate(32.3728,-31.1595)">
					<title>Sheet.33</title>
					<g id="shadow33-112" v:groupContext="shadow" v:shadowOffsetX="0.3456" v:shadowOffsetY="-1.9728"
							v:shadowType="1" transform="matrix(1,0,0,1,0.3456,1.9728)" class="st1">
						<path d="M3.19 594.61 C2.21 593.7 1.14 592.96 0 592.4 C0.83 593.2 1.57 594.17 2.2 595.28 C2.55 595.07 2.87
									 594.85 3.19 594.61 Z" class="st6"/>
					</g>
					<path d="M3.19 594.61 C2.21 593.7 1.14 592.96 0 592.4 C0.83 593.2 1.57 594.17 2.2 595.28 C2.55 595.07 2.87 594.85
								 3.19 594.61 Z" class="st18"/>
				</g>
				<g id="shape34-116" v:mID="34" v:groupContext="shape" transform="translate(19.9116,-29.1679)">
					<title>Sheet.34</title>
					<g id="shadow34-117" v:groupContext="shadow" v:shadowOffsetX="0.3456" v:shadowOffsetY="-1.9728"
							v:shadowType="1" transform="matrix(1,0,0,1,0.3456,1.9728)" class="st1">
						<path d="M0 593.99 C1.84 594.78 4.02 595.24 6.28 595.28 L6.28 589.5 C3.77 589.63 1.53 591.34 0 593.99 Z"
								class="st6"/>
					</g>
					<path d="M0 593.99 C1.84 594.78 4.02 595.24 6.28 595.28 L6.28 589.5 C3.77 589.63 1.53 591.34 0 593.99 Z"
							class="st18"/>
				</g>
				<g id="shape35-121" v:mID="35" v:groupContext="shape" transform="translate(17.8514,-22.4811)">
					<title>Sheet.35</title>
					<g id="shadow35-122" v:groupContext="shadow" v:shadowOffsetX="0.3456" v:shadowOffsetY="-1.9728"
							v:shadowType="1" transform="matrix(1,0,0,1,0.3456,1.9728)" class="st1">
						<path d="M0 595.28 L8.34 595.28 L8.34 589.83 C5.84 589.79 3.49 589.29 1.48 588.42 C0.58 590.38 0.04 592.74
									 0 595.28 Z" class="st6"/>
					</g>
					<path d="M0 595.28 L8.34 595.28 L8.34 589.83 C5.84 589.79 3.49 589.29 1.48 588.42 C0.58 590.38 0.04 592.74 0
								 595.28 Z" class="st18"/>
				</g>
				<g id="shape36-126" v:mID="36" v:groupContext="shape" transform="translate(17.8514,-15.0019)">
					<title>Sheet.36</title>
					<g id="shadow36-127" v:groupContext="shadow" v:shadowOffsetX="0.3456" v:shadowOffsetY="-1.9728"
							v:shadowType="1" transform="matrix(1,0,0,1,0.3456,1.9728)" class="st1">
						<path d="M1.48 595.28 C3.49 594.4 5.85 593.9 8.34 593.86 L8.34 588.42 L0 588.42 C0.04 590.95 0.58 593.31
									 1.48 595.28 Z" class="st6"/>
					</g>
					<path d="M1.48 595.28 C3.49 594.4 5.85 593.9 8.34 593.86 L8.34 588.42 L0 588.42 C0.04 590.95 0.58 593.31 1.48
								 595.28 Z" class="st18"/>
				</g>
				<g id="shape37-131" v:mID="37" v:groupContext="shape" transform="translate(17.4553,-10.2988)">
					<title>Sheet.37</title>
					<g id="shadow37-132" v:groupContext="shadow" v:shadowOffsetX="0.3456" v:shadowOffsetY="-1.9728"
							v:shadowType="1" transform="matrix(1,0,0,1,0.3456,1.9728)" class="st1">
						<path d="M0 593.06 C0.97 593.97 2.05 594.71 3.19 595.28 C2.36 594.47 1.62 593.5 0.99 592.4 C0.64 592.6 0.31
									 592.82 0 593.06 Z" class="st6"/>
					</g>
					<path d="M0 593.06 C0.97 593.97 2.05 594.71 3.19 595.28 C2.36 594.47 1.62 593.5 0.99 592.4 C0.64 592.6 0.31 592.82
								 0 593.06 Z" class="st18"/>
				</g>
				<g id="shape38-136" v:mID="38" v:groupContext="shape" transform="translate(17.4632,-31.1744)">
					<title>Sheet.38</title>
					<g id="shadow38-137" v:groupContext="shadow" v:shadowOffsetX="0.3456" v:shadowOffsetY="-1.9728"
							v:shadowType="1" transform="matrix(1,0,0,1,0.3456,1.9728)" class="st1">
						<path d="M3.17 592.41 C2.04 592.97 0.97 593.71 0 594.62 C0.31 594.85 0.64 595.07 0.99 595.28 C1.61 594.18
									 2.35 593.21 3.17 592.41 Z" class="st6"/>
					</g>
					<path d="M3.17 592.41 C2.04 592.97 0.97 593.71 0 594.62 C0.31 594.85 0.64 595.07 0.99 595.28 C1.61 594.18 2.35
								 593.21 3.17 592.41 Z" class="st18"/>
				</g>
				<g id="shape39-141" v:mID="39" v:groupContext="shape" transform="translate(13.2744,-22.4801)">
					<title>Sheet.39</title>
					<g id="shadow39-142" v:groupContext="shadow" v:shadowOffsetX="0.3456" v:shadowOffsetY="-1.9728"
							v:shadowType="1" transform="matrix(1,0,0,1,0.3456,1.9728)" class="st1">
						<path d="M4.6 587.69 C4.15 587.42 3.72 587.14 3.32 586.83 C1.18 589.25 0.07 592.24 0 595.28 L2.92 595.28
									 C2.97 592.48 3.58 589.88 4.6 587.69 Z" class="st6"/>
					</g>
					<path d="M4.6 587.69 C4.15 587.42 3.72 587.14 3.32 586.83 C1.18 589.25 0.07 592.24 0 595.28 L2.92 595.28 C2.97
								 592.48 3.58 589.88 4.6 587.69 Z" class="st18"/>
				</g>
				<g id="shape40-146" v:mID="40" v:groupContext="shape" transform="translate(13.2734,-13.4134)">
					<title>Sheet.40</title>
					<g id="shadow40-147" v:groupContext="shadow" v:shadowOffsetX="0.3456" v:shadowOffsetY="-1.9728"
							v:shadowType="1" transform="matrix(1,0,0,1,0.3456,1.9728)" class="st1">
						<path d="M2.92 586.83 L0 586.83 C0.07 589.86 1.17 592.86 3.31 595.28 C3.71 594.97 4.15 594.68 4.6 594.42
									 C3.58 592.23 2.97 589.62 2.92 586.83 Z" class="st6"/>
					</g>
					<path d="M2.92 586.83 L0 586.83 C0.07 589.86 1.17 592.86 3.31 595.28 C3.71 594.97 4.15 594.68 4.6 594.42 C3.58
								 592.23 2.97 589.62 2.92 586.83 Z" class="st18"/>
				</g>
				<g id="shape41-151" v:mID="41" v:groupContext="shape" transform="translate(26.8148,-15.0029)">
					<title>Sheet.41</title>
					<g id="shadow41-152" v:groupContext="shadow" v:shadowOffsetX="0.3456" v:shadowOffsetY="-1.9728"
							v:shadowType="1" transform="matrix(1,0,0,1,0.3456,1.9728)" class="st1">
						<path d="M8.34 588.42 L0 588.42 L0 593.86 C2.49 593.9 4.85 594.4 6.86 595.28 C7.77 593.31 8.3 590.95 8.34
									 588.42 Z" class="st6"/>
					</g>
					<path d="M8.34 588.42 L0 588.42 L0 593.86 C2.49 593.9 4.85 594.4 6.86 595.28 C7.77 593.31 8.3 590.95 8.34 588.42
								 Z" class="st18"/>
				</g>
				<g id="shape42-156" v:mID="42" v:groupContext="shape" transform="translate(35.1349,-13.4154)">
					<title>Sheet.42</title>
					<g id="shadow42-157" v:groupContext="shadow" v:shadowOffsetX="0.3456" v:shadowOffsetY="-1.9728"
							v:shadowType="1" transform="matrix(1,0,0,1,0.3456,1.9728)" class="st1">
						<path d="M0 594.42 C0.46 594.68 0.89 594.97 1.29 595.28 C3.42 592.86 4.51 589.87 4.6 586.83 L1.68 586.83
									 C1.64 589.62 1.03 592.23 0 594.42 Z" class="st6"/>
					</g>
					<path d="M0 594.42 C0.46 594.68 0.89 594.97 1.29 595.28 C3.42 592.86 4.51 589.87 4.6 586.83 L1.68 586.83 C1.64
								 589.62 1.03 592.23 0 594.42 Z" class="st18"/>
				</g>
				<g id="shape43-161" v:mID="43" v:groupContext="shape" transform="translate(35.1359,-22.4811)">
					<title>Sheet.43</title>
					<g id="shadow43-162" v:groupContext="shadow" v:shadowOffsetX="0.3456" v:shadowOffsetY="-1.9728"
							v:shadowType="1" transform="matrix(1,0,0,1,0.3456,1.9728)" class="st1">
						<path d="M0 587.69 C1.03 589.88 1.63 592.48 1.68 595.28 L4.61 595.28 C4.56 592.25 3.44 589.25 1.29 586.83
									 C0.89 587.14 0.46 587.42 0 587.69 Z" class="st6"/>
					</g>
					<path d="M0 587.69 C1.03 589.88 1.63 592.48 1.68 595.28 L4.61 595.28 C4.56 592.25 3.44 589.25 1.29 586.83 C0.89
								 587.14 0.46 587.42 0 587.69 Z" class="st18"/>
				</g>
				<g id="shape44-166" v:mID="44" v:groupContext="shape" transform="translate(26.8148,-29.1669)">
					<title>Sheet.44</title>
					<g id="shadow44-167" v:groupContext="shadow" v:shadowOffsetX="0.3456" v:shadowOffsetY="-1.9728"
							v:shadowType="1" transform="matrix(1,0,0,1,0.3456,1.9728)" class="st1">
						<path d="M0 589.5 L0 595.28 C2.29 595.24 4.45 594.79 6.29 594 C4.76 591.35 2.52 589.63 0 589.5 Z"
								class="st6"/>
					</g>
					<path d="M0 589.5 L0 595.28 C2.29 595.24 4.45 594.79 6.29 594 C4.76 591.35 2.52 589.63 0 589.5 Z" class="st18"/>
				</g>
				<g id="shape45-171" v:mID="45" v:groupContext="shape">
					<title>Sheet.45</title>
					<g id="shadow45-172" v:groupContext="shadow" v:shadowOffsetX="0.3456" v:shadowOffsetY="-1.9728"
							v:shadowType="1" transform="matrix(1,0,0,1,0.3456,1.9728)" class="st1">
						<path d="M51.22 551.9 L2.36 551.9 C1.06 551.9 0 553.13 0 554.64 L0 592.53 C-0 594.05 1.06 595.28 2.36 595.28
									 L51.22 595.28 C52.53 595.28 53.58 594.05 53.58 592.53 L53.58 554.64 C53.58 553.13 52.53 551.9
									 51.22 551.9 ZM37.31 583.91 C34.33 586.89 30.41 588.38 26.51 588.38 C22.6 588.38 18.68 586.89
									 15.7 583.91 C12.72 580.93 11.23 577.01 11.23 573.11 C11.23 569.2 12.72 565.28 15.7 562.3 C18.68
									 559.33 22.6 557.83 26.5 557.83 L26.51 557.83 C30.41 557.83 34.33 559.32 37.31 562.3 C40.25 565.25
									 41.78 569.12 41.78 572.99 C41.78 576.92 40.32 580.9 37.31 583.91 Z" class="st6"/>
					</g>
					<path d="M51.22 551.9 L2.36 551.9 C1.06 551.9 0 553.13 0 554.64 L0 592.53 C-0 594.05 1.06 595.28 2.36 595.28
								 L51.22 595.28 C52.53 595.28 53.58 594.05 53.58 592.53 L53.58 554.64 C53.58 553.13 52.53 551.9 51.22
								 551.9 ZM37.31 583.91 C34.33 586.89 30.41 588.38 26.51 588.38 C22.6 588.38 18.68 586.89 15.7 583.91
								 C12.72 580.93 11.23 577.01 11.23 573.11 C11.23 569.2 12.72 565.28 15.7 562.3 C18.68 559.33 22.6
								 557.83 26.5 557.83 L26.51 557.83 C30.41 557.83 34.33 559.32 37.31 562.3 C40.25 565.25 41.78 569.12
								 41.78 572.99 C41.78 576.92 40.32 580.9 37.31 583.91 Z" class="st18"/>
				</g>
				<g id="shape46-176" v:mID="46" v:groupContext="shape" transform="translate(26.8148,-22.4811)">
					<title>Sheet.46</title>
					<g id="shadow46-177" v:groupContext="shadow" v:shadowOffsetX="0.3456" v:shadowOffsetY="-1.9728"
							v:shadowType="1" transform="matrix(1,0,0,1,0.3456,1.9728)" class="st1">
						<path d="M6.86 588.42 C4.85 589.29 2.49 589.79 0 589.83 L0 595.28 L8.34 595.28 C8.3 592.74 7.77 590.38 6.86
									 588.42 Z" class="st6"/>
					</g>
					<path d="M6.86 588.42 C4.85 589.29 2.49 589.79 0 589.83 L0 595.28 L8.34 595.28 C8.3 592.74 7.77 590.38 6.86 588.42
								 Z" class="st18"/>
				</g>
				<g id="shape47-181" v:mID="47" v:groupContext="shape" transform="translate(26.8148,-9.39929)">
					<title>Sheet.47</title>
					<g id="shadow47-182" v:groupContext="shadow" v:shadowOffsetX="0.3456" v:shadowOffsetY="-1.9728"
							v:shadowType="1" transform="matrix(1,0,0,1,0.3456,1.9728)" class="st1">
						<path d="M0 589.5 L0 595.28 C2.52 595.14 4.76 593.43 6.29 590.77 C4.46 589.99 2.29 589.54 0 589.5 Z"
								class="st6"/>
					</g>
					<path d="M0 589.5 L0 595.28 C2.52 595.14 4.76 593.43 6.29 590.77 C4.46 589.99 2.29 589.54 0 589.5 Z"
							class="st18"/>
				</g>
				<g id="shape48-186" v:mID="48" v:groupContext="shape" transform="translate(32.3698,-10.2988)">
					<title>Sheet.48</title>
					<g id="shadow48-187" v:groupContext="shadow" v:shadowOffsetX="0.3456" v:shadowOffsetY="-1.9728"
							v:shadowType="1" transform="matrix(1,0,0,1,0.3456,1.9728)" class="st1">
						<path d="M0 595.28 C1.14 594.71 2.21 593.97 3.19 593.06 C2.88 592.82 2.55 592.6 2.2 592.39 C1.57 593.5 0.83
									 594.47 0 595.28 Z" class="st6"/>
					</g>
					<path d="M0 595.28 C1.14 594.71 2.21 593.97 3.19 593.06 C2.88 592.82 2.55 592.6 2.2 592.39 C1.57 593.5 0.83 594.47
								 0 595.28 Z" class="st18"/>
				</g>
			</g>
			<g id="group140-191" transform="translate(-1.59872E-14,-108.376)" v:mID="140" v:groupContext="group">
				<title>Web Role.140</title>
				<g id="shape141-192" v:mID="141" v:groupContext="shape" transform="translate(19.9036,-9.3983)">
					<title>Sheet.141</title>
					<g id="shadow141-193" v:groupContext="shadow" v:shadowOffsetX="0.3456" v:shadowOffsetY="-1.9728"
							v:shadowType="1" transform="matrix(1,0,0,1,0.3456,1.9728)" class="st1">
						<path d="M6.29 595.28 L6.29 589.5 C4 589.54 1.83 589.99 0 590.77 C1.53 593.43 3.77 595.14 6.29 595.28 Z"
								class="st6"/>
					</g>
					<path d="M6.29 595.28 L6.29 589.5 C4 589.54 1.83 589.99 0 590.77 C1.53 593.43 3.77 595.14 6.29 595.28 Z"
							class="st18"/>
				</g>
				<g id="shape142-197" v:mID="142" v:groupContext="shape" transform="translate(32.3728,-31.1595)">
					<title>Sheet.142</title>
					<g id="shadow142-198" v:groupContext="shadow" v:shadowOffsetX="0.3456" v:shadowOffsetY="-1.9728"
							v:shadowType="1" transform="matrix(1,0,0,1,0.3456,1.9728)" class="st1">
						<path d="M3.19 594.61 C2.21 593.7 1.14 592.96 0 592.4 C0.83 593.2 1.57 594.17 2.2 595.28 C2.55 595.07 2.87
									 594.85 3.19 594.61 Z" class="st6"/>
					</g>
					<path d="M3.19 594.61 C2.21 593.7 1.14 592.96 0 592.4 C0.83 593.2 1.57 594.17 2.2 595.28 C2.55 595.07 2.87 594.85
								 3.19 594.61 Z" class="st18"/>
				</g>
				<g id="shape143-202" v:mID="143" v:groupContext="shape" transform="translate(19.9116,-29.1679)">
					<title>Sheet.143</title>
					<g id="shadow143-203" v:groupContext="shadow" v:shadowOffsetX="0.3456" v:shadowOffsetY="-1.9728"
							v:shadowType="1" transform="matrix(1,0,0,1,0.3456,1.9728)" class="st1">
						<path d="M0 593.99 C1.84 594.78 4.02 595.24 6.28 595.28 L6.28 589.5 C3.77 589.63 1.53 591.34 0 593.99 Z"
								class="st6"/>
					</g>
					<path d="M0 593.99 C1.84 594.78 4.02 595.24 6.28 595.28 L6.28 589.5 C3.77 589.63 1.53 591.34 0 593.99 Z"
							class="st18"/>
				</g>
				<g id="shape144-207" v:mID="144" v:groupContext="shape" transform="translate(17.8514,-22.4811)">
					<title>Sheet.144</title>
					<g id="shadow144-208" v:groupContext="shadow" v:shadowOffsetX="0.3456" v:shadowOffsetY="-1.9728"
							v:shadowType="1" transform="matrix(1,0,0,1,0.3456,1.9728)" class="st1">
						<path d="M0 595.28 L8.34 595.28 L8.34 589.83 C5.84 589.79 3.49 589.29 1.48 588.42 C0.58 590.38 0.04 592.74
									 0 595.28 Z" class="st6"/>
					</g>
					<path d="M0 595.28 L8.34 595.28 L8.34 589.83 C5.84 589.79 3.49 589.29 1.48 588.42 C0.58 590.38 0.04 592.74 0
								 595.28 Z" class="st18"/>
				</g>
				<g id="shape145-212" v:mID="145" v:groupContext="shape" transform="translate(17.8514,-15.0019)">
					<title>Sheet.145</title>
					<g id="shadow145-213" v:groupContext="shadow" v:shadowOffsetX="0.3456" v:shadowOffsetY="-1.9728"
							v:shadowType="1" transform="matrix(1,0,0,1,0.3456,1.9728)" class="st1">
						<path d="M1.48 595.28 C3.49 594.4 5.85 593.9 8.34 593.86 L8.34 588.42 L0 588.42 C0.04 590.95 0.58 593.31
									 1.48 595.28 Z" class="st6"/>
					</g>
					<path d="M1.48 595.28 C3.49 594.4 5.85 593.9 8.34 593.86 L8.34 588.42 L0 588.42 C0.04 590.95 0.58 593.31 1.48
								 595.28 Z" class="st18"/>
				</g>
				<g id="shape146-217" v:mID="146" v:groupContext="shape" transform="translate(17.4553,-10.2988)">
					<title>Sheet.146</title>
					<g id="shadow146-218" v:groupContext="shadow" v:shadowOffsetX="0.3456" v:shadowOffsetY="-1.9728"
							v:shadowType="1" transform="matrix(1,0,0,1,0.3456,1.9728)" class="st1">
						<path d="M0 593.06 C0.97 593.97 2.05 594.71 3.19 595.28 C2.36 594.47 1.62 593.5 0.99 592.4 C0.64 592.6 0.31
									 592.82 0 593.06 Z" class="st6"/>
					</g>
					<path d="M0 593.06 C0.97 593.97 2.05 594.71 3.19 595.28 C2.36 594.47 1.62 593.5 0.99 592.4 C0.64 592.6 0.31 592.82
								 0 593.06 Z" class="st18"/>
				</g>
				<g id="shape147-222" v:mID="147" v:groupContext="shape" transform="translate(17.4632,-31.1744)">
					<title>Sheet.147</title>
					<g id="shadow147-223" v:groupContext="shadow" v:shadowOffsetX="0.3456" v:shadowOffsetY="-1.9728"
							v:shadowType="1" transform="matrix(1,0,0,1,0.3456,1.9728)" class="st1">
						<path d="M3.17 592.41 C2.04 592.97 0.97 593.71 0 594.62 C0.31 594.85 0.64 595.07 0.99 595.28 C1.61 594.18
									 2.35 593.21 3.17 592.41 Z" class="st6"/>
					</g>
					<path d="M3.17 592.41 C2.04 592.97 0.97 593.71 0 594.62 C0.31 594.85 0.64 595.07 0.99 595.28 C1.61 594.18 2.35
								 593.21 3.17 592.41 Z" class="st18"/>
				</g>
				<g id="shape148-227" v:mID="148" v:groupContext="shape" transform="translate(13.2744,-22.4801)">
					<title>Sheet.148</title>
					<g id="shadow148-228" v:groupContext="shadow" v:shadowOffsetX="0.3456" v:shadowOffsetY="-1.9728"
							v:shadowType="1" transform="matrix(1,0,0,1,0.3456,1.9728)" class="st1">
						<path d="M4.6 587.69 C4.15 587.42 3.72 587.14 3.32 586.83 C1.18 589.25 0.07 592.24 0 595.28 L2.92 595.28
									 C2.97 592.48 3.58 589.88 4.6 587.69 Z" class="st6"/>
					</g>
					<path d="M4.6 587.69 C4.15 587.42 3.72 587.14 3.32 586.83 C1.18 589.25 0.07 592.24 0 595.28 L2.92 595.28 C2.97
								 592.48 3.58 589.88 4.6 587.69 Z" class="st18"/>
				</g>
				<g id="shape149-232" v:mID="149" v:groupContext="shape" transform="translate(13.2734,-13.4134)">
					<title>Sheet.149</title>
					<g id="shadow149-233" v:groupContext="shadow" v:shadowOffsetX="0.3456" v:shadowOffsetY="-1.9728"
							v:shadowType="1" transform="matrix(1,0,0,1,0.3456,1.9728)" class="st1">
						<path d="M2.92 586.83 L0 586.83 C0.07 589.86 1.17 592.86 3.31 595.28 C3.71 594.97 4.15 594.68 4.6 594.42
									 C3.58 592.23 2.97 589.62 2.92 586.83 Z" class="st6"/>
					</g>
					<path d="M2.92 586.83 L0 586.83 C0.07 589.86 1.17 592.86 3.31 595.28 C3.71 594.97 4.15 594.68 4.6 594.42 C3.58
								 592.23 2.97 589.62 2.92 586.83 Z" class="st18"/>
				</g>
				<g id="shape150-237" v:mID="150" v:groupContext="shape" transform="translate(26.8148,-15.0029)">
					<title>Sheet.150</title>
					<g id="shadow150-238" v:groupContext="shadow" v:shadowOffsetX="0.3456" v:shadowOffsetY="-1.9728"
							v:shadowType="1" transform="matrix(1,0,0,1,0.3456,1.9728)" class="st1">
						<path d="M8.34 588.42 L0 588.42 L0 593.86 C2.49 593.9 4.85 594.4 6.86 595.28 C7.77 593.31 8.3 590.95 8.34
									 588.42 Z" class="st6"/>
					</g>
					<path d="M8.34 588.42 L0 588.42 L0 593.86 C2.49 593.9 4.85 594.4 6.86 595.28 C7.77 593.31 8.3 590.95 8.34 588.42
								 Z" class="st18"/>
				</g>
				<g id="shape151-242" v:mID="151" v:groupContext="shape" transform="translate(35.1349,-13.4154)">
					<title>Sheet.151</title>
					<g id="shadow151-243" v:groupContext="shadow" v:shadowOffsetX="0.3456" v:shadowOffsetY="-1.9728"
							v:shadowType="1" transform="matrix(1,0,0,1,0.3456,1.9728)" class="st1">
						<path d="M0 594.42 C0.46 594.68 0.89 594.97 1.29 595.28 C3.42 592.86 4.51 589.87 4.6 586.83 L1.68 586.83
									 C1.64 589.62 1.03 592.23 0 594.42 Z" class="st6"/>
					</g>
					<path d="M0 594.42 C0.46 594.68 0.89 594.97 1.29 595.28 C3.42 592.86 4.51 589.87 4.6 586.83 L1.68 586.83 C1.64
								 589.62 1.03 592.23 0 594.42 Z" class="st18"/>
				</g>
				<g id="shape152-247" v:mID="152" v:groupContext="shape" transform="translate(35.1359,-22.4811)">
					<title>Sheet.152</title>
					<g id="shadow152-248" v:groupContext="shadow" v:shadowOffsetX="0.3456" v:shadowOffsetY="-1.9728"
							v:shadowType="1" transform="matrix(1,0,0,1,0.3456,1.9728)" class="st1">
						<path d="M0 587.69 C1.03 589.88 1.63 592.48 1.68 595.28 L4.61 595.28 C4.56 592.25 3.44 589.25 1.29 586.83
									 C0.89 587.14 0.46 587.42 0 587.69 Z" class="st6"/>
					</g>
					<path d="M0 587.69 C1.03 589.88 1.63 592.48 1.68 595.28 L4.61 595.28 C4.56 592.25 3.44 589.25 1.29 586.83 C0.89
								 587.14 0.46 587.42 0 587.69 Z" class="st18"/>
				</g>
				<g id="shape153-252" v:mID="153" v:groupContext="shape" transform="translate(26.8148,-29.1669)">
					<title>Sheet.153</title>
					<g id="shadow153-253" v:groupContext="shadow" v:shadowOffsetX="0.3456" v:shadowOffsetY="-1.9728"
							v:shadowType="1" transform="matrix(1,0,0,1,0.3456,1.9728)" class="st1">
						<path d="M0 589.5 L0 595.28 C2.29 595.24 4.45 594.79 6.29 594 C4.76 591.35 2.52 589.63 0 589.5 Z"
								class="st6"/>
					</g>
					<path d="M0 589.5 L0 595.28 C2.29 595.24 4.45 594.79 6.29 594 C4.76 591.35 2.52 589.63 0 589.5 Z" class="st18"/>
				</g>
				<g id="shape154-257" v:mID="154" v:groupContext="shape">
					<title>Sheet.154</title>
					<g id="shadow154-258" v:groupContext="shadow" v:shadowOffsetX="0.3456" v:shadowOffsetY="-1.9728"
							v:shadowType="1" transform="matrix(1,0,0,1,0.3456,1.9728)" class="st1">
						<path d="M51.22 551.9 L2.36 551.9 C1.06 551.9 0 553.13 0 554.64 L0 592.53 C-0 594.05 1.06 595.28 2.36 595.28
									 L51.22 595.28 C52.53 595.28 53.58 594.05 53.58 592.53 L53.58 554.64 C53.58 553.13 52.53 551.9
									 51.22 551.9 ZM37.31 583.91 C34.33 586.89 30.41 588.38 26.51 588.38 C22.6 588.38 18.68 586.89
									 15.7 583.91 C12.72 580.93 11.23 577.01 11.23 573.11 C11.23 569.2 12.72 565.28 15.7 562.3 C18.68
									 559.33 22.6 557.83 26.5 557.83 L26.51 557.83 C30.41 557.83 34.33 559.32 37.31 562.3 C40.25 565.25
									 41.78 569.12 41.78 572.99 C41.78 576.92 40.32 580.9 37.31 583.91 Z" class="st6"/>
					</g>
					<path d="M51.22 551.9 L2.36 551.9 C1.06 551.9 0 553.13 0 554.64 L0 592.53 C-0 594.05 1.06 595.28 2.36 595.28
								 L51.22 595.28 C52.53 595.28 53.58 594.05 53.58 592.53 L53.58 554.64 C53.58 553.13 52.53 551.9 51.22
								 551.9 ZM37.31 583.91 C34.33 586.89 30.41 588.38 26.51 588.38 C22.6 588.38 18.68 586.89 15.7 583.91
								 C12.72 580.93 11.23 577.01 11.23 573.11 C11.23 569.2 12.72 565.28 15.7 562.3 C18.68 559.33 22.6
								 557.83 26.5 557.83 L26.51 557.83 C30.41 557.83 34.33 559.32 37.31 562.3 C40.25 565.25 41.78 569.12
								 41.78 572.99 C41.78 576.92 40.32 580.9 37.31 583.91 Z" class="st18"/>
				</g>
				<g id="shape155-262" v:mID="155" v:groupContext="shape" transform="translate(26.8148,-22.4811)">
					<title>Sheet.155</title>
					<g id="shadow155-263" v:groupContext="shadow" v:shadowOffsetX="0.3456" v:shadowOffsetY="-1.9728"
							v:shadowType="1" transform="matrix(1,0,0,1,0.3456,1.9728)" class="st1">
						<path d="M6.86 588.42 C4.85 589.29 2.49 589.79 0 589.83 L0 595.28 L8.34 595.28 C8.3 592.74 7.77 590.38 6.86
									 588.42 Z" class="st6"/>
					</g>
					<path d="M6.86 588.42 C4.85 589.29 2.49 589.79 0 589.83 L0 595.28 L8.34 595.28 C8.3 592.74 7.77 590.38 6.86 588.42
								 Z" class="st18"/>
				</g>
				<g id="shape156-267" v:mID="156" v:groupContext="shape" transform="translate(26.8148,-9.39929)">
					<title>Sheet.156</title>
					<g id="shadow156-268" v:groupContext="shadow" v:shadowOffsetX="0.3456" v:shadowOffsetY="-1.9728"
							v:shadowType="1" transform="matrix(1,0,0,1,0.3456,1.9728)" class="st1">
						<path d="M0 589.5 L0 595.28 C2.52 595.14 4.76 593.43 6.29 590.77 C4.46 589.99 2.29 589.54 0 589.5 Z"
								class="st6"/>
					</g>
					<path d="M0 589.5 L0 595.28 C2.52 595.14 4.76 593.43 6.29 590.77 C4.46 589.99 2.29 589.54 0 589.5 Z"
							class="st18"/>
				</g>
				<g id="shape157-272" v:mID="157" v:groupContext="shape" transform="translate(32.3698,-10.2988)">
					<title>Sheet.157</title>
					<g id="shadow157-273" v:groupContext="shadow" v:shadowOffsetX="0.3456" v:shadowOffsetY="-1.9728"
							v:shadowType="1" transform="matrix(1,0,0,1,0.3456,1.9728)" class="st1">
						<path d="M0 595.28 C1.14 594.71 2.21 593.97 3.19 593.06 C2.88 592.82 2.55 592.6 2.2 592.39 C1.57 593.5 0.83
									 594.47 0 595.28 Z" class="st6"/>
					</g>
					<path d="M0 595.28 C1.14 594.71 2.21 593.97 3.19 593.06 C2.88 592.82 2.55 592.6 2.2 592.39 C1.57 593.5 0.83 594.47
								 0 595.28 Z" class="st18"/>
				</g>
			</g>
			<g id="group158-277" transform="translate(-1.59872E-14,-54.1879)" v:mID="158" v:groupContext="group">
				<title>Web Role.158</title>
				<g id="shape159-278" v:mID="159" v:groupContext="shape" transform="translate(19.9036,-9.3983)">
					<title>Sheet.159</title>
					<g id="shadow159-279" v:groupContext="shadow" v:shadowOffsetX="0.3456" v:shadowOffsetY="-1.9728"
							v:shadowType="1" transform="matrix(1,0,0,1,0.3456,1.9728)" class="st1">
						<path d="M6.29 595.28 L6.29 589.5 C4 589.54 1.83 589.99 0 590.77 C1.53 593.43 3.77 595.14 6.29 595.28 Z"
								class="st6"/>
					</g>
					<path d="M6.29 595.28 L6.29 589.5 C4 589.54 1.83 589.99 0 590.77 C1.53 593.43 3.77 595.14 6.29 595.28 Z"
							class="st18"/>
				</g>
				<g id="shape160-283" v:mID="160" v:groupContext="shape" transform="translate(32.3728,-31.1595)">
					<title>Sheet.160</title>
					<g id="shadow160-284" v:groupContext="shadow" v:shadowOffsetX="0.3456" v:shadowOffsetY="-1.9728"
							v:shadowType="1" transform="matrix(1,0,0,1,0.3456,1.9728)" class="st1">
						<path d="M3.19 594.61 C2.21 593.7 1.14 592.96 0 592.4 C0.83 593.2 1.57 594.17 2.2 595.28 C2.55 595.07 2.87
									 594.85 3.19 594.61 Z" class="st6"/>
					</g>
					<path d="M3.19 594.61 C2.21 593.7 1.14 592.96 0 592.4 C0.83 593.2 1.57 594.17 2.2 595.28 C2.55 595.07 2.87 594.85
								 3.19 594.61 Z" class="st18"/>
				</g>
				<g id="shape161-288" v:mID="161" v:groupContext="shape" transform="translate(19.9116,-29.1679)">
					<title>Sheet.161</title>
					<g id="shadow161-289" v:groupContext="shadow" v:shadowOffsetX="0.3456" v:shadowOffsetY="-1.9728"
							v:shadowType="1" transform="matrix(1,0,0,1,0.3456,1.9728)" class="st1">
						<path d="M0 593.99 C1.84 594.78 4.02 595.24 6.28 595.28 L6.28 589.5 C3.77 589.63 1.53 591.34 0 593.99 Z"
								class="st6"/>
					</g>
					<path d="M0 593.99 C1.84 594.78 4.02 595.24 6.28 595.28 L6.28 589.5 C3.77 589.63 1.53 591.34 0 593.99 Z"
							class="st18"/>
				</g>
				<g id="shape162-293" v:mID="162" v:groupContext="shape" transform="translate(17.8514,-22.4811)">
					<title>Sheet.162</title>
					<g id="shadow162-294" v:groupContext="shadow" v:shadowOffsetX="0.3456" v:shadowOffsetY="-1.9728"
							v:shadowType="1" transform="matrix(1,0,0,1,0.3456,1.9728)" class="st1">
						<path d="M0 595.28 L8.34 595.28 L8.34 589.83 C5.84 589.79 3.49 589.29 1.48 588.42 C0.58 590.38 0.04 592.74
									 0 595.28 Z" class="st6"/>
					</g>
					<path d="M0 595.28 L8.34 595.28 L8.34 589.83 C5.84 589.79 3.49 589.29 1.48 588.42 C0.58 590.38 0.04 592.74 0
								 595.28 Z" class="st18"/>
				</g>
				<g id="shape163-298" v:mID="163" v:groupContext="shape" transform="translate(17.8514,-15.0019)">
					<title>Sheet.163</title>
					<g id="shadow163-299" v:groupContext="shadow" v:shadowOffsetX="0.3456" v:shadowOffsetY="-1.9728"
							v:shadowType="1" transform="matrix(1,0,0,1,0.3456,1.9728)" class="st1">
						<path d="M1.48 595.28 C3.49 594.4 5.85 593.9 8.34 593.86 L8.34 588.42 L0 588.42 C0.04 590.95 0.58 593.31
									 1.48 595.28 Z" class="st6"/>
					</g>
					<path d="M1.48 595.28 C3.49 594.4 5.85 593.9 8.34 593.86 L8.34 588.42 L0 588.42 C0.04 590.95 0.58 593.31 1.48
								 595.28 Z" class="st18"/>
				</g>
				<g id="shape164-303" v:mID="164" v:groupContext="shape" transform="translate(17.4553,-10.2988)">
					<title>Sheet.164</title>
					<g id="shadow164-304" v:groupContext="shadow" v:shadowOffsetX="0.3456" v:shadowOffsetY="-1.9728"
							v:shadowType="1" transform="matrix(1,0,0,1,0.3456,1.9728)" class="st1">
						<path d="M0 593.06 C0.97 593.97 2.05 594.71 3.19 595.28 C2.36 594.47 1.62 593.5 0.99 592.4 C0.64 592.6 0.31
									 592.82 0 593.06 Z" class="st6"/>
					</g>
					<path d="M0 593.06 C0.97 593.97 2.05 594.71 3.19 595.28 C2.36 594.47 1.62 593.5 0.99 592.4 C0.64 592.6 0.31 592.82
								 0 593.06 Z" class="st18"/>
				</g>
				<g id="shape165-308" v:mID="165" v:groupContext="shape" transform="translate(17.4632,-31.1744)">
					<title>Sheet.165</title>
					<g id="shadow165-309" v:groupContext="shadow" v:shadowOffsetX="0.3456" v:shadowOffsetY="-1.9728"
							v:shadowType="1" transform="matrix(1,0,0,1,0.3456,1.9728)" class="st1">
						<path d="M3.17 592.41 C2.04 592.97 0.97 593.71 0 594.62 C0.31 594.85 0.64 595.07 0.99 595.28 C1.61 594.18
									 2.35 593.21 3.17 592.41 Z" class="st6"/>
					</g>
					<path d="M3.17 592.41 C2.04 592.97 0.97 593.71 0 594.62 C0.31 594.85 0.64 595.07 0.99 595.28 C1.61 594.18 2.35
								 593.21 3.17 592.41 Z" class="st18"/>
				</g>
				<g id="shape166-313" v:mID="166" v:groupContext="shape" transform="translate(13.2744,-22.4801)">
					<title>Sheet.166</title>
					<g id="shadow166-314" v:groupContext="shadow" v:shadowOffsetX="0.3456" v:shadowOffsetY="-1.9728"
							v:shadowType="1" transform="matrix(1,0,0,1,0.3456,1.9728)" class="st1">
						<path d="M4.6 587.69 C4.15 587.42 3.72 587.14 3.32 586.83 C1.18 589.25 0.07 592.24 0 595.28 L2.92 595.28
									 C2.97 592.48 3.58 589.88 4.6 587.69 Z" class="st6"/>
					</g>
					<path d="M4.6 587.69 C4.15 587.42 3.72 587.14 3.32 586.83 C1.18 589.25 0.07 592.24 0 595.28 L2.92 595.28 C2.97
								 592.48 3.58 589.88 4.6 587.69 Z" class="st18"/>
				</g>
				<g id="shape167-318" v:mID="167" v:groupContext="shape" transform="translate(13.2734,-13.4134)">
					<title>Sheet.167</title>
					<g id="shadow167-319" v:groupContext="shadow" v:shadowOffsetX="0.3456" v:shadowOffsetY="-1.9728"
							v:shadowType="1" transform="matrix(1,0,0,1,0.3456,1.9728)" class="st1">
						<path d="M2.92 586.83 L0 586.83 C0.07 589.86 1.17 592.86 3.31 595.28 C3.71 594.97 4.15 594.68 4.6 594.42
									 C3.58 592.23 2.97 589.62 2.92 586.83 Z" class="st6"/>
					</g>
					<path d="M2.92 586.83 L0 586.83 C0.07 589.86 1.17 592.86 3.31 595.28 C3.71 594.97 4.15 594.68 4.6 594.42 C3.58
								 592.23 2.97 589.62 2.92 586.83 Z" class="st18"/>
				</g>
				<g id="shape168-323" v:mID="168" v:groupContext="shape" transform="translate(26.8148,-15.0029)">
					<title>Sheet.168</title>
					<g id="shadow168-324" v:groupContext="shadow" v:shadowOffsetX="0.3456" v:shadowOffsetY="-1.9728"
							v:shadowType="1" transform="matrix(1,0,0,1,0.3456,1.9728)" class="st1">
						<path d="M8.34 588.42 L0 588.42 L0 593.86 C2.49 593.9 4.85 594.4 6.86 595.28 C7.77 593.31 8.3 590.95 8.34
									 588.42 Z" class="st6"/>
					</g>
					<path d="M8.34 588.42 L0 588.42 L0 593.86 C2.49 593.9 4.85 594.4 6.86 595.28 C7.77 593.31 8.3 590.95 8.34 588.42
								 Z" class="st18"/>
				</g>
				<g id="shape169-328" v:mID="169" v:groupContext="shape" transform="translate(35.1349,-13.4154)">
					<title>Sheet.169</title>
					<g id="shadow169-329" v:groupContext="shadow" v:shadowOffsetX="0.3456" v:shadowOffsetY="-1.9728"
							v:shadowType="1" transform="matrix(1,0,0,1,0.3456,1.9728)" class="st1">
						<path d="M0 594.42 C0.46 594.68 0.89 594.97 1.29 595.28 C3.42 592.86 4.51 589.87 4.6 586.83 L1.68 586.83
									 C1.64 589.62 1.03 592.23 0 594.42 Z" class="st6"/>
					</g>
					<path d="M0 594.42 C0.46 594.68 0.89 594.97 1.29 595.28 C3.42 592.86 4.51 589.87 4.6 586.83 L1.68 586.83 C1.64
								 589.62 1.03 592.23 0 594.42 Z" class="st18"/>
				</g>
				<g id="shape170-333" v:mID="170" v:groupContext="shape" transform="translate(35.1359,-22.4811)">
					<title>Sheet.170</title>
					<g id="shadow170-334" v:groupContext="shadow" v:shadowOffsetX="0.3456" v:shadowOffsetY="-1.9728"
							v:shadowType="1" transform="matrix(1,0,0,1,0.3456,1.9728)" class="st1">
						<path d="M0 587.69 C1.03 589.88 1.63 592.48 1.68 595.28 L4.61 595.28 C4.56 592.25 3.44 589.25 1.29 586.83
									 C0.89 587.14 0.46 587.42 0 587.69 Z" class="st6"/>
					</g>
					<path d="M0 587.69 C1.03 589.88 1.63 592.48 1.68 595.28 L4.61 595.28 C4.56 592.25 3.44 589.25 1.29 586.83 C0.89
								 587.14 0.46 587.42 0 587.69 Z" class="st18"/>
				</g>
				<g id="shape171-338" v:mID="171" v:groupContext="shape" transform="translate(26.8148,-29.1669)">
					<title>Sheet.171</title>
					<g id="shadow171-339" v:groupContext="shadow" v:shadowOffsetX="0.3456" v:shadowOffsetY="-1.9728"
							v:shadowType="1" transform="matrix(1,0,0,1,0.3456,1.9728)" class="st1">
						<path d="M0 589.5 L0 595.28 C2.29 595.24 4.45 594.79 6.29 594 C4.76 591.35 2.52 589.63 0 589.5 Z"
								class="st6"/>
					</g>
					<path d="M0 589.5 L0 595.28 C2.29 595.24 4.45 594.79 6.29 594 C4.76 591.35 2.52 589.63 0 589.5 Z" class="st18"/>
				</g>
				<g id="shape172-343" v:mID="172" v:groupContext="shape">
					<title>Sheet.172</title>
					<g id="shadow172-344" v:groupContext="shadow" v:shadowOffsetX="0.3456" v:shadowOffsetY="-1.9728"
							v:shadowType="1" transform="matrix(1,0,0,1,0.3456,1.9728)" class="st1">
						<path d="M51.22 551.9 L2.36 551.9 C1.06 551.9 0 553.13 0 554.64 L0 592.53 C-0 594.05 1.06 595.28 2.36 595.28
									 L51.22 595.28 C52.53 595.28 53.58 594.05 53.58 592.53 L53.58 554.64 C53.58 553.13 52.53 551.9
									 51.22 551.9 ZM37.31 583.91 C34.33 586.89 30.41 588.38 26.51 588.38 C22.6 588.38 18.68 586.89
									 15.7 583.91 C12.72 580.93 11.23 577.01 11.23 573.11 C11.23 569.2 12.72 565.28 15.7 562.3 C18.68
									 559.33 22.6 557.83 26.5 557.83 L26.51 557.83 C30.41 557.83 34.33 559.32 37.31 562.3 C40.25 565.25
									 41.78 569.12 41.78 572.99 C41.78 576.92 40.32 580.9 37.31 583.91 Z" class="st6"/>
					</g>
					<path d="M51.22 551.9 L2.36 551.9 C1.06 551.9 0 553.13 0 554.64 L0 592.53 C-0 594.05 1.06 595.28 2.36 595.28
								 L51.22 595.28 C52.53 595.28 53.58 594.05 53.58 592.53 L53.58 554.64 C53.58 553.13 52.53 551.9 51.22
								 551.9 ZM37.31 583.91 C34.33 586.89 30.41 588.38 26.51 588.38 C22.6 588.38 18.68 586.89 15.7 583.91
								 C12.72 580.93 11.23 577.01 11.23 573.11 C11.23 569.2 12.72 565.28 15.7 562.3 C18.68 559.33 22.6
								 557.83 26.5 557.83 L26.51 557.83 C30.41 557.83 34.33 559.32 37.31 562.3 C40.25 565.25 41.78 569.12
								 41.78 572.99 C41.78 576.92 40.32 580.9 37.31 583.91 Z" class="st18"/>
				</g>
				<g id="shape173-348" v:mID="173" v:groupContext="shape" transform="translate(26.8148,-22.4811)">
					<title>Sheet.173</title>
					<g id="shadow173-349" v:groupContext="shadow" v:shadowOffsetX="0.3456" v:shadowOffsetY="-1.9728"
							v:shadowType="1" transform="matrix(1,0,0,1,0.3456,1.9728)" class="st1">
						<path d="M6.86 588.42 C4.85 589.29 2.49 589.79 0 589.83 L0 595.28 L8.34 595.28 C8.3 592.74 7.77 590.38 6.86
									 588.42 Z" class="st6"/>
					</g>
					<path d="M6.86 588.42 C4.85 589.29 2.49 589.79 0 589.83 L0 595.28 L8.34 595.28 C8.3 592.74 7.77 590.38 6.86 588.42
								 Z" class="st18"/>
				</g>
				<g id="shape174-353" v:mID="174" v:groupContext="shape" transform="translate(26.8148,-9.39929)">
					<title>Sheet.174</title>
					<g id="shadow174-354" v:groupContext="shadow" v:shadowOffsetX="0.3456" v:shadowOffsetY="-1.9728"
							v:shadowType="1" transform="matrix(1,0,0,1,0.3456,1.9728)" class="st1">
						<path d="M0 589.5 L0 595.28 C2.52 595.14 4.76 593.43 6.29 590.77 C4.46 589.99 2.29 589.54 0 589.5 Z"
								class="st6"/>
					</g>
					<path d="M0 589.5 L0 595.28 C2.52 595.14 4.76 593.43 6.29 590.77 C4.46 589.99 2.29 589.54 0 589.5 Z"
							class="st18"/>
				</g>
				<g id="shape175-358" v:mID="175" v:groupContext="shape" transform="translate(32.3698,-10.2988)">
					<title>Sheet.175</title>
					<g id="shadow175-359" v:groupContext="shadow" v:shadowOffsetX="0.3456" v:shadowOffsetY="-1.9728"
							v:shadowType="1" transform="matrix(1,0,0,1,0.3456,1.9728)" class="st1">
						<path d="M0 595.28 C1.14 594.71 2.21 593.97 3.19 593.06 C2.88 592.82 2.55 592.6 2.2 592.39 C1.57 593.5 0.83
									 594.47 0 595.28 Z" class="st6"/>
					</g>
					<path d="M0 595.28 C1.14 594.71 2.21 593.97 3.19 593.06 C2.88 592.82 2.55 592.6 2.2 592.39 C1.57 593.5 0.83 594.47
								 0 595.28 Z" class="st18"/>
				</g>
			</g>
			<g id="group176-363" v:mID="176" v:groupContext="group">
				<title>Web Role.176</title>
				<g id="shape177-364" v:mID="177" v:groupContext="shape" transform="translate(19.9036,-9.3983)">
					<title>Sheet.177</title>
					<g id="shadow177-365" v:groupContext="shadow" v:shadowOffsetX="0.3456" v:shadowOffsetY="-1.9728"
							v:shadowType="1" transform="matrix(1,0,0,1,0.3456,1.9728)" class="st1">
						<path d="M6.29 595.28 L6.29 589.5 C4 589.54 1.83 589.99 0 590.77 C1.53 593.43 3.77 595.14 6.29 595.28 Z"
								class="st6"/>
					</g>
					<path d="M6.29 595.28 L6.29 589.5 C4 589.54 1.83 589.99 0 590.77 C1.53 593.43 3.77 595.14 6.29 595.28 Z"
							class="st18"/>
				</g>
				<g id="shape178-369" v:mID="178" v:groupContext="shape" transform="translate(32.3728,-31.1595)">
					<title>Sheet.178</title>
					<g id="shadow178-370" v:groupContext="shadow" v:shadowOffsetX="0.3456" v:shadowOffsetY="-1.9728"
							v:shadowType="1" transform="matrix(1,0,0,1,0.3456,1.9728)" class="st1">
						<path d="M3.19 594.61 C2.21 593.7 1.14 592.96 0 592.4 C0.83 593.2 1.57 594.17 2.2 595.28 C2.55 595.07 2.87
									 594.85 3.19 594.61 Z" class="st6"/>
					</g>
					<path d="M3.19 594.61 C2.21 593.7 1.14 592.96 0 592.4 C0.83 593.2 1.57 594.17 2.2 595.28 C2.55 595.07 2.87 594.85
								 3.19 594.61 Z" class="st18"/>
				</g>
				<g id="shape179-374" v:mID="179" v:groupContext="shape" transform="translate(19.9116,-29.1679)">
					<title>Sheet.179</title>
					<g id="shadow179-375" v:groupContext="shadow" v:shadowOffsetX="0.3456" v:shadowOffsetY="-1.9728"
							v:shadowType="1" transform="matrix(1,0,0,1,0.3456,1.9728)" class="st1">
						<path d="M0 593.99 C1.84 594.78 4.02 595.24 6.28 595.28 L6.28 589.5 C3.77 589.63 1.53 591.34 0 593.99 Z"
								class="st6"/>
					</g>
					<path d="M0 593.99 C1.84 594.78 4.02 595.24 6.28 595.28 L6.28 589.5 C3.77 589.63 1.53 591.34 0 593.99 Z"
							class="st18"/>
				</g>
				<g id="shape180-379" v:mID="180" v:groupContext="shape" transform="translate(17.8514,-22.4811)">
					<title>Sheet.180</title>
					<g id="shadow180-380" v:groupContext="shadow" v:shadowOffsetX="0.3456" v:shadowOffsetY="-1.9728"
							v:shadowType="1" transform="matrix(1,0,0,1,0.3456,1.9728)" class="st1">
						<path d="M0 595.28 L8.34 595.28 L8.34 589.83 C5.84 589.79 3.49 589.29 1.48 588.42 C0.58 590.38 0.04 592.74
									 0 595.28 Z" class="st6"/>
					</g>
					<path d="M0 595.28 L8.34 595.28 L8.34 589.83 C5.84 589.79 3.49 589.29 1.48 588.42 C0.58 590.38 0.04 592.74 0
								 595.28 Z" class="st18"/>
				</g>
				<g id="shape181-384" v:mID="181" v:groupContext="shape" transform="translate(17.8514,-15.0019)">
					<title>Sheet.181</title>
					<g id="shadow181-385" v:groupContext="shadow" v:shadowOffsetX="0.3456" v:shadowOffsetY="-1.9728"
							v:shadowType="1" transform="matrix(1,0,0,1,0.3456,1.9728)" class="st1">
						<path d="M1.48 595.28 C3.49 594.4 5.85 593.9 8.34 593.86 L8.34 588.42 L0 588.42 C0.04 590.95 0.58 593.31
									 1.48 595.28 Z" class="st6"/>
					</g>
					<path d="M1.48 595.28 C3.49 594.4 5.85 593.9 8.34 593.86 L8.34 588.42 L0 588.42 C0.04 590.95 0.58 593.31 1.48
								 595.28 Z" class="st18"/>
				</g>
				<g id="shape182-389" v:mID="182" v:groupContext="shape" transform="translate(17.4553,-10.2988)">
					<title>Sheet.182</title>
					<g id="shadow182-390" v:groupContext="shadow" v:shadowOffsetX="0.3456" v:shadowOffsetY="-1.9728"
							v:shadowType="1" transform="matrix(1,0,0,1,0.3456,1.9728)" class="st1">
						<path d="M0 593.06 C0.97 593.97 2.05 594.71 3.19 595.28 C2.36 594.47 1.62 593.5 0.99 592.4 C0.64 592.6 0.31
									 592.82 0 593.06 Z" class="st6"/>
					</g>
					<path d="M0 593.06 C0.97 593.97 2.05 594.71 3.19 595.28 C2.36 594.47 1.62 593.5 0.99 592.4 C0.64 592.6 0.31 592.82
								 0 593.06 Z" class="st18"/>
				</g>
				<g id="shape183-394" v:mID="183" v:groupContext="shape" transform="translate(17.4632,-31.1744)">
					<title>Sheet.183</title>
					<g id="shadow183-395" v:groupContext="shadow" v:shadowOffsetX="0.3456" v:shadowOffsetY="-1.9728"
							v:shadowType="1" transform="matrix(1,0,0,1,0.3456,1.9728)" class="st1">
						<path d="M3.17 592.41 C2.04 592.97 0.97 593.71 0 594.62 C0.31 594.85 0.64 595.07 0.99 595.28 C1.61 594.18
									 2.35 593.21 3.17 592.41 Z" class="st6"/>
					</g>
					<path d="M3.17 592.41 C2.04 592.97 0.97 593.71 0 594.62 C0.31 594.85 0.64 595.07 0.99 595.28 C1.61 594.18 2.35
								 593.21 3.17 592.41 Z" class="st18"/>
				</g>
				<g id="shape184-399" v:mID="184" v:groupContext="shape" transform="translate(13.2744,-22.4801)">
					<title>Sheet.184</title>
					<g id="shadow184-400" v:groupContext="shadow" v:shadowOffsetX="0.3456" v:shadowOffsetY="-1.9728"
							v:shadowType="1" transform="matrix(1,0,0,1,0.3456,1.9728)" class="st1">
						<path d="M4.6 587.69 C4.15 587.42 3.72 587.14 3.32 586.83 C1.18 589.25 0.07 592.24 0 595.28 L2.92 595.28
									 C2.97 592.48 3.58 589.88 4.6 587.69 Z" class="st6"/>
					</g>
					<path d="M4.6 587.69 C4.15 587.42 3.72 587.14 3.32 586.83 C1.18 589.25 0.07 592.24 0 595.28 L2.92 595.28 C2.97
								 592.48 3.58 589.88 4.6 587.69 Z" class="st18"/>
				</g>
				<g id="shape185-404" v:mID="185" v:groupContext="shape" transform="translate(13.2734,-13.4134)">
					<title>Sheet.185</title>
					<g id="shadow185-405" v:groupContext="shadow" v:shadowOffsetX="0.3456" v:shadowOffsetY="-1.9728"
							v:shadowType="1" transform="matrix(1,0,0,1,0.3456,1.9728)" class="st1">
						<path d="M2.92 586.83 L0 586.83 C0.07 589.86 1.17 592.86 3.31 595.28 C3.71 594.97 4.15 594.68 4.6 594.42
									 C3.58 592.23 2.97 589.62 2.92 586.83 Z" class="st6"/>
					</g>
					<path d="M2.92 586.83 L0 586.83 C0.07 589.86 1.17 592.86 3.31 595.28 C3.71 594.97 4.15 594.68 4.6 594.42 C3.58
								 592.23 2.97 589.62 2.92 586.83 Z" class="st18"/>
				</g>
				<g id="shape186-409" v:mID="186" v:groupContext="shape" transform="translate(26.8148,-15.0029)">
					<title>Sheet.186</title>
					<g id="shadow186-410" v:groupContext="shadow" v:shadowOffsetX="0.3456" v:shadowOffsetY="-1.9728"
							v:shadowType="1" transform="matrix(1,0,0,1,0.3456,1.9728)" class="st1">
						<path d="M8.34 588.42 L0 588.42 L0 593.86 C2.49 593.9 4.85 594.4 6.86 595.28 C7.77 593.31 8.3 590.95 8.34
									 588.42 Z" class="st6"/>
					</g>
					<path d="M8.34 588.42 L0 588.42 L0 593.86 C2.49 593.9 4.85 594.4 6.86 595.28 C7.77 593.31 8.3 590.95 8.34 588.42
								 Z" class="st18"/>
				</g>
				<g id="shape187-414" v:mID="187" v:groupContext="shape" transform="translate(35.1349,-13.4154)">
					<title>Sheet.187</title>
					<g id="shadow187-415" v:groupContext="shadow" v:shadowOffsetX="0.3456" v:shadowOffsetY="-1.9728"
							v:shadowType="1" transform="matrix(1,0,0,1,0.3456,1.9728)" class="st1">
						<path d="M0 594.42 C0.46 594.68 0.89 594.97 1.29 595.28 C3.42 592.86 4.51 589.87 4.6 586.83 L1.68 586.83
									 C1.64 589.62 1.03 592.23 0 594.42 Z" class="st6"/>
					</g>
					<path d="M0 594.42 C0.46 594.68 0.89 594.97 1.29 595.28 C3.42 592.86 4.51 589.87 4.6 586.83 L1.68 586.83 C1.64
								 589.62 1.03 592.23 0 594.42 Z" class="st18"/>
				</g>
				<g id="shape188-419" v:mID="188" v:groupContext="shape" transform="translate(35.1359,-22.4811)">
					<title>Sheet.188</title>
					<g id="shadow188-420" v:groupContext="shadow" v:shadowOffsetX="0.3456" v:shadowOffsetY="-1.9728"
							v:shadowType="1" transform="matrix(1,0,0,1,0.3456,1.9728)" class="st1">
						<path d="M0 587.69 C1.03 589.88 1.63 592.48 1.68 595.28 L4.61 595.28 C4.56 592.25 3.44 589.25 1.29 586.83
									 C0.89 587.14 0.46 587.42 0 587.69 Z" class="st6"/>
					</g>
					<path d="M0 587.69 C1.03 589.88 1.63 592.48 1.68 595.28 L4.61 595.28 C4.56 592.25 3.44 589.25 1.29 586.83 C0.89
								 587.14 0.46 587.42 0 587.69 Z" class="st18"/>
				</g>
				<g id="shape189-424" v:mID="189" v:groupContext="shape" transform="translate(26.8148,-29.1669)">
					<title>Sheet.189</title>
					<g id="shadow189-425" v:groupContext="shadow" v:shadowOffsetX="0.3456" v:shadowOffsetY="-1.9728"
							v:shadowType="1" transform="matrix(1,0,0,1,0.3456,1.9728)" class="st1">
						<path d="M0 589.5 L0 595.28 C2.29 595.24 4.45 594.79 6.29 594 C4.76 591.35 2.52 589.63 0 589.5 Z"
								class="st6"/>
					</g>
					<path d="M0 589.5 L0 595.28 C2.29 595.24 4.45 594.79 6.29 594 C4.76 591.35 2.52 589.63 0 589.5 Z" class="st18"/>
				</g>
				<g id="shape190-429" v:mID="190" v:groupContext="shape">
					<title>Sheet.190</title>
					<g id="shadow190-430" v:groupContext="shadow" v:shadowOffsetX="0.3456" v:shadowOffsetY="-1.9728"
							v:shadowType="1" transform="matrix(1,0,0,1,0.3456,1.9728)" class="st1">
						<path d="M51.22 551.9 L2.36 551.9 C1.06 551.9 0 553.13 0 554.64 L0 592.53 C-0 594.05 1.06 595.28 2.36 595.28
									 L51.22 595.28 C52.53 595.28 53.58 594.05 53.58 592.53 L53.58 554.64 C53.58 553.13 52.53 551.9
									 51.22 551.9 ZM37.31 583.91 C34.33 586.89 30.41 588.38 26.51 588.38 C22.6 588.38 18.68 586.89
									 15.7 583.91 C12.72 580.93 11.23 577.01 11.23 573.11 C11.23 569.2 12.72 565.28 15.7 562.3 C18.68
									 559.33 22.6 557.83 26.5 557.83 L26.51 557.83 C30.41 557.83 34.33 559.32 37.31 562.3 C40.25 565.25
									 41.78 569.12 41.78 572.99 C41.78 576.92 40.32 580.9 37.31 583.91 Z" class="st6"/>
					</g>
					<path d="M51.22 551.9 L2.36 551.9 C1.06 551.9 0 553.13 0 554.64 L0 592.53 C-0 594.05 1.06 595.28 2.36 595.28
								 L51.22 595.28 C52.53 595.28 53.58 594.05 53.58 592.53 L53.58 554.64 C53.58 553.13 52.53 551.9 51.22
								 551.9 ZM37.31 583.91 C34.33 586.89 30.41 588.38 26.51 588.38 C22.6 588.38 18.68 586.89 15.7 583.91
								 C12.72 580.93 11.23 577.01 11.23 573.11 C11.23 569.2 12.72 565.28 15.7 562.3 C18.68 559.33 22.6
								 557.83 26.5 557.83 L26.51 557.83 C30.41 557.83 34.33 559.32 37.31 562.3 C40.25 565.25 41.78 569.12
								 41.78 572.99 C41.78 576.92 40.32 580.9 37.31 583.91 Z" class="st18"/>
				</g>
				<g id="shape191-434" v:mID="191" v:groupContext="shape" transform="translate(26.8148,-22.4811)">
					<title>Sheet.191</title>
					<g id="shadow191-435" v:groupContext="shadow" v:shadowOffsetX="0.3456" v:shadowOffsetY="-1.9728"
							v:shadowType="1" transform="matrix(1,0,0,1,0.3456,1.9728)" class="st1">
						<path d="M6.86 588.42 C4.85 589.29 2.49 589.79 0 589.83 L0 595.28 L8.34 595.28 C8.3 592.74 7.77 590.38 6.86
									 588.42 Z" class="st6"/>
					</g>
					<path d="M6.86 588.42 C4.85 589.29 2.49 589.79 0 589.83 L0 595.28 L8.34 595.28 C8.3 592.74 7.77 590.38 6.86 588.42
								 Z" class="st18"/>
				</g>
				<g id="shape192-439" v:mID="192" v:groupContext="shape" transform="translate(26.8148,-9.39929)">
					<title>Sheet.192</title>
					<g id="shadow192-440" v:groupContext="shadow" v:shadowOffsetX="0.3456" v:shadowOffsetY="-1.9728"
							v:shadowType="1" transform="matrix(1,0,0,1,0.3456,1.9728)" class="st1">
						<path d="M0 589.5 L0 595.28 C2.52 595.14 4.76 593.43 6.29 590.77 C4.46 589.99 2.29 589.54 0 589.5 Z"
								class="st6"/>
					</g>
					<path d="M0 589.5 L0 595.28 C2.52 595.14 4.76 593.43 6.29 590.77 C4.46 589.99 2.29 589.54 0 589.5 Z"
							class="st18"/>
				</g>
				<g id="shape193-444" v:mID="193" v:groupContext="shape" transform="translate(32.3698,-10.2988)">
					<title>Sheet.193</title>
					<g id="shadow193-445" v:groupContext="shadow" v:shadowOffsetX="0.3456" v:shadowOffsetY="-1.9728"
							v:shadowType="1" transform="matrix(1,0,0,1,0.3456,1.9728)" class="st1">
						<path d="M0 595.28 C1.14 594.71 2.21 593.97 3.19 593.06 C2.88 592.82 2.55 592.6 2.2 592.39 C1.57 593.5 0.83
									 594.47 0 595.28 Z" class="st6"/>
					</g>
					<path d="M0 595.28 C1.14 594.71 2.21 593.97 3.19 593.06 C2.88 592.82 2.55 592.6 2.2 592.39 C1.57 593.5 0.83 594.47
								 0 595.28 Z" class="st18"/>
				</g>
			</g>
		</g>
	</g>
</svg>
