<?xml version="1.0" encoding="UTF-8" standalone="no"?>
<!DOCTYPE svg PUBLIC "-//W3C//DTD SVG 1.1//EN" "http://www.w3.org/Graphics/SVG/1.1/DTD/svg11.dtd">
<!-- Generated by Microsoft Visio, SVG Export physical-architecture-stream-analytics-and-event-hub.svg Page-1 -->
<svg xmlns="http://www.w3.org/2000/svg" xmlns:xlink="http://www.w3.org/1999/xlink" xmlns:ev="http://www.w3.org/2001/xml-events"
		xmlns:v="http://schemas.microsoft.com/visio/2003/SVGExtensions/" width="11.6929in" height="8.26772in"
		viewBox="0 0 841.89 595.276" xml:space="preserve" color-interpolation-filters="sRGB" class="st15">
	<v:documentProperties v:langID="1033" v:metric="true" v:viewMarkup="false">
		<v:userDefs>
			<v:ud v:nameU="msvSubprocessMaster" v:prompt="" v:val="VT4(Rectangle)"/>
			<v:ud v:nameU="msvNoAutoConnect" v:val="VT0(1):26"/>
		</v:userDefs>
	</v:documentProperties>

	<style type="text/css">
	<![CDATA[
		.st1 {fill:none;stroke:none;stroke-width:0.25}
		.st2 {fill:#000000;font-family:Calibri;font-size:1.00001em}
		.st3 {font-size:1em}
		.st4 {fill:#000000;font-family:Calibri;font-size:0.833336em}
		.st5 {visibility:visible}
		.st6 {fill:#5b9bd5;fill-opacity:0.22;filter:url(#filter_2);stroke:#5b9bd5;stroke-opacity:0.22}
		.st7 {fill:#0070c0;stroke:#c7c8c8;stroke-width:0.25}
		.st8 {fill:#5b9bd5;fill-opacity:0.22;filter:url(#filter_2);stroke:none}
		.st9 {fill:#ffffff;stroke:none;stroke-width:0.25}
		.st10 {fill:#0070c0;stroke:#0070c0;stroke-width:0.25}
		.st11 {stroke:#ffffff;stroke-linecap:round;stroke-linejoin:round;stroke-width:2.25}
		.st12 {fill:#feffff;font-family:Calibri;font-size:0.916672em}
		.st13 {marker-end:url(#mrkr4-109);stroke:#5b9bd5;stroke-linecap:round;stroke-linejoin:round;stroke-width:1}
		.st14 {fill:#5b9bd5;fill-opacity:1;stroke:#5b9bd5;stroke-opacity:1;stroke-width:0.28409090909091}
		.st15 {fill:none;fill-rule:evenodd;font-size:12px;overflow:visible;stroke-linecap:square;stroke-miterlimit:3}
	]]>
	</style>

	<defs id="Markers">
		<g id="lend4">
			<path d="M 2 1 L 0 0 L 2 -1 L 2 1 " style="stroke:none"/>
		</g>
		<marker id="mrkr4-109" class="st14" v:arrowType="4" v:arrowSize="2" v:setback="7.04" refX="-7.04" orient="auto"
				markerUnits="strokeWidth" overflow="visible">
			<use xlink:href="#lend4" transform="scale(-3.52,-3.52) "/>
		</marker>
	</defs>
	<defs id="Filters">
		<filter id="filter_2">
			<feGaussianBlur stdDeviation="2"/>
		</filter>
	</defs>
	<g v:mID="0" v:index="1" v:groupContext="foregroundPage">
		<v:userDefs>
			<v:ud v:nameU="msvThemeOrder" v:val="VT0(0):26"/>
		</v:userDefs>
		<title>Page-1</title>
		<v:pageProperties v:drawingScale="0.0393701" v:pageScale="0.0393701" v:drawingUnits="24" v:shadowOffsetX="8.50394"
				v:shadowOffsetY="-8.50394"/>
		<v:layer v:name="Connector" v:index="0"/>
		<g id="shape135-1" v:mID="135" v:groupContext="shape" transform="translate(485.642,-405.197)">
			<title>Sheet.135</title>
			<desc>Stream Analytics</desc>
			<v:textBlock v:margins="rect(4,4,4,4)" v:tabSpace="42.5197"/>
			<v:textRect cx="49.7879" cy="585.276" width="99.58" height="20"/>
			<rect x="0" y="575.276" width="99.5758" height="20" class="st1"/>
			<text x="9.06" y="588.88" class="st2" v:langID="2057"><v:paragraph v:horizAlign="1"/><v:tabList/>Stream Ana<tspan
						class="st3" v:langID="1033">l</tspan>ytics</text>		</g>
		<g id="shape229-5" v:mID="229" v:groupContext="shape" transform="translate(340.476,-339.591)">
			<title>Sheet.229</title>
			<desc>Event Hub Messages</desc>
			<v:textBlock v:margins="rect(4,4,4,4)" v:tabSpace="42.5197"/>
			<v:textRect cx="42.5197" cy="580.819" width="85.04" height="28.9134"/>
			<rect x="0" y="566.362" width="85.0394" height="28.9134" class="st1"/>
			<text x="21.53" y="577.82" class="st4" v:langID="2057"><v:paragraph v:horizAlign="1"/><v:tabList/>Event Hub <tspan
						x="22.65" dy="1.2em" class="st3">Messages</tspan></text>		</g>
		<g id="group273-9" transform="translate(508.637,-351.763)" v:mID="273" v:groupContext="group">
			<title>Sheet.273</title>
			<g id="group264-10" v:mID="264" v:groupContext="group">
				<title>Sheet.264</title>
				<g id="group262-11" v:mID="262" v:groupContext="group">
					<title>Sheet.262</title>
					<g id="shape263-12" v:mID="263" v:groupContext="shape">
						<title>Rounded Rectangle.150</title>
						<v:userDefs>
							<v:ud v:nameU="CTypeTopLeftSnip" v:prompt="" v:val="VT0(0):5"/>
							<v:ud v:nameU="CTypeTopRightSnip" v:prompt="" v:val="VT0(0):5"/>
							<v:ud v:nameU="CTypeBotLeftSnip" v:prompt="" v:val="VT0(0):5"/>
							<v:ud v:nameU="CTypeBotRightSnip" v:prompt="" v:val="VT0(0):5"/>
							<v:ud v:nameU="CornerLockHoriz" v:prompt="" v:val="VT0(1):5"/>
							<v:ud v:nameU="CornerLockVert" v:prompt="" v:val="VT0(1):5"/>
							<v:ud v:nameU="CornerLockDiag" v:prompt="" v:val="VT0(0):5"/>
							<v:ud v:nameU="TopLeftOffset" v:prompt="" v:val="VT0(0.15748031496063):24"/>
							<v:ud v:nameU="TopRightOffset" v:prompt="" v:val="VT0(0.15748031496063):24"/>
							<v:ud v:nameU="BotLeftOffset" v:prompt="" v:val="VT0(0.15748031496063):24"/>
							<v:ud v:nameU="BotRightOffset" v:prompt="" v:val="VT0(0.15748031496063):24"/>
							<v:ud v:nameU="visVersion" v:prompt="" v:val="VT0(15):26"/>
							<v:ud v:nameU="TopLeftOffset" v:prompt="" v:val="VT0(0.074423622047244):1"/>
							<v:ud v:nameU="TopRightOffset" v:prompt="" v:val="VT0(0.074423622047244):1"/>
							<v:ud v:nameU="BotLeftOffset" v:prompt="" v:val="VT0(0.074423622047244):1"/>
							<v:ud v:nameU="BotRightOffset" v:prompt="" v:val="VT0(0.074423622047244):1"/>
						</v:userDefs>
						<g id="shadow263-13" v:groupContext="shadow" v:shadowOffsetX="0.345598" v:shadowOffsetY="-1.97279"
								v:shadowType="1" transform="matrix(1,0,0,1,0.345598,1.97279)" class="st5">
							<path d="M5.36 595.28 L48.23 595.28 A5.35841 5.35841 -180 0 0 53.59 589.92 L53.59 557.26 A5.35841 5.35841
										 -180 0 0 48.23 551.9 L5.36 551.9 A5.35841 5.35841 -180 0 0 0 557.26 L0 589.92 A5.35841 5.35841
										 -180 0 0 5.36 595.28 Z" class="st6"/>
						</g>
						<path d="M5.36 595.28 L48.23 595.28 A5.35841 5.35841 -180 0 0 53.59 589.92 L53.59 557.26 A5.35841 5.35841
									 -180 0 0 48.23 551.9 L5.36 551.9 A5.35841 5.35841 -180 0 0 0 557.26 L0 589.92 A5.35841 5.35841
									 -180 0 0 5.36 595.28 Z" class="st7"/>
					</g>
				</g>
				<g id="group259-17" transform="translate(161.994,9.46579) rotate(15)" v:mID="259" v:groupContext="group">
					<title>Sheet.259</title>
					<g id="shape260-18" v:mID="260" v:groupContext="shape" transform="translate(12.4052,-12.3764)">
						<title>Sheet.260</title>
						<g id="shadow260-19" v:groupContext="shadow" v:shadowOffsetX="0.3456" v:shadowOffsetY="-1.9728"
								v:shadowType="1" transform="matrix(1,0,0,1,0.844422,1.81613)" class="st5">
							<path d="M1.8 589.92 C0.51 590.59 0 592.17 0.66 593.47 C1.33 594.77 2.92 595.28 4.21 594.61 C5.5 593.95
										 6.02 592.36 5.35 591.07 C4.7 589.77 3.11 589.26 1.8 589.92 Z" class="st8"/>
						</g>
						<path d="M1.8 589.92 C0.51 590.59 0 592.17 0.66 593.47 C1.33 594.77 2.92 595.28 4.21 594.61 C5.5 593.95 6.02
									 592.36 5.35 591.07 C4.7 589.77 3.11 589.26 1.8 589.92 Z" class="st9"/>
					</g>
					<g id="shape261-23" v:mID="261" v:groupContext="shape">
						<title>Sheet.261</title>
						<g id="shadow261-24" v:groupContext="shadow" v:shadowOffsetX="0.3456" v:shadowOffsetY="-1.9728"
								v:shadowType="1" transform="matrix(1,0,0,1,0.844422,1.81613)" class="st5">
							<path d="M26.92 580.12 L30.82 578.49 L29.63 573.49 L25.25 573.96 C24.81 573.22 24.3 572.53 23.72 571.93
										 L25.34 568 L20.96 565.3 L18.22 568.7 C17.28 568.45 16.3 568.32 15.31 568.32 L13.6 564.51
										 L8.62 565.84 L9.21 570.06 C8.52 570.48 7.89 570.97 7.33 571.5 L3.55 569.95 L0.85 574.32
										 L4.1 576.95 C3.86 577.84 3.72 578.77 3.7 579.7 L0 581.24 L1.19 586.25 L5.33 585.8 C5.8 586.63
										 6.37 587.38 7.01 588.04 L5.49 591.73 L9.87 594.43 L12.5 591.17 C13.39 591.39 14.3 591.52
										 15.23 591.53 L16.78 595.28 L21.79 594.08 L21.34 589.83 C22.12 589.36 22.83 588.82 23.45
										 588.21 L27.28 589.79 L29.98 585.41 L26.59 582.67 C26.79 581.84 26.9 580.98 26.92 580.12
										 ZM18.7 586.27 C15.17 588.08 10.82 586.69 9.02 583.15 C7.2 579.61 8.6 575.28 12.13 573.47
										 C15.67 571.66 20 573.06 21.81 576.59 C23.63 580.12 22.23 584.45 18.7 586.27 Z" class="st8"/>
						</g>
						<path d="M26.92 580.12 L30.82 578.49 L29.63 573.49 L25.25 573.96 C24.81 573.22 24.3 572.53 23.72 571.93 L25.34
									 568 L20.96 565.3 L18.22 568.7 C17.28 568.45 16.3 568.32 15.31 568.32 L13.6 564.51 L8.62 565.84
									 L9.21 570.06 C8.52 570.48 7.89 570.97 7.33 571.5 L3.55 569.95 L0.85 574.32 L4.1 576.95 C3.86
									 577.84 3.72 578.77 3.7 579.7 L0 581.24 L1.19 586.25 L5.33 585.8 C5.8 586.63 6.37 587.38 7.01
									 588.04 L5.49 591.73 L9.87 594.43 L12.5 591.17 C13.39 591.39 14.3 591.52 15.23 591.53 L16.78
									 595.28 L21.79 594.08 L21.34 589.83 C22.12 589.36 22.83 588.82 23.45 588.21 L27.28 589.79 L29.98
									 585.41 L26.59 582.67 C26.79 581.84 26.9 580.98 26.92 580.12 ZM18.7 586.27 C15.17 588.08 10.82
									 586.69 9.02 583.15 C7.2 579.61 8.6 575.28 12.13 573.47 C15.67 571.66 20 573.06 21.81 576.59
									 C23.63 580.12 22.23 584.45 18.7 586.27 Z" class="st9"/>
					</g>
				</g>
			</g>
			<g id="shape267-28" v:mID="267" v:groupContext="shape" transform="translate(23.5753,-17.2983)">
				<title>Sheet.267</title>
				<g id="shadow267-29" v:groupContext="shadow" v:shadowOffsetX="0.345598" v:shadowOffsetY="-1.97279" v:shadowType="1"
						transform="matrix(1,0,0,1,0.345598,1.97279)" class="st5">
					<rect x="0" y="586.699" width="6.69788" height="8.57623" class="st6"/>
				</g>
				<rect x="0" y="586.699" width="6.69788" height="8.57623" class="st10"/>
			</g>
			<g id="shape268-33" v:mID="268" v:groupContext="shape" transform="translate(10.5429,-17.2983)">
				<title>Sheet.268</title>
				<g id="shadow268-34" v:groupContext="shadow" v:shadowOffsetX="0.345598" v:shadowOffsetY="-1.97279" v:shadowType="1"
						transform="matrix(1,0,0,1,0.345598,1.97279)" class="st5">
					<rect x="0" y="586.699" width="6.69788" height="8.57623" class="st6"/>
				</g>
				<rect x="0" y="586.699" width="6.69788" height="8.57623" class="st10"/>
			</g>
			<g id="shape269-38" v:mID="269" v:groupContext="shape" transform="translate(-282.956,62.4535) rotate(-30)">
				<title>Sheet.269</title>
				<g id="shadow269-39" v:groupContext="shadow" v:shadowOffsetX="0.345598" v:shadowOffsetY="-1.97279" v:shadowType="1"
						transform="matrix(1,0,0,1,-0.687099,1.88129)" class="st5">
					<rect x="0" y="586.699" width="6.69789" height="8.57623" class="st6"/>
				</g>
				<rect x="0" y="586.699" width="6.69789" height="8.57623" class="st10"/>
			</g>
			<g id="shape270-43" v:mID="270" v:groupContext="shape" transform="translate(-407.271,164.066) rotate(-45)">
				<title>Sheet.270</title>
				<g id="shadow270-44" v:groupContext="shadow" v:shadowOffsetX="0.345598" v:shadowOffsetY="-1.97279" v:shadowType="1"
						transform="matrix(1,0,0,1,-1.1506,1.63935)" class="st5">
					<rect x="0" y="580.119" width="15.1561" height="15.1561" class="st6"/>
				</g>
				<rect x="0" y="580.119" width="15.1561" height="15.1561" class="st10"/>
			</g>
			<g id="shape266-48" v:mID="266" v:groupContext="shape" transform="translate(6.73907,-18.5106)">
				<title>Sheet.266</title>
				<path d="M0 589.64 C3.23 596.17 8.06 596.62 11.59 593.13 C15.45 589.31 17.75 580.78 25.01 589.64" class="st11"/>
			</g>
			<g id="shape271-51" v:mID="271" v:groupContext="shape" transform="translate(6.64123,-15.236)">
				<title>Sheet.271</title>
				<path d="M0 589.64 C3.23 596.17 8.06 596.62 11.59 593.13 C15.45 589.31 17.75 580.78 25.01 589.64" class="st11"/>
			</g>
			<g id="shape272-54" v:mID="272" v:groupContext="shape" transform="translate(6.24291,-12.3913)">
				<title>Sheet.272</title>
				<path d="M0 589.64 C3.23 596.17 8.06 596.62 11.59 593.13 C15.45 589.31 17.75 580.78 25.01 589.64" class="st11"/>
			</g>
		</g>
		<g id="group287-57" transform="translate(274.728,-360.836)" v:mID="287" v:groupContext="group">
			<title>Sheet.287</title>
			<g id="shape288-58" v:mID="288" v:groupContext="shape" transform="translate(3.59712E-13,-25.2316)">
				<title>Rounded Rectangle</title>
				<v:userDefs>
					<v:ud v:nameU="CTypeTopLeftSnip" v:prompt="" v:val="VT0(0):5"/>
					<v:ud v:nameU="CTypeTopRightSnip" v:prompt="" v:val="VT0(0):5"/>
					<v:ud v:nameU="CTypeBotLeftSnip" v:prompt="" v:val="VT0(0):5"/>
					<v:ud v:nameU="CTypeBotRightSnip" v:prompt="" v:val="VT0(0):5"/>
					<v:ud v:nameU="CornerLockHoriz" v:prompt="" v:val="VT0(1):5"/>
					<v:ud v:nameU="CornerLockVert" v:prompt="" v:val="VT0(1):5"/>
					<v:ud v:nameU="CornerLockDiag" v:prompt="" v:val="VT0(0):5"/>
					<v:ud v:nameU="TopLeftOffset" v:prompt="" v:val="VT0(0.15748031496063):24"/>
					<v:ud v:nameU="TopRightOffset" v:prompt="" v:val="VT0(0.15748031496063):24"/>
					<v:ud v:nameU="BotLeftOffset" v:prompt="" v:val="VT0(0.15748031496063):24"/>
					<v:ud v:nameU="BotRightOffset" v:prompt="" v:val="VT0(0.15748031496063):24"/>
					<v:ud v:nameU="visVersion" v:prompt="" v:val="VT0(15):26"/>
					<v:ud v:nameU="TopLeftOffset" v:prompt="" v:val="VT0(0.070087875130311):1"/>
					<v:ud v:nameU="TopRightOffset" v:prompt="" v:val="VT0(0.070087875130311):1"/>
					<v:ud v:nameU="BotLeftOffset" v:prompt="" v:val="VT0(0.070087875130311):1"/>
					<v:ud v:nameU="BotRightOffset" v:prompt="" v:val="VT0(0.070087875130311):1"/>
				</v:userDefs>
				<g id="shadow288-59" v:groupContext="shadow" v:shadowOffsetX="0.345598" v:shadowOffsetY="-1.97279" v:shadowType="1"
						transform="matrix(1,0,0,1,0.345598,1.97279)" class="st5">
					<path d="M5.05 595.28 L45.42 595.28 A5.04624 5.04624 -180 0 0 50.46 590.23 L50.46 575.09 A5.04624 5.04624 -180
								 0 0 45.42 570.04 L5.05 570.04 A5.04624 5.04624 -180 0 0 0 575.09 L0 590.23 A5.04624 5.04624 -180
								 0 0 5.05 595.28 Z" class="st6"/>
				</g>
				<path d="M5.05 595.28 L45.42 595.28 A5.04624 5.04624 -180 0 0 50.46 590.23 L50.46 575.09 A5.04624 5.04624 -180 0
							 0 45.42 570.04 L5.05 570.04 A5.04624 5.04624 -180 0 0 0 575.09 L0 590.23 A5.04624 5.04624 -180 0 0 5.05
							 595.28 Z" class="st7"/>
			</g>
			<g id="shape289-63" v:mID="289" v:groupContext="shape" transform="translate(6.72844,-16.8211)">
				<title>Rounded Rectangle.2</title>
				<v:userDefs>
					<v:ud v:nameU="CTypeTopLeftSnip" v:prompt="" v:val="VT0(0):5"/>
					<v:ud v:nameU="CTypeTopRightSnip" v:prompt="" v:val="VT0(0):5"/>
					<v:ud v:nameU="CTypeBotLeftSnip" v:prompt="" v:val="VT0(0):5"/>
					<v:ud v:nameU="CTypeBotRightSnip" v:prompt="" v:val="VT0(0):5"/>
					<v:ud v:nameU="CornerLockHoriz" v:prompt="" v:val="VT0(1):5"/>
					<v:ud v:nameU="CornerLockVert" v:prompt="" v:val="VT0(1):5"/>
					<v:ud v:nameU="CornerLockDiag" v:prompt="" v:val="VT0(0):5"/>
					<v:ud v:nameU="TopLeftOffset" v:prompt="" v:val="VT0(0.15748031496063):24"/>
					<v:ud v:nameU="TopRightOffset" v:prompt="" v:val="VT0(0.15748031496063):24"/>
					<v:ud v:nameU="BotLeftOffset" v:prompt="" v:val="VT0(0.15748031496063):24"/>
					<v:ud v:nameU="BotRightOffset" v:prompt="" v:val="VT0(0.15748031496063):24"/>
					<v:ud v:nameU="visVersion" v:prompt="" v:val="VT0(15):26"/>
					<v:ud v:nameU="TopLeftOffset" v:prompt="" v:val="VT0(0.070087875130311):1"/>
					<v:ud v:nameU="TopRightOffset" v:prompt="" v:val="VT0(0.070087875130311):1"/>
					<v:ud v:nameU="BotLeftOffset" v:prompt="" v:val="VT0(0.070087875130311):1"/>
					<v:ud v:nameU="BotRightOffset" v:prompt="" v:val="VT0(0.070087875130311):1"/>
				</v:userDefs>
				<g id="shadow289-64" v:groupContext="shadow" v:shadowOffsetX="0.345598" v:shadowOffsetY="-1.97279" v:shadowType="1"
						transform="matrix(1,0,0,1,0.345598,1.97279)" class="st5">
					<path d="M5.05 595.28 L45.42 595.28 A5.04624 5.04624 -180 0 0 50.46 590.23 L50.46 575.09 A5.04624 5.04624 -180
								 0 0 45.42 570.04 L5.05 570.04 A5.04624 5.04624 -180 0 0 0 575.09 L0 590.23 A5.04624 5.04624 -180
								 0 0 5.05 595.28 Z" class="st6"/>
				</g>
				<path d="M5.05 595.28 L45.42 595.28 A5.04624 5.04624 -180 0 0 50.46 590.23 L50.46 575.09 A5.04624 5.04624 -180 0
							 0 45.42 570.04 L5.05 570.04 A5.04624 5.04624 -180 0 0 0 575.09 L0 590.23 A5.04624 5.04624 -180 0 0 5.05
							 595.28 Z" class="st7"/>
			</g>
			<g id="shape290-68" v:mID="290" v:groupContext="shape" transform="translate(13.4569,-8.41055)">
				<title>Rounded Rectangle.3</title>
				<v:userDefs>
					<v:ud v:nameU="CTypeTopLeftSnip" v:prompt="" v:val="VT0(0):5"/>
					<v:ud v:nameU="CTypeTopRightSnip" v:prompt="" v:val="VT0(0):5"/>
					<v:ud v:nameU="CTypeBotLeftSnip" v:prompt="" v:val="VT0(0):5"/>
					<v:ud v:nameU="CTypeBotRightSnip" v:prompt="" v:val="VT0(0):5"/>
					<v:ud v:nameU="CornerLockHoriz" v:prompt="" v:val="VT0(1):5"/>
					<v:ud v:nameU="CornerLockVert" v:prompt="" v:val="VT0(1):5"/>
					<v:ud v:nameU="CornerLockDiag" v:prompt="" v:val="VT0(0):5"/>
					<v:ud v:nameU="TopLeftOffset" v:prompt="" v:val="VT0(0.15748031496063):24"/>
					<v:ud v:nameU="TopRightOffset" v:prompt="" v:val="VT0(0.15748031496063):24"/>
					<v:ud v:nameU="BotLeftOffset" v:prompt="" v:val="VT0(0.15748031496063):24"/>
					<v:ud v:nameU="BotRightOffset" v:prompt="" v:val="VT0(0.15748031496063):24"/>
					<v:ud v:nameU="visVersion" v:prompt="" v:val="VT0(15):26"/>
					<v:ud v:nameU="TopLeftOffset" v:prompt="" v:val="VT0(0.070087875130311):1"/>
					<v:ud v:nameU="TopRightOffset" v:prompt="" v:val="VT0(0.070087875130311):1"/>
					<v:ud v:nameU="BotLeftOffset" v:prompt="" v:val="VT0(0.070087875130311):1"/>
					<v:ud v:nameU="BotRightOffset" v:prompt="" v:val="VT0(0.070087875130311):1"/>
				</v:userDefs>
				<g id="shadow290-69" v:groupContext="shadow" v:shadowOffsetX="0.345598" v:shadowOffsetY="-1.97279" v:shadowType="1"
						transform="matrix(1,0,0,1,0.345598,1.97279)" class="st5">
					<path d="M5.05 595.28 L45.42 595.28 A5.04624 5.04624 -180 0 0 50.46 590.23 L50.46 575.09 A5.04624 5.04624 -180
								 0 0 45.42 570.04 L5.05 570.04 A5.04624 5.04624 -180 0 0 0 575.09 L0 590.23 A5.04624 5.04624 -180
								 0 0 5.05 595.28 Z" class="st6"/>
				</g>
				<path d="M5.05 595.28 L45.42 595.28 A5.04624 5.04624 -180 0 0 50.46 590.23 L50.46 575.09 A5.04624 5.04624 -180 0
							 0 45.42 570.04 L5.05 570.04 A5.04624 5.04624 -180 0 0 0 575.09 L0 590.23 A5.04624 5.04624 -180 0 0 5.05
							 595.28 Z" class="st7"/>
			</g>
			<g id="shape291-73" v:mID="291" v:groupContext="shape" transform="translate(21.8674,0)">
				<title>Rounded Rectangle.4</title>
				<desc>Devices</desc>
				<v:userDefs>
					<v:ud v:nameU="CTypeTopLeftSnip" v:prompt="" v:val="VT0(0):5"/>
					<v:ud v:nameU="CTypeTopRightSnip" v:prompt="" v:val="VT0(0):5"/>
					<v:ud v:nameU="CTypeBotLeftSnip" v:prompt="" v:val="VT0(0):5"/>
					<v:ud v:nameU="CTypeBotRightSnip" v:prompt="" v:val="VT0(0):5"/>
					<v:ud v:nameU="CornerLockHoriz" v:prompt="" v:val="VT0(1):5"/>
					<v:ud v:nameU="CornerLockVert" v:prompt="" v:val="VT0(1):5"/>
					<v:ud v:nameU="CornerLockDiag" v:prompt="" v:val="VT0(0):5"/>
					<v:ud v:nameU="TopLeftOffset" v:prompt="" v:val="VT0(0.15748031496063):24"/>
					<v:ud v:nameU="TopRightOffset" v:prompt="" v:val="VT0(0.15748031496063):24"/>
					<v:ud v:nameU="BotLeftOffset" v:prompt="" v:val="VT0(0.15748031496063):24"/>
					<v:ud v:nameU="BotRightOffset" v:prompt="" v:val="VT0(0.15748031496063):24"/>
					<v:ud v:nameU="visVersion" v:prompt="" v:val="VT0(15):26"/>
					<v:ud v:nameU="TopLeftOffset" v:prompt="" v:val="VT0(0.070087875130311):1"/>
					<v:ud v:nameU="TopRightOffset" v:prompt="" v:val="VT0(0.070087875130311):1"/>
					<v:ud v:nameU="BotLeftOffset" v:prompt="" v:val="VT0(0.070087875130311):1"/>
					<v:ud v:nameU="BotRightOffset" v:prompt="" v:val="VT0(0.070087875130311):1"/>
				</v:userDefs>
				<v:textBlock v:margins="rect(4,4,4,4)" v:tabSpace="42.5197"/>
				<v:textRect cx="25.2316" cy="582.66" width="50.47" height="25.2316"/>
				<g id="shadow291-74" v:groupContext="shadow" v:shadowOffsetX="0.345598" v:shadowOffsetY="-1.97279" v:shadowType="1"
						transform="matrix(1,0,0,1,0.345598,1.97279)" class="st5">
					<path d="M5.05 595.28 L45.42 595.28 A5.04624 5.04624 -180 0 0 50.46 590.23 L50.46 575.09 A5.04624 5.04624 -180
								 0 0 45.42 570.04 L5.05 570.04 A5.04624 5.04624 -180 0 0 0 575.09 L0 590.23 A5.04624 5.04624 -180
								 0 0 5.05 595.28 Z" class="st6"/>
				</g>
				<path d="M5.05 595.28 L45.42 595.28 A5.04624 5.04624 -180 0 0 50.46 590.23 L50.46 575.09 A5.04624 5.04624 -180 0
							 0 45.42 570.04 L5.05 570.04 A5.04624 5.04624 -180 0 0 0 575.09 L0 590.23 A5.04624 5.04624 -180 0 0 5.05
							 595.28 Z" class="st7"/>
				<text x="8.15" y="585.96" class="st12" v:langID="2057"><v:paragraph v:horizAlign="1"/><v:tabList/>Devices</text>			</g>
		</g>
		<g id="shape228-79" v:mID="228" v:groupContext="shape" transform="translate(409.559,-405.197)">
			<title>Sheet.228</title>
			<desc>Event Hub</desc>
			<v:textBlock v:margins="rect(4,4,4,4)" v:tabSpace="42.5197"/>
			<v:textRect cx="36.1653" cy="585.276" width="72.34" height="20"/>
			<rect x="0" y="575.276" width="72.3307" height="20" class="st1"/>
			<text x="10.98" y="588.88" class="st2" v:langID="2057"><v:paragraph v:horizAlign="1"/><v:tabList/>Event Hub</text>		</g>
		<g id="group285-82" transform="translate(418.932,-351.763)" v:mID="285" v:groupContext="group">
			<title>Sheet.285</title>
			<g id="group243-83" v:mID="243" v:groupContext="group">
				<title>Sheet.243</title>
				<g id="shape244-84" v:mID="244" v:groupContext="shape">
					<title>Rounded Rectangle.150</title>
					<v:userDefs>
						<v:ud v:nameU="CTypeTopLeftSnip" v:prompt="" v:val="VT0(0):5"/>
						<v:ud v:nameU="CTypeTopRightSnip" v:prompt="" v:val="VT0(0):5"/>
						<v:ud v:nameU="CTypeBotLeftSnip" v:prompt="" v:val="VT0(0):5"/>
						<v:ud v:nameU="CTypeBotRightSnip" v:prompt="" v:val="VT0(0):5"/>
						<v:ud v:nameU="CornerLockHoriz" v:prompt="" v:val="VT0(1):5"/>
						<v:ud v:nameU="CornerLockVert" v:prompt="" v:val="VT0(1):5"/>
						<v:ud v:nameU="CornerLockDiag" v:prompt="" v:val="VT0(0):5"/>
						<v:ud v:nameU="TopLeftOffset" v:prompt="" v:val="VT0(0.15748031496063):24"/>
						<v:ud v:nameU="TopRightOffset" v:prompt="" v:val="VT0(0.15748031496063):24"/>
						<v:ud v:nameU="BotLeftOffset" v:prompt="" v:val="VT0(0.15748031496063):24"/>
						<v:ud v:nameU="BotRightOffset" v:prompt="" v:val="VT0(0.15748031496063):24"/>
						<v:ud v:nameU="visVersion" v:prompt="" v:val="VT0(15):26"/>
						<v:ud v:nameU="TopLeftOffset" v:prompt="" v:val="VT0(0.074423622047244):1"/>
						<v:ud v:nameU="TopRightOffset" v:prompt="" v:val="VT0(0.074423622047244):1"/>
						<v:ud v:nameU="BotLeftOffset" v:prompt="" v:val="VT0(0.074423622047244):1"/>
						<v:ud v:nameU="BotRightOffset" v:prompt="" v:val="VT0(0.074423622047244):1"/>
					</v:userDefs>
					<g id="shadow244-85" v:groupContext="shadow" v:shadowOffsetX="0.345598" v:shadowOffsetY="-1.97279"
							v:shadowType="1" transform="matrix(1,0,0,1,0.345598,1.97279)" class="st5">
						<path d="M5.36 595.28 L48.23 595.28 A5.35841 5.35841 -180 0 0 53.59 589.92 L53.59 557.26 A5.35841 5.35841
									 -180 0 0 48.23 551.9 L5.36 551.9 A5.35841 5.35841 -180 0 0 0 557.26 L0 589.92 A5.35841 5.35841
									 -180 0 0 5.36 595.28 Z" class="st6"/>
					</g>
					<path d="M5.36 595.28 L48.23 595.28 A5.35841 5.35841 -180 0 0 53.59 589.92 L53.59 557.26 A5.35841 5.35841 -180
								 0 0 48.23 551.9 L5.36 551.9 A5.35841 5.35841 -180 0 0 0 557.26 L0 589.92 A5.35841 5.35841 -180 0
								 0 5.36 595.28 Z" class="st7"/>
				</g>
			</g>
			<g id="shape250-89" v:mID="250" v:groupContext="shape" transform="translate(162.737,11.0883) rotate(15)">
				<title>Automation.249</title>
				<g id="shadow250-90" v:groupContext="shadow" v:shadowOffsetX="0.3456" v:shadowOffsetY="-1.9728" v:shadowType="1"
						transform="matrix(1,0,0,1,0.844422,1.81613)" class="st5">
					<path d="M3.42 568.48 L3.05 570.47 L2.43 573.93 L2.13 575.59 L1.86 577.04 L0.04 587.06 C-0 587.25 0.06 587.41
								 0.18 587.41 L1.87 587.41 C1.92 587.41 1.96 587.44 1.99 587.48 C2.03 587.55 2.03 587.65 2.01 587.76
								 L0.27 595.04 C0.23 595.24 0.26 595.28 0.33 595.11 L5.84 584.34 C5.92 584.17 5.88 584.04 5.77 584.04
								 L3.96 584.06 L3.63 584.07 C3.51 584.07 3.45 583.93 3.52 583.74 L5.23 578.46 L5.64 577.2 L6.11 575.75
								 L7.11 572.7 L7.68 570.91 C6.39 569.63 4.96 568.78 3.42 568.48 Z" class="st8"/>
				</g>
				<path d="M3.42 568.48 L3.05 570.47 L2.43 573.93 L2.13 575.59 L1.86 577.04 L0.04 587.06 C-0 587.25 0.06 587.41 0.18
							 587.41 L1.87 587.41 C1.92 587.41 1.96 587.44 1.99 587.48 C2.03 587.55 2.03 587.65 2.01 587.76 L0.27
							 595.04 C0.23 595.24 0.26 595.28 0.33 595.11 L5.84 584.34 C5.92 584.17 5.88 584.04 5.77 584.04 L3.96
							 584.06 L3.63 584.07 C3.51 584.07 3.45 583.93 3.52 583.74 L5.23 578.46 L5.64 577.2 L6.11 575.75 L7.11
							 572.7 L7.68 570.91 C6.39 569.63 4.96 568.78 3.42 568.48 Z" class="st9"/>
			</g>
			<g id="shape251-94" v:mID="251" v:groupContext="shape" transform="translate(184.999,11.3441) rotate(15)">
				<title>Automation.251</title>
				<g id="shadow251-95" v:groupContext="shadow" v:shadowOffsetX="0.3456" v:shadowOffsetY="-1.9728" v:shadowType="1"
						transform="matrix(1,0,0,1,0.844422,1.81613)" class="st5">
					<path d="M3.42 568.48 L3.05 570.47 L2.43 573.93 L2.13 575.59 L1.86 577.04 L0.04 587.06 C-0 587.25 0.06 587.41
								 0.18 587.41 L1.87 587.41 C1.92 587.41 1.96 587.44 1.99 587.48 C2.03 587.55 2.03 587.65 2.01 587.76
								 L0.27 595.04 C0.23 595.24 0.26 595.28 0.33 595.11 L5.84 584.34 C5.92 584.17 5.88 584.04 5.77 584.04
								 L3.96 584.06 L3.63 584.07 C3.51 584.07 3.45 583.93 3.52 583.74 L5.23 578.46 L5.64 577.2 L6.11 575.75
								 L7.11 572.7 L7.68 570.91 C6.39 569.63 4.96 568.78 3.42 568.48 Z" class="st8"/>
				</g>
				<path d="M3.42 568.48 L3.05 570.47 L2.43 573.93 L2.13 575.59 L1.86 577.04 L0.04 587.06 C-0 587.25 0.06 587.41 0.18
							 587.41 L1.87 587.41 C1.92 587.41 1.96 587.44 1.99 587.48 C2.03 587.55 2.03 587.65 2.01 587.76 L0.27
							 595.04 C0.23 595.24 0.26 595.28 0.33 595.11 L5.84 584.34 C5.92 584.17 5.88 584.04 5.77 584.04 L3.96
							 584.06 L3.63 584.07 C3.51 584.07 3.45 583.93 3.52 583.74 L5.23 578.46 L5.64 577.2 L6.11 575.75 L7.11
							 572.7 L7.68 570.91 C6.39 569.63 4.96 568.78 3.42 568.48 Z" class="st9"/>
			</g>
			<g id="shape252-99" v:mID="252" v:groupContext="shape" transform="translate(173.868,11.3441) rotate(15)">
				<title>Automation.252</title>
				<g id="shadow252-100" v:groupContext="shadow" v:shadowOffsetX="0.3456" v:shadowOffsetY="-1.9728" v:shadowType="1"
						transform="matrix(1,0,0,1,0.844422,1.81613)" class="st5">
					<path d="M3.42 568.48 L3.05 570.47 L2.43 573.93 L2.13 575.59 L1.86 577.04 L0.04 587.06 C-0 587.25 0.06 587.41
								 0.18 587.41 L1.87 587.41 C1.92 587.41 1.96 587.44 1.99 587.48 C2.03 587.55 2.03 587.65 2.01 587.76
								 L0.27 595.04 C0.23 595.24 0.26 595.28 0.33 595.11 L5.84 584.34 C5.92 584.17 5.88 584.04 5.77 584.04
								 L3.96 584.06 L3.63 584.07 C3.51 584.07 3.45 583.93 3.52 583.74 L5.23 578.46 L5.64 577.2 L6.11 575.75
								 L7.11 572.7 L7.68 570.91 C6.39 569.63 4.96 568.78 3.42 568.48 Z" class="st8"/>
				</g>
				<path d="M3.42 568.48 L3.05 570.47 L2.43 573.93 L2.13 575.59 L1.86 577.04 L0.04 587.06 C-0 587.25 0.06 587.41 0.18
							 587.41 L1.87 587.41 C1.92 587.41 1.96 587.44 1.99 587.48 C2.03 587.55 2.03 587.65 2.01 587.76 L0.27
							 595.04 C0.23 595.24 0.26 595.28 0.33 595.11 L5.84 584.34 C5.92 584.17 5.88 584.04 5.77 584.04 L3.96
							 584.06 L3.63 584.07 C3.51 584.07 3.45 583.93 3.52 583.74 L5.23 578.46 L5.64 577.2 L6.11 575.75 L7.11
							 572.7 L7.68 570.91 C6.39 569.63 4.96 568.78 3.42 568.48 Z" class="st9"/>
			</g>
		</g>
		<g id="shape295-104" v:mID="295" v:groupContext="shape" v:layerMember="0" transform="translate(347.059,-366.365)">
			<title>Dynamic connector</title>
			<path d="M0 588.19 L64.83 588.19" class="st13"/>
		</g>
		<g id="shape296-110" v:mID="296" v:groupContext="shape" v:layerMember="0" transform="translate(472.517,-366.365)">
			<title>Dynamic connector.296</title>
			<path d="M0 588.19 L29.08 588.19" class="st13"/>
		</g>
	</g>
</svg>
