<?xml version="1.0" encoding="UTF-8" standalone="no"?>
<!DOCTYPE svg PUBLIC "-//W3C//DTD SVG 1.1//EN" "http://www.w3.org/Graphics/SVG/1.1/DTD/svg11.dtd">
<!-- Generated by Microsoft Visio, SVG Export physical-architecture-worker-role-and-event-hub.svg Page-1 -->
<svg xmlns="http://www.w3.org/2000/svg" xmlns:xlink="http://www.w3.org/1999/xlink" xmlns:ev="http://www.w3.org/2001/xml-events"
		xmlns:v="http://schemas.microsoft.com/visio/2003/SVGExtensions/" width="11.6929in" height="8.26772in"
		viewBox="0 0 841.89 595.276" xml:space="preserve" color-interpolation-filters="sRGB" class="st13">
	<v:documentProperties v:langID="1033" v:metric="true" v:viewMarkup="false">
		<v:userDefs>
			<v:ud v:nameU="msvSubprocessMaster" v:prompt="" v:val="VT4(Rectangle)"/>
			<v:ud v:nameU="msvNoAutoConnect" v:val="VT0(1):26"/>
		</v:userDefs>
	</v:documentProperties>

	<style type="text/css">
	<![CDATA[
		.st1 {fill:none;stroke:none;stroke-width:0.25}
		.st2 {fill:#000000;font-family:Calibri;font-size:1.00001em}
		.st3 {visibility:visible}
		.st4 {fill:#5b9bd5;fill-opacity:0.22;filter:url(#filter_2);stroke:none}
		.st5 {fill:#0070c0;stroke:none;stroke-width:0.25}
		.st6 {fill:#ffffff;stroke:none;stroke-width:0.25}
		.st7 {fill:#5b9bd5;fill-opacity:0.22;filter:url(#filter_2);stroke:#5b9bd5;stroke-opacity:0.22}
		.st8 {fill:#0070c0;stroke:#c7c8c8;stroke-width:0.25}
		.st9 {fill:#feffff;font-family:Calibri;font-size:0.916672em}
		.st10 {marker-end:url(#mrkr5-100);stroke:#5b9bd5;stroke-linecap:round;stroke-linejoin:round;stroke-width:1}
		.st11 {fill:#5b9bd5;fill-opacity:1;stroke:#5b9bd5;stroke-opacity:1;stroke-width:0.28409090909091}
		.st12 {marker-end:url(#mrkr4-137);stroke:#5b9bd5;stroke-linecap:round;stroke-linejoin:round;stroke-width:1}
		.st13 {fill:none;fill-rule:evenodd;font-size:12px;overflow:visible;stroke-linecap:square;stroke-miterlimit:3}
	]]>
	</style>

	<defs id="Markers">
		<g id="lend5">
			<path d="M 2 1 L 0 0 L 1.98117 -0.993387 C 1.67173 -0.364515 1.67301 0.372641 1.98465 1.00043 " style="stroke:none"/>
		</g>
		<marker id="mrkr5-100" class="st11" v:arrowType="5" v:arrowSize="2" v:setback="6.16" refX="-6.16" orient="auto"
				markerUnits="strokeWidth" overflow="visible">
			<use xlink:href="#lend5" transform="scale(-3.52,-3.52) "/>
		</marker>
		<g id="lend4">
			<path d="M 2 1 L 0 0 L 2 -1 L 2 1 " style="stroke:none"/>
		</g>
		<marker id="mrkr4-137" class="st11" v:arrowType="4" v:arrowSize="2" v:setback="7.04" refX="-7.04" orient="auto"
				markerUnits="strokeWidth" overflow="visible">
			<use xlink:href="#lend4" transform="scale(-3.52,-3.52) "/>
		</marker>
	</defs>
	<defs id="Filters">
		<filter id="filter_2">
			<feGaussianBlur stdDeviation="2"/>
		</filter>
	</defs>
	<g v:mID="0" v:index="1" v:groupContext="foregroundPage">
		<v:userDefs>
			<v:ud v:nameU="msvThemeOrder" v:val="VT0(0):26"/>
		</v:userDefs>
		<title>Page-1</title>
		<v:pageProperties v:drawingScale="0.0393701" v:pageScale="0.0393701" v:drawingUnits="24" v:shadowOffsetX="8.50394"
				v:shadowOffsetY="-8.50394"/>
		<v:layer v:name="Connector" v:index="0"/>
		<g id="shape259-1" v:mID="259" v:groupContext="shape" transform="translate(290.958,-514.838)">
			<title>Sheet.259</title>
			<desc>Worker Roles</desc>
			<v:textBlock v:margins="rect(4,4,4,4)" v:tabSpace="42.5197"/>
			<v:textRect cx="44.3096" cy="585.276" width="88.62" height="20"/>
			<rect x="0" y="575.276" width="88.6193" height="20" class="st1"/>
			<text x="11.42" y="588.88" class="st2" v:langID="2057"><v:paragraph v:horizAlign="1"/><v:tabList/>Worker Roles</text>		</g>
		<g id="group301-4" transform="translate(308.181,-315.556)" v:mID="301" v:groupContext="group">
			<title>Sheet.301</title>
			<g id="group302-5" transform="translate(7.99361E-15,-149.247)" v:mID="302" v:groupContext="group">
				<title>Worker Role</title>
				<g id="shape303-6" v:mID="303" v:groupContext="shape">
					<title>Sheet.303</title>
					<g id="shadow303-7" v:groupContext="shadow" v:shadowOffsetX="0.3456" v:shadowOffsetY="-1.9728" v:shadowType="1"
							transform="matrix(1,0,0,1,0.3456,1.9728)" class="st3">
						<path d="M53.58 592.53 C53.58 594.05 52.53 595.28 51.22 595.28 L2.36 595.28 C1.06 595.28 0 594.05 0 592.53
									 L0 554.64 C0 553.13 1.06 551.9 2.36 551.9 L51.22 551.9 C52.53 551.9 53.59 553.13 53.59 554.64
									 L53.59 592.53 L53.58 592.53 Z" class="st4"/>
					</g>
					<path d="M53.58 592.53 C53.58 594.05 52.53 595.28 51.22 595.28 L2.36 595.28 C1.06 595.28 0 594.05 0 592.53 L0
								 554.64 C0 553.13 1.06 551.9 2.36 551.9 L51.22 551.9 C52.53 551.9 53.59 553.13 53.59 554.64 L53.59
								 592.53 L53.58 592.53 Z" class="st5"/>
				</g>
				<g id="group304-11" transform="translate(12.7525,-7.73577)" v:mID="304" v:groupContext="group">
					<title>Sheet.304</title>
					<g id="shape305-12" v:mID="305" v:groupContext="shape" transform="translate(11.2535,-11.227)">
						<title>Sheet.305</title>
						<g id="shadow305-13" v:groupContext="shadow" v:shadowOffsetX="0.3456" v:shadowOffsetY="-1.9728"
								v:shadowType="1" transform="matrix(1,0,0,1,0.3456,1.9728)" class="st3">
							<path d="M1.63 590.42 C0.46 591.02 0 592.46 0.6 593.64 C1.21 594.81 2.65 595.28 3.82 594.67 C4.99 594.07
										 5.46 592.63 4.86 591.46 C4.26 590.28 2.82 589.82 1.63 590.42 Z" class="st4"/>
						</g>
						<path d="M1.63 590.42 C0.46 591.02 0 592.46 0.6 593.64 C1.21 594.81 2.65 595.28 3.82 594.67 C4.99 594.07
									 5.46 592.63 4.86 591.46 C4.26 590.28 2.82 589.82 1.63 590.42 Z" class="st6"/>
					</g>
					<g id="shape306-17" v:mID="306" v:groupContext="shape">
						<title>Sheet.306</title>
						<g id="shadow306-18" v:groupContext="shadow" v:shadowOffsetX="0.3456" v:shadowOffsetY="-1.9728"
								v:shadowType="1" transform="matrix(1,0,0,1,0.3456,1.9728)" class="st3">
							<path d="M24.42 581.53 L27.96 580.05 L26.88 575.51 L22.91 575.94 C22.5 575.26 22.05 574.65 21.52 574.1
										 L22.99 570.53 L19.01 568.09 L16.53 571.17 C15.67 570.94 14.79 570.83 13.89 570.82 L12.34
										 567.37 L7.82 568.58 L8.35 572.4 C7.73 572.79 7.16 573.23 6.65 573.71 L3.22 572.3 L0.77 576.27
										 L3.72 578.65 C3.5 579.46 3.38 580.3 3.36 581.15 L0 582.54 L1.08 587.09 L4.83 586.68 C5.27
										 587.43 5.78 588.11 6.36 588.71 L4.98 592.06 L8.96 594.51 L11.34 591.55 C12.15 591.75 12.97
										 591.87 13.82 591.87 L15.23 595.28 L19.77 594.19 L19.36 590.34 C20.06 589.91 20.71 589.42
										 21.27 588.87 L24.75 590.3 L27.2 586.32 L24.12 583.84 C24.3 583.09 24.4 582.31 24.42 581.53
										 ZM16.96 587.1 C13.76 588.74 9.82 587.48 8.18 584.27 C6.53 581.07 7.8 577.14 11.01 575.49
										 C14.21 573.85 18.15 575.12 19.79 578.32 C21.43 581.53 20.17 585.46 16.96 587.1 Z"
									class="st4"/>
						</g>
						<path d="M24.42 581.53 L27.96 580.05 L26.88 575.51 L22.91 575.94 C22.5 575.26 22.05 574.65 21.52 574.1 L22.99
									 570.53 L19.01 568.09 L16.53 571.17 C15.67 570.94 14.79 570.83 13.89 570.82 L12.34 567.37 L7.82
									 568.58 L8.35 572.4 C7.73 572.79 7.16 573.23 6.65 573.71 L3.22 572.3 L0.77 576.27 L3.72 578.65
									 C3.5 579.46 3.38 580.3 3.36 581.15 L0 582.54 L1.08 587.09 L4.83 586.68 C5.27 587.43 5.78 588.11
									 6.36 588.71 L4.98 592.06 L8.96 594.51 L11.34 591.55 C12.15 591.75 12.97 591.87 13.82 591.87
									 L15.23 595.28 L19.77 594.19 L19.36 590.34 C20.06 589.91 20.71 589.42 21.27 588.87 L24.75 590.3
									 L27.2 586.32 L24.12 583.84 C24.3 583.09 24.4 582.31 24.42 581.53 ZM16.96 587.1 C13.76 588.74
									 9.82 587.48 8.18 584.27 C6.53 581.07 7.8 577.14 11.01 575.49 C14.21 573.85 18.15 575.12 19.79
									 578.32 C21.43 581.53 20.17 585.46 16.96 587.1 Z" class="st6"/>
					</g>
				</g>
			</g>
			<g id="group307-22" transform="translate(0.58778,-100.07)" v:mID="307" v:groupContext="group">
				<title>Worker Role.256</title>
				<g id="shape308-23" v:mID="308" v:groupContext="shape">
					<title>Sheet.308</title>
					<g id="shadow308-24" v:groupContext="shadow" v:shadowOffsetX="0.3456" v:shadowOffsetY="-1.9728"
							v:shadowType="1" transform="matrix(1,0,0,1,0.3456,1.9728)" class="st3">
						<path d="M53.58 592.53 C53.58 594.05 52.53 595.28 51.22 595.28 L2.36 595.28 C1.06 595.28 0 594.05 0 592.53
									 L0 554.64 C0 553.13 1.06 551.9 2.36 551.9 L51.22 551.9 C52.53 551.9 53.59 553.13 53.59 554.64
									 L53.59 592.53 L53.58 592.53 Z" class="st4"/>
					</g>
					<path d="M53.58 592.53 C53.58 594.05 52.53 595.28 51.22 595.28 L2.36 595.28 C1.06 595.28 0 594.05 0 592.53 L0
								 554.64 C0 553.13 1.06 551.9 2.36 551.9 L51.22 551.9 C52.53 551.9 53.59 553.13 53.59 554.64 L53.59
								 592.53 L53.58 592.53 Z" class="st5"/>
				</g>
				<g id="group309-28" transform="translate(12.7525,-7.73577)" v:mID="309" v:groupContext="group">
					<title>Sheet.309</title>
					<g id="shape310-29" v:mID="310" v:groupContext="shape" transform="translate(11.2535,-11.227)">
						<title>Sheet.310</title>
						<g id="shadow310-30" v:groupContext="shadow" v:shadowOffsetX="0.3456" v:shadowOffsetY="-1.9728"
								v:shadowType="1" transform="matrix(1,0,0,1,0.3456,1.9728)" class="st3">
							<path d="M1.63 590.42 C0.46 591.02 0 592.46 0.6 593.64 C1.21 594.81 2.65 595.28 3.82 594.67 C4.99 594.07
										 5.46 592.63 4.86 591.46 C4.26 590.28 2.82 589.82 1.63 590.42 Z" class="st4"/>
						</g>
						<path d="M1.63 590.42 C0.46 591.02 0 592.46 0.6 593.64 C1.21 594.81 2.65 595.28 3.82 594.67 C4.99 594.07
									 5.46 592.63 4.86 591.46 C4.26 590.28 2.82 589.82 1.63 590.42 Z" class="st6"/>
					</g>
					<g id="shape311-34" v:mID="311" v:groupContext="shape">
						<title>Sheet.311</title>
						<g id="shadow311-35" v:groupContext="shadow" v:shadowOffsetX="0.3456" v:shadowOffsetY="-1.9728"
								v:shadowType="1" transform="matrix(1,0,0,1,0.3456,1.9728)" class="st3">
							<path d="M24.42 581.53 L27.96 580.05 L26.88 575.51 L22.91 575.94 C22.5 575.26 22.05 574.65 21.52 574.1
										 L22.99 570.53 L19.01 568.09 L16.53 571.17 C15.67 570.94 14.79 570.83 13.89 570.82 L12.34
										 567.37 L7.82 568.58 L8.35 572.4 C7.73 572.79 7.16 573.23 6.65 573.71 L3.22 572.3 L0.77 576.27
										 L3.72 578.65 C3.5 579.46 3.38 580.3 3.36 581.15 L0 582.54 L1.08 587.09 L4.83 586.68 C5.27
										 587.43 5.78 588.11 6.36 588.71 L4.98 592.06 L8.96 594.51 L11.34 591.55 C12.15 591.75 12.97
										 591.87 13.82 591.87 L15.23 595.28 L19.77 594.19 L19.36 590.34 C20.06 589.91 20.71 589.42
										 21.27 588.87 L24.75 590.3 L27.2 586.32 L24.12 583.84 C24.3 583.09 24.4 582.31 24.42 581.53
										 ZM16.96 587.1 C13.76 588.74 9.82 587.48 8.18 584.27 C6.53 581.07 7.8 577.14 11.01 575.49
										 C14.21 573.85 18.15 575.12 19.79 578.32 C21.43 581.53 20.17 585.46 16.96 587.1 Z"
									class="st4"/>
						</g>
						<path d="M24.42 581.53 L27.96 580.05 L26.88 575.51 L22.91 575.94 C22.5 575.26 22.05 574.65 21.52 574.1 L22.99
									 570.53 L19.01 568.09 L16.53 571.17 C15.67 570.94 14.79 570.83 13.89 570.82 L12.34 567.37 L7.82
									 568.58 L8.35 572.4 C7.73 572.79 7.16 573.23 6.65 573.71 L3.22 572.3 L0.77 576.27 L3.72 578.65
									 C3.5 579.46 3.38 580.3 3.36 581.15 L0 582.54 L1.08 587.09 L4.83 586.68 C5.27 587.43 5.78 588.11
									 6.36 588.71 L4.98 592.06 L8.96 594.51 L11.34 591.55 C12.15 591.75 12.97 591.87 13.82 591.87
									 L15.23 595.28 L19.77 594.19 L19.36 590.34 C20.06 589.91 20.71 589.42 21.27 588.87 L24.75 590.3
									 L27.2 586.32 L24.12 583.84 C24.3 583.09 24.4 582.31 24.42 581.53 ZM16.96 587.1 C13.76 588.74
									 9.82 587.48 8.18 584.27 C6.53 581.07 7.8 577.14 11.01 575.49 C14.21 573.85 18.15 575.12 19.79
									 578.32 C21.43 581.53 20.17 585.46 16.96 587.1 Z" class="st6"/>
					</g>
				</g>
			</g>
			<g id="group312-39" transform="translate(0.516472,-50.0348)" v:mID="312" v:groupContext="group">
				<title>Worker Role.261</title>
				<g id="shape313-40" v:mID="313" v:groupContext="shape">
					<title>Sheet.313</title>
					<g id="shadow313-41" v:groupContext="shadow" v:shadowOffsetX="0.3456" v:shadowOffsetY="-1.9728"
							v:shadowType="1" transform="matrix(1,0,0,1,0.3456,1.9728)" class="st3">
						<path d="M53.58 592.53 C53.58 594.05 52.53 595.28 51.22 595.28 L2.36 595.28 C1.06 595.28 0 594.05 0 592.53
									 L0 554.64 C0 553.13 1.06 551.9 2.36 551.9 L51.22 551.9 C52.53 551.9 53.59 553.13 53.59 554.64
									 L53.59 592.53 L53.58 592.53 Z" class="st4"/>
					</g>
					<path d="M53.58 592.53 C53.58 594.05 52.53 595.28 51.22 595.28 L2.36 595.28 C1.06 595.28 0 594.05 0 592.53 L0
								 554.64 C0 553.13 1.06 551.9 2.36 551.9 L51.22 551.9 C52.53 551.9 53.59 553.13 53.59 554.64 L53.59
								 592.53 L53.58 592.53 Z" class="st5"/>
				</g>
				<g id="group314-45" transform="translate(12.7525,-7.73577)" v:mID="314" v:groupContext="group">
					<title>Sheet.314</title>
					<g id="shape315-46" v:mID="315" v:groupContext="shape" transform="translate(11.2535,-11.227)">
						<title>Sheet.315</title>
						<g id="shadow315-47" v:groupContext="shadow" v:shadowOffsetX="0.3456" v:shadowOffsetY="-1.9728"
								v:shadowType="1" transform="matrix(1,0,0,1,0.3456,1.9728)" class="st3">
							<path d="M1.63 590.42 C0.46 591.02 0 592.46 0.6 593.64 C1.21 594.81 2.65 595.28 3.82 594.67 C4.99 594.07
										 5.46 592.63 4.86 591.46 C4.26 590.28 2.82 589.82 1.63 590.42 Z" class="st4"/>
						</g>
						<path d="M1.63 590.42 C0.46 591.02 0 592.46 0.6 593.64 C1.21 594.81 2.65 595.28 3.82 594.67 C4.99 594.07
									 5.46 592.63 4.86 591.46 C4.26 590.28 2.82 589.82 1.63 590.42 Z" class="st6"/>
					</g>
					<g id="shape316-51" v:mID="316" v:groupContext="shape">
						<title>Sheet.316</title>
						<g id="shadow316-52" v:groupContext="shadow" v:shadowOffsetX="0.3456" v:shadowOffsetY="-1.9728"
								v:shadowType="1" transform="matrix(1,0,0,1,0.3456,1.9728)" class="st3">
							<path d="M24.42 581.53 L27.96 580.05 L26.88 575.51 L22.91 575.94 C22.5 575.26 22.05 574.65 21.52 574.1
										 L22.99 570.53 L19.01 568.09 L16.53 571.17 C15.67 570.94 14.79 570.83 13.89 570.82 L12.34
										 567.37 L7.82 568.58 L8.35 572.4 C7.73 572.79 7.16 573.23 6.65 573.71 L3.22 572.3 L0.77 576.27
										 L3.72 578.65 C3.5 579.46 3.38 580.3 3.36 581.15 L0 582.54 L1.08 587.09 L4.83 586.68 C5.27
										 587.43 5.78 588.11 6.36 588.71 L4.98 592.06 L8.96 594.51 L11.34 591.55 C12.15 591.75 12.97
										 591.87 13.82 591.87 L15.23 595.28 L19.77 594.19 L19.36 590.34 C20.06 589.91 20.71 589.42
										 21.27 588.87 L24.75 590.3 L27.2 586.32 L24.12 583.84 C24.3 583.09 24.4 582.31 24.42 581.53
										 ZM16.96 587.1 C13.76 588.74 9.82 587.48 8.18 584.27 C6.53 581.07 7.8 577.14 11.01 575.49
										 C14.21 573.85 18.15 575.12 19.79 578.32 C21.43 581.53 20.17 585.46 16.96 587.1 Z"
									class="st4"/>
						</g>
						<path d="M24.42 581.53 L27.96 580.05 L26.88 575.51 L22.91 575.94 C22.5 575.26 22.05 574.65 21.52 574.1 L22.99
									 570.53 L19.01 568.09 L16.53 571.17 C15.67 570.94 14.79 570.83 13.89 570.82 L12.34 567.37 L7.82
									 568.58 L8.35 572.4 C7.73 572.79 7.16 573.23 6.65 573.71 L3.22 572.3 L0.77 576.27 L3.72 578.65
									 C3.5 579.46 3.38 580.3 3.36 581.15 L0 582.54 L1.08 587.09 L4.83 586.68 C5.27 587.43 5.78 588.11
									 6.36 588.71 L4.98 592.06 L8.96 594.51 L11.34 591.55 C12.15 591.75 12.97 591.87 13.82 591.87
									 L15.23 595.28 L19.77 594.19 L19.36 590.34 C20.06 589.91 20.71 589.42 21.27 588.87 L24.75 590.3
									 L27.2 586.32 L24.12 583.84 C24.3 583.09 24.4 582.31 24.42 581.53 ZM16.96 587.1 C13.76 588.74
									 9.82 587.48 8.18 584.27 C6.53 581.07 7.8 577.14 11.01 575.49 C14.21 573.85 18.15 575.12 19.79
									 578.32 C21.43 581.53 20.17 585.46 16.96 587.1 Z" class="st6"/>
					</g>
				</g>
			</g>
			<g id="group317-56" transform="translate(0.58778,0)" v:mID="317" v:groupContext="group">
				<title>Worker Role.266</title>
				<g id="shape318-57" v:mID="318" v:groupContext="shape">
					<title>Sheet.318</title>
					<g id="shadow318-58" v:groupContext="shadow" v:shadowOffsetX="0.3456" v:shadowOffsetY="-1.9728"
							v:shadowType="1" transform="matrix(1,0,0,1,0.3456,1.9728)" class="st3">
						<path d="M53.58 592.53 C53.58 594.05 52.53 595.28 51.22 595.28 L2.36 595.28 C1.06 595.28 0 594.05 0 592.53
									 L0 554.64 C0 553.13 1.06 551.9 2.36 551.9 L51.22 551.9 C52.53 551.9 53.59 553.13 53.59 554.64
									 L53.59 592.53 L53.58 592.53 Z" class="st4"/>
					</g>
					<path d="M53.58 592.53 C53.58 594.05 52.53 595.28 51.22 595.28 L2.36 595.28 C1.06 595.28 0 594.05 0 592.53 L0
								 554.64 C0 553.13 1.06 551.9 2.36 551.9 L51.22 551.9 C52.53 551.9 53.59 553.13 53.59 554.64 L53.59
								 592.53 L53.58 592.53 Z" class="st5"/>
				</g>
				<g id="group319-62" transform="translate(12.7525,-7.73577)" v:mID="319" v:groupContext="group">
					<title>Sheet.319</title>
					<g id="shape320-63" v:mID="320" v:groupContext="shape" transform="translate(11.2535,-11.227)">
						<title>Sheet.320</title>
						<g id="shadow320-64" v:groupContext="shadow" v:shadowOffsetX="0.3456" v:shadowOffsetY="-1.9728"
								v:shadowType="1" transform="matrix(1,0,0,1,0.3456,1.9728)" class="st3">
							<path d="M1.63 590.42 C0.46 591.02 0 592.46 0.6 593.64 C1.21 594.81 2.65 595.28 3.82 594.67 C4.99 594.07
										 5.46 592.63 4.86 591.46 C4.26 590.28 2.82 589.82 1.63 590.42 Z" class="st4"/>
						</g>
						<path d="M1.63 590.42 C0.46 591.02 0 592.46 0.6 593.64 C1.21 594.81 2.65 595.28 3.82 594.67 C4.99 594.07
									 5.46 592.63 4.86 591.46 C4.26 590.28 2.82 589.82 1.63 590.42 Z" class="st6"/>
					</g>
					<g id="shape321-68" v:mID="321" v:groupContext="shape">
						<title>Sheet.321</title>
						<g id="shadow321-69" v:groupContext="shadow" v:shadowOffsetX="0.3456" v:shadowOffsetY="-1.9728"
								v:shadowType="1" transform="matrix(1,0,0,1,0.3456,1.9728)" class="st3">
							<path d="M24.42 581.53 L27.96 580.05 L26.88 575.51 L22.91 575.94 C22.5 575.26 22.05 574.65 21.52 574.1
										 L22.99 570.53 L19.01 568.09 L16.53 571.17 C15.67 570.94 14.79 570.83 13.89 570.82 L12.34
										 567.37 L7.82 568.58 L8.35 572.4 C7.73 572.79 7.16 573.23 6.65 573.71 L3.22 572.3 L0.77 576.27
										 L3.72 578.65 C3.5 579.46 3.38 580.3 3.36 581.15 L0 582.54 L1.08 587.09 L4.83 586.68 C5.27
										 587.43 5.78 588.11 6.36 588.71 L4.98 592.06 L8.96 594.51 L11.34 591.55 C12.15 591.75 12.97
										 591.87 13.82 591.87 L15.23 595.28 L19.77 594.19 L19.36 590.34 C20.06 589.91 20.71 589.42
										 21.27 588.87 L24.75 590.3 L27.2 586.32 L24.12 583.84 C24.3 583.09 24.4 582.31 24.42 581.53
										 ZM16.96 587.1 C13.76 588.74 9.82 587.48 8.18 584.27 C6.53 581.07 7.8 577.14 11.01 575.49
										 C14.21 573.85 18.15 575.12 19.79 578.32 C21.43 581.53 20.17 585.46 16.96 587.1 Z"
									class="st4"/>
						</g>
						<path d="M24.42 581.53 L27.96 580.05 L26.88 575.51 L22.91 575.94 C22.5 575.26 22.05 574.65 21.52 574.1 L22.99
									 570.53 L19.01 568.09 L16.53 571.17 C15.67 570.94 14.79 570.83 13.89 570.82 L12.34 567.37 L7.82
									 568.58 L8.35 572.4 C7.73 572.79 7.16 573.23 6.65 573.71 L3.22 572.3 L0.77 576.27 L3.72 578.65
									 C3.5 579.46 3.38 580.3 3.36 581.15 L0 582.54 L1.08 587.09 L4.83 586.68 C5.27 587.43 5.78 588.11
									 6.36 588.71 L4.98 592.06 L8.96 594.51 L11.34 591.55 C12.15 591.75 12.97 591.87 13.82 591.87
									 L15.23 595.28 L19.77 594.19 L19.36 590.34 C20.06 589.91 20.71 589.42 21.27 588.87 L24.75 590.3
									 L27.2 586.32 L24.12 583.84 C24.3 583.09 24.4 582.31 24.42 581.53 ZM16.96 587.1 C13.76 588.74
									 9.82 587.48 8.18 584.27 C6.53 581.07 7.8 577.14 11.01 575.49 C14.21 573.85 18.15 575.12 19.79
									 578.32 C21.43 581.53 20.17 585.46 16.96 587.1 Z" class="st6"/>
					</g>
				</g>
			</g>
		</g>
		<g id="group323-73" transform="translate(95.2441,-392.875)" v:mID="323" v:groupContext="group">
			<title>Sheet.323</title>
			<g id="shape324-74" v:mID="324" v:groupContext="shape" transform="translate(3.59712E-13,-25.2316)">
				<title>Rounded Rectangle</title>
				<v:userDefs>
					<v:ud v:nameU="CTypeTopLeftSnip" v:prompt="" v:val="VT0(0):5"/>
					<v:ud v:nameU="CTypeTopRightSnip" v:prompt="" v:val="VT0(0):5"/>
					<v:ud v:nameU="CTypeBotLeftSnip" v:prompt="" v:val="VT0(0):5"/>
					<v:ud v:nameU="CTypeBotRightSnip" v:prompt="" v:val="VT0(0):5"/>
					<v:ud v:nameU="CornerLockHoriz" v:prompt="" v:val="VT0(1):5"/>
					<v:ud v:nameU="CornerLockVert" v:prompt="" v:val="VT0(1):5"/>
					<v:ud v:nameU="CornerLockDiag" v:prompt="" v:val="VT0(0):5"/>
					<v:ud v:nameU="TopLeftOffset" v:prompt="" v:val="VT0(0.15748031496063):24"/>
					<v:ud v:nameU="TopRightOffset" v:prompt="" v:val="VT0(0.15748031496063):24"/>
					<v:ud v:nameU="BotLeftOffset" v:prompt="" v:val="VT0(0.15748031496063):24"/>
					<v:ud v:nameU="BotRightOffset" v:prompt="" v:val="VT0(0.15748031496063):24"/>
					<v:ud v:nameU="visVersion" v:prompt="" v:val="VT0(15):26"/>
					<v:ud v:nameU="TopLeftOffset" v:prompt="" v:val="VT0(0.070087875130311):1"/>
					<v:ud v:nameU="TopRightOffset" v:prompt="" v:val="VT0(0.070087875130311):1"/>
					<v:ud v:nameU="BotLeftOffset" v:prompt="" v:val="VT0(0.070087875130311):1"/>
					<v:ud v:nameU="BotRightOffset" v:prompt="" v:val="VT0(0.070087875130311):1"/>
				</v:userDefs>
				<g id="shadow324-75" v:groupContext="shadow" v:shadowOffsetX="0.345598" v:shadowOffsetY="-1.97279" v:shadowType="1"
						transform="matrix(1,0,0,1,0.345598,1.97279)" class="st3">
					<path d="M5.05 595.28 L45.42 595.28 A5.04624 5.04624 -180 0 0 50.46 590.23 L50.46 575.09 A5.04624 5.04624 -180
								 0 0 45.42 570.04 L5.05 570.04 A5.04624 5.04624 -180 0 0 0 575.09 L0 590.23 A5.04624 5.04624 -180
								 0 0 5.05 595.28 Z" class="st7"/>
				</g>
				<path d="M5.05 595.28 L45.42 595.28 A5.04624 5.04624 -180 0 0 50.46 590.23 L50.46 575.09 A5.04624 5.04624 -180 0
							 0 45.42 570.04 L5.05 570.04 A5.04624 5.04624 -180 0 0 0 575.09 L0 590.23 A5.04624 5.04624 -180 0 0 5.05
							 595.28 Z" class="st8"/>
			</g>
			<g id="shape325-79" v:mID="325" v:groupContext="shape" transform="translate(6.72844,-16.8211)">
				<title>Rounded Rectangle.2</title>
				<v:userDefs>
					<v:ud v:nameU="CTypeTopLeftSnip" v:prompt="" v:val="VT0(0):5"/>
					<v:ud v:nameU="CTypeTopRightSnip" v:prompt="" v:val="VT0(0):5"/>
					<v:ud v:nameU="CTypeBotLeftSnip" v:prompt="" v:val="VT0(0):5"/>
					<v:ud v:nameU="CTypeBotRightSnip" v:prompt="" v:val="VT0(0):5"/>
					<v:ud v:nameU="CornerLockHoriz" v:prompt="" v:val="VT0(1):5"/>
					<v:ud v:nameU="CornerLockVert" v:prompt="" v:val="VT0(1):5"/>
					<v:ud v:nameU="CornerLockDiag" v:prompt="" v:val="VT0(0):5"/>
					<v:ud v:nameU="TopLeftOffset" v:prompt="" v:val="VT0(0.15748031496063):24"/>
					<v:ud v:nameU="TopRightOffset" v:prompt="" v:val="VT0(0.15748031496063):24"/>
					<v:ud v:nameU="BotLeftOffset" v:prompt="" v:val="VT0(0.15748031496063):24"/>
					<v:ud v:nameU="BotRightOffset" v:prompt="" v:val="VT0(0.15748031496063):24"/>
					<v:ud v:nameU="visVersion" v:prompt="" v:val="VT0(15):26"/>
					<v:ud v:nameU="TopLeftOffset" v:prompt="" v:val="VT0(0.070087875130311):1"/>
					<v:ud v:nameU="TopRightOffset" v:prompt="" v:val="VT0(0.070087875130311):1"/>
					<v:ud v:nameU="BotLeftOffset" v:prompt="" v:val="VT0(0.070087875130311):1"/>
					<v:ud v:nameU="BotRightOffset" v:prompt="" v:val="VT0(0.070087875130311):1"/>
				</v:userDefs>
				<g id="shadow325-80" v:groupContext="shadow" v:shadowOffsetX="0.345598" v:shadowOffsetY="-1.97279" v:shadowType="1"
						transform="matrix(1,0,0,1,0.345598,1.97279)" class="st3">
					<path d="M5.05 595.28 L45.42 595.28 A5.04624 5.04624 -180 0 0 50.46 590.23 L50.46 575.09 A5.04624 5.04624 -180
								 0 0 45.42 570.04 L5.05 570.04 A5.04624 5.04624 -180 0 0 0 575.09 L0 590.23 A5.04624 5.04624 -180
								 0 0 5.05 595.28 Z" class="st7"/>
				</g>
				<path d="M5.05 595.28 L45.42 595.28 A5.04624 5.04624 -180 0 0 50.46 590.23 L50.46 575.09 A5.04624 5.04624 -180 0
							 0 45.42 570.04 L5.05 570.04 A5.04624 5.04624 -180 0 0 0 575.09 L0 590.23 A5.04624 5.04624 -180 0 0 5.05
							 595.28 Z" class="st8"/>
			</g>
			<g id="shape326-84" v:mID="326" v:groupContext="shape" transform="translate(13.4569,-8.41055)">
				<title>Rounded Rectangle.3</title>
				<v:userDefs>
					<v:ud v:nameU="CTypeTopLeftSnip" v:prompt="" v:val="VT0(0):5"/>
					<v:ud v:nameU="CTypeTopRightSnip" v:prompt="" v:val="VT0(0):5"/>
					<v:ud v:nameU="CTypeBotLeftSnip" v:prompt="" v:val="VT0(0):5"/>
					<v:ud v:nameU="CTypeBotRightSnip" v:prompt="" v:val="VT0(0):5"/>
					<v:ud v:nameU="CornerLockHoriz" v:prompt="" v:val="VT0(1):5"/>
					<v:ud v:nameU="CornerLockVert" v:prompt="" v:val="VT0(1):5"/>
					<v:ud v:nameU="CornerLockDiag" v:prompt="" v:val="VT0(0):5"/>
					<v:ud v:nameU="TopLeftOffset" v:prompt="" v:val="VT0(0.15748031496063):24"/>
					<v:ud v:nameU="TopRightOffset" v:prompt="" v:val="VT0(0.15748031496063):24"/>
					<v:ud v:nameU="BotLeftOffset" v:prompt="" v:val="VT0(0.15748031496063):24"/>
					<v:ud v:nameU="BotRightOffset" v:prompt="" v:val="VT0(0.15748031496063):24"/>
					<v:ud v:nameU="visVersion" v:prompt="" v:val="VT0(15):26"/>
					<v:ud v:nameU="TopLeftOffset" v:prompt="" v:val="VT0(0.070087875130311):1"/>
					<v:ud v:nameU="TopRightOffset" v:prompt="" v:val="VT0(0.070087875130311):1"/>
					<v:ud v:nameU="BotLeftOffset" v:prompt="" v:val="VT0(0.070087875130311):1"/>
					<v:ud v:nameU="BotRightOffset" v:prompt="" v:val="VT0(0.070087875130311):1"/>
				</v:userDefs>
				<g id="shadow326-85" v:groupContext="shadow" v:shadowOffsetX="0.345598" v:shadowOffsetY="-1.97279" v:shadowType="1"
						transform="matrix(1,0,0,1,0.345598,1.97279)" class="st3">
					<path d="M5.05 595.28 L45.42 595.28 A5.04624 5.04624 -180 0 0 50.46 590.23 L50.46 575.09 A5.04624 5.04624 -180
								 0 0 45.42 570.04 L5.05 570.04 A5.04624 5.04624 -180 0 0 0 575.09 L0 590.23 A5.04624 5.04624 -180
								 0 0 5.05 595.28 Z" class="st7"/>
				</g>
				<path d="M5.05 595.28 L45.42 595.28 A5.04624 5.04624 -180 0 0 50.46 590.23 L50.46 575.09 A5.04624 5.04624 -180 0
							 0 45.42 570.04 L5.05 570.04 A5.04624 5.04624 -180 0 0 0 575.09 L0 590.23 A5.04624 5.04624 -180 0 0 5.05
							 595.28 Z" class="st8"/>
			</g>
			<g id="shape327-89" v:mID="327" v:groupContext="shape" transform="translate(21.8674,0)">
				<title>Rounded Rectangle.4</title>
				<desc>Devices</desc>
				<v:userDefs>
					<v:ud v:nameU="CTypeTopLeftSnip" v:prompt="" v:val="VT0(0):5"/>
					<v:ud v:nameU="CTypeTopRightSnip" v:prompt="" v:val="VT0(0):5"/>
					<v:ud v:nameU="CTypeBotLeftSnip" v:prompt="" v:val="VT0(0):5"/>
					<v:ud v:nameU="CTypeBotRightSnip" v:prompt="" v:val="VT0(0):5"/>
					<v:ud v:nameU="CornerLockHoriz" v:prompt="" v:val="VT0(1):5"/>
					<v:ud v:nameU="CornerLockVert" v:prompt="" v:val="VT0(1):5"/>
					<v:ud v:nameU="CornerLockDiag" v:prompt="" v:val="VT0(0):5"/>
					<v:ud v:nameU="TopLeftOffset" v:prompt="" v:val="VT0(0.15748031496063):24"/>
					<v:ud v:nameU="TopRightOffset" v:prompt="" v:val="VT0(0.15748031496063):24"/>
					<v:ud v:nameU="BotLeftOffset" v:prompt="" v:val="VT0(0.15748031496063):24"/>
					<v:ud v:nameU="BotRightOffset" v:prompt="" v:val="VT0(0.15748031496063):24"/>
					<v:ud v:nameU="visVersion" v:prompt="" v:val="VT0(15):26"/>
					<v:ud v:nameU="TopLeftOffset" v:prompt="" v:val="VT0(0.070087875130311):1"/>
					<v:ud v:nameU="TopRightOffset" v:prompt="" v:val="VT0(0.070087875130311):1"/>
					<v:ud v:nameU="BotLeftOffset" v:prompt="" v:val="VT0(0.070087875130311):1"/>
					<v:ud v:nameU="BotRightOffset" v:prompt="" v:val="VT0(0.070087875130311):1"/>
				</v:userDefs>
				<v:textBlock v:margins="rect(4,4,4,4)" v:tabSpace="42.5197"/>
				<v:textRect cx="25.2316" cy="582.66" width="50.47" height="25.2316"/>
				<g id="shadow327-90" v:groupContext="shadow" v:shadowOffsetX="0.345598" v:shadowOffsetY="-1.97279" v:shadowType="1"
						transform="matrix(1,0,0,1,0.345598,1.97279)" class="st3">
					<path d="M5.05 595.28 L45.42 595.28 A5.04624 5.04624 -180 0 0 50.46 590.23 L50.46 575.09 A5.04624 5.04624 -180
								 0 0 45.42 570.04 L5.05 570.04 A5.04624 5.04624 -180 0 0 0 575.09 L0 590.23 A5.04624 5.04624 -180
								 0 0 5.05 595.28 Z" class="st7"/>
				</g>
				<path d="M5.05 595.28 L45.42 595.28 A5.04624 5.04624 -180 0 0 50.46 590.23 L50.46 575.09 A5.04624 5.04624 -180 0
							 0 45.42 570.04 L5.05 570.04 A5.04624 5.04624 -180 0 0 0 575.09 L0 590.23 A5.04624 5.04624 -180 0 0 5.05
							 595.28 Z" class="st8"/>
				<text x="8.15" y="585.96" class="st9" v:langID="2057"><v:paragraph v:horizAlign="1"/><v:tabList/>Devices</text>			</g>
		</g>
		<g id="shape328-95" v:mID="328" v:groupContext="shape" transform="translate(158.558,-405.423) rotate(-0.867866)">
			<title>Sheet.328</title>
			<path d="M0 595.28 L18.29 595.28" class="st10"/>
		</g>
		<g id="shape329-101" v:mID="329" v:groupContext="shape" transform="translate(176.134,-433.543)">
			<title>Sheet.329</title>
			<desc>Event Hub</desc>
			<v:textBlock v:margins="rect(4,4,4,4)" v:tabSpace="42.5197"/>
			<v:textRect cx="44.3096" cy="585.276" width="88.62" height="20"/>
			<rect x="0" y="575.276" width="88.6193" height="20" class="st1"/>
			<text x="19.12" y="588.88" class="st2" v:langID="1033"><v:paragraph v:horizAlign="1"/><v:tabList/>Event Hub</text>		</g>
		<g id="group330-104" transform="translate(193.357,-331.098)" v:mID="330" v:groupContext="group">
			<title>Sheet.330</title>
			<g id="group257-105" transform="translate(0,-54.2389)" v:mID="257" v:groupContext="group">
				<title>Sheet.257</title>
				<g id="group243-106" v:mID="243" v:groupContext="group">
					<title>Sheet.243</title>
					<g id="shape244-107" v:mID="244" v:groupContext="shape">
						<title>Rounded Rectangle.150</title>
						<v:userDefs>
							<v:ud v:nameU="CTypeTopLeftSnip" v:prompt="" v:val="VT0(0):5"/>
							<v:ud v:nameU="CTypeTopRightSnip" v:prompt="" v:val="VT0(0):5"/>
							<v:ud v:nameU="CTypeBotLeftSnip" v:prompt="" v:val="VT0(0):5"/>
							<v:ud v:nameU="CTypeBotRightSnip" v:prompt="" v:val="VT0(0):5"/>
							<v:ud v:nameU="CornerLockHoriz" v:prompt="" v:val="VT0(1):5"/>
							<v:ud v:nameU="CornerLockVert" v:prompt="" v:val="VT0(1):5"/>
							<v:ud v:nameU="CornerLockDiag" v:prompt="" v:val="VT0(0):5"/>
							<v:ud v:nameU="TopLeftOffset" v:prompt="" v:val="VT0(0.15748031496063):24"/>
							<v:ud v:nameU="TopRightOffset" v:prompt="" v:val="VT0(0.15748031496063):24"/>
							<v:ud v:nameU="BotLeftOffset" v:prompt="" v:val="VT0(0.15748031496063):24"/>
							<v:ud v:nameU="BotRightOffset" v:prompt="" v:val="VT0(0.15748031496063):24"/>
							<v:ud v:nameU="visVersion" v:prompt="" v:val="VT0(15):26"/>
							<v:ud v:nameU="TopLeftOffset" v:prompt="" v:val="VT0(0.075239982502186):1"/>
							<v:ud v:nameU="TopRightOffset" v:prompt="" v:val="VT0(0.075239982502186):1"/>
							<v:ud v:nameU="BotLeftOffset" v:prompt="" v:val="VT0(0.075239982502186):1"/>
							<v:ud v:nameU="BotRightOffset" v:prompt="" v:val="VT0(0.075239982502186):1"/>
						</v:userDefs>
						<g id="shadow244-108" v:groupContext="shadow" v:shadowOffsetX="0.345598" v:shadowOffsetY="-1.97279"
								v:shadowType="1" transform="matrix(1,0,0,1,0.345598,1.97279)" class="st3">
							<path d="M5.42 595.28 L48.76 595.28 A5.41719 5.41719 -180 0 0 54.17 589.86 L54.17 556.84 A5.41719 5.41719
										 -180 0 0 48.76 551.42 L5.42 551.42 A5.41719 5.41719 -180 0 0 0 556.84 L0 589.86 A5.41719
										 5.41719 -180 0 0 5.42 595.28 Z" class="st7"/>
						</g>
						<path d="M5.42 595.28 L48.76 595.28 A5.41719 5.41719 -180 0 0 54.17 589.86 L54.17 556.84 A5.41719 5.41719
									 -180 0 0 48.76 551.42 L5.42 551.42 A5.41719 5.41719 -180 0 0 0 556.84 L0 589.86 A5.41719 5.41719
									 -180 0 0 5.42 595.28 Z" class="st8"/>
					</g>
				</g>
				<g id="shape250-112" v:mID="250" v:groupContext="shape" transform="translate(162.832,10.9875) rotate(15)">
					<title>Automation.249</title>
					<g id="shadow250-113" v:groupContext="shadow" v:shadowOffsetX="0.3456" v:shadowOffsetY="-1.9728"
							v:shadowType="1" transform="matrix(1,0,0,1,0.844422,1.81613)" class="st3">
						<path d="M3.46 568.19 L3.09 570.2 L2.45 573.69 L2.15 575.37 L1.88 576.84 L0.04 586.97 C-0 587.16 0.06 587.32
									 0.19 587.32 L1.89 587.32 C1.94 587.32 1.99 587.36 2.01 587.4 C2.05 587.47 2.05 587.57 2.04 587.68
									 L0.28 595.04 C0.23 595.24 0.26 595.28 0.34 595.11 L5.91 584.22 C5.99 584.05 5.95 583.92 5.83
									 583.92 L4.01 583.94 L3.67 583.95 C3.55 583.95 3.49 583.8 3.56 583.62 L5.29 578.28 L5.71 577
									 L6.18 575.54 L7.19 572.45 L7.76 570.64 C6.46 569.35 5.01 568.49 3.46 568.19 Z" class="st4"/>
					</g>
					<path d="M3.46 568.19 L3.09 570.2 L2.45 573.69 L2.15 575.37 L1.88 576.84 L0.04 586.97 C-0 587.16 0.06 587.32
								 0.19 587.32 L1.89 587.32 C1.94 587.32 1.99 587.36 2.01 587.4 C2.05 587.47 2.05 587.57 2.04 587.68
								 L0.28 595.04 C0.23 595.24 0.26 595.28 0.34 595.11 L5.91 584.22 C5.99 584.05 5.95 583.92 5.83 583.92
								 L4.01 583.94 L3.67 583.95 C3.55 583.95 3.49 583.8 3.56 583.62 L5.29 578.28 L5.71 577 L6.18 575.54
								 L7.19 572.45 L7.76 570.64 C6.46 569.35 5.01 568.49 3.46 568.19 Z" class="st6"/>
				</g>
				<g id="shape251-117" v:mID="251" v:groupContext="shape" transform="translate(185.338,11.2461) rotate(15)">
					<title>Automation.251</title>
					<g id="shadow251-118" v:groupContext="shadow" v:shadowOffsetX="0.3456" v:shadowOffsetY="-1.9728"
							v:shadowType="1" transform="matrix(1,0,0,1,0.844422,1.81613)" class="st3">
						<path d="M3.46 568.19 L3.09 570.2 L2.45 573.69 L2.15 575.37 L1.88 576.84 L0.04 586.97 C-0 587.16 0.06 587.32
									 0.19 587.32 L1.89 587.32 C1.94 587.32 1.99 587.36 2.01 587.4 C2.05 587.47 2.05 587.57 2.04 587.68
									 L0.28 595.04 C0.23 595.24 0.26 595.28 0.34 595.11 L5.91 584.22 C5.99 584.05 5.95 583.92 5.83
									 583.92 L4.01 583.94 L3.67 583.95 C3.55 583.95 3.49 583.8 3.56 583.62 L5.29 578.28 L5.71 577
									 L6.18 575.54 L7.19 572.45 L7.76 570.64 C6.46 569.35 5.01 568.49 3.46 568.19 Z" class="st4"/>
					</g>
					<path d="M3.46 568.19 L3.09 570.2 L2.45 573.69 L2.15 575.37 L1.88 576.84 L0.04 586.97 C-0 587.16 0.06 587.32
								 0.19 587.32 L1.89 587.32 C1.94 587.32 1.99 587.36 2.01 587.4 C2.05 587.47 2.05 587.57 2.04 587.68
								 L0.28 595.04 C0.23 595.24 0.26 595.28 0.34 595.11 L5.91 584.22 C5.99 584.05 5.95 583.92 5.83 583.92
								 L4.01 583.94 L3.67 583.95 C3.55 583.95 3.49 583.8 3.56 583.62 L5.29 578.28 L5.71 577 L6.18 575.54
								 L7.19 572.45 L7.76 570.64 C6.46 569.35 5.01 568.49 3.46 568.19 Z" class="st6"/>
				</g>
				<g id="shape252-122" v:mID="252" v:groupContext="shape" transform="translate(174.085,11.2461) rotate(15)">
					<title>Automation.252</title>
					<g id="shadow252-123" v:groupContext="shadow" v:shadowOffsetX="0.3456" v:shadowOffsetY="-1.9728"
							v:shadowType="1" transform="matrix(1,0,0,1,0.844422,1.81613)" class="st3">
						<path d="M3.46 568.19 L3.09 570.2 L2.45 573.69 L2.15 575.37 L1.88 576.84 L0.04 586.97 C-0 587.16 0.06 587.32
									 0.19 587.32 L1.89 587.32 C1.94 587.32 1.99 587.36 2.01 587.4 C2.05 587.47 2.05 587.57 2.04 587.68
									 L0.28 595.04 C0.23 595.24 0.26 595.28 0.34 595.11 L5.91 584.22 C5.99 584.05 5.95 583.92 5.83
									 583.92 L4.01 583.94 L3.67 583.95 C3.55 583.95 3.49 583.8 3.56 583.62 L5.29 578.28 L5.71 577
									 L6.18 575.54 L7.19 572.45 L7.76 570.64 C6.46 569.35 5.01 568.49 3.46 568.19 Z" class="st4"/>
					</g>
					<path d="M3.46 568.19 L3.09 570.2 L2.45 573.69 L2.15 575.37 L1.88 576.84 L0.04 586.97 C-0 587.16 0.06 587.32
								 0.19 587.32 L1.89 587.32 C1.94 587.32 1.99 587.36 2.01 587.4 C2.05 587.47 2.05 587.57 2.04 587.68
								 L0.28 595.04 C0.23 595.24 0.26 595.28 0.34 595.11 L5.91 584.22 C5.99 584.05 5.95 583.92 5.83 583.92
								 L4.01 583.94 L3.67 583.95 C3.55 583.95 3.49 583.8 3.56 583.62 L5.29 578.28 L5.71 577 L6.18 575.54
								 L7.19 572.45 L7.76 570.64 C6.46 569.35 5.01 568.49 3.46 568.19 Z" class="st6"/>
				</g>
			</g>
			<g id="shape290-127" v:mID="290" v:groupContext="shape" transform="translate(-407.623,143.481) rotate(-50.8747)">
				<title>Sheet.290</title>
				<path d="M0 595.28 L87.49 595.28" class="st10"/>
			</g>
			<g id="shape291-132" v:mID="291" v:groupContext="shape" transform="translate(-162.114,-35.4823) rotate(-21.3054)">
				<title>Sheet.291</title>
				<path d="M0 595.28 L56.39 595.28" class="st12"/>
			</g>
			<g id="shape292-138" v:mID="292" v:groupContext="shape" transform="translate(298.185,-23.8545) rotate(24.1995)">
				<title>Sheet.292</title>
				<path d="M0 595.28 L58.63 595.28" class="st10"/>
			</g>
			<g id="shape293-143" v:mID="293" v:groupContext="shape" transform="translate(524.48,154.194) rotate(52.1917)">
				<title>Sheet.293</title>
				<path d="M0 595.28 L90.24 595.28" class="st10"/>
			</g>
		</g>
	</g>
</svg>
