<?xml version="1.0" encoding="UTF-8" standalone="no"?>
<!DOCTYPE svg PUBLIC "-//W3C//DTD SVG 1.1//EN" "http://www.w3.org/Graphics/SVG/1.1/DTD/svg11.dtd">
<!-- Generated by Microsoft Visio, SVG Export physical-architecture-worker-role-and-service-bus.svg Page-1 -->
<svg xmlns="http://www.w3.org/2000/svg" xmlns:xlink="http://www.w3.org/1999/xlink" xmlns:ev="http://www.w3.org/2001/xml-events"
		xmlns:v="http://schemas.microsoft.com/visio/2003/SVGExtensions/" width="11.6929in" height="8.26772in"
		viewBox="0 0 841.89 595.276" xml:space="preserve" color-interpolation-filters="sRGB" class="st17">
	<v:documentProperties v:langID="1033" v:metric="true" v:viewMarkup="false">
		<v:userDefs>
			<v:ud v:nameU="msvSubprocessMaster" v:prompt="" v:val="VT4(Rectangle)"/>
			<v:ud v:nameU="msvNoAutoConnect" v:val="VT0(1):26"/>
		</v:userDefs>
	</v:documentProperties>

	<style type="text/css">
	<![CDATA[
		.st1 {fill:#deebf6;stroke:#e9eff7;stroke-width:0.75}
		.st2 {fill:none;stroke:none;stroke-width:0.25}
		.st3 {fill:#000000;font-family:Calibri;font-size:1.00001em}
		.st4 {fill:#000000;font-family:Calibri;font-size:0.833336em}
		.st5 {visibility:visible}
		.st6 {fill:#5b9bd5;fill-opacity:0.22;filter:url(#filter_2);stroke:#5b9bd5;stroke-opacity:0.22}
		.st7 {fill:#0070c0;stroke:#7f7f7f;stroke-width:0.25}
		.st8 {fill:#ffffff;stroke:#7f7f7f;stroke-width:0.25}
		.st9 {marker-end:url(#mrkr5-122);stroke:#5b9bd5;stroke-linecap:round;stroke-linejoin:round;stroke-width:1}
		.st10 {fill:#5b9bd5;fill-opacity:1;stroke:#5b9bd5;stroke-opacity:1;stroke-width:0.28409090909091}
		.st11 {marker-end:url(#mrkr4-128);stroke:#5b9bd5;stroke-linecap:round;stroke-linejoin:round;stroke-width:1}
		.st12 {fill:#5b9bd5;fill-opacity:0.22;filter:url(#filter_2);stroke:none}
		.st13 {fill:#0070c0;stroke:none;stroke-width:0.25}
		.st14 {fill:#ffffff;stroke:none;stroke-width:0.25}
		.st15 {fill:#0070c0;stroke:#c7c8c8;stroke-width:0.25}
		.st16 {fill:#feffff;font-family:Calibri;font-size:0.916672em}
		.st17 {fill:none;fill-rule:evenodd;font-size:12px;overflow:visible;stroke-linecap:square;stroke-miterlimit:3}
	]]>
	</style>

	<defs id="Markers">
		<g id="lend5">
			<path d="M 2 1 L 0 0 L 1.98117 -0.993387 C 1.67173 -0.364515 1.67301 0.372641 1.98465 1.00043 " style="stroke:none"/>
		</g>
		<marker id="mrkr5-122" class="st10" v:arrowType="5" v:arrowSize="2" v:setback="6.16" refX="-6.16" orient="auto"
				markerUnits="strokeWidth" overflow="visible">
			<use xlink:href="#lend5" transform="scale(-3.52,-3.52) "/>
		</marker>
		<g id="lend4">
			<path d="M 2 1 L 0 0 L 2 -1 L 2 1 " style="stroke:none"/>
		</g>
		<marker id="mrkr4-128" class="st10" v:arrowType="4" v:arrowSize="2" v:setback="7.04" refX="-7.04" orient="auto"
				markerUnits="strokeWidth" overflow="visible">
			<use xlink:href="#lend4" transform="scale(-3.52,-3.52) "/>
		</marker>
	</defs>
	<defs id="Filters">
		<filter id="filter_2">
			<feGaussianBlur stdDeviation="2"/>
		</filter>
	</defs>
	<g v:mID="0" v:index="1" v:groupContext="foregroundPage">
		<v:userDefs>
			<v:ud v:nameU="msvThemeOrder" v:val="VT0(0):26"/>
		</v:userDefs>
		<title>Page-1</title>
		<v:pageProperties v:drawingScale="0.0393701" v:pageScale="0.0393701" v:drawingUnits="24" v:shadowOffsetX="8.50394"
				v:shadowOffsetY="-8.50394"/>
		<v:layer v:name="Connector" v:index="0"/>
		<g id="shape321-1" v:mID="321" v:groupContext="shape" transform="translate(218.268,-300.604)">
			<title>Sheet.321</title>
			<rect x="0" y="411.156" width="255.118" height="184.12" class="st1"/>
		</g>
		<g id="shape135-3" v:mID="135" v:groupContext="shape" transform="translate(494.567,-496.063)">
			<title>Sheet.135</title>
			<desc>Worker Roles</desc>
			<v:textBlock v:margins="rect(4,4,4,4)" v:tabSpace="42.5197"/>
			<v:textRect cx="44.3096" cy="585.276" width="88.62" height="20"/>
			<rect x="0" y="575.276" width="88.6193" height="20" class="st2"/>
			<text x="11.42" y="588.88" class="st3" v:langID="2057"><v:paragraph v:horizAlign="1"/><v:tabList/>Worker Roles</text>		</g>
		<g id="shape227-6" v:mID="227" v:groupContext="shape" transform="translate(377.008,-384.016)">
			<title>Sheet.227</title>
			<desc>Subscriptions</desc>
			<v:textBlock v:margins="rect(4,4,4,4)" v:tabSpace="42.5197"/>
			<v:textRect cx="44.6588" cy="585.276" width="89.32" height="20"/>
			<rect x="0" y="575.276" width="89.3175" height="20" class="st2"/>
			<text x="17.48" y="588.28" class="st4" v:langID="2057"><v:paragraph v:horizAlign="1"/><v:tabList/>Subscriptions</text>		</g>
		<g id="shape228-9" v:mID="228" v:groupContext="shape" transform="translate(229.606,-358.504)">
			<title>Sheet.228</title>
			<desc>Topic</desc>
			<v:textBlock v:margins="rect(4,4,4,4)" v:tabSpace="42.5197"/>
			<v:textRect cx="44.3096" cy="585.276" width="88.62" height="20"/>
			<rect x="0" y="575.276" width="88.6193" height="20" class="st2"/>
			<text x="33.35" y="588.28" class="st4" v:langID="2057"><v:paragraph v:horizAlign="1"/><v:tabList/>Topic</text>		</g>
		<g id="group236-12" transform="translate(379.097,-454.839)" v:mID="236" v:groupContext="group">
			<title>Queue (generic).236</title>
			<g id="shape237-13" v:mID="237" v:groupContext="shape">
				<title>Sheet.237</title>
				<g id="shadow237-14" v:groupContext="shadow" v:shadowOffsetX="0.3456" v:shadowOffsetY="-1.9728" v:shadowType="1"
						transform="matrix(1,0,0,1,0.3456,1.9728)" class="st5">
					<path d="M80.48 595.28 L2.06 595.28 C0.94 595.28 0 593.81 0 592.72 L0 571.45 C0 570.36 0.94 569.52 2.06 569.52
								 L80.48 569.52 C81.6 569.52 88.62 582.89 88.62 582.89 C88.62 582.89 81.6 595.28 80.48 595.28 Z"
							class="st6"/>
				</g>
				<path d="M80.48 595.28 L2.06 595.28 C0.94 595.28 0 593.81 0 592.72 L0 571.45 C0 570.36 0.94 569.52 2.06 569.52 L80.48
							 569.52 C81.6 569.52 88.62 582.89 88.62 582.89 C88.62 582.89 81.6 595.28 80.48 595.28 Z" class="st7"/>
			</g>
			<g id="shape238-18" v:mID="238" v:groupContext="shape" transform="translate(30.2444,-3.78703)">
				<title>Sheet.238</title>
				<g id="shadow238-19" v:groupContext="shadow" v:shadowOffsetX="0.3456" v:shadowOffsetY="-1.9728" v:shadowType="1"
						transform="matrix(1,0,0,1,0.3456,1.9728)" class="st5">
					<path d="M22.19 577.23 L1.2 577.23 C0.54 577.23 0 577.77 0 578.43 L0 594.08 C0 594.74 0.54 595.28 1.2 595.28
								 L22.19 595.28 C22.85 595.28 23.39 594.74 23.39 594.08 L23.39 578.43 C23.39 577.77 22.85 577.23 22.19
								 577.23 ZM20.43 579.63 L11.52 586.53 L2.67 579.63 L20.43 579.63 ZM2.4 592.88 L2.4 582.46 L10.79 589
								 C11 589.17 11.26 589.25 11.52 589.25 C11.78 589.25 12.04 589.17 12.26 589 L20.99 582.22 L20.99 592.88
								 L2.4 592.88 L2.4 592.88 Z" class="st6"/>
				</g>
				<path d="M22.19 577.23 L1.2 577.23 C0.54 577.23 0 577.77 0 578.43 L0 594.08 C0 594.74 0.54 595.28 1.2 595.28 L22.19
							 595.28 C22.85 595.28 23.39 594.74 23.39 594.08 L23.39 578.43 C23.39 577.77 22.85 577.23 22.19 577.23
							 ZM20.43 579.63 L11.52 586.53 L2.67 579.63 L20.43 579.63 ZM2.4 592.88 L2.4 582.46 L10.79 589 C11 589.17
							 11.26 589.25 11.52 589.25 C11.78 589.25 12.04 589.17 12.26 589 L20.99 582.22 L20.99 592.88 L2.4 592.88
							 L2.4 592.88 Z" class="st8"/>
			</g>
			<g id="shape239-23" v:mID="239" v:groupContext="shape" transform="translate(4.6123,-3.78703)">
				<title>Sheet.239</title>
				<g id="shadow239-24" v:groupContext="shadow" v:shadowOffsetX="0.3456" v:shadowOffsetY="-1.9728" v:shadowType="1"
						transform="matrix(1,0,0,1,0.3456,1.9728)" class="st5">
					<path d="M22.19 577.23 L1.2 577.23 C0.54 577.23 0 577.77 0 578.43 L0 594.08 C0 594.74 0.54 595.28 1.2 595.28
								 L22.19 595.28 C22.85 595.28 23.39 594.74 23.39 594.08 L23.39 578.43 C23.39 577.77 22.85 577.23 22.19
								 577.23 ZM20.43 579.63 L11.52 586.53 L2.67 579.63 L20.43 579.63 ZM2.4 592.88 L2.4 582.46 L10.79 589
								 C11 589.17 11.26 589.25 11.52 589.25 C11.78 589.25 12.04 589.17 12.26 589 L20.99 582.22 L20.99 592.88
								 L2.4 592.88 L2.4 592.88 Z" class="st6"/>
				</g>
				<path d="M22.19 577.23 L1.2 577.23 C0.54 577.23 0 577.77 0 578.43 L0 594.08 C0 594.74 0.54 595.28 1.2 595.28 L22.19
							 595.28 C22.85 595.28 23.39 594.74 23.39 594.08 L23.39 578.43 C23.39 577.77 22.85 577.23 22.19 577.23
							 ZM20.43 579.63 L11.52 586.53 L2.67 579.63 L20.43 579.63 ZM2.4 592.88 L2.4 582.46 L10.79 589 C11 589.17
							 11.26 589.25 11.52 589.25 C11.78 589.25 12.04 589.17 12.26 589 L20.99 582.22 L20.99 592.88 L2.4 592.88
							 L2.4 592.88 Z" class="st8"/>
			</g>
			<g id="shape240-28" v:mID="240" v:groupContext="shape" transform="translate(55.8764,-3.78703)">
				<title>Sheet.240</title>
				<g id="shadow240-29" v:groupContext="shadow" v:shadowOffsetX="0.3456" v:shadowOffsetY="-1.9728" v:shadowType="1"
						transform="matrix(1,0,0,1,0.3456,1.9728)" class="st5">
					<path d="M22.19 577.23 L1.2 577.23 C0.54 577.23 0 577.77 0 578.43 L0 594.08 C0 594.74 0.54 595.28 1.2 595.28
								 L22.19 595.28 C22.85 595.28 23.39 594.74 23.39 594.08 L23.39 578.43 C23.39 577.77 22.85 577.23 22.19
								 577.23 ZM20.43 579.63 L11.52 586.53 L2.67 579.63 L20.43 579.63 ZM2.4 592.88 L2.4 582.46 L10.79 589
								 C11 589.17 11.26 589.25 11.52 589.25 C11.78 589.25 12.04 589.17 12.26 589 L20.99 582.22 L20.99 592.88
								 L2.4 592.88 L2.4 592.88 Z" class="st6"/>
				</g>
				<path d="M22.19 577.23 L1.2 577.23 C0.54 577.23 0 577.77 0 578.43 L0 594.08 C0 594.74 0.54 595.28 1.2 595.28 L22.19
							 595.28 C22.85 595.28 23.39 594.74 23.39 594.08 L23.39 578.43 C23.39 577.77 22.85 577.23 22.19 577.23
							 ZM20.43 579.63 L11.52 586.53 L2.67 579.63 L20.43 579.63 ZM2.4 592.88 L2.4 582.46 L10.79 589 C11 589.17
							 11.26 589.25 11.52 589.25 C11.78 589.25 12.04 589.17 12.26 589 L20.99 582.22 L20.99 592.88 L2.4 592.88
							 L2.4 592.88 Z" class="st8"/>
			</g>
		</g>
		<g id="group273-33" transform="translate(379.097,-405.661)" v:mID="273" v:groupContext="group">
			<title>Queue (generic).273</title>
			<g id="shape274-34" v:mID="274" v:groupContext="shape">
				<title>Sheet.274</title>
				<g id="shadow274-35" v:groupContext="shadow" v:shadowOffsetX="0.3456" v:shadowOffsetY="-1.9728" v:shadowType="1"
						transform="matrix(1,0,0,1,0.3456,1.9728)" class="st5">
					<path d="M80.48 595.28 L2.06 595.28 C0.94 595.28 0 593.81 0 592.72 L0 571.45 C0 570.36 0.94 569.52 2.06 569.52
								 L80.48 569.52 C81.6 569.52 88.62 582.89 88.62 582.89 C88.62 582.89 81.6 595.28 80.48 595.28 Z"
							class="st6"/>
				</g>
				<path d="M80.48 595.28 L2.06 595.28 C0.94 595.28 0 593.81 0 592.72 L0 571.45 C0 570.36 0.94 569.52 2.06 569.52 L80.48
							 569.52 C81.6 569.52 88.62 582.89 88.62 582.89 C88.62 582.89 81.6 595.28 80.48 595.28 Z" class="st7"/>
			</g>
			<g id="shape275-39" v:mID="275" v:groupContext="shape" transform="translate(30.2444,-3.78703)">
				<title>Sheet.275</title>
				<g id="shadow275-40" v:groupContext="shadow" v:shadowOffsetX="0.3456" v:shadowOffsetY="-1.9728" v:shadowType="1"
						transform="matrix(1,0,0,1,0.3456,1.9728)" class="st5">
					<path d="M22.19 577.23 L1.2 577.23 C0.54 577.23 0 577.77 0 578.43 L0 594.08 C0 594.74 0.54 595.28 1.2 595.28
								 L22.19 595.28 C22.85 595.28 23.39 594.74 23.39 594.08 L23.39 578.43 C23.39 577.77 22.85 577.23 22.19
								 577.23 ZM20.43 579.63 L11.52 586.53 L2.67 579.63 L20.43 579.63 ZM2.4 592.88 L2.4 582.46 L10.79 589
								 C11 589.17 11.26 589.25 11.52 589.25 C11.78 589.25 12.04 589.17 12.26 589 L20.99 582.22 L20.99 592.88
								 L2.4 592.88 L2.4 592.88 Z" class="st6"/>
				</g>
				<path d="M22.19 577.23 L1.2 577.23 C0.54 577.23 0 577.77 0 578.43 L0 594.08 C0 594.74 0.54 595.28 1.2 595.28 L22.19
							 595.28 C22.85 595.28 23.39 594.74 23.39 594.08 L23.39 578.43 C23.39 577.77 22.85 577.23 22.19 577.23
							 ZM20.43 579.63 L11.52 586.53 L2.67 579.63 L20.43 579.63 ZM2.4 592.88 L2.4 582.46 L10.79 589 C11 589.17
							 11.26 589.25 11.52 589.25 C11.78 589.25 12.04 589.17 12.26 589 L20.99 582.22 L20.99 592.88 L2.4 592.88
							 L2.4 592.88 Z" class="st8"/>
			</g>
			<g id="shape276-44" v:mID="276" v:groupContext="shape" transform="translate(4.6123,-3.78703)">
				<title>Sheet.276</title>
				<g id="shadow276-45" v:groupContext="shadow" v:shadowOffsetX="0.3456" v:shadowOffsetY="-1.9728" v:shadowType="1"
						transform="matrix(1,0,0,1,0.3456,1.9728)" class="st5">
					<path d="M22.19 577.23 L1.2 577.23 C0.54 577.23 0 577.77 0 578.43 L0 594.08 C0 594.74 0.54 595.28 1.2 595.28
								 L22.19 595.28 C22.85 595.28 23.39 594.74 23.39 594.08 L23.39 578.43 C23.39 577.77 22.85 577.23 22.19
								 577.23 ZM20.43 579.63 L11.52 586.53 L2.67 579.63 L20.43 579.63 ZM2.4 592.88 L2.4 582.46 L10.79 589
								 C11 589.17 11.26 589.25 11.52 589.25 C11.78 589.25 12.04 589.17 12.26 589 L20.99 582.22 L20.99 592.88
								 L2.4 592.88 L2.4 592.88 Z" class="st6"/>
				</g>
				<path d="M22.19 577.23 L1.2 577.23 C0.54 577.23 0 577.77 0 578.43 L0 594.08 C0 594.74 0.54 595.28 1.2 595.28 L22.19
							 595.28 C22.85 595.28 23.39 594.74 23.39 594.08 L23.39 578.43 C23.39 577.77 22.85 577.23 22.19 577.23
							 ZM20.43 579.63 L11.52 586.53 L2.67 579.63 L20.43 579.63 ZM2.4 592.88 L2.4 582.46 L10.79 589 C11 589.17
							 11.26 589.25 11.52 589.25 C11.78 589.25 12.04 589.17 12.26 589 L20.99 582.22 L20.99 592.88 L2.4 592.88
							 L2.4 592.88 Z" class="st8"/>
			</g>
			<g id="shape277-49" v:mID="277" v:groupContext="shape" transform="translate(55.8764,-3.78703)">
				<title>Sheet.277</title>
				<g id="shadow277-50" v:groupContext="shadow" v:shadowOffsetX="0.3456" v:shadowOffsetY="-1.9728" v:shadowType="1"
						transform="matrix(1,0,0,1,0.3456,1.9728)" class="st5">
					<path d="M22.19 577.23 L1.2 577.23 C0.54 577.23 0 577.77 0 578.43 L0 594.08 C0 594.74 0.54 595.28 1.2 595.28
								 L22.19 595.28 C22.85 595.28 23.39 594.74 23.39 594.08 L23.39 578.43 C23.39 577.77 22.85 577.23 22.19
								 577.23 ZM20.43 579.63 L11.52 586.53 L2.67 579.63 L20.43 579.63 ZM2.4 592.88 L2.4 582.46 L10.79 589
								 C11 589.17 11.26 589.25 11.52 589.25 C11.78 589.25 12.04 589.17 12.26 589 L20.99 582.22 L20.99 592.88
								 L2.4 592.88 L2.4 592.88 Z" class="st6"/>
				</g>
				<path d="M22.19 577.23 L1.2 577.23 C0.54 577.23 0 577.77 0 578.43 L0 594.08 C0 594.74 0.54 595.28 1.2 595.28 L22.19
							 595.28 C22.85 595.28 23.39 594.74 23.39 594.08 L23.39 578.43 C23.39 577.77 22.85 577.23 22.19 577.23
							 ZM20.43 579.63 L11.52 586.53 L2.67 579.63 L20.43 579.63 ZM2.4 592.88 L2.4 582.46 L10.79 589 C11 589.17
							 11.26 589.25 11.52 589.25 C11.78 589.25 12.04 589.17 12.26 589 L20.99 582.22 L20.99 592.88 L2.4 592.88
							 L2.4 592.88 Z" class="st8"/>
			</g>
		</g>
		<g id="group278-54" transform="translate(379.097,-355.626)" v:mID="278" v:groupContext="group">
			<title>Queue (generic).278</title>
			<g id="shape279-55" v:mID="279" v:groupContext="shape">
				<title>Sheet.279</title>
				<g id="shadow279-56" v:groupContext="shadow" v:shadowOffsetX="0.3456" v:shadowOffsetY="-1.9728" v:shadowType="1"
						transform="matrix(1,0,0,1,0.3456,1.9728)" class="st5">
					<path d="M80.48 595.28 L2.06 595.28 C0.94 595.28 0 593.81 0 592.72 L0 571.45 C0 570.36 0.94 569.52 2.06 569.52
								 L80.48 569.52 C81.6 569.52 88.62 582.89 88.62 582.89 C88.62 582.89 81.6 595.28 80.48 595.28 Z"
							class="st6"/>
				</g>
				<path d="M80.48 595.28 L2.06 595.28 C0.94 595.28 0 593.81 0 592.72 L0 571.45 C0 570.36 0.94 569.52 2.06 569.52 L80.48
							 569.52 C81.6 569.52 88.62 582.89 88.62 582.89 C88.62 582.89 81.6 595.28 80.48 595.28 Z" class="st7"/>
			</g>
			<g id="shape280-60" v:mID="280" v:groupContext="shape" transform="translate(30.2444,-3.78703)">
				<title>Sheet.280</title>
				<g id="shadow280-61" v:groupContext="shadow" v:shadowOffsetX="0.3456" v:shadowOffsetY="-1.9728" v:shadowType="1"
						transform="matrix(1,0,0,1,0.3456,1.9728)" class="st5">
					<path d="M22.19 577.23 L1.2 577.23 C0.54 577.23 0 577.77 0 578.43 L0 594.08 C0 594.74 0.54 595.28 1.2 595.28
								 L22.19 595.28 C22.85 595.28 23.39 594.74 23.39 594.08 L23.39 578.43 C23.39 577.77 22.85 577.23 22.19
								 577.23 ZM20.43 579.63 L11.52 586.53 L2.67 579.63 L20.43 579.63 ZM2.4 592.88 L2.4 582.46 L10.79 589
								 C11 589.17 11.26 589.25 11.52 589.25 C11.78 589.25 12.04 589.17 12.26 589 L20.99 582.22 L20.99 592.88
								 L2.4 592.88 L2.4 592.88 Z" class="st6"/>
				</g>
				<path d="M22.19 577.23 L1.2 577.23 C0.54 577.23 0 577.77 0 578.43 L0 594.08 C0 594.74 0.54 595.28 1.2 595.28 L22.19
							 595.28 C22.85 595.28 23.39 594.74 23.39 594.08 L23.39 578.43 C23.39 577.77 22.85 577.23 22.19 577.23
							 ZM20.43 579.63 L11.52 586.53 L2.67 579.63 L20.43 579.63 ZM2.4 592.88 L2.4 582.46 L10.79 589 C11 589.17
							 11.26 589.25 11.52 589.25 C11.78 589.25 12.04 589.17 12.26 589 L20.99 582.22 L20.99 592.88 L2.4 592.88
							 L2.4 592.88 Z" class="st8"/>
			</g>
			<g id="shape281-65" v:mID="281" v:groupContext="shape" transform="translate(4.6123,-3.78703)">
				<title>Sheet.281</title>
				<g id="shadow281-66" v:groupContext="shadow" v:shadowOffsetX="0.3456" v:shadowOffsetY="-1.9728" v:shadowType="1"
						transform="matrix(1,0,0,1,0.3456,1.9728)" class="st5">
					<path d="M22.19 577.23 L1.2 577.23 C0.54 577.23 0 577.77 0 578.43 L0 594.08 C0 594.74 0.54 595.28 1.2 595.28
								 L22.19 595.28 C22.85 595.28 23.39 594.74 23.39 594.08 L23.39 578.43 C23.39 577.77 22.85 577.23 22.19
								 577.23 ZM20.43 579.63 L11.52 586.53 L2.67 579.63 L20.43 579.63 ZM2.4 592.88 L2.4 582.46 L10.79 589
								 C11 589.17 11.26 589.25 11.52 589.25 C11.78 589.25 12.04 589.17 12.26 589 L20.99 582.22 L20.99 592.88
								 L2.4 592.88 L2.4 592.88 Z" class="st6"/>
				</g>
				<path d="M22.19 577.23 L1.2 577.23 C0.54 577.23 0 577.77 0 578.43 L0 594.08 C0 594.74 0.54 595.28 1.2 595.28 L22.19
							 595.28 C22.85 595.28 23.39 594.74 23.39 594.08 L23.39 578.43 C23.39 577.77 22.85 577.23 22.19 577.23
							 ZM20.43 579.63 L11.52 586.53 L2.67 579.63 L20.43 579.63 ZM2.4 592.88 L2.4 582.46 L10.79 589 C11 589.17
							 11.26 589.25 11.52 589.25 C11.78 589.25 12.04 589.17 12.26 589 L20.99 582.22 L20.99 592.88 L2.4 592.88
							 L2.4 592.88 Z" class="st8"/>
			</g>
			<g id="shape282-70" v:mID="282" v:groupContext="shape" transform="translate(55.8764,-3.78703)">
				<title>Sheet.282</title>
				<g id="shadow282-71" v:groupContext="shadow" v:shadowOffsetX="0.3456" v:shadowOffsetY="-1.9728" v:shadowType="1"
						transform="matrix(1,0,0,1,0.3456,1.9728)" class="st5">
					<path d="M22.19 577.23 L1.2 577.23 C0.54 577.23 0 577.77 0 578.43 L0 594.08 C0 594.74 0.54 595.28 1.2 595.28
								 L22.19 595.28 C22.85 595.28 23.39 594.74 23.39 594.08 L23.39 578.43 C23.39 577.77 22.85 577.23 22.19
								 577.23 ZM20.43 579.63 L11.52 586.53 L2.67 579.63 L20.43 579.63 ZM2.4 592.88 L2.4 582.46 L10.79 589
								 C11 589.17 11.26 589.25 11.52 589.25 C11.78 589.25 12.04 589.17 12.26 589 L20.99 582.22 L20.99 592.88
								 L2.4 592.88 L2.4 592.88 Z" class="st6"/>
				</g>
				<path d="M22.19 577.23 L1.2 577.23 C0.54 577.23 0 577.77 0 578.43 L0 594.08 C0 594.74 0.54 595.28 1.2 595.28 L22.19
							 595.28 C22.85 595.28 23.39 594.74 23.39 594.08 L23.39 578.43 C23.39 577.77 22.85 577.23 22.19 577.23
							 ZM20.43 579.63 L11.52 586.53 L2.67 579.63 L20.43 579.63 ZM2.4 592.88 L2.4 582.46 L10.79 589 C11 589.17
							 11.26 589.25 11.52 589.25 C11.78 589.25 12.04 589.17 12.26 589 L20.99 582.22 L20.99 592.88 L2.4 592.88
							 L2.4 592.88 Z" class="st8"/>
			</g>
		</g>
		<g id="group283-75" transform="translate(379.097,-305.591)" v:mID="283" v:groupContext="group">
			<title>Queue (generic).283</title>
			<g id="shape284-76" v:mID="284" v:groupContext="shape">
				<title>Sheet.284</title>
				<g id="shadow284-77" v:groupContext="shadow" v:shadowOffsetX="0.3456" v:shadowOffsetY="-1.9728" v:shadowType="1"
						transform="matrix(1,0,0,1,0.3456,1.9728)" class="st5">
					<path d="M80.48 595.28 L2.06 595.28 C0.94 595.28 0 593.81 0 592.72 L0 571.45 C0 570.36 0.94 569.52 2.06 569.52
								 L80.48 569.52 C81.6 569.52 88.62 582.89 88.62 582.89 C88.62 582.89 81.6 595.28 80.48 595.28 Z"
							class="st6"/>
				</g>
				<path d="M80.48 595.28 L2.06 595.28 C0.94 595.28 0 593.81 0 592.72 L0 571.45 C0 570.36 0.94 569.52 2.06 569.52 L80.48
							 569.52 C81.6 569.52 88.62 582.89 88.62 582.89 C88.62 582.89 81.6 595.28 80.48 595.28 Z" class="st7"/>
			</g>
			<g id="shape285-81" v:mID="285" v:groupContext="shape" transform="translate(30.2444,-3.78703)">
				<title>Sheet.285</title>
				<g id="shadow285-82" v:groupContext="shadow" v:shadowOffsetX="0.3456" v:shadowOffsetY="-1.9728" v:shadowType="1"
						transform="matrix(1,0,0,1,0.3456,1.9728)" class="st5">
					<path d="M22.19 577.23 L1.2 577.23 C0.54 577.23 0 577.77 0 578.43 L0 594.08 C0 594.74 0.54 595.28 1.2 595.28
								 L22.19 595.28 C22.85 595.28 23.39 594.74 23.39 594.08 L23.39 578.43 C23.39 577.77 22.85 577.23 22.19
								 577.23 ZM20.43 579.63 L11.52 586.53 L2.67 579.63 L20.43 579.63 ZM2.4 592.88 L2.4 582.46 L10.79 589
								 C11 589.17 11.26 589.25 11.52 589.25 C11.78 589.25 12.04 589.17 12.26 589 L20.99 582.22 L20.99 592.88
								 L2.4 592.88 L2.4 592.88 Z" class="st6"/>
				</g>
				<path d="M22.19 577.23 L1.2 577.23 C0.54 577.23 0 577.77 0 578.43 L0 594.08 C0 594.74 0.54 595.28 1.2 595.28 L22.19
							 595.28 C22.85 595.28 23.39 594.74 23.39 594.08 L23.39 578.43 C23.39 577.77 22.85 577.23 22.19 577.23
							 ZM20.43 579.63 L11.52 586.53 L2.67 579.63 L20.43 579.63 ZM2.4 592.88 L2.4 582.46 L10.79 589 C11 589.17
							 11.26 589.25 11.52 589.25 C11.78 589.25 12.04 589.17 12.26 589 L20.99 582.22 L20.99 592.88 L2.4 592.88
							 L2.4 592.88 Z" class="st8"/>
			</g>
			<g id="shape286-86" v:mID="286" v:groupContext="shape" transform="translate(4.6123,-3.78703)">
				<title>Sheet.286</title>
				<g id="shadow286-87" v:groupContext="shadow" v:shadowOffsetX="0.3456" v:shadowOffsetY="-1.9728" v:shadowType="1"
						transform="matrix(1,0,0,1,0.3456,1.9728)" class="st5">
					<path d="M22.19 577.23 L1.2 577.23 C0.54 577.23 0 577.77 0 578.43 L0 594.08 C0 594.74 0.54 595.28 1.2 595.28
								 L22.19 595.28 C22.85 595.28 23.39 594.74 23.39 594.08 L23.39 578.43 C23.39 577.77 22.85 577.23 22.19
								 577.23 ZM20.43 579.63 L11.52 586.53 L2.67 579.63 L20.43 579.63 ZM2.4 592.88 L2.4 582.46 L10.79 589
								 C11 589.17 11.26 589.25 11.52 589.25 C11.78 589.25 12.04 589.17 12.26 589 L20.99 582.22 L20.99 592.88
								 L2.4 592.88 L2.4 592.88 Z" class="st6"/>
				</g>
				<path d="M22.19 577.23 L1.2 577.23 C0.54 577.23 0 577.77 0 578.43 L0 594.08 C0 594.74 0.54 595.28 1.2 595.28 L22.19
							 595.28 C22.85 595.28 23.39 594.74 23.39 594.08 L23.39 578.43 C23.39 577.77 22.85 577.23 22.19 577.23
							 ZM20.43 579.63 L11.52 586.53 L2.67 579.63 L20.43 579.63 ZM2.4 592.88 L2.4 582.46 L10.79 589 C11 589.17
							 11.26 589.25 11.52 589.25 C11.78 589.25 12.04 589.17 12.26 589 L20.99 582.22 L20.99 592.88 L2.4 592.88
							 L2.4 592.88 Z" class="st8"/>
			</g>
			<g id="shape287-91" v:mID="287" v:groupContext="shape" transform="translate(55.8764,-3.78703)">
				<title>Sheet.287</title>
				<g id="shadow287-92" v:groupContext="shadow" v:shadowOffsetX="0.3456" v:shadowOffsetY="-1.9728" v:shadowType="1"
						transform="matrix(1,0,0,1,0.3456,1.9728)" class="st5">
					<path d="M22.19 577.23 L1.2 577.23 C0.54 577.23 0 577.77 0 578.43 L0 594.08 C0 594.74 0.54 595.28 1.2 595.28
								 L22.19 595.28 C22.85 595.28 23.39 594.74 23.39 594.08 L23.39 578.43 C23.39 577.77 22.85 577.23 22.19
								 577.23 ZM20.43 579.63 L11.52 586.53 L2.67 579.63 L20.43 579.63 ZM2.4 592.88 L2.4 582.46 L10.79 589
								 C11 589.17 11.26 589.25 11.52 589.25 C11.78 589.25 12.04 589.17 12.26 589 L20.99 582.22 L20.99 592.88
								 L2.4 592.88 L2.4 592.88 Z" class="st6"/>
				</g>
				<path d="M22.19 577.23 L1.2 577.23 C0.54 577.23 0 577.77 0 578.43 L0 594.08 C0 594.74 0.54 595.28 1.2 595.28 L22.19
							 595.28 C22.85 595.28 23.39 594.74 23.39 594.08 L23.39 578.43 C23.39 577.77 22.85 577.23 22.19 577.23
							 ZM20.43 579.63 L11.52 586.53 L2.67 579.63 L20.43 579.63 ZM2.4 592.88 L2.4 582.46 L10.79 589 C11 589.17
							 11.26 589.25 11.52 589.25 C11.78 589.25 12.04 589.17 12.26 589 L20.99 582.22 L20.99 592.88 L2.4 592.88
							 L2.4 592.88 Z" class="st8"/>
			</g>
		</g>
		<g id="group288-96" transform="translate(231.381,-382.677)" v:mID="288" v:groupContext="group">
			<title>Queue (generic).288</title>
			<g id="shape289-97" v:mID="289" v:groupContext="shape">
				<title>Sheet.289</title>
				<g id="shadow289-98" v:groupContext="shadow" v:shadowOffsetX="0.3456" v:shadowOffsetY="-1.9728" v:shadowType="1"
						transform="matrix(1,0,0,1,0.3456,1.9728)" class="st5">
					<path d="M80.48 595.28 L2.06 595.28 C0.94 595.28 0 593.81 0 592.72 L0 571.45 C0 570.36 0.94 569.52 2.06 569.52
								 L80.48 569.52 C81.6 569.52 88.62 582.89 88.62 582.89 C88.62 582.89 81.6 595.28 80.48 595.28 Z"
							class="st6"/>
				</g>
				<path d="M80.48 595.28 L2.06 595.28 C0.94 595.28 0 593.81 0 592.72 L0 571.45 C0 570.36 0.94 569.52 2.06 569.52 L80.48
							 569.52 C81.6 569.52 88.62 582.89 88.62 582.89 C88.62 582.89 81.6 595.28 80.48 595.28 Z" class="st7"/>
			</g>
			<g id="shape290-102" v:mID="290" v:groupContext="shape" transform="translate(30.2444,-3.78703)">
				<title>Sheet.290</title>
				<g id="shadow290-103" v:groupContext="shadow" v:shadowOffsetX="0.3456" v:shadowOffsetY="-1.9728" v:shadowType="1"
						transform="matrix(1,0,0,1,0.3456,1.9728)" class="st5">
					<path d="M22.19 577.23 L1.2 577.23 C0.54 577.23 0 577.77 0 578.43 L0 594.08 C0 594.74 0.54 595.28 1.2 595.28
								 L22.19 595.28 C22.85 595.28 23.39 594.74 23.39 594.08 L23.39 578.43 C23.39 577.77 22.85 577.23 22.19
								 577.23 ZM20.43 579.63 L11.52 586.53 L2.67 579.63 L20.43 579.63 ZM2.4 592.88 L2.4 582.46 L10.79 589
								 C11 589.17 11.26 589.25 11.52 589.25 C11.78 589.25 12.04 589.17 12.26 589 L20.99 582.22 L20.99 592.88
								 L2.4 592.88 L2.4 592.88 Z" class="st6"/>
				</g>
				<path d="M22.19 577.23 L1.2 577.23 C0.54 577.23 0 577.77 0 578.43 L0 594.08 C0 594.74 0.54 595.28 1.2 595.28 L22.19
							 595.28 C22.85 595.28 23.39 594.74 23.39 594.08 L23.39 578.43 C23.39 577.77 22.85 577.23 22.19 577.23
							 ZM20.43 579.63 L11.52 586.53 L2.67 579.63 L20.43 579.63 ZM2.4 592.88 L2.4 582.46 L10.79 589 C11 589.17
							 11.26 589.25 11.52 589.25 C11.78 589.25 12.04 589.17 12.26 589 L20.99 582.22 L20.99 592.88 L2.4 592.88
							 L2.4 592.88 Z" class="st8"/>
			</g>
			<g id="shape291-107" v:mID="291" v:groupContext="shape" transform="translate(4.6123,-3.78703)">
				<title>Sheet.291</title>
				<g id="shadow291-108" v:groupContext="shadow" v:shadowOffsetX="0.3456" v:shadowOffsetY="-1.9728" v:shadowType="1"
						transform="matrix(1,0,0,1,0.3456,1.9728)" class="st5">
					<path d="M22.19 577.23 L1.2 577.23 C0.54 577.23 0 577.77 0 578.43 L0 594.08 C0 594.74 0.54 595.28 1.2 595.28
								 L22.19 595.28 C22.85 595.28 23.39 594.74 23.39 594.08 L23.39 578.43 C23.39 577.77 22.85 577.23 22.19
								 577.23 ZM20.43 579.63 L11.52 586.53 L2.67 579.63 L20.43 579.63 ZM2.4 592.88 L2.4 582.46 L10.79 589
								 C11 589.17 11.26 589.25 11.52 589.25 C11.78 589.25 12.04 589.17 12.26 589 L20.99 582.22 L20.99 592.88
								 L2.4 592.88 L2.4 592.88 Z" class="st6"/>
				</g>
				<path d="M22.19 577.23 L1.2 577.23 C0.54 577.23 0 577.77 0 578.43 L0 594.08 C0 594.74 0.54 595.28 1.2 595.28 L22.19
							 595.28 C22.85 595.28 23.39 594.74 23.39 594.08 L23.39 578.43 C23.39 577.77 22.85 577.23 22.19 577.23
							 ZM20.43 579.63 L11.52 586.53 L2.67 579.63 L20.43 579.63 ZM2.4 592.88 L2.4 582.46 L10.79 589 C11 589.17
							 11.26 589.25 11.52 589.25 C11.78 589.25 12.04 589.17 12.26 589 L20.99 582.22 L20.99 592.88 L2.4 592.88
							 L2.4 592.88 Z" class="st8"/>
			</g>
			<g id="shape292-112" v:mID="292" v:groupContext="shape" transform="translate(55.8764,-3.78703)">
				<title>Sheet.292</title>
				<g id="shadow292-113" v:groupContext="shadow" v:shadowOffsetX="0.3456" v:shadowOffsetY="-1.9728" v:shadowType="1"
						transform="matrix(1,0,0,1,0.3456,1.9728)" class="st5">
					<path d="M22.19 577.23 L1.2 577.23 C0.54 577.23 0 577.77 0 578.43 L0 594.08 C0 594.74 0.54 595.28 1.2 595.28
								 L22.19 595.28 C22.85 595.28 23.39 594.74 23.39 594.08 L23.39 578.43 C23.39 577.77 22.85 577.23 22.19
								 577.23 ZM20.43 579.63 L11.52 586.53 L2.67 579.63 L20.43 579.63 ZM2.4 592.88 L2.4 582.46 L10.79 589
								 C11 589.17 11.26 589.25 11.52 589.25 C11.78 589.25 12.04 589.17 12.26 589 L20.99 582.22 L20.99 592.88
								 L2.4 592.88 L2.4 592.88 Z" class="st6"/>
				</g>
				<path d="M22.19 577.23 L1.2 577.23 C0.54 577.23 0 577.77 0 578.43 L0 594.08 C0 594.74 0.54 595.28 1.2 595.28 L22.19
							 595.28 C22.85 595.28 23.39 594.74 23.39 594.08 L23.39 578.43 C23.39 577.77 22.85 577.23 22.19 577.23
							 ZM20.43 579.63 L11.52 586.53 L2.67 579.63 L20.43 579.63 ZM2.4 592.88 L2.4 582.46 L10.79 589 C11 589.17
							 11.26 589.25 11.52 589.25 C11.78 589.25 12.04 589.17 12.26 589 L20.99 582.22 L20.99 592.88 L2.4 592.88
							 L2.4 592.88 Z" class="st8"/>
			</g>
		</g>
		<g id="shape299-117" v:mID="299" v:groupContext="shape" transform="translate(-141.796,-175.417) rotate(-50.8747)">
			<title>Sheet.299</title>
			<path d="M0 595.28 L87.49 595.28" class="st9"/>
		</g>
		<g id="shape300-123" v:mID="300" v:groupContext="shape" transform="translate(103.713,-354.38) rotate(-21.3054)">
			<title>Sheet.300</title>
			<path d="M0 595.28 L56.39 595.28" class="st11"/>
		</g>
		<g id="shape301-129" v:mID="301" v:groupContext="shape" transform="translate(564.012,-342.752) rotate(24.1995)">
			<title>Sheet.301</title>
			<path d="M0 595.28 L58.63 595.28" class="st9"/>
		</g>
		<g id="shape302-134" v:mID="302" v:groupContext="shape" transform="translate(790.307,-164.704) rotate(52.1917)">
			<title>Sheet.302</title>
			<path d="M0 595.28 L90.24 595.28" class="st9"/>
		</g>
		<g id="shape303-139" v:mID="303" v:groupContext="shape" v:layerMember="0" transform="translate(467.456,-460.63)">
			<title>Dynamic connector</title>
			<path d="M0 588.19 L37.29 588.19" class="st11"/>
		</g>
		<g id="shape304-144" v:mID="304" v:groupContext="shape" v:layerMember="0" transform="translate(467.456,-411.452)">
			<title>Dynamic connector.304</title>
			<path d="M0 588.19 L37.88 588.19" class="st11"/>
		</g>
		<g id="shape305-149" v:mID="305" v:groupContext="shape" v:layerMember="0" transform="translate(467.456,-361.417)">
			<title>Dynamic connector.305</title>
			<path d="M0 588.19 L37.81 588.19" class="st11"/>
		</g>
		<g id="shape306-154" v:mID="306" v:groupContext="shape" v:layerMember="0" transform="translate(467.456,-311.383)">
			<title>Dynamic connector.306</title>
			<path d="M0 588.19 L37.88 588.19" class="st11"/>
		</g>
		<g id="group312-159" transform="translate(511.79,-296.781)" v:mID="312" v:groupContext="group">
			<title>Sheet.312</title>
			<g id="group154-160" transform="translate(7.99361E-15,-149.247)" v:mID="154" v:groupContext="group">
				<title>Worker Role</title>
				<g id="shape155-161" v:mID="155" v:groupContext="shape">
					<title>Sheet.155</title>
					<g id="shadow155-162" v:groupContext="shadow" v:shadowOffsetX="0.3456" v:shadowOffsetY="-1.9728"
							v:shadowType="1" transform="matrix(1,0,0,1,0.3456,1.9728)" class="st5">
						<path d="M53.58 592.53 C53.58 594.05 52.53 595.28 51.22 595.28 L2.36 595.28 C1.06 595.28 0 594.05 0 592.53
									 L0 554.64 C0 553.13 1.06 551.9 2.36 551.9 L51.22 551.9 C52.53 551.9 53.59 553.13 53.59 554.64
									 L53.59 592.53 L53.58 592.53 Z" class="st12"/>
					</g>
					<path d="M53.58 592.53 C53.58 594.05 52.53 595.28 51.22 595.28 L2.36 595.28 C1.06 595.28 0 594.05 0 592.53 L0
								 554.64 C0 553.13 1.06 551.9 2.36 551.9 L51.22 551.9 C52.53 551.9 53.59 553.13 53.59 554.64 L53.59
								 592.53 L53.58 592.53 Z" class="st13"/>
				</g>
				<g id="group156-166" transform="translate(12.7525,-7.73577)" v:mID="156" v:groupContext="group">
					<title>Sheet.156</title>
					<g id="shape157-167" v:mID="157" v:groupContext="shape" transform="translate(11.2535,-11.227)">
						<title>Sheet.157</title>
						<g id="shadow157-168" v:groupContext="shadow" v:shadowOffsetX="0.3456" v:shadowOffsetY="-1.9728"
								v:shadowType="1" transform="matrix(1,0,0,1,0.3456,1.9728)" class="st5">
							<path d="M1.63 590.42 C0.46 591.02 0 592.46 0.6 593.64 C1.21 594.81 2.65 595.28 3.82 594.67 C4.99 594.07
										 5.46 592.63 4.86 591.46 C4.26 590.28 2.82 589.82 1.63 590.42 Z" class="st12"/>
						</g>
						<path d="M1.63 590.42 C0.46 591.02 0 592.46 0.6 593.64 C1.21 594.81 2.65 595.28 3.82 594.67 C4.99 594.07
									 5.46 592.63 4.86 591.46 C4.26 590.28 2.82 589.82 1.63 590.42 Z" class="st14"/>
					</g>
					<g id="shape158-172" v:mID="158" v:groupContext="shape">
						<title>Sheet.158</title>
						<g id="shadow158-173" v:groupContext="shadow" v:shadowOffsetX="0.3456" v:shadowOffsetY="-1.9728"
								v:shadowType="1" transform="matrix(1,0,0,1,0.3456,1.9728)" class="st5">
							<path d="M24.42 581.53 L27.96 580.05 L26.88 575.51 L22.91 575.94 C22.5 575.26 22.05 574.65 21.52 574.1
										 L22.99 570.53 L19.01 568.09 L16.53 571.17 C15.67 570.94 14.79 570.83 13.89 570.82 L12.34
										 567.37 L7.82 568.58 L8.35 572.4 C7.73 572.79 7.16 573.23 6.65 573.71 L3.22 572.3 L0.77 576.27
										 L3.72 578.65 C3.5 579.46 3.38 580.3 3.36 581.15 L0 582.54 L1.08 587.09 L4.83 586.68 C5.27
										 587.43 5.78 588.11 6.36 588.71 L4.98 592.06 L8.96 594.51 L11.34 591.55 C12.15 591.75 12.97
										 591.87 13.82 591.87 L15.23 595.28 L19.77 594.19 L19.36 590.34 C20.06 589.91 20.71 589.42
										 21.27 588.87 L24.75 590.3 L27.2 586.32 L24.12 583.84 C24.3 583.09 24.4 582.31 24.42 581.53
										 ZM16.96 587.1 C13.76 588.74 9.82 587.48 8.18 584.27 C6.53 581.07 7.8 577.14 11.01 575.49
										 C14.21 573.85 18.15 575.12 19.79 578.32 C21.43 581.53 20.17 585.46 16.96 587.1 Z"
									class="st12"/>
						</g>
						<path d="M24.42 581.53 L27.96 580.05 L26.88 575.51 L22.91 575.94 C22.5 575.26 22.05 574.65 21.52 574.1 L22.99
									 570.53 L19.01 568.09 L16.53 571.17 C15.67 570.94 14.79 570.83 13.89 570.82 L12.34 567.37 L7.82
									 568.58 L8.35 572.4 C7.73 572.79 7.16 573.23 6.65 573.71 L3.22 572.3 L0.77 576.27 L3.72 578.65
									 C3.5 579.46 3.38 580.3 3.36 581.15 L0 582.54 L1.08 587.09 L4.83 586.68 C5.27 587.43 5.78 588.11
									 6.36 588.71 L4.98 592.06 L8.96 594.51 L11.34 591.55 C12.15 591.75 12.97 591.87 13.82 591.87
									 L15.23 595.28 L19.77 594.19 L19.36 590.34 C20.06 589.91 20.71 589.42 21.27 588.87 L24.75 590.3
									 L27.2 586.32 L24.12 583.84 C24.3 583.09 24.4 582.31 24.42 581.53 ZM16.96 587.1 C13.76 588.74
									 9.82 587.48 8.18 584.27 C6.53 581.07 7.8 577.14 11.01 575.49 C14.21 573.85 18.15 575.12 19.79
									 578.32 C21.43 581.53 20.17 585.46 16.96 587.1 Z" class="st14"/>
					</g>
				</g>
			</g>
			<g id="group256-177" transform="translate(0.58778,-100.07)" v:mID="256" v:groupContext="group">
				<title>Worker Role.256</title>
				<g id="shape257-178" v:mID="257" v:groupContext="shape">
					<title>Sheet.257</title>
					<g id="shadow257-179" v:groupContext="shadow" v:shadowOffsetX="0.3456" v:shadowOffsetY="-1.9728"
							v:shadowType="1" transform="matrix(1,0,0,1,0.3456,1.9728)" class="st5">
						<path d="M53.58 592.53 C53.58 594.05 52.53 595.28 51.22 595.28 L2.36 595.28 C1.06 595.28 0 594.05 0 592.53
									 L0 554.64 C0 553.13 1.06 551.9 2.36 551.9 L51.22 551.9 C52.53 551.9 53.59 553.13 53.59 554.64
									 L53.59 592.53 L53.58 592.53 Z" class="st12"/>
					</g>
					<path d="M53.58 592.53 C53.58 594.05 52.53 595.28 51.22 595.28 L2.36 595.28 C1.06 595.28 0 594.05 0 592.53 L0
								 554.64 C0 553.13 1.06 551.9 2.36 551.9 L51.22 551.9 C52.53 551.9 53.59 553.13 53.59 554.64 L53.59
								 592.53 L53.58 592.53 Z" class="st13"/>
				</g>
				<g id="group258-183" transform="translate(12.7525,-7.73577)" v:mID="258" v:groupContext="group">
					<title>Sheet.258</title>
					<g id="shape259-184" v:mID="259" v:groupContext="shape" transform="translate(11.2535,-11.227)">
						<title>Sheet.259</title>
						<g id="shadow259-185" v:groupContext="shadow" v:shadowOffsetX="0.3456" v:shadowOffsetY="-1.9728"
								v:shadowType="1" transform="matrix(1,0,0,1,0.3456,1.9728)" class="st5">
							<path d="M1.63 590.42 C0.46 591.02 0 592.46 0.6 593.64 C1.21 594.81 2.65 595.28 3.82 594.67 C4.99 594.07
										 5.46 592.63 4.86 591.46 C4.26 590.28 2.82 589.82 1.63 590.42 Z" class="st12"/>
						</g>
						<path d="M1.63 590.42 C0.46 591.02 0 592.46 0.6 593.64 C1.21 594.81 2.65 595.28 3.82 594.67 C4.99 594.07
									 5.46 592.63 4.86 591.46 C4.26 590.28 2.82 589.82 1.63 590.42 Z" class="st14"/>
					</g>
					<g id="shape260-189" v:mID="260" v:groupContext="shape">
						<title>Sheet.260</title>
						<g id="shadow260-190" v:groupContext="shadow" v:shadowOffsetX="0.3456" v:shadowOffsetY="-1.9728"
								v:shadowType="1" transform="matrix(1,0,0,1,0.3456,1.9728)" class="st5">
							<path d="M24.42 581.53 L27.96 580.05 L26.88 575.51 L22.91 575.94 C22.5 575.26 22.05 574.65 21.52 574.1
										 L22.99 570.53 L19.01 568.09 L16.53 571.17 C15.67 570.94 14.79 570.83 13.89 570.82 L12.34
										 567.37 L7.82 568.58 L8.35 572.4 C7.73 572.79 7.16 573.23 6.65 573.71 L3.22 572.3 L0.77 576.27
										 L3.72 578.65 C3.5 579.46 3.38 580.3 3.36 581.15 L0 582.54 L1.08 587.09 L4.83 586.68 C5.27
										 587.43 5.78 588.11 6.36 588.71 L4.98 592.06 L8.96 594.51 L11.34 591.55 C12.15 591.75 12.97
										 591.87 13.82 591.87 L15.23 595.28 L19.77 594.19 L19.36 590.34 C20.06 589.91 20.71 589.42
										 21.27 588.87 L24.75 590.3 L27.2 586.32 L24.12 583.84 C24.3 583.09 24.4 582.31 24.42 581.53
										 ZM16.96 587.1 C13.76 588.74 9.82 587.48 8.18 584.27 C6.53 581.07 7.8 577.14 11.01 575.49
										 C14.21 573.85 18.15 575.12 19.79 578.32 C21.43 581.53 20.17 585.46 16.96 587.1 Z"
									class="st12"/>
						</g>
						<path d="M24.42 581.53 L27.96 580.05 L26.88 575.51 L22.91 575.94 C22.5 575.26 22.05 574.65 21.52 574.1 L22.99
									 570.53 L19.01 568.09 L16.53 571.17 C15.67 570.94 14.79 570.83 13.89 570.82 L12.34 567.37 L7.82
									 568.58 L8.35 572.4 C7.73 572.79 7.16 573.23 6.65 573.71 L3.22 572.3 L0.77 576.27 L3.72 578.65
									 C3.5 579.46 3.38 580.3 3.36 581.15 L0 582.54 L1.08 587.09 L4.83 586.68 C5.27 587.43 5.78 588.11
									 6.36 588.71 L4.98 592.06 L8.96 594.51 L11.34 591.55 C12.15 591.75 12.97 591.87 13.82 591.87
									 L15.23 595.28 L19.77 594.19 L19.36 590.34 C20.06 589.91 20.71 589.42 21.27 588.87 L24.75 590.3
									 L27.2 586.32 L24.12 583.84 C24.3 583.09 24.4 582.31 24.42 581.53 ZM16.96 587.1 C13.76 588.74
									 9.82 587.48 8.18 584.27 C6.53 581.07 7.8 577.14 11.01 575.49 C14.21 573.85 18.15 575.12 19.79
									 578.32 C21.43 581.53 20.17 585.46 16.96 587.1 Z" class="st14"/>
					</g>
				</g>
			</g>
			<g id="group261-194" transform="translate(0.516472,-50.0348)" v:mID="261" v:groupContext="group">
				<title>Worker Role.261</title>
				<g id="shape262-195" v:mID="262" v:groupContext="shape">
					<title>Sheet.262</title>
					<g id="shadow262-196" v:groupContext="shadow" v:shadowOffsetX="0.3456" v:shadowOffsetY="-1.9728"
							v:shadowType="1" transform="matrix(1,0,0,1,0.3456,1.9728)" class="st5">
						<path d="M53.58 592.53 C53.58 594.05 52.53 595.28 51.22 595.28 L2.36 595.28 C1.06 595.28 0 594.05 0 592.53
									 L0 554.64 C0 553.13 1.06 551.9 2.36 551.9 L51.22 551.9 C52.53 551.9 53.59 553.13 53.59 554.64
									 L53.59 592.53 L53.58 592.53 Z" class="st12"/>
					</g>
					<path d="M53.58 592.53 C53.58 594.05 52.53 595.28 51.22 595.28 L2.36 595.28 C1.06 595.28 0 594.05 0 592.53 L0
								 554.64 C0 553.13 1.06 551.9 2.36 551.9 L51.22 551.9 C52.53 551.9 53.59 553.13 53.59 554.64 L53.59
								 592.53 L53.58 592.53 Z" class="st13"/>
				</g>
				<g id="group263-200" transform="translate(12.7525,-7.73577)" v:mID="263" v:groupContext="group">
					<title>Sheet.263</title>
					<g id="shape264-201" v:mID="264" v:groupContext="shape" transform="translate(11.2535,-11.227)">
						<title>Sheet.264</title>
						<g id="shadow264-202" v:groupContext="shadow" v:shadowOffsetX="0.3456" v:shadowOffsetY="-1.9728"
								v:shadowType="1" transform="matrix(1,0,0,1,0.3456,1.9728)" class="st5">
							<path d="M1.63 590.42 C0.46 591.02 0 592.46 0.6 593.64 C1.21 594.81 2.65 595.28 3.82 594.67 C4.99 594.07
										 5.46 592.63 4.86 591.46 C4.26 590.28 2.82 589.82 1.63 590.42 Z" class="st12"/>
						</g>
						<path d="M1.63 590.42 C0.46 591.02 0 592.46 0.6 593.64 C1.21 594.81 2.65 595.28 3.82 594.67 C4.99 594.07
									 5.46 592.63 4.86 591.46 C4.26 590.28 2.82 589.82 1.63 590.42 Z" class="st14"/>
					</g>
					<g id="shape265-206" v:mID="265" v:groupContext="shape">
						<title>Sheet.265</title>
						<g id="shadow265-207" v:groupContext="shadow" v:shadowOffsetX="0.3456" v:shadowOffsetY="-1.9728"
								v:shadowType="1" transform="matrix(1,0,0,1,0.3456,1.9728)" class="st5">
							<path d="M24.42 581.53 L27.96 580.05 L26.88 575.51 L22.91 575.94 C22.5 575.26 22.05 574.65 21.52 574.1
										 L22.99 570.53 L19.01 568.09 L16.53 571.17 C15.67 570.94 14.79 570.83 13.89 570.82 L12.34
										 567.37 L7.82 568.58 L8.35 572.4 C7.73 572.79 7.16 573.23 6.65 573.71 L3.22 572.3 L0.77 576.27
										 L3.72 578.65 C3.5 579.46 3.38 580.3 3.36 581.15 L0 582.54 L1.08 587.09 L4.83 586.68 C5.27
										 587.43 5.78 588.11 6.36 588.71 L4.98 592.06 L8.96 594.51 L11.34 591.55 C12.15 591.75 12.97
										 591.87 13.82 591.87 L15.23 595.28 L19.77 594.19 L19.36 590.34 C20.06 589.91 20.71 589.42
										 21.27 588.87 L24.75 590.3 L27.2 586.32 L24.12 583.84 C24.3 583.09 24.4 582.31 24.42 581.53
										 ZM16.96 587.1 C13.76 588.74 9.82 587.48 8.18 584.27 C6.53 581.07 7.8 577.14 11.01 575.49
										 C14.21 573.85 18.15 575.12 19.79 578.32 C21.43 581.53 20.17 585.46 16.96 587.1 Z"
									class="st12"/>
						</g>
						<path d="M24.42 581.53 L27.96 580.05 L26.88 575.51 L22.91 575.94 C22.5 575.26 22.05 574.65 21.52 574.1 L22.99
									 570.53 L19.01 568.09 L16.53 571.17 C15.67 570.94 14.79 570.83 13.89 570.82 L12.34 567.37 L7.82
									 568.58 L8.35 572.4 C7.73 572.79 7.16 573.23 6.65 573.71 L3.22 572.3 L0.77 576.27 L3.72 578.65
									 C3.5 579.46 3.38 580.3 3.36 581.15 L0 582.54 L1.08 587.09 L4.83 586.68 C5.27 587.43 5.78 588.11
									 6.36 588.71 L4.98 592.06 L8.96 594.51 L11.34 591.55 C12.15 591.75 12.97 591.87 13.82 591.87
									 L15.23 595.28 L19.77 594.19 L19.36 590.34 C20.06 589.91 20.71 589.42 21.27 588.87 L24.75 590.3
									 L27.2 586.32 L24.12 583.84 C24.3 583.09 24.4 582.31 24.42 581.53 ZM16.96 587.1 C13.76 588.74
									 9.82 587.48 8.18 584.27 C6.53 581.07 7.8 577.14 11.01 575.49 C14.21 573.85 18.15 575.12 19.79
									 578.32 C21.43 581.53 20.17 585.46 16.96 587.1 Z" class="st14"/>
					</g>
				</g>
			</g>
			<g id="group266-211" transform="translate(0.58778,0)" v:mID="266" v:groupContext="group">
				<title>Worker Role.266</title>
				<g id="shape267-212" v:mID="267" v:groupContext="shape">
					<title>Sheet.267</title>
					<g id="shadow267-213" v:groupContext="shadow" v:shadowOffsetX="0.3456" v:shadowOffsetY="-1.9728"
							v:shadowType="1" transform="matrix(1,0,0,1,0.3456,1.9728)" class="st5">
						<path d="M53.58 592.53 C53.58 594.05 52.53 595.28 51.22 595.28 L2.36 595.28 C1.06 595.28 0 594.05 0 592.53
									 L0 554.64 C0 553.13 1.06 551.9 2.36 551.9 L51.22 551.9 C52.53 551.9 53.59 553.13 53.59 554.64
									 L53.59 592.53 L53.58 592.53 Z" class="st12"/>
					</g>
					<path d="M53.58 592.53 C53.58 594.05 52.53 595.28 51.22 595.28 L2.36 595.28 C1.06 595.28 0 594.05 0 592.53 L0
								 554.64 C0 553.13 1.06 551.9 2.36 551.9 L51.22 551.9 C52.53 551.9 53.59 553.13 53.59 554.64 L53.59
								 592.53 L53.58 592.53 Z" class="st13"/>
				</g>
				<g id="group268-217" transform="translate(12.7525,-7.73577)" v:mID="268" v:groupContext="group">
					<title>Sheet.268</title>
					<g id="shape269-218" v:mID="269" v:groupContext="shape" transform="translate(11.2535,-11.227)">
						<title>Sheet.269</title>
						<g id="shadow269-219" v:groupContext="shadow" v:shadowOffsetX="0.3456" v:shadowOffsetY="-1.9728"
								v:shadowType="1" transform="matrix(1,0,0,1,0.3456,1.9728)" class="st5">
							<path d="M1.63 590.42 C0.46 591.02 0 592.46 0.6 593.64 C1.21 594.81 2.65 595.28 3.82 594.67 C4.99 594.07
										 5.46 592.63 4.86 591.46 C4.26 590.28 2.82 589.82 1.63 590.42 Z" class="st12"/>
						</g>
						<path d="M1.63 590.42 C0.46 591.02 0 592.46 0.6 593.64 C1.21 594.81 2.65 595.28 3.82 594.67 C4.99 594.07
									 5.46 592.63 4.86 591.46 C4.26 590.28 2.82 589.82 1.63 590.42 Z" class="st14"/>
					</g>
					<g id="shape270-223" v:mID="270" v:groupContext="shape">
						<title>Sheet.270</title>
						<g id="shadow270-224" v:groupContext="shadow" v:shadowOffsetX="0.3456" v:shadowOffsetY="-1.9728"
								v:shadowType="1" transform="matrix(1,0,0,1,0.3456,1.9728)" class="st5">
							<path d="M24.42 581.53 L27.96 580.05 L26.88 575.51 L22.91 575.94 C22.5 575.26 22.05 574.65 21.52 574.1
										 L22.99 570.53 L19.01 568.09 L16.53 571.17 C15.67 570.94 14.79 570.83 13.89 570.82 L12.34
										 567.37 L7.82 568.58 L8.35 572.4 C7.73 572.79 7.16 573.23 6.65 573.71 L3.22 572.3 L0.77 576.27
										 L3.72 578.65 C3.5 579.46 3.38 580.3 3.36 581.15 L0 582.54 L1.08 587.09 L4.83 586.68 C5.27
										 587.43 5.78 588.11 6.36 588.71 L4.98 592.06 L8.96 594.51 L11.34 591.55 C12.15 591.75 12.97
										 591.87 13.82 591.87 L15.23 595.28 L19.77 594.19 L19.36 590.34 C20.06 589.91 20.71 589.42
										 21.27 588.87 L24.75 590.3 L27.2 586.32 L24.12 583.84 C24.3 583.09 24.4 582.31 24.42 581.53
										 ZM16.96 587.1 C13.76 588.74 9.82 587.48 8.18 584.27 C6.53 581.07 7.8 577.14 11.01 575.49
										 C14.21 573.85 18.15 575.12 19.79 578.32 C21.43 581.53 20.17 585.46 16.96 587.1 Z"
									class="st12"/>
						</g>
						<path d="M24.42 581.53 L27.96 580.05 L26.88 575.51 L22.91 575.94 C22.5 575.26 22.05 574.65 21.52 574.1 L22.99
									 570.53 L19.01 568.09 L16.53 571.17 C15.67 570.94 14.79 570.83 13.89 570.82 L12.34 567.37 L7.82
									 568.58 L8.35 572.4 C7.73 572.79 7.16 573.23 6.65 573.71 L3.22 572.3 L0.77 576.27 L3.72 578.65
									 C3.5 579.46 3.38 580.3 3.36 581.15 L0 582.54 L1.08 587.09 L4.83 586.68 C5.27 587.43 5.78 588.11
									 6.36 588.71 L4.98 592.06 L8.96 594.51 L11.34 591.55 C12.15 591.75 12.97 591.87 13.82 591.87
									 L15.23 595.28 L19.77 594.19 L19.36 590.34 C20.06 589.91 20.71 589.42 21.27 588.87 L24.75 590.3
									 L27.2 586.32 L24.12 583.84 C24.3 583.09 24.4 582.31 24.42 581.53 ZM16.96 587.1 C13.76 588.74
									 9.82 587.48 8.18 584.27 C6.53 581.07 7.8 577.14 11.01 575.49 C14.21 573.85 18.15 575.12 19.79
									 578.32 C21.43 581.53 20.17 585.46 16.96 587.1 Z" class="st14"/>
					</g>
				</g>
			</g>
		</g>
		<g id="group315-228" transform="translate(134.598,-380.403)" v:mID="315" v:groupContext="group">
			<title>Sheet.315</title>
			<g id="shape316-229" v:mID="316" v:groupContext="shape" transform="translate(3.59712E-13,-25.2316)">
				<title>Rounded Rectangle</title>
				<v:userDefs>
					<v:ud v:nameU="CTypeTopLeftSnip" v:prompt="" v:val="VT0(0):5"/>
					<v:ud v:nameU="CTypeTopRightSnip" v:prompt="" v:val="VT0(0):5"/>
					<v:ud v:nameU="CTypeBotLeftSnip" v:prompt="" v:val="VT0(0):5"/>
					<v:ud v:nameU="CTypeBotRightSnip" v:prompt="" v:val="VT0(0):5"/>
					<v:ud v:nameU="CornerLockHoriz" v:prompt="" v:val="VT0(1):5"/>
					<v:ud v:nameU="CornerLockVert" v:prompt="" v:val="VT0(1):5"/>
					<v:ud v:nameU="CornerLockDiag" v:prompt="" v:val="VT0(0):5"/>
					<v:ud v:nameU="TopLeftOffset" v:prompt="" v:val="VT0(0.15748031496063):24"/>
					<v:ud v:nameU="TopRightOffset" v:prompt="" v:val="VT0(0.15748031496063):24"/>
					<v:ud v:nameU="BotLeftOffset" v:prompt="" v:val="VT0(0.15748031496063):24"/>
					<v:ud v:nameU="BotRightOffset" v:prompt="" v:val="VT0(0.15748031496063):24"/>
					<v:ud v:nameU="visVersion" v:prompt="" v:val="VT0(15):26"/>
					<v:ud v:nameU="TopLeftOffset" v:prompt="" v:val="VT0(0.070087875130311):1"/>
					<v:ud v:nameU="TopRightOffset" v:prompt="" v:val="VT0(0.070087875130311):1"/>
					<v:ud v:nameU="BotLeftOffset" v:prompt="" v:val="VT0(0.070087875130311):1"/>
					<v:ud v:nameU="BotRightOffset" v:prompt="" v:val="VT0(0.070087875130311):1"/>
				</v:userDefs>
				<g id="shadow316-230" v:groupContext="shadow" v:shadowOffsetX="0.345598" v:shadowOffsetY="-1.97279"
						v:shadowType="1" transform="matrix(1,0,0,1,0.345598,1.97279)" class="st5">
					<path d="M5.05 595.28 L45.42 595.28 A5.04624 5.04624 -180 0 0 50.46 590.23 L50.46 575.09 A5.04624 5.04624 -180
								 0 0 45.42 570.04 L5.05 570.04 A5.04624 5.04624 -180 0 0 0 575.09 L0 590.23 A5.04624 5.04624 -180
								 0 0 5.05 595.28 Z" class="st6"/>
				</g>
				<path d="M5.05 595.28 L45.42 595.28 A5.04624 5.04624 -180 0 0 50.46 590.23 L50.46 575.09 A5.04624 5.04624 -180 0
							 0 45.42 570.04 L5.05 570.04 A5.04624 5.04624 -180 0 0 0 575.09 L0 590.23 A5.04624 5.04624 -180 0 0 5.05
							 595.28 Z" class="st15"/>
			</g>
			<g id="shape317-234" v:mID="317" v:groupContext="shape" transform="translate(6.72844,-16.8211)">
				<title>Rounded Rectangle.2</title>
				<v:userDefs>
					<v:ud v:nameU="CTypeTopLeftSnip" v:prompt="" v:val="VT0(0):5"/>
					<v:ud v:nameU="CTypeTopRightSnip" v:prompt="" v:val="VT0(0):5"/>
					<v:ud v:nameU="CTypeBotLeftSnip" v:prompt="" v:val="VT0(0):5"/>
					<v:ud v:nameU="CTypeBotRightSnip" v:prompt="" v:val="VT0(0):5"/>
					<v:ud v:nameU="CornerLockHoriz" v:prompt="" v:val="VT0(1):5"/>
					<v:ud v:nameU="CornerLockVert" v:prompt="" v:val="VT0(1):5"/>
					<v:ud v:nameU="CornerLockDiag" v:prompt="" v:val="VT0(0):5"/>
					<v:ud v:nameU="TopLeftOffset" v:prompt="" v:val="VT0(0.15748031496063):24"/>
					<v:ud v:nameU="TopRightOffset" v:prompt="" v:val="VT0(0.15748031496063):24"/>
					<v:ud v:nameU="BotLeftOffset" v:prompt="" v:val="VT0(0.15748031496063):24"/>
					<v:ud v:nameU="BotRightOffset" v:prompt="" v:val="VT0(0.15748031496063):24"/>
					<v:ud v:nameU="visVersion" v:prompt="" v:val="VT0(15):26"/>
					<v:ud v:nameU="TopLeftOffset" v:prompt="" v:val="VT0(0.070087875130311):1"/>
					<v:ud v:nameU="TopRightOffset" v:prompt="" v:val="VT0(0.070087875130311):1"/>
					<v:ud v:nameU="BotLeftOffset" v:prompt="" v:val="VT0(0.070087875130311):1"/>
					<v:ud v:nameU="BotRightOffset" v:prompt="" v:val="VT0(0.070087875130311):1"/>
				</v:userDefs>
				<g id="shadow317-235" v:groupContext="shadow" v:shadowOffsetX="0.345598" v:shadowOffsetY="-1.97279"
						v:shadowType="1" transform="matrix(1,0,0,1,0.345598,1.97279)" class="st5">
					<path d="M5.05 595.28 L45.42 595.28 A5.04624 5.04624 -180 0 0 50.46 590.23 L50.46 575.09 A5.04624 5.04624 -180
								 0 0 45.42 570.04 L5.05 570.04 A5.04624 5.04624 -180 0 0 0 575.09 L0 590.23 A5.04624 5.04624 -180
								 0 0 5.05 595.28 Z" class="st6"/>
				</g>
				<path d="M5.05 595.28 L45.42 595.28 A5.04624 5.04624 -180 0 0 50.46 590.23 L50.46 575.09 A5.04624 5.04624 -180 0
							 0 45.42 570.04 L5.05 570.04 A5.04624 5.04624 -180 0 0 0 575.09 L0 590.23 A5.04624 5.04624 -180 0 0 5.05
							 595.28 Z" class="st15"/>
			</g>
			<g id="shape318-239" v:mID="318" v:groupContext="shape" transform="translate(13.4569,-8.41055)">
				<title>Rounded Rectangle.3</title>
				<v:userDefs>
					<v:ud v:nameU="CTypeTopLeftSnip" v:prompt="" v:val="VT0(0):5"/>
					<v:ud v:nameU="CTypeTopRightSnip" v:prompt="" v:val="VT0(0):5"/>
					<v:ud v:nameU="CTypeBotLeftSnip" v:prompt="" v:val="VT0(0):5"/>
					<v:ud v:nameU="CTypeBotRightSnip" v:prompt="" v:val="VT0(0):5"/>
					<v:ud v:nameU="CornerLockHoriz" v:prompt="" v:val="VT0(1):5"/>
					<v:ud v:nameU="CornerLockVert" v:prompt="" v:val="VT0(1):5"/>
					<v:ud v:nameU="CornerLockDiag" v:prompt="" v:val="VT0(0):5"/>
					<v:ud v:nameU="TopLeftOffset" v:prompt="" v:val="VT0(0.15748031496063):24"/>
					<v:ud v:nameU="TopRightOffset" v:prompt="" v:val="VT0(0.15748031496063):24"/>
					<v:ud v:nameU="BotLeftOffset" v:prompt="" v:val="VT0(0.15748031496063):24"/>
					<v:ud v:nameU="BotRightOffset" v:prompt="" v:val="VT0(0.15748031496063):24"/>
					<v:ud v:nameU="visVersion" v:prompt="" v:val="VT0(15):26"/>
					<v:ud v:nameU="TopLeftOffset" v:prompt="" v:val="VT0(0.070087875130311):1"/>
					<v:ud v:nameU="TopRightOffset" v:prompt="" v:val="VT0(0.070087875130311):1"/>
					<v:ud v:nameU="BotLeftOffset" v:prompt="" v:val="VT0(0.070087875130311):1"/>
					<v:ud v:nameU="BotRightOffset" v:prompt="" v:val="VT0(0.070087875130311):1"/>
				</v:userDefs>
				<g id="shadow318-240" v:groupContext="shadow" v:shadowOffsetX="0.345598" v:shadowOffsetY="-1.97279"
						v:shadowType="1" transform="matrix(1,0,0,1,0.345598,1.97279)" class="st5">
					<path d="M5.05 595.28 L45.42 595.28 A5.04624 5.04624 -180 0 0 50.46 590.23 L50.46 575.09 A5.04624 5.04624 -180
								 0 0 45.42 570.04 L5.05 570.04 A5.04624 5.04624 -180 0 0 0 575.09 L0 590.23 A5.04624 5.04624 -180
								 0 0 5.05 595.28 Z" class="st6"/>
				</g>
				<path d="M5.05 595.28 L45.42 595.28 A5.04624 5.04624 -180 0 0 50.46 590.23 L50.46 575.09 A5.04624 5.04624 -180 0
							 0 45.42 570.04 L5.05 570.04 A5.04624 5.04624 -180 0 0 0 575.09 L0 590.23 A5.04624 5.04624 -180 0 0 5.05
							 595.28 Z" class="st15"/>
			</g>
			<g id="shape319-244" v:mID="319" v:groupContext="shape" transform="translate(21.8674,0)">
				<title>Rounded Rectangle.4</title>
				<desc>Devices</desc>
				<v:userDefs>
					<v:ud v:nameU="CTypeTopLeftSnip" v:prompt="" v:val="VT0(0):5"/>
					<v:ud v:nameU="CTypeTopRightSnip" v:prompt="" v:val="VT0(0):5"/>
					<v:ud v:nameU="CTypeBotLeftSnip" v:prompt="" v:val="VT0(0):5"/>
					<v:ud v:nameU="CTypeBotRightSnip" v:prompt="" v:val="VT0(0):5"/>
					<v:ud v:nameU="CornerLockHoriz" v:prompt="" v:val="VT0(1):5"/>
					<v:ud v:nameU="CornerLockVert" v:prompt="" v:val="VT0(1):5"/>
					<v:ud v:nameU="CornerLockDiag" v:prompt="" v:val="VT0(0):5"/>
					<v:ud v:nameU="TopLeftOffset" v:prompt="" v:val="VT0(0.15748031496063):24"/>
					<v:ud v:nameU="TopRightOffset" v:prompt="" v:val="VT0(0.15748031496063):24"/>
					<v:ud v:nameU="BotLeftOffset" v:prompt="" v:val="VT0(0.15748031496063):24"/>
					<v:ud v:nameU="BotRightOffset" v:prompt="" v:val="VT0(0.15748031496063):24"/>
					<v:ud v:nameU="visVersion" v:prompt="" v:val="VT0(15):26"/>
					<v:ud v:nameU="TopLeftOffset" v:prompt="" v:val="VT0(0.070087875130311):1"/>
					<v:ud v:nameU="TopRightOffset" v:prompt="" v:val="VT0(0.070087875130311):1"/>
					<v:ud v:nameU="BotLeftOffset" v:prompt="" v:val="VT0(0.070087875130311):1"/>
					<v:ud v:nameU="BotRightOffset" v:prompt="" v:val="VT0(0.070087875130311):1"/>
				</v:userDefs>
				<v:textBlock v:margins="rect(4,4,4,4)" v:tabSpace="42.5197"/>
				<v:textRect cx="25.2316" cy="582.66" width="50.47" height="25.2316"/>
				<g id="shadow319-245" v:groupContext="shadow" v:shadowOffsetX="0.345598" v:shadowOffsetY="-1.97279"
						v:shadowType="1" transform="matrix(1,0,0,1,0.345598,1.97279)" class="st5">
					<path d="M5.05 595.28 L45.42 595.28 A5.04624 5.04624 -180 0 0 50.46 590.23 L50.46 575.09 A5.04624 5.04624 -180
								 0 0 45.42 570.04 L5.05 570.04 A5.04624 5.04624 -180 0 0 0 575.09 L0 590.23 A5.04624 5.04624 -180
								 0 0 5.05 595.28 Z" class="st6"/>
				</g>
				<path d="M5.05 595.28 L45.42 595.28 A5.04624 5.04624 -180 0 0 50.46 590.23 L50.46 575.09 A5.04624 5.04624 -180 0
							 0 45.42 570.04 L5.05 570.04 A5.04624 5.04624 -180 0 0 0 575.09 L0 590.23 A5.04624 5.04624 -180 0 0 5.05
							 595.28 Z" class="st15"/>
				<text x="8.15" y="585.96" class="st16" v:langID="2057"><v:paragraph v:horizAlign="1"/><v:tabList/>Devices</text>			</g>
		</g>
		<g id="shape320-250" v:mID="320" v:groupContext="shape" transform="translate(182.676,-392.524) rotate(-2.33506)">
			<title>Sheet.320</title>
			<path d="M0 595.28 L18.31 595.28" class="st9"/>
		</g>
		<g id="shape322-255" v:mID="322" v:groupContext="shape" transform="translate(301.517,-496.063)">
			<title>Sheet.322</title>
			<desc>Service Bus</desc>
			<v:textBlock v:margins="rect(4,4,4,4)" v:tabSpace="42.5197"/>
			<v:textRect cx="44.3096" cy="585.276" width="88.62" height="20"/>
			<rect x="0" y="575.276" width="88.6193" height="20" class="st2"/>
			<text x="16.75" y="588.88" class="st3" v:langID="1033"><v:paragraph v:horizAlign="1"/><v:tabList/>Service Bus</text>		</g>
	</g>
</svg>
