<?xml version="1.0" encoding="UTF-8" standalone="no"?>
<!DOCTYPE svg PUBLIC "-//W3C//DTD SVG 1.1//EN" "http://www.w3.org/Graphics/SVG/1.1/DTD/svg11.dtd">
<!-- Generated by Microsoft Visio, SVG Export reference-architecture.svg Page-1 -->
<svg xmlns="http://www.w3.org/2000/svg" xmlns:xlink="http://www.w3.org/1999/xlink" xmlns:ev="http://www.w3.org/2001/xml-events"
		xmlns:v="http://schemas.microsoft.com/visio/2003/SVGExtensions/" width="11.6929in" height="8.26772in"
		viewBox="0 0 841.89 595.276" xml:space="preserve" color-interpolation-filters="sRGB" class="st12">
	<v:documentProperties v:langID="2057" v:metric="true" v:viewMarkup="false">
		<v:userDefs>
			<v:ud v:nameU="msvNoAutoConnect" v:val="VT0(1):26"/>
		</v:userDefs>
	</v:documentProperties>

	<style type="text/css">
	<![CDATA[
		.st1 {fill:#0070c0;stroke:#000000;stroke-linecap:round;stroke-linejoin:round;stroke-width:0.24}
		.st2 {fill:#ffffff;font-family:Calibri;font-size:1.5em}
		.st3 {font-size:1em}
		.st4 {marker-end:url(#mrkr13-50);marker-start:url(#mrkr13-48);stroke:#000000;stroke-linecap:round;stroke-linejoin:round;stroke-width:2.25}
		.st5 {fill:#000000;fill-opacity:1;stroke:#000000;stroke-opacity:1;stroke-width:0.47169811320755}
		.st6 {marker-end:url(#mrkr13-50);stroke:#000000;stroke-linecap:round;stroke-linejoin:round;stroke-width:2.25}
		.st7 {marker-end:url(#mrkr13-90);stroke:#000000;stroke-linecap:round;stroke-linejoin:round;stroke-width:2.25}
		.st8 {fill:none;marker-end:url(#mrkr13-109);marker-start:url(#mrkr13-107);stroke:none;stroke-linecap:round;stroke-linejoin:round;stroke-width:0.75}
		.st9 {fill:#000000;fill-opacity:1;stroke:#000000;stroke-opacity:1;stroke-width:0.22935779816514}
		.st10 {fill:#000000;font-family:Calibri;font-size:1.5em}
		.st11 {stroke:#000000;stroke-dasharray:5.25,3.75,0,3.75;stroke-linecap:round;stroke-linejoin:round;stroke-width:0.75}
		.st12 {fill:none;fill-rule:evenodd;font-size:12px;overflow:visible;stroke-linecap:square;stroke-miterlimit:3}
	]]>
	</style>

	<defs id="Markers">
		<g id="lend13">
			<path d="M 3 1 L 0 0 L 3 -1 L 3 1 " style="stroke:none"/>
		</g>
		<marker id="mrkr13-48" class="st5" v:arrowType="13" v:arrowSize="2" v:setback="6.2" refX="6.2" orient="auto"
				markerUnits="strokeWidth" overflow="visible">
			<use xlink:href="#lend13" transform="scale(2.12) "/>
		</marker>
		<marker id="mrkr13-50" class="st5" v:arrowType="13" v:arrowSize="2" v:setback="6.2" refX="-6.2" orient="auto"
				markerUnits="strokeWidth" overflow="visible">
			<use xlink:href="#lend13" transform="scale(-2.12,-2.12) "/>
		</marker>
		<marker id="mrkr13-90" class="st5" v:arrowType="13" v:arrowSize="2" v:setback="6.36" refX="-6.36" orient="auto"
				markerUnits="strokeWidth" overflow="visible">
			<use xlink:href="#lend13" transform="scale(-2.12,-2.12) "/>
		</marker>
		<marker id="mrkr13-107" class="st9" v:arrowType="13" v:arrowSize="2" v:setback="13.08" refX="13.08" orient="auto"
				markerUnits="strokeWidth" overflow="visible">
			<use xlink:href="#lend13" transform="scale(4.36) "/>
		</marker>
		<marker id="mrkr13-109" class="st9" v:arrowType="13" v:arrowSize="2" v:setback="13.08" refX="-13.08" orient="auto"
				markerUnits="strokeWidth" overflow="visible">
			<use xlink:href="#lend13" transform="scale(-4.36,-4.36) "/>
		</marker>
	</defs>
	<g v:mID="0" v:index="1" v:groupContext="foregroundPage">
		<title>Page-1</title>
		<v:pageProperties v:drawingScale="0.0393701" v:pageScale="0.0393701" v:drawingUnits="24" v:shadowOffsetX="8.50394"
				v:shadowOffsetY="-8.50394"/>
		<v:layer v:name="Connector" v:index="0"/>
		<g id="shape25-1" v:mID="25" v:groupContext="shape" transform="translate(393.024,-424.741)">
			<title>Rounded Rectangle.25</title>
			<v:userDefs>
				<v:ud v:nameU="CTypeTopLeftSnip" v:prompt="" v:val="VT0(0):5"/>
				<v:ud v:nameU="CTypeTopRightSnip" v:prompt="" v:val="VT0(0):5"/>
				<v:ud v:nameU="CTypeBotLeftSnip" v:prompt="" v:val="VT0(0):5"/>
				<v:ud v:nameU="CTypeBotRightSnip" v:prompt="" v:val="VT0(0):5"/>
				<v:ud v:nameU="CornerLockHoriz" v:prompt="" v:val="VT0(1):5"/>
				<v:ud v:nameU="CornerLockVert" v:prompt="" v:val="VT0(1):5"/>
				<v:ud v:nameU="CornerLockDiag" v:prompt="" v:val="VT0(0):5"/>
				<v:ud v:nameU="TopLeftOffset" v:prompt="" v:val="VT0(0.15748031496063):24"/>
				<v:ud v:nameU="TopRightOffset" v:prompt="" v:val="VT0(0.15748031496063):24"/>
				<v:ud v:nameU="BotLeftOffset" v:prompt="" v:val="VT0(0.15748031496063):24"/>
				<v:ud v:nameU="BotRightOffset" v:prompt="" v:val="VT0(0.15748031496063):24"/>
				<v:ud v:nameU="visVersion" v:prompt="" v:val="VT0(15):26"/>
				<v:ud v:nameU="TopLeftOffset" v:prompt="" v:val="VT0(0.1259842519685):1"/>
				<v:ud v:nameU="TopRightOffset" v:prompt="" v:val="VT0(0.1259842519685):1"/>
				<v:ud v:nameU="BotLeftOffset" v:prompt="" v:val="VT0(0.1259842519685):1"/>
				<v:ud v:nameU="BotRightOffset" v:prompt="" v:val="VT0(0.1259842519685):1"/>
			</v:userDefs>
			<path d="M9.07 595.28 L81.64 595.28 A9.07072 9.07072 -180 0 0 90.71 586.2 L90.71 585.21 A9.07072 9.07072 -180 0 0 81.64
						 576.14 L9.07 576.14 A9.07072 9.07072 -180 0 0 0 585.21 L0 586.2 A9.07072 9.07072 -180 0 0 9.07 595.28 Z"
					class="st1"/>
		</g>
		<g id="shape26-3" v:mID="26" v:groupContext="shape" transform="translate(393.024,-340.765)">
			<title>Rounded Rectangle.26</title>
			<v:userDefs>
				<v:ud v:nameU="CTypeTopLeftSnip" v:prompt="" v:val="VT0(0):5"/>
				<v:ud v:nameU="CTypeTopRightSnip" v:prompt="" v:val="VT0(0):5"/>
				<v:ud v:nameU="CTypeBotLeftSnip" v:prompt="" v:val="VT0(0):5"/>
				<v:ud v:nameU="CTypeBotRightSnip" v:prompt="" v:val="VT0(0):5"/>
				<v:ud v:nameU="CornerLockHoriz" v:prompt="" v:val="VT0(1):5"/>
				<v:ud v:nameU="CornerLockVert" v:prompt="" v:val="VT0(1):5"/>
				<v:ud v:nameU="CornerLockDiag" v:prompt="" v:val="VT0(0):5"/>
				<v:ud v:nameU="TopLeftOffset" v:prompt="" v:val="VT0(0.15748031496063):24"/>
				<v:ud v:nameU="TopRightOffset" v:prompt="" v:val="VT0(0.15748031496063):24"/>
				<v:ud v:nameU="BotLeftOffset" v:prompt="" v:val="VT0(0.15748031496063):24"/>
				<v:ud v:nameU="BotRightOffset" v:prompt="" v:val="VT0(0.15748031496063):24"/>
				<v:ud v:nameU="visVersion" v:prompt="" v:val="VT0(15):26"/>
				<v:ud v:nameU="TopLeftOffset" v:prompt="" v:val="VT0(0.1259842519685):1"/>
				<v:ud v:nameU="TopRightOffset" v:prompt="" v:val="VT0(0.1259842519685):1"/>
				<v:ud v:nameU="BotLeftOffset" v:prompt="" v:val="VT0(0.1259842519685):1"/>
				<v:ud v:nameU="BotRightOffset" v:prompt="" v:val="VT0(0.1259842519685):1"/>
			</v:userDefs>
			<path d="M9.07 595.28 L81.64 595.28 A9.07072 9.07072 -180 0 0 90.71 586.2 L90.71 585.21 A9.07072 9.07072 -180 0 0 81.64
						 576.14 L9.07 576.14 A9.07072 9.07072 -180 0 0 0 585.21 L0 586.2 A9.07072 9.07072 -180 0 0 9.07 595.28 Z"
					class="st1"/>
		</g>
		<g id="group5-5" transform="translate(56.6929,-378.678)" v:mID="5" v:groupContext="group">
			<title>Sheet.5</title>
			<g id="shape1-6" v:mID="1" v:groupContext="shape" transform="translate(-1.59872E-14,-42.5197)">
				<title>Rounded Rectangle</title>
				<v:userDefs>
					<v:ud v:nameU="CTypeTopLeftSnip" v:prompt="" v:val="VT0(0):5"/>
					<v:ud v:nameU="CTypeTopRightSnip" v:prompt="" v:val="VT0(0):5"/>
					<v:ud v:nameU="CTypeBotLeftSnip" v:prompt="" v:val="VT0(0):5"/>
					<v:ud v:nameU="CTypeBotRightSnip" v:prompt="" v:val="VT0(0):5"/>
					<v:ud v:nameU="CornerLockHoriz" v:prompt="" v:val="VT0(1):5"/>
					<v:ud v:nameU="CornerLockVert" v:prompt="" v:val="VT0(1):5"/>
					<v:ud v:nameU="CornerLockDiag" v:prompt="" v:val="VT0(0):5"/>
					<v:ud v:nameU="TopLeftOffset" v:prompt="" v:val="VT0(0.15748031496063):24"/>
					<v:ud v:nameU="TopRightOffset" v:prompt="" v:val="VT0(0.15748031496063):24"/>
					<v:ud v:nameU="BotLeftOffset" v:prompt="" v:val="VT0(0.15748031496063):24"/>
					<v:ud v:nameU="BotRightOffset" v:prompt="" v:val="VT0(0.15748031496063):24"/>
					<v:ud v:nameU="visVersion" v:prompt="" v:val="VT0(15):26"/>
					<v:ud v:nameU="TopLeftOffset" v:prompt="" v:val="VT0(0.1259842519685):1"/>
					<v:ud v:nameU="TopRightOffset" v:prompt="" v:val="VT0(0.1259842519685):1"/>
					<v:ud v:nameU="BotLeftOffset" v:prompt="" v:val="VT0(0.1259842519685):1"/>
					<v:ud v:nameU="BotRightOffset" v:prompt="" v:val="VT0(0.1259842519685):1"/>
				</v:userDefs>
				<path d="M9.07 595.28 L81.64 595.28 A9.07072 9.07072 -180 0 0 90.71 586.2 L90.71 561.83 A9.07072 9.07072 -180 0 0
							 81.64 552.76 L9.07 552.76 A9.07072 9.07072 -180 0 0 0 561.83 L0 586.2 A9.07072 9.07072 -180 0 0 9.07
							 595.28 Z" class="st1"/>
			</g>
			<g id="shape2-8" v:mID="2" v:groupContext="shape" transform="translate(11.3386,-28.3465)">
				<title>Rounded Rectangle.2</title>
				<v:userDefs>
					<v:ud v:nameU="CTypeTopLeftSnip" v:prompt="" v:val="VT0(0):5"/>
					<v:ud v:nameU="CTypeTopRightSnip" v:prompt="" v:val="VT0(0):5"/>
					<v:ud v:nameU="CTypeBotLeftSnip" v:prompt="" v:val="VT0(0):5"/>
					<v:ud v:nameU="CTypeBotRightSnip" v:prompt="" v:val="VT0(0):5"/>
					<v:ud v:nameU="CornerLockHoriz" v:prompt="" v:val="VT0(1):5"/>
					<v:ud v:nameU="CornerLockVert" v:prompt="" v:val="VT0(1):5"/>
					<v:ud v:nameU="CornerLockDiag" v:prompt="" v:val="VT0(0):5"/>
					<v:ud v:nameU="TopLeftOffset" v:prompt="" v:val="VT0(0.15748031496063):24"/>
					<v:ud v:nameU="TopRightOffset" v:prompt="" v:val="VT0(0.15748031496063):24"/>
					<v:ud v:nameU="BotLeftOffset" v:prompt="" v:val="VT0(0.15748031496063):24"/>
					<v:ud v:nameU="BotRightOffset" v:prompt="" v:val="VT0(0.15748031496063):24"/>
					<v:ud v:nameU="visVersion" v:prompt="" v:val="VT0(15):26"/>
					<v:ud v:nameU="TopLeftOffset" v:prompt="" v:val="VT0(0.1259842519685):1"/>
					<v:ud v:nameU="TopRightOffset" v:prompt="" v:val="VT0(0.1259842519685):1"/>
					<v:ud v:nameU="BotLeftOffset" v:prompt="" v:val="VT0(0.1259842519685):1"/>
					<v:ud v:nameU="BotRightOffset" v:prompt="" v:val="VT0(0.1259842519685):1"/>
				</v:userDefs>
				<path d="M9.07 595.28 L81.64 595.28 A9.07072 9.07072 -180 0 0 90.71 586.2 L90.71 561.83 A9.07072 9.07072 -180 0 0
							 81.64 552.76 L9.07 552.76 A9.07072 9.07072 -180 0 0 0 561.83 L0 586.2 A9.07072 9.07072 -180 0 0 9.07
							 595.28 Z" class="st1"/>
			</g>
			<g id="shape3-10" v:mID="3" v:groupContext="shape" transform="translate(22.6772,-14.1732)">
				<title>Rounded Rectangle.3</title>
				<v:userDefs>
					<v:ud v:nameU="CTypeTopLeftSnip" v:prompt="" v:val="VT0(0):5"/>
					<v:ud v:nameU="CTypeTopRightSnip" v:prompt="" v:val="VT0(0):5"/>
					<v:ud v:nameU="CTypeBotLeftSnip" v:prompt="" v:val="VT0(0):5"/>
					<v:ud v:nameU="CTypeBotRightSnip" v:prompt="" v:val="VT0(0):5"/>
					<v:ud v:nameU="CornerLockHoriz" v:prompt="" v:val="VT0(1):5"/>
					<v:ud v:nameU="CornerLockVert" v:prompt="" v:val="VT0(1):5"/>
					<v:ud v:nameU="CornerLockDiag" v:prompt="" v:val="VT0(0):5"/>
					<v:ud v:nameU="TopLeftOffset" v:prompt="" v:val="VT0(0.15748031496063):24"/>
					<v:ud v:nameU="TopRightOffset" v:prompt="" v:val="VT0(0.15748031496063):24"/>
					<v:ud v:nameU="BotLeftOffset" v:prompt="" v:val="VT0(0.15748031496063):24"/>
					<v:ud v:nameU="BotRightOffset" v:prompt="" v:val="VT0(0.15748031496063):24"/>
					<v:ud v:nameU="visVersion" v:prompt="" v:val="VT0(15):26"/>
					<v:ud v:nameU="TopLeftOffset" v:prompt="" v:val="VT0(0.1259842519685):1"/>
					<v:ud v:nameU="TopRightOffset" v:prompt="" v:val="VT0(0.1259842519685):1"/>
					<v:ud v:nameU="BotLeftOffset" v:prompt="" v:val="VT0(0.1259842519685):1"/>
					<v:ud v:nameU="BotRightOffset" v:prompt="" v:val="VT0(0.1259842519685):1"/>
				</v:userDefs>
				<path d="M9.07 595.28 L81.64 595.28 A9.07072 9.07072 -180 0 0 90.71 586.2 L90.71 561.83 A9.07072 9.07072 -180 0 0
							 81.64 552.76 L9.07 552.76 A9.07072 9.07072 -180 0 0 0 561.83 L0 586.2 A9.07072 9.07072 -180 0 0 9.07
							 595.28 Z" class="st1"/>
			</g>
			<g id="shape4-12" v:mID="4" v:groupContext="shape" transform="translate(34.0157,0)">
				<title>Rounded Rectangle.4</title>
				<desc>Device</desc>
				<v:userDefs>
					<v:ud v:nameU="CTypeTopLeftSnip" v:prompt="" v:val="VT0(0):5"/>
					<v:ud v:nameU="CTypeTopRightSnip" v:prompt="" v:val="VT0(0):5"/>
					<v:ud v:nameU="CTypeBotLeftSnip" v:prompt="" v:val="VT0(0):5"/>
					<v:ud v:nameU="CTypeBotRightSnip" v:prompt="" v:val="VT0(0):5"/>
					<v:ud v:nameU="CornerLockHoriz" v:prompt="" v:val="VT0(1):5"/>
					<v:ud v:nameU="CornerLockVert" v:prompt="" v:val="VT0(1):5"/>
					<v:ud v:nameU="CornerLockDiag" v:prompt="" v:val="VT0(0):5"/>
					<v:ud v:nameU="TopLeftOffset" v:prompt="" v:val="VT0(0.15748031496063):24"/>
					<v:ud v:nameU="TopRightOffset" v:prompt="" v:val="VT0(0.15748031496063):24"/>
					<v:ud v:nameU="BotLeftOffset" v:prompt="" v:val="VT0(0.15748031496063):24"/>
					<v:ud v:nameU="BotRightOffset" v:prompt="" v:val="VT0(0.15748031496063):24"/>
					<v:ud v:nameU="visVersion" v:prompt="" v:val="VT0(15):26"/>
					<v:ud v:nameU="TopLeftOffset" v:prompt="" v:val="VT0(0.1259842519685):1"/>
					<v:ud v:nameU="TopRightOffset" v:prompt="" v:val="VT0(0.1259842519685):1"/>
					<v:ud v:nameU="BotLeftOffset" v:prompt="" v:val="VT0(0.1259842519685):1"/>
					<v:ud v:nameU="BotRightOffset" v:prompt="" v:val="VT0(0.1259842519685):1"/>
				</v:userDefs>
				<v:textBlock v:margins="rect(4,4,4,4)" v:tabSpace="42.5197"/>
				<v:textRect cx="45.3543" cy="574.016" width="90.71" height="42.5197"/>
				<path d="M9.07 595.28 L81.64 595.28 A9.07072 9.07072 -180 0 0 90.71 586.2 L90.71 561.83 A9.07072 9.07072 -180 0 0
							 81.64 552.76 L9.07 552.76 A9.07072 9.07072 -180 0 0 0 561.83 L0 586.2 A9.07072 9.07072 -180 0 0 9.07
							 595.28 Z" class="st1"/>
				<text x="20.93" y="579.42" class="st2" v:langID="2057"><v:paragraph v:horizAlign="1"/><v:tabList/>Device</text>			</g>
		</g>
		<g id="shape6-15" v:mID="6" v:groupContext="shape" transform="translate(188.929,-261.749)">
			<title>Rounded Rectangle.4</title>
			<desc>Field Gateway</desc>
			<v:userDefs>
				<v:ud v:nameU="CTypeTopLeftSnip" v:prompt="" v:val="VT0(0):5"/>
				<v:ud v:nameU="CTypeTopRightSnip" v:prompt="" v:val="VT0(0):5"/>
				<v:ud v:nameU="CTypeBotLeftSnip" v:prompt="" v:val="VT0(0):5"/>
				<v:ud v:nameU="CTypeBotRightSnip" v:prompt="" v:val="VT0(0):5"/>
				<v:ud v:nameU="CornerLockHoriz" v:prompt="" v:val="VT0(1):5"/>
				<v:ud v:nameU="CornerLockVert" v:prompt="" v:val="VT0(1):5"/>
				<v:ud v:nameU="CornerLockDiag" v:prompt="" v:val="VT0(0):5"/>
				<v:ud v:nameU="TopLeftOffset" v:prompt="" v:val="VT0(0.15748031496063):24"/>
				<v:ud v:nameU="TopRightOffset" v:prompt="" v:val="VT0(0.15748031496063):24"/>
				<v:ud v:nameU="BotLeftOffset" v:prompt="" v:val="VT0(0.15748031496063):24"/>
				<v:ud v:nameU="BotRightOffset" v:prompt="" v:val="VT0(0.15748031496063):24"/>
				<v:ud v:nameU="visVersion" v:prompt="" v:val="VT0(15):26"/>
				<v:ud v:nameU="TopLeftOffset" v:prompt="" v:val="VT0(0.1259842519685):1"/>
				<v:ud v:nameU="TopRightOffset" v:prompt="" v:val="VT0(0.1259842519685):1"/>
				<v:ud v:nameU="BotLeftOffset" v:prompt="" v:val="VT0(0.1259842519685):1"/>
				<v:ud v:nameU="BotRightOffset" v:prompt="" v:val="VT0(0.1259842519685):1"/>
			</v:userDefs>
			<v:textBlock v:margins="rect(4,4,4,4)" v:tabSpace="42.5197"/>
			<v:textRect cx="45.3543" cy="563.386" width="90.71" height="63.7795"/>
			<path d="M9.07 595.28 L81.64 595.28 A9.07072 9.07072 -180 0 0 90.71 586.2 L90.71 540.57 A9.07072 9.07072 -180 0 0 81.64
						 531.5 L9.07 531.5 A9.07072 9.07072 -180 0 0 0 540.57 L0 586.2 A9.07072 9.07072 -180 0 0 9.07 595.28 Z"
					class="st1"/>
			<text x="27.88" y="557.99" class="st2" v:langID="2057"><v:paragraph v:horizAlign="1"/><v:tabList/>Field <tspan
						x="13.05" dy="1.2em" class="st3">Gateway</tspan></text>		</g>
		<g id="shape7-19" v:mID="7" v:groupContext="shape" transform="translate(393.024,-262.103)">
			<title>Rounded Rectangle.7</title>
			<desc>Cloud Gateway</desc>
			<v:userDefs>
				<v:ud v:nameU="CTypeTopLeftSnip" v:prompt="" v:val="VT0(0):5"/>
				<v:ud v:nameU="CTypeTopRightSnip" v:prompt="" v:val="VT0(0):5"/>
				<v:ud v:nameU="CTypeBotLeftSnip" v:prompt="" v:val="VT0(0):5"/>
				<v:ud v:nameU="CTypeBotRightSnip" v:prompt="" v:val="VT0(0):5"/>
				<v:ud v:nameU="CornerLockHoriz" v:prompt="" v:val="VT0(1):5"/>
				<v:ud v:nameU="CornerLockVert" v:prompt="" v:val="VT0(1):5"/>
				<v:ud v:nameU="CornerLockDiag" v:prompt="" v:val="VT0(0):5"/>
				<v:ud v:nameU="TopLeftOffset" v:prompt="" v:val="VT0(0.15748031496063):24"/>
				<v:ud v:nameU="TopRightOffset" v:prompt="" v:val="VT0(0.15748031496063):24"/>
				<v:ud v:nameU="BotLeftOffset" v:prompt="" v:val="VT0(0.15748031496063):24"/>
				<v:ud v:nameU="BotRightOffset" v:prompt="" v:val="VT0(0.15748031496063):24"/>
				<v:ud v:nameU="visVersion" v:prompt="" v:val="VT0(15):26"/>
				<v:ud v:nameU="TopLeftOffset" v:prompt="" v:val="VT0(0.1259842519685):1"/>
				<v:ud v:nameU="TopRightOffset" v:prompt="" v:val="VT0(0.1259842519685):1"/>
				<v:ud v:nameU="BotLeftOffset" v:prompt="" v:val="VT0(0.1259842519685):1"/>
				<v:ud v:nameU="BotRightOffset" v:prompt="" v:val="VT0(0.1259842519685):1"/>
			</v:userDefs>
			<v:textBlock v:margins="rect(4,4,4,4)" v:tabSpace="42.5197"/>
			<v:textRect cx="45.3543" cy="464.528" width="90.71" height="261.496"/>
			<path d="M9.07 595.28 L81.64 595.28 A9.07072 9.07072 -180 0 0 90.71 586.2 L90.71 342.85 A9.07072 9.07072 -180 0 0 81.64
						 333.78 L9.07 333.78 A9.07072 9.07072 -180 0 0 0 342.85 L0 586.2 A9.07072 9.07072 -180 0 0 9.07 595.28 Z"
					class="st1"/>
			<text x="24.29" y="459.13" class="st2" v:langID="2057"><v:paragraph v:horizAlign="1"/><v:tabList/>Cloud <tspan
						x="13.05" dy="1.2em" class="st3">Gateway</tspan></text>		</g>
		<g id="shape8-23" v:mID="8" v:groupContext="shape" transform="translate(527.669,-460.63)">
			<title>Rounded Rectangle.8</title>
			<desc>Device Registry</desc>
			<v:userDefs>
				<v:ud v:nameU="CTypeTopLeftSnip" v:prompt="" v:val="VT0(0):5"/>
				<v:ud v:nameU="CTypeTopRightSnip" v:prompt="" v:val="VT0(0):5"/>
				<v:ud v:nameU="CTypeBotLeftSnip" v:prompt="" v:val="VT0(0):5"/>
				<v:ud v:nameU="CTypeBotRightSnip" v:prompt="" v:val="VT0(0):5"/>
				<v:ud v:nameU="CornerLockHoriz" v:prompt="" v:val="VT0(1):5"/>
				<v:ud v:nameU="CornerLockVert" v:prompt="" v:val="VT0(1):5"/>
				<v:ud v:nameU="CornerLockDiag" v:prompt="" v:val="VT0(0):5"/>
				<v:ud v:nameU="TopLeftOffset" v:prompt="" v:val="VT0(0.15748031496063):24"/>
				<v:ud v:nameU="TopRightOffset" v:prompt="" v:val="VT0(0.15748031496063):24"/>
				<v:ud v:nameU="BotLeftOffset" v:prompt="" v:val="VT0(0.15748031496063):24"/>
				<v:ud v:nameU="BotRightOffset" v:prompt="" v:val="VT0(0.15748031496063):24"/>
				<v:ud v:nameU="visVersion" v:prompt="" v:val="VT0(15):26"/>
				<v:ud v:nameU="TopLeftOffset" v:prompt="" v:val="VT0(0.1259842519685):1"/>
				<v:ud v:nameU="TopRightOffset" v:prompt="" v:val="VT0(0.1259842519685):1"/>
				<v:ud v:nameU="BotLeftOffset" v:prompt="" v:val="VT0(0.1259842519685):1"/>
				<v:ud v:nameU="BotRightOffset" v:prompt="" v:val="VT0(0.1259842519685):1"/>
			</v:userDefs>
			<v:textBlock v:margins="rect(4,4,4,4)" v:tabSpace="42.5197"/>
			<v:textRect cx="45.3543" cy="563.386" width="90.71" height="63.7795"/>
			<path d="M9.07 595.28 L81.64 595.28 A9.07072 9.07072 -180 0 0 90.71 586.2 L90.71 540.57 A9.07072 9.07072 -180 0 0 81.64
						 531.5 L9.07 531.5 A9.07072 9.07072 -180 0 0 0 540.57 L0 586.2 A9.07072 9.07072 -180 0 0 9.07 595.28 Z"
					class="st1"/>
			<text x="20.93" y="557.99" class="st2" v:langID="2057"><v:paragraph v:horizAlign="1"/><v:tabList/>Device <tspan
						x="15.94" dy="1.2em" class="st3">Registry</tspan></text>		</g>
		<g id="shape9-27" v:mID="9" v:groupContext="shape" transform="translate(527.669,-360.962)">
			<title>Rounded Rectangle.9</title>
			<desc>Event Stream</desc>
			<v:userDefs>
				<v:ud v:nameU="CTypeTopLeftSnip" v:prompt="" v:val="VT0(0):5"/>
				<v:ud v:nameU="CTypeTopRightSnip" v:prompt="" v:val="VT0(0):5"/>
				<v:ud v:nameU="CTypeBotLeftSnip" v:prompt="" v:val="VT0(0):5"/>
				<v:ud v:nameU="CTypeBotRightSnip" v:prompt="" v:val="VT0(0):5"/>
				<v:ud v:nameU="CornerLockHoriz" v:prompt="" v:val="VT0(1):5"/>
				<v:ud v:nameU="CornerLockVert" v:prompt="" v:val="VT0(1):5"/>
				<v:ud v:nameU="CornerLockDiag" v:prompt="" v:val="VT0(0):5"/>
				<v:ud v:nameU="TopLeftOffset" v:prompt="" v:val="VT0(0.15748031496063):24"/>
				<v:ud v:nameU="TopRightOffset" v:prompt="" v:val="VT0(0.15748031496063):24"/>
				<v:ud v:nameU="BotLeftOffset" v:prompt="" v:val="VT0(0.15748031496063):24"/>
				<v:ud v:nameU="BotRightOffset" v:prompt="" v:val="VT0(0.15748031496063):24"/>
				<v:ud v:nameU="visVersion" v:prompt="" v:val="VT0(15):26"/>
				<v:ud v:nameU="TopLeftOffset" v:prompt="" v:val="VT0(0.1259842519685):1"/>
				<v:ud v:nameU="TopRightOffset" v:prompt="" v:val="VT0(0.1259842519685):1"/>
				<v:ud v:nameU="BotLeftOffset" v:prompt="" v:val="VT0(0.1259842519685):1"/>
				<v:ud v:nameU="BotRightOffset" v:prompt="" v:val="VT0(0.1259842519685):1"/>
			</v:userDefs>
			<v:textBlock v:margins="rect(4,4,4,4)" v:tabSpace="42.5197"/>
			<v:textRect cx="45.3543" cy="563.386" width="90.71" height="63.7795"/>
			<path d="M9.07 595.28 L81.64 595.28 A9.07072 9.07072 -180 0 0 90.71 586.2 L90.71 540.57 A9.07072 9.07072 -180 0 0 81.64
						 531.5 L9.07 531.5 A9.07072 9.07072 -180 0 0 0 540.57 L0 586.2 A9.07072 9.07072 -180 0 0 9.07 595.28 Z"
					class="st1"/>
			<text x="24.67" y="557.99" class="st2" v:langID="2057"><v:paragraph v:horizAlign="1"/><v:tabList/>Event <tspan
						x="19.09" dy="1.2em" class="st3">Stream</tspan></text>		</g>
		<g id="shape10-31" v:mID="10" v:groupContext="shape" transform="translate(527.669,-262.913)">
			<title>Rounded Rectangle.10</title>
			<desc>Command &#38; Control</desc>
			<v:userDefs>
				<v:ud v:nameU="CTypeTopLeftSnip" v:prompt="" v:val="VT0(0):5"/>
				<v:ud v:nameU="CTypeTopRightSnip" v:prompt="" v:val="VT0(0):5"/>
				<v:ud v:nameU="CTypeBotLeftSnip" v:prompt="" v:val="VT0(0):5"/>
				<v:ud v:nameU="CTypeBotRightSnip" v:prompt="" v:val="VT0(0):5"/>
				<v:ud v:nameU="CornerLockHoriz" v:prompt="" v:val="VT0(1):5"/>
				<v:ud v:nameU="CornerLockVert" v:prompt="" v:val="VT0(1):5"/>
				<v:ud v:nameU="CornerLockDiag" v:prompt="" v:val="VT0(0):5"/>
				<v:ud v:nameU="TopLeftOffset" v:prompt="" v:val="VT0(0.15748031496063):24"/>
				<v:ud v:nameU="TopRightOffset" v:prompt="" v:val="VT0(0.15748031496063):24"/>
				<v:ud v:nameU="BotLeftOffset" v:prompt="" v:val="VT0(0.15748031496063):24"/>
				<v:ud v:nameU="BotRightOffset" v:prompt="" v:val="VT0(0.15748031496063):24"/>
				<v:ud v:nameU="visVersion" v:prompt="" v:val="VT0(15):26"/>
				<v:ud v:nameU="TopLeftOffset" v:prompt="" v:val="VT0(0.068718682891912):1"/>
				<v:ud v:nameU="TopRightOffset" v:prompt="" v:val="VT0(0.068718682891912):1"/>
				<v:ud v:nameU="BotLeftOffset" v:prompt="" v:val="VT0(0.068718682891912):1"/>
				<v:ud v:nameU="BotRightOffset" v:prompt="" v:val="VT0(0.068718682891912):1"/>
			</v:userDefs>
			<v:textBlock v:margins="rect(4,4,4,4)" v:tabSpace="42.5197"/>
			<v:textRect cx="45.3543" cy="563.386" width="90.71" height="63.7795"/>
			<path d="M4.95 595.28 L85.76 595.28 A4.94766 4.94766 -180 0 0 90.71 590.33 L90.71 536.44 A4.94766 4.94766 -180 0 0 85.76
						 531.5 L4.95 531.5 A4.94766 4.94766 -180 0 0 -0 536.44 L0 590.33 A4.94766 4.94766 -180 0 0 4.95 595.28 Z"
					class="st1"/>
			<text x="7.66" y="557.99" class="st2" v:langID="2057"><v:paragraph v:horizAlign="1"/><v:tabList/>Command <tspan
						x="9.94" dy="1.2em" class="st3">&#38; Control</tspan></text>		</g>
		<g id="shape14-35" v:mID="14" v:groupContext="shape" transform="translate(673.654,-439.37)">
			<title>Rounded Rectangle.14</title>
			<desc>Analytics</desc>
			<v:userDefs>
				<v:ud v:nameU="CTypeTopLeftSnip" v:prompt="" v:val="VT0(0):5"/>
				<v:ud v:nameU="CTypeTopRightSnip" v:prompt="" v:val="VT0(0):5"/>
				<v:ud v:nameU="CTypeBotLeftSnip" v:prompt="" v:val="VT0(0):5"/>
				<v:ud v:nameU="CTypeBotRightSnip" v:prompt="" v:val="VT0(0):5"/>
				<v:ud v:nameU="CornerLockHoriz" v:prompt="" v:val="VT0(1):5"/>
				<v:ud v:nameU="CornerLockVert" v:prompt="" v:val="VT0(1):5"/>
				<v:ud v:nameU="CornerLockDiag" v:prompt="" v:val="VT0(0):5"/>
				<v:ud v:nameU="TopLeftOffset" v:prompt="" v:val="VT0(0.15748031496063):24"/>
				<v:ud v:nameU="TopRightOffset" v:prompt="" v:val="VT0(0.15748031496063):24"/>
				<v:ud v:nameU="BotLeftOffset" v:prompt="" v:val="VT0(0.15748031496063):24"/>
				<v:ud v:nameU="BotRightOffset" v:prompt="" v:val="VT0(0.15748031496063):24"/>
				<v:ud v:nameU="visVersion" v:prompt="" v:val="VT0(15):26"/>
				<v:ud v:nameU="TopLeftOffset" v:prompt="" v:val="VT0(0.1259842519685):1"/>
				<v:ud v:nameU="TopRightOffset" v:prompt="" v:val="VT0(0.1259842519685):1"/>
				<v:ud v:nameU="BotLeftOffset" v:prompt="" v:val="VT0(0.1259842519685):1"/>
				<v:ud v:nameU="BotRightOffset" v:prompt="" v:val="VT0(0.1259842519685):1"/>
			</v:userDefs>
			<v:textBlock v:margins="rect(4,4,4,4)" v:tabSpace="42.5197"/>
			<v:textRect cx="45.3543" cy="563.386" width="90.71" height="63.7795"/>
			<path d="M9.07 595.28 L81.64 595.28 A9.07072 9.07072 -180 0 0 90.71 586.2 L90.71 540.57 A9.07072 9.07072 -180 0 0 81.64
						 531.5 L9.07 531.5 A9.07072 9.07072 -180 0 0 0 540.57 L0 586.2 A9.07072 9.07072 -180 0 0 9.07 595.28 Z"
					class="st1"/>
			<text x="12.56" y="568.79" class="st2" v:langID="2057"><v:paragraph v:horizAlign="1"/><v:tabList/>Analytics</text>		</g>
		<g id="shape16-38" v:mID="16" v:groupContext="shape" transform="translate(673.654,-282.553)">
			<title>Rounded Rectangle.16</title>
			<desc>Business Logic</desc>
			<v:userDefs>
				<v:ud v:nameU="CTypeTopLeftSnip" v:prompt="" v:val="VT0(0):5"/>
				<v:ud v:nameU="CTypeTopRightSnip" v:prompt="" v:val="VT0(0):5"/>
				<v:ud v:nameU="CTypeBotLeftSnip" v:prompt="" v:val="VT0(0):5"/>
				<v:ud v:nameU="CTypeBotRightSnip" v:prompt="" v:val="VT0(0):5"/>
				<v:ud v:nameU="CornerLockHoriz" v:prompt="" v:val="VT0(1):5"/>
				<v:ud v:nameU="CornerLockVert" v:prompt="" v:val="VT0(1):5"/>
				<v:ud v:nameU="CornerLockDiag" v:prompt="" v:val="VT0(0):5"/>
				<v:ud v:nameU="TopLeftOffset" v:prompt="" v:val="VT0(0.15748031496063):24"/>
				<v:ud v:nameU="TopRightOffset" v:prompt="" v:val="VT0(0.15748031496063):24"/>
				<v:ud v:nameU="BotLeftOffset" v:prompt="" v:val="VT0(0.15748031496063):24"/>
				<v:ud v:nameU="BotRightOffset" v:prompt="" v:val="VT0(0.15748031496063):24"/>
				<v:ud v:nameU="visVersion" v:prompt="" v:val="VT0(15):26"/>
				<v:ud v:nameU="TopLeftOffset" v:prompt="" v:val="VT0(0.1259842519685):1"/>
				<v:ud v:nameU="TopRightOffset" v:prompt="" v:val="VT0(0.1259842519685):1"/>
				<v:ud v:nameU="BotLeftOffset" v:prompt="" v:val="VT0(0.1259842519685):1"/>
				<v:ud v:nameU="BotRightOffset" v:prompt="" v:val="VT0(0.1259842519685):1"/>
			</v:userDefs>
			<v:textBlock v:margins="rect(4,4,4,4)" v:tabSpace="42.5197"/>
			<v:textRect cx="45.3543" cy="563.386" width="90.71" height="63.7795"/>
			<path d="M9.07 595.28 L81.64 595.28 A9.07072 9.07072 -180 0 0 90.71 586.2 L90.71 540.57 A9.07072 9.07072 -180 0 0 81.64
						 531.5 L9.07 531.5 A9.07072 9.07072 -180 0 0 0 540.57 L0 586.2 A9.07072 9.07072 -180 0 0 9.07 595.28 Z"
					class="st1"/>
			<text x="13.9" y="557.99" class="st2" v:langID="2057"><v:paragraph v:horizAlign="1"/><v:tabList/>Business <tspan
						x="26.72" dy="1.2em" class="st3">Logic</tspan></text>		</g>
		<g id="shape19-42" v:mID="19" v:groupContext="shape" v:layerMember="0" transform="translate(136.063,-378.678)">
			<title>Dynamic connector</title>
			<path d="M0.09 609.23 L0.09 609.59 C0.46 629.59 2.28 653.65 11.18 666.29 C17.81 675.7 28.35 678.79 38.56 679.81 L38.92
						 679.83" class="st4"/>
		</g>
		<g id="shape20-51" v:mID="20" v:groupContext="shape" v:layerMember="0" transform="translate(178.76,-418.541)">
			<title>Dynamic connector.20</title>
			<path d="M13.79 593.15 L14.14 593.09 C47.16 588.07 59.41 586.9 85.92 584.74 C113.48 582.49 156.46 579.18 199.95 579.33
						 L200.31 579.33" class="st4"/>
		</g>
		<g id="shape21-58" v:mID="21" v:groupContext="shape" v:layerMember="0" transform="translate(279.638,-293.639)">
			<title>Dynamic connector.21</title>
			<path d="M13.92 594.33 L14.28 594.31 C46.01 590.5 45.5 576.74 57.04 562.98 C65.61 552.76 80.82 542.54 99.1 539.45 L99.46
						 539.43" class="st4"/>
		</g>
		<g id="shape23-65" v:mID="23" v:groupContext="shape" v:layerMember="0" transform="translate(483.732,-385.765)">
			<title>Dynamic connector.23</title>
			<path d="M0 588.19 C5.67 588.19 13.62 588.17 24 588.19 C25.84 588.2 27.75 588.2 29.63 588.21 L29.99 588.21" class="st6"/>
		</g>
		<g id="shape24-70" v:mID="24" v:groupContext="shape" v:layerMember="0" transform="translate(527.669,-294.803)">
			<title>Dynamic connector.24</title>
			<path d="M0 595.28 C-10.63 595.28 -10.63 582.33 -10.63 569.39 C-10.63 557.09 -10.63 544.78 -29.68 540.96 L-30.04 540.93"
					class="st6"/>
		</g>
		<g id="shape27-75" v:mID="27" v:groupContext="shape" v:layerMember="0" transform="translate(527.669,-492.52)">
			<title>Dynamic connector.27</title>
			<path d="M0 595.28 C-10.63 595.28 -20.61 608.63 -21.23 622.26 C-21.81 634.85 -14.39 647.68 -29.71 651.98 L-30.06 652.02"
					class="st6"/>
		</g>
		<g id="shape28-80" v:mID="28" v:groupContext="shape" v:layerMember="0" transform="translate(618.378,-392.852)">
			<title>Dynamic connector.28</title>
			<path d="M0 595.28 C10.63 595.28 10.63 613.59 10.63 631.91 C10.63 650.28 10.63 668.65 40.99 672.81 L41.35 672.83"
					class="st6"/>
		</g>
		<g id="shape29-85" v:mID="29" v:groupContext="shape" v:layerMember="0" transform="translate(618.378,-385.765)">
			<title>Dynamic connector.29</title>
			<path d="M0 588.19 C9.94 588.19 27.02 588.19 40.97 588.19" class="st7"/>
		</g>
		<g id="shape30-91" v:mID="30" v:groupContext="shape" v:layerMember="0" transform="translate(618.378,-392.852)">
			<title>Dynamic connector.30</title>
			<path d="M0 595.28 C10.63 595.28 10.63 576.96 10.63 558.64 C10.63 540.27 10.63 521.91 40.99 517.74 L41.35 517.72"
					class="st6"/>
		</g>
		<g id="shape33-96" v:mID="33" v:groupContext="shape" v:layerMember="0" transform="translate(719.008,-282.553)">
			<title>Dynamic connector.33</title>
			<path d="M0 595.28 C-0 640.88 -23.27 644.64 -65.63 648.39 C-98.03 651.26 -141.61 654.13 -146.71 629.21 L-146.69 628.85"
					class="st6"/>
		</g>
		<g id="shape68-101" v:mID="68" v:groupContext="shape" transform="translate(673.654,-360.962)">
			<title>Rounded Rectangle.11</title>
			<desc>Storage</desc>
			<v:userDefs>
				<v:ud v:nameU="CTypeTopLeftSnip" v:prompt="" v:val="VT0(0):5"/>
				<v:ud v:nameU="CTypeTopRightSnip" v:prompt="" v:val="VT0(0):5"/>
				<v:ud v:nameU="CTypeBotLeftSnip" v:prompt="" v:val="VT0(0):5"/>
				<v:ud v:nameU="CTypeBotRightSnip" v:prompt="" v:val="VT0(0):5"/>
				<v:ud v:nameU="CornerLockHoriz" v:prompt="" v:val="VT0(1):5"/>
				<v:ud v:nameU="CornerLockVert" v:prompt="" v:val="VT0(1):5"/>
				<v:ud v:nameU="CornerLockDiag" v:prompt="" v:val="VT0(0):5"/>
				<v:ud v:nameU="TopLeftOffset" v:prompt="" v:val="VT0(0.15748031496063):24"/>
				<v:ud v:nameU="TopRightOffset" v:prompt="" v:val="VT0(0.15748031496063):24"/>
				<v:ud v:nameU="BotLeftOffset" v:prompt="" v:val="VT0(0.15748031496063):24"/>
				<v:ud v:nameU="BotRightOffset" v:prompt="" v:val="VT0(0.15748031496063):24"/>
				<v:ud v:nameU="visVersion" v:prompt="" v:val="VT0(15):26"/>
				<v:ud v:nameU="TopLeftOffset" v:prompt="" v:val="VT0(0.1259842519685):1"/>
				<v:ud v:nameU="TopRightOffset" v:prompt="" v:val="VT0(0.1259842519685):1"/>
				<v:ud v:nameU="BotLeftOffset" v:prompt="" v:val="VT0(0.1259842519685):1"/>
				<v:ud v:nameU="BotRightOffset" v:prompt="" v:val="VT0(0.1259842519685):1"/>
			</v:userDefs>
			<v:textBlock v:margins="rect(4,4,4,4)" v:tabSpace="42.5197"/>
			<v:textRect cx="45.3543" cy="563.386" width="90.71" height="63.7795"/>
			<path d="M9.07 595.28 L81.64 595.28 A9.07072 9.07072 -180 0 0 90.71 586.2 L90.71 540.57 A9.07072 9.07072 -180 0 0 81.64
						 531.5 L9.07 531.5 A9.07072 9.07072 -180 0 0 0 540.57 L0 586.2 A9.07072 9.07072 -180 0 0 9.07 595.28 Z"
					class="st1"/>
			<text x="17.3" y="568.79" class="st2" v:langID="2057"><v:paragraph v:horizAlign="1"/><v:tabList/>Storage</text>		</g>
		<g id="shape69-104" v:mID="69" v:groupContext="shape" transform="translate(103.039,-542.756)">
			<title>Sheet.69</title>
			<desc>Remote Site</desc>
			<v:textBlock v:margins="rect(4,4,4,4)" v:tabSpace="42.5197"/>
			<v:textRect cx="68.9528" cy="585.276" width="137.91" height="20"/>
			<rect x="0" y="575.276" width="137.906" height="20" class="st8"/>
			<text x="24.43" y="590.68" class="st10" v:langID="1033"><v:paragraph v:horizAlign="1"/><v:tabList/>Remote Site</text>		</g>
		<g id="shape72-111" v:mID="72" v:groupContext="shape" transform="translate(481.89,-546.929)">
			<title>Sheet.72</title>
			<desc>Cloud- Hosted Backend</desc>
			<v:textBlock v:margins="rect(4,4,4,4)" v:tabSpace="42.5197"/>
			<v:textRect cx="69.4488" cy="585.276" width="138.9" height="20"/>
			<rect x="0" y="575.276" width="138.898" height="20" class="st8"/>
			<text x="17.5" y="579.88" class="st10" v:langID="1033"><v:paragraph v:horizAlign="1"/><v:tabList/>Cloud- Hosted <tspan
						x="38.41" dy="1.2em" class="st3">Backend</tspan></text>		</g>
		<g id="shape75-117" v:mID="75" v:groupContext="shape" transform="translate(921.26,17.8178) rotate(90)">
			<title>Sheet.75</title>
			<path d="M0 595.28 L350.69 595.28" class="st11"/>
		</g>
	</g>
</svg>
