<?xml version="1.0" encoding="UTF-8" standalone="no"?>
<!DOCTYPE svg PUBLIC "-//W3C//DTD SVG 1.1//EN" "http://www.w3.org/Graphics/SVG/1.1/DTD/svg11.dtd">
<!-- Generated by Microsoft Visio, SVG Export comprehensive-features-arrows.svg Arrows -->
<svg xmlns="http://www.w3.org/2000/svg" xmlns:xlink="http://www.w3.org/1999/xlink" xmlns:ev="http://www.w3.org/2001/xml-events"
		xmlns:v="http://schemas.microsoft.com/visio/2003/SVGExtensions/" width="11in" height="8.5in" viewBox="0 0 792 612"
		xml:space="preserve" color-interpolation-filters="sRGB" class="st11">
	<v:documentProperties v:langID="2057" v:metric="true" v:viewMarkup="false">
		<v:userDefs>
			<v:ud v:nameU="msvNoAutoConnect" v:val="VT0(1):26"/>
		</v:userDefs>
	</v:documentProperties>

	<style type="text/css">
	<![CDATA[
		.st1 {fill:#ffffff}
		.st2 {stroke:#222222;stroke-linecap:round;stroke-linejoin:round;stroke-width:1.584}
		.st3 {fill:#222222;fill-opacity:1;stroke:#222222;stroke-opacity:1;stroke-width:0.3859649122807}
		.st4 {fill:#000000;font-family:Calibri;font-size:1.00001em}
		.st5 {font-size:1em}
		.st6 {fill:#222222;fill-opacity:1;stroke:#222222;stroke-opacity:1;stroke-width:0.52380952380952}
		.st7 {fill:#222222;fill-opacity:1;stroke:#222222;stroke-opacity:1;stroke-width:0.46808510638298}
		.st8 {fill:#222222;fill-opacity:1;stroke:#222222;stroke-opacity:1;stroke-width:0.32835820895522}
		.st9 {fill:#222222;fill-opacity:1;stroke:#222222;stroke-opacity:1;stroke-width:0.28571428571429}
		.st10 {fill:#222222;fill-opacity:1;stroke:#222222;stroke-opacity:1;stroke-width:0.14965986394558}
		.st11 {fill:none;fill-rule:evenodd;font-size:12px;overflow:visible;stroke-linecap:square;stroke-miterlimit:3}
	]]>
	</style>

	<defs id="Markers">
		<g id="lend1">
			<path d="M 1 -1 L 0 0 L 1 1 " style="stroke-linecap:round;stroke-linejoin:round;fill:none"/>
		</g>
		<marker id="mrkr1-5" class="st3" v:arrowType="1" v:arrowSize="2" orient="auto" markerUnits="strokeWidth" overflow="visible">
			<use xlink:href="#lend1" transform="scale(-2.5909090909091,-2.5909090909091) "/>
		</marker>
		<g id="lend2">
			<path d="M 1 1 L 0 0 L 1 -1 L 1 1 " style="stroke:none"/>
		</g>
		<marker id="mrkr2-11" class="st3" v:arrowType="2" v:arrowSize="2" v:setback="2.59091" refX="-2.5909090909091" orient="auto"
				markerUnits="strokeWidth" overflow="visible">
			<use xlink:href="#lend2" transform="scale(-2.5909090909091,-2.5909090909091) "/>
		</marker>
		<g id="lend3">
			<path d="M 2 1 L 0 0 L 2 -1 " style="stroke-linecap:round;stroke-linejoin:round;fill:none"/>
		</g>
		<marker id="mrkr3-17" class="st3" v:arrowType="3" v:arrowSize="2" orient="auto" markerUnits="strokeWidth"
				overflow="visible">
			<use xlink:href="#lend3" transform="scale(-2.5909090909091,-2.5909090909091) "/>
		</marker>
		<g id="lend4">
			<path d="M 2 1 L 0 0 L 2 -1 L 2 1 " style="stroke:none"/>
		</g>
		<marker id="mrkr4-23" class="st3" v:arrowType="4" v:arrowSize="2" v:setback="5.18182" refX="-5.1818181818182" orient="auto"
				markerUnits="strokeWidth" overflow="visible">
			<use xlink:href="#lend4" transform="scale(-2.5909090909091,-2.5909090909091) "/>
		</marker>
		<g id="lend5">
			<path d="M 2 1 L 0 0 L 1.98117 -0.993387 C 1.67173 -0.364515 1.67301 0.372641 1.98465 1.00043 " style="stroke:none"/>
		</g>
		<marker id="mrkr5-29" class="st3" v:arrowType="5" v:arrowSize="2" v:setback="4.53409" refX="-4.5340909090909" orient="auto"
				markerUnits="strokeWidth" overflow="visible">
			<use xlink:href="#lend5" transform="scale(-2.5909090909091,-2.5909090909091) "/>
		</marker>
		<g id="lend6">
			<path d="M 2 1 L 0 0 L 2.01237 -1.00641 C 2.32921 -0.372876 2.32921 0.372869 2.01238 1.0064 " style="stroke:none"/>
		</g>
		<marker id="mrkr6-35" class="st3" v:arrowType="6" v:arrowSize="2" v:setback="5.82955" refX="-5.8295454545455" orient="auto"
				markerUnits="strokeWidth" overflow="visible">
			<use xlink:href="#lend6" transform="scale(-2.5909090909091,-2.5909090909091) "/>
		</marker>
		<g id="lend7">
			<path
					d="M 1.84309 -0.959456 C 1.43792 -0.380801 0.784503 -0.0260255 0.078527 -0.00137091 L 0.0785229 0.00137043 C 0.784499 0.0260231 1.43791 0.380798 1.84309 0.959452 "
					style="stroke-linecap:round;stroke-linejoin:round;fill:none"/>
		</g>
		<marker id="mrkr7-41" class="st3" v:arrowType="7" v:arrowSize="2" orient="auto" markerUnits="strokeWidth"
				overflow="visible">
			<use xlink:href="#lend7" transform="scale(-2.5909090909091,-2.5909090909091) "/>
		</marker>
		<g id="lend9">
			<path d="M 1 -1 L -1 1 " style="stroke-linecap:round;stroke-linejoin:round;fill:none"/>
		</g>
		<marker id="mrkr9-53" class="st3" v:arrowType="9" v:arrowSize="2" orient="auto" markerUnits="strokeWidth"
				overflow="visible">
			<use xlink:href="#lend9" transform="scale(-2.5909090909091,-2.5909090909091) "/>
		</marker>
		<g id="lend10">
			<path
					d="M 0 0.75 C -0.414214 0.75 -0.75 0.414214 -0.75 0 -0.75 -0.414214 -0.414214 -0.75 0 -0.75 0.414214 -0.75 0.75 -0.414214 0.75 0 0.75 0.414214 0.414214 0.75 0 0.75 Z "
					style="stroke:none"/>
		</g>
		<marker id="mrkr10-59" class="st3" v:arrowType="10" v:arrowSize="2" v:setback="1.94318" refX="-1.9431818181818"
				orient="auto" markerUnits="strokeWidth" overflow="visible">
			<use xlink:href="#lend10" transform="scale(-2.5909090909091,-2.5909090909091) "/>
		</marker>
		<g id="lend11">
			<path d="M 0.75 -0.75 L 0.75 0.75 L -0.75 0.75 L -0.75 -0.75 L 0.75 -0.75 " style="stroke:none"/>
		</g>
		<marker id="mrkr11-65" class="st3" v:arrowType="11" v:arrowSize="2" v:setback="1.94318" refX="-1.9431818181818"
				orient="auto" markerUnits="strokeWidth" overflow="visible">
			<use xlink:href="#lend11" transform="scale(-2.5909090909091,-2.5909090909091) "/>
		</marker>
		<g id="lend12">
			<path d="M 3 1 L 0 0 L 3 -1 " style="stroke-linecap:round;stroke-linejoin:round;fill:none"/>
		</g>
		<marker id="mrkr12-71" class="st3" v:arrowType="12" v:arrowSize="2" orient="auto" markerUnits="strokeWidth"
				overflow="visible">
			<use xlink:href="#lend12" transform="scale(-2.5909090909091,-2.5909090909091) "/>
		</marker>
		<g id="lend13">
			<path d="M 3 1 L 0 0 L 3 -1 L 3 1 " style="stroke:none"/>
		</g>
		<marker id="mrkr13-77" class="st3" v:arrowType="13" v:arrowSize="2" v:setback="7.77273" refX="-7.7727272727273"
				orient="auto" markerUnits="strokeWidth" overflow="visible">
			<use xlink:href="#lend13" transform="scale(-2.5909090909091,-2.5909090909091) "/>
		</marker>
		<g id="lend14">
			<path d="M 3 -1 L 0 0 L 3 1 L 3 -1 " style="stroke-linecap:round;stroke-linejoin:round;fill:none"/>
		</g>
		<marker id="mrkr14-83" class="st3" v:arrowType="14" v:arrowSize="2" v:setback="7.77273" refX="-7.7727272727273"
				orient="auto" markerUnits="strokeWidth" overflow="visible">
			<use xlink:href="#lend14" transform="scale(-2.5909090909091,-2.5909090909091) "/>
		</marker>
		<g id="lend15">
			<path d="M 1 -1 L 0 0 L 1 1 L 1 -1 " style="stroke-linecap:round;stroke-linejoin:round;fill:none"/>
		</g>
		<marker id="mrkr15-89" class="st3" v:arrowType="15" v:arrowSize="2" v:setback="2.59091" refX="-2.5909090909091"
				orient="auto" markerUnits="strokeWidth" overflow="visible">
			<use xlink:href="#lend15" transform="scale(-2.5909090909091,-2.5909090909091) "/>
		</marker>
		<g id="lend16">
			<path d="M 0 0 L 2 -1 L 2 1 L 0 0 " style="stroke-linecap:round;stroke-linejoin:round;fill:none"/>
		</g>
		<marker id="mrkr16-95" class="st3" v:arrowType="16" v:arrowSize="2" v:setback="5.18182" refX="-5.1818181818182"
				orient="auto" markerUnits="strokeWidth" overflow="visible">
			<use xlink:href="#lend16" transform="scale(-2.5909090909091,-2.5909090909091) "/>
		</marker>
		<g id="lend17">
			<path d="M 2 1 L 0 0 L 1.98117 -0.993387 C 1.67051 -0.362037 1.67309 0.378293 1.98815 1.00746 "
					style="stroke-linecap:round;stroke-linejoin:round;fill:none"/>
		</g>
		<marker id="mrkr17-101" class="st3" v:arrowType="17" v:arrowSize="2" v:setback="4.53409" refX="-4.5340909090909"
				orient="auto" markerUnits="strokeWidth" overflow="visible">
			<use xlink:href="#lend17" transform="scale(-2.5909090909091,-2.5909090909091) "/>
		</marker>
		<g id="lend18">
			<path d="M 2 1 L 0 0 L 2.01237 -1.00641 C 2.32921 -0.372876 2.32921 0.372869 2.01238 1.0064 "
					style="stroke-linecap:round;stroke-linejoin:round;fill:none"/>
		</g>
		<marker id="mrkr18-107" class="st3" v:arrowType="18" v:arrowSize="2" v:setback="5.82955" refX="-5.8295454545455"
				orient="auto" markerUnits="strokeWidth" overflow="visible">
			<use xlink:href="#lend18" transform="scale(-2.5909090909091,-2.5909090909091) "/>
		</marker>
		<g id="lend19">
			<path
					d="M 1.95144 1.125 C 1.55653 0.440984 1.54919 -0.400016 1.93211 -1.09082 L 1.92863 -1.09117 C 1.52903 -0.426131 0.815005 -0.0138845 0.0392708 -0.000343084 L 0.0392666 0.000342369 C 0.815001 0.0138824 1.52903 0.426127 1.92863 1.09116 "
					style="stroke-linecap:round;stroke-linejoin:round;fill:none"/>
		</g>
		<marker id="mrkr19-113" class="st3" v:arrowType="19" v:arrowSize="2" v:setback="4.275" refX="-4.275" orient="auto"
				markerUnits="strokeWidth" overflow="visible">
			<use xlink:href="#lend19" transform="scale(-2.5909090909091,-2.5909090909091) "/>
		</marker>
		<g id="lend20">
			<path
					d="M 0 0.75 C -0.414214 0.75 -0.75 0.414214 -0.75 0 -0.75 -0.414214 -0.414214 -0.75 0 -0.75 0.414214 -0.75 0.75 -0.414214 0.75 0 0.75 0.414214 0.414214 0.75 0 0.75 Z "
					style="stroke-linecap:round;stroke-linejoin:round;fill:none"/>
		</g>
		<marker id="mrkr20-119" class="st3" v:arrowType="20" v:arrowSize="2" v:setback="1.94318" refX="-1.9431818181818"
				orient="auto" markerUnits="strokeWidth" overflow="visible">
			<use xlink:href="#lend20" transform="scale(-2.5909090909091,-2.5909090909091) "/>
		</marker>
		<g id="lend21">
			<path d="M 0.75 -0.75 L 0.75 0.75 L -0.75 0.75 L -0.75 -0.75 L 0.75 -0.75 "
					style="stroke-linecap:round;stroke-linejoin:round;fill:none"/>
		</g>
		<marker id="mrkr21-125" class="st3" v:arrowType="21" v:arrowSize="2" v:setback="1.94318" refX="-1.9431818181818"
				orient="auto" markerUnits="strokeWidth" overflow="visible">
			<use xlink:href="#lend21" transform="scale(-2.5909090909091,-2.5909090909091) "/>
		</marker>
		<g id="lend22">
			<path d="M 0 0 L 2.25 -1.125 L 4.5 0 L 2.25 1.125 L 0 0 " style="stroke-linecap:round;stroke-linejoin:round;fill:none"/>
		</g>
		<marker id="mrkr22-131" class="st3" v:arrowType="22" v:arrowSize="2" v:setback="11.6591" refX="-11.659090909091"
				orient="auto" markerUnits="strokeWidth" overflow="visible">
			<use xlink:href="#lend22" transform="scale(-2.5909090909091,-2.5909090909091) "/>
		</marker>
		<g id="lend23">
			<path d="M 2.5 1 L 1.5 -1 " style="stroke-linecap:round;stroke-linejoin:round;fill:none"/>
		</g>
		<marker id="mrkr23-137" class="st3" v:arrowType="23" v:arrowSize="2" orient="auto" markerUnits="strokeWidth"
				overflow="visible">
			<use xlink:href="#lend23" transform="scale(-2.5909090909091,-2.5909090909091) "/>
		</marker>
		<g id="lend24">
			<path d="M 1.5 -0.75 L 1.5 0.75 " style="stroke-linecap:round;stroke-linejoin:round;fill:none"/>
		</g>
		<marker id="mrkr24-143" class="st3" v:arrowType="24" v:arrowSize="2" orient="auto" markerUnits="strokeWidth"
				overflow="visible">
			<use xlink:href="#lend24" transform="scale(-2.5909090909091,-2.5909090909091) "/>
		</marker>
		<marker id="mrkr1-149" class="st3" v:arrowType="1" v:arrowSize="2" orient="auto" markerUnits="strokeWidth"
				overflow="visible">
			<use xlink:href="#lend1" transform="scale(2.5909090909091) "/>
		</marker>
		<marker id="mrkr3-157" class="st3" v:arrowType="3" v:arrowSize="2" orient="auto" markerUnits="strokeWidth"
				overflow="visible">
			<use xlink:href="#lend3" transform="scale(2.5909090909091) "/>
		</marker>
		<marker id="mrkr5-165" class="st3" v:arrowType="5" v:arrowSize="2" v:setback="4.53409" refX="4.5340909090909" orient="auto"
				markerUnits="strokeWidth" overflow="visible">
			<use xlink:href="#lend5" transform="scale(2.5909090909091) "/>
		</marker>
		<marker id="mrkr13-173" class="st3" v:arrowType="13" v:arrowSize="2" v:setback="7.77273" refX="7.7727272727273"
				orient="auto" markerUnits="strokeWidth" overflow="visible">
			<use xlink:href="#lend13" transform="scale(2.5909090909091) "/>
		</marker>
		<g id="lend39">
			<path d="M 0 0 L 2 -1 L 2 1 L 0 0 M 2 0 L 4 -1 L 4 1 L 2 0 " style="stroke:none"/>
		</g>
		<marker id="mrkr39-181" class="st3" v:arrowType="39" v:arrowSize="2" v:setback="10.3636" refX="10.363636363636"
				orient="auto" markerUnits="strokeWidth" overflow="visible">
			<use xlink:href="#lend39" transform="scale(2.5909090909091) "/>
		</marker>
		<marker id="mrkr39-183" class="st3" v:arrowType="39" v:arrowSize="2" v:setback="10.3636" refX="-10.363636363636"
				orient="auto" markerUnits="strokeWidth" overflow="visible">
			<use xlink:href="#lend39" transform="scale(-2.5909090909091,-2.5909090909091) "/>
		</marker>
		<g id="lend44">
			<path d="M 2 -1 L 0 0 L 2 1 M 3 0.75 L 3 -0.75 " style="stroke-linecap:round;stroke-linejoin:round;fill:none"/>
		</g>
		<marker id="mrkr44-190" class="st3" v:arrowType="44" v:arrowSize="2" orient="auto" markerUnits="strokeWidth"
				overflow="visible">
			<use xlink:href="#lend44" transform="scale(2.5909090909091) "/>
		</marker>
		<marker id="mrkr44-192" class="st3" v:arrowType="44" v:arrowSize="2" orient="auto" markerUnits="strokeWidth"
				overflow="visible">
			<use xlink:href="#lend44" transform="scale(-2.5909090909091,-2.5909090909091) "/>
		</marker>
		<marker id="mrkr13-199" class="st6" v:arrowType="13" v:arrowSize="0" v:setback="5.72727" refX="-5.7272727272727"
				orient="auto" markerUnits="strokeWidth" overflow="visible">
			<use xlink:href="#lend13" transform="scale(-1.9090909090909,-1.9090909090909) "/>
		</marker>
		<marker id="mrkr13-205" class="st7" v:arrowType="13" v:arrowSize="1" v:setback="6.40909" refX="-6.4090909090909"
				orient="auto" markerUnits="strokeWidth" overflow="visible">
			<use xlink:href="#lend13" transform="scale(-2.1363636363636,-2.1363636363636) "/>
		</marker>
		<marker id="mrkr13-216" class="st8" v:arrowType="13" v:arrowSize="3" v:setback="9.13636" refX="-9.1363636363636"
				orient="auto" markerUnits="strokeWidth" overflow="visible">
			<use xlink:href="#lend13" transform="scale(-3.0454545454545,-3.0454545454545) "/>
		</marker>
		<marker id="mrkr13-222" class="st9" v:arrowType="13" v:arrowSize="4" v:setback="10.5" refX="-10.5" orient="auto"
				markerUnits="strokeWidth" overflow="visible">
			<use xlink:href="#lend13" transform="scale(-3.5,-3.5) "/>
		</marker>
		<marker id="mrkr13-228" class="st10" v:arrowType="13" v:arrowSize="5" v:setback="20.0455" refX="-20.045454545455"
				orient="auto" markerUnits="strokeWidth" overflow="visible">
			<use xlink:href="#lend13" transform="scale(-6.6818181818182,-6.6818181818182) "/>
		</marker>
	</defs>
	<g v:mID="4" v:index="4" v:groupContext="foregroundPage">
		<title>Arrows</title>
		<v:pageProperties v:drawingScale="0.0393701" v:pageScale="0.0393701" v:drawingUnits="24" v:shadowOffsetX="8.50394"
				v:shadowOffsetY="-8.50394"/>
		<g id="shape1-1" v:mID="1" v:groupContext="shape" transform="translate(30.24,-564.84)">
			<title>Sheet.1</title>
			<desc>arrow-end-01</desc>
			<v:textBlock v:margins="rect(0,0,0,0)" v:tabSpace="42.5197"/>
			<v:textRect cx="48.96" cy="611.64" width="97.92" height="0.72"/>
			<path d="M0 611.64 L97.92 611.64 L0 611.64 Z" class="st1"/>
			<path d="M0 611.64 L97.92 611.64" class="st2"/>
			<text x="15.4" y="615.24" class="st4" v:langID="2057"><v:paragraph v:horizAlign="1"/><v:tabList/>arrow-end-01</text>		</g>
		<g id="shape2-7" v:mID="2" v:groupContext="shape" transform="translate(145.44,-564.84)">
			<title>Sheet.2</title>
			<desc>arrow-end-02</desc>
			<v:textBlock v:margins="rect(0,0,0,0)" v:tabSpace="42.5197"/>
			<v:textRect cx="48.96" cy="611.64" width="97.92" height="0.72"/>
			<path d="M0 611.64 L97.92 611.64 L0 611.64 Z" class="st1"/>
			<path d="M0 611.64 L97.92 611.64" class="st2"/>
			<text x="15.4" y="615.24" class="st4" v:langID="2057"><v:paragraph v:horizAlign="1"/><v:tabList/>arrow-end-02</text>		</g>
		<g id="shape3-13" v:mID="3" v:groupContext="shape" transform="translate(260.64,-564.84)">
			<title>Sheet.3</title>
			<desc>arrow-end-03</desc>
			<v:textBlock v:margins="rect(0,0,0,0)" v:tabSpace="42.5197"/>
			<v:textRect cx="48.96" cy="611.64" width="97.92" height="0.72"/>
			<path d="M0 611.64 L97.92 611.64 L0 611.64 Z" class="st1"/>
			<path d="M0 611.64 L97.92 611.64" class="st2"/>
			<text x="15.4" y="615.24" class="st4" v:langID="2057"><v:paragraph v:horizAlign="1"/><v:tabList/>arrow-end-03</text>		</g>
		<g id="shape4-19" v:mID="4" v:groupContext="shape" transform="translate(375.84,-564.84)">
			<title>Sheet.4</title>
			<desc>arrow-end-04</desc>
			<v:textBlock v:margins="rect(0,0,0,0)" v:tabSpace="42.5197"/>
			<v:textRect cx="48.96" cy="611.64" width="97.92" height="0.72"/>
			<path d="M0 611.64 L97.92 611.64 L0 611.64 Z" class="st1"/>
			<path d="M0 611.64 L97.92 611.64" class="st2"/>
			<text x="15.4" y="615.24" class="st4" v:langID="2057"><v:paragraph v:horizAlign="1"/><v:tabList/>arrow-end-04</text>		</g>
		<g id="shape5-25" v:mID="5" v:groupContext="shape" transform="translate(491.04,-564.84)">
			<title>Sheet.5</title>
			<desc>arrow-end-05</desc>
			<v:textBlock v:margins="rect(0,0,0,0)" v:tabSpace="42.5197"/>
			<v:textRect cx="48.96" cy="611.64" width="97.92" height="0.72"/>
			<path d="M0 611.64 L97.92 611.64 L0 611.64 Z" class="st1"/>
			<path d="M0 611.64 L97.92 611.64" class="st2"/>
			<text x="15.4" y="615.24" class="st4" v:langID="2057"><v:paragraph v:horizAlign="1"/><v:tabList/>arrow-end-05</text>		</g>
		<g id="shape6-31" v:mID="6" v:groupContext="shape" transform="translate(606.24,-564.84)">
			<title>Sheet.6</title>
			<desc>arrow-end-06</desc>
			<v:textBlock v:margins="rect(0,0,0,0)" v:tabSpace="42.5197"/>
			<v:textRect cx="48.96" cy="611.64" width="97.92" height="0.72"/>
			<path d="M0 611.64 L97.92 611.64 L0 611.64 Z" class="st1"/>
			<path d="M0 611.64 L97.92 611.64" class="st2"/>
			<text x="15.4" y="615.24" class="st4" v:langID="2057"><v:paragraph v:horizAlign="1"/><v:tabList/>arrow-end-06</text>		</g>
		<g id="shape7-37" v:mID="7" v:groupContext="shape" transform="translate(30.24,-528.84)">
			<title>Sheet.7</title>
			<desc>arrow-end-07</desc>
			<v:textBlock v:margins="rect(0,0,0,0)" v:tabSpace="42.5197"/>
			<v:textRect cx="48.96" cy="611.64" width="97.92" height="0.72"/>
			<path d="M0 611.64 L97.92 611.64 L0 611.64 Z" class="st1"/>
			<path d="M0 611.64 L97.92 611.64" class="st2"/>
			<text x="15.4" y="615.24" class="st4" v:langID="2057"><v:paragraph v:horizAlign="1"/><v:tabList/>arrow-end-07</text>		</g>
		<g id="shape8-43" v:mID="8" v:groupContext="shape" transform="translate(145.44,-528.84)">
			<title>Sheet.8</title>
			<desc>arrow-end-08</desc>
			<v:textBlock v:margins="rect(0,0,0,0)" v:tabSpace="42.5197"/>
			<v:textRect cx="48.96" cy="611.64" width="97.92" height="0.72"/>
			<path d="M0 611.64 L97.92 611.64 L0 611.64 Z" class="st1"/>
			<path d="M0 611.64 L97.92 611.64" class="st2"/>
			<text x="15.4" y="615.24" class="st4" v:langID="2057"><v:paragraph v:horizAlign="1"/><v:tabList/>arrow-end-08</text>		</g>
		<g id="shape9-49" v:mID="9" v:groupContext="shape" transform="translate(260.64,-528.84)">
			<title>Sheet.9</title>
			<desc>arrow-end-09</desc>
			<v:textBlock v:margins="rect(0,0,0,0)" v:tabSpace="42.5197"/>
			<v:textRect cx="48.96" cy="611.64" width="97.92" height="0.72"/>
			<path d="M0 611.64 L97.92 611.64 L0 611.64 Z" class="st1"/>
			<path d="M0 611.64 L97.92 611.64" class="st2"/>
			<text x="15.4" y="615.24" class="st4" v:langID="2057"><v:paragraph v:horizAlign="1"/><v:tabList/>arrow-end-09</text>		</g>
		<g id="shape10-55" v:mID="10" v:groupContext="shape" transform="translate(375.84,-528.84)">
			<title>Sheet.10</title>
			<desc>arrow-end-10</desc>
			<v:textBlock v:margins="rect(0,0,0,0)" v:tabSpace="42.5197"/>
			<v:textRect cx="48.96" cy="611.64" width="97.92" height="0.72"/>
			<path d="M0 611.64 L97.92 611.64 L0 611.64 Z" class="st1"/>
			<path d="M0 611.64 L97.92 611.64" class="st2"/>
			<text x="15.4" y="615.24" class="st4" v:langID="2057"><v:paragraph v:horizAlign="1"/><v:tabList/>arrow-end-10</text>		</g>
		<g id="shape11-61" v:mID="11" v:groupContext="shape" transform="translate(491.04,-528.84)">
			<title>Sheet.11</title>
			<desc>arrow-end-11</desc>
			<v:textBlock v:margins="rect(0,0,0,0)" v:tabSpace="42.5197"/>
			<v:textRect cx="48.96" cy="611.64" width="97.92" height="0.72"/>
			<path d="M0 611.64 L97.92 611.64 L0 611.64 Z" class="st1"/>
			<path d="M0 611.64 L97.92 611.64" class="st2"/>
			<text x="15.4" y="615.24" class="st4" v:langID="2057"><v:paragraph v:horizAlign="1"/><v:tabList/>arrow-end-11</text>		</g>
		<g id="shape12-67" v:mID="12" v:groupContext="shape" transform="translate(606.24,-528.84)">
			<title>Sheet.12</title>
			<desc>arrow-end-12</desc>
			<v:textBlock v:margins="rect(0,0,0,0)" v:tabSpace="42.5197"/>
			<v:textRect cx="48.96" cy="611.64" width="97.92" height="0.72"/>
			<path d="M0 611.64 L97.92 611.64 L0 611.64 Z" class="st1"/>
			<path d="M0 611.64 L97.92 611.64" class="st2"/>
			<text x="15.4" y="615.24" class="st4" v:langID="2057"><v:paragraph v:horizAlign="1"/><v:tabList/>arrow-end-12</text>		</g>
		<g id="shape13-73" v:mID="13" v:groupContext="shape" transform="translate(30.24,-492.84)">
			<title>Sheet.13</title>
			<desc>arrow-end-13</desc>
			<v:textBlock v:margins="rect(0,0,0,0)" v:tabSpace="42.5197"/>
			<v:textRect cx="48.96" cy="611.64" width="97.92" height="0.72"/>
			<path d="M0 611.64 L97.92 611.64 L0 611.64 Z" class="st1"/>
			<path d="M0 611.64 L97.92 611.64" class="st2"/>
			<text x="15.4" y="615.24" class="st4" v:langID="2057"><v:paragraph v:horizAlign="1"/><v:tabList/>arrow-end-13</text>		</g>
		<g id="shape14-79" v:mID="14" v:groupContext="shape" transform="translate(145.44,-492.84)">
			<title>Sheet.14</title>
			<desc>arrow-end-14</desc>
			<v:textBlock v:margins="rect(0,0,0,0)" v:tabSpace="42.5197"/>
			<v:textRect cx="48.96" cy="611.64" width="97.92" height="0.72"/>
			<path d="M0 611.64 L97.92 611.64 L0 611.64 Z" class="st1"/>
			<path d="M0 611.64 L97.92 611.64" class="st2"/>
			<text x="15.4" y="615.24" class="st4" v:langID="2057"><v:paragraph v:horizAlign="1"/><v:tabList/>arrow-end-14</text>		</g>
		<g id="shape15-85" v:mID="15" v:groupContext="shape" transform="translate(260.64,-492.84)">
			<title>Sheet.15</title>
			<desc>arrow-end-15</desc>
			<v:textBlock v:margins="rect(0,0,0,0)" v:tabSpace="42.5197"/>
			<v:textRect cx="48.96" cy="611.64" width="97.92" height="0.72"/>
			<path d="M0 611.64 L97.92 611.64 L0 611.64 Z" class="st1"/>
			<path d="M0 611.64 L97.92 611.64" class="st2"/>
			<text x="15.4" y="615.24" class="st4" v:langID="2057"><v:paragraph v:horizAlign="1"/><v:tabList/>arrow-end-15</text>		</g>
		<g id="shape16-91" v:mID="16" v:groupContext="shape" transform="translate(375.84,-492.84)">
			<title>Sheet.16</title>
			<desc>arrow-end-16</desc>
			<v:textBlock v:margins="rect(0,0,0,0)" v:tabSpace="42.5197"/>
			<v:textRect cx="48.96" cy="611.64" width="97.92" height="0.72"/>
			<path d="M0 611.64 L97.92 611.64 L0 611.64 Z" class="st1"/>
			<path d="M0 611.64 L97.92 611.64" class="st2"/>
			<text x="15.4" y="615.24" class="st4" v:langID="2057"><v:paragraph v:horizAlign="1"/><v:tabList/>arrow-end-16</text>		</g>
		<g id="shape17-97" v:mID="17" v:groupContext="shape" transform="translate(491.04,-492.84)">
			<title>Sheet.17</title>
			<desc>arrow-end-17</desc>
			<v:textBlock v:margins="rect(0,0,0,0)" v:tabSpace="42.5197"/>
			<v:textRect cx="48.96" cy="611.64" width="97.92" height="0.72"/>
			<path d="M0 611.64 L97.92 611.64 L0 611.64 Z" class="st1"/>
			<path d="M0 611.64 L97.92 611.64" class="st2"/>
			<text x="15.4" y="615.24" class="st4" v:langID="2057"><v:paragraph v:horizAlign="1"/><v:tabList/>arrow-end-17</text>		</g>
		<g id="shape18-103" v:mID="18" v:groupContext="shape" transform="translate(606.24,-492.84)">
			<title>Sheet.18</title>
			<desc>arrow-end-18</desc>
			<v:textBlock v:margins="rect(0,0,0,0)" v:tabSpace="42.5197"/>
			<v:textRect cx="48.96" cy="611.64" width="97.92" height="0.72"/>
			<path d="M0 611.64 L97.92 611.64 L0 611.64 Z" class="st1"/>
			<path d="M0 611.64 L97.92 611.64" class="st2"/>
			<text x="15.4" y="615.24" class="st4" v:langID="2057"><v:paragraph v:horizAlign="1"/><v:tabList/>arrow-end-18</text>		</g>
		<g id="shape19-109" v:mID="19" v:groupContext="shape" transform="translate(30.24,-456.84)">
			<title>Sheet.19</title>
			<desc>arrow-end-19</desc>
			<v:textBlock v:margins="rect(0,0,0,0)" v:tabSpace="42.5197"/>
			<v:textRect cx="48.96" cy="611.64" width="97.92" height="0.72"/>
			<path d="M0 611.64 L97.92 611.64 L0 611.64 Z" class="st1"/>
			<path d="M0 611.64 L97.92 611.64" class="st2"/>
			<text x="15.4" y="615.24" class="st4" v:langID="2057"><v:paragraph v:horizAlign="1"/><v:tabList/>arrow-end-19</text>		</g>
		<g id="shape20-115" v:mID="20" v:groupContext="shape" transform="translate(145.44,-456.84)">
			<title>Sheet.20</title>
			<desc>arrow-end-20</desc>
			<v:textBlock v:margins="rect(0,0,0,0)" v:tabSpace="42.5197"/>
			<v:textRect cx="48.96" cy="611.64" width="97.92" height="0.72"/>
			<path d="M0 611.64 L97.92 611.64 L0 611.64 Z" class="st1"/>
			<path d="M0 611.64 L97.92 611.64" class="st2"/>
			<text x="15.4" y="615.24" class="st4" v:langID="2057"><v:paragraph v:horizAlign="1"/><v:tabList/>arrow-end-20</text>		</g>
		<g id="shape21-121" v:mID="21" v:groupContext="shape" transform="translate(260.64,-456.84)">
			<title>Sheet.21</title>
			<desc>arrow-end-21</desc>
			<v:textBlock v:margins="rect(0,0,0,0)" v:tabSpace="42.5197"/>
			<v:textRect cx="48.96" cy="611.64" width="97.92" height="0.72"/>
			<path d="M0 611.64 L97.92 611.64 L0 611.64 Z" class="st1"/>
			<path d="M0 611.64 L97.92 611.64" class="st2"/>
			<text x="15.4" y="615.24" class="st4" v:langID="2057"><v:paragraph v:horizAlign="1"/><v:tabList/>arrow-end-21</text>		</g>
		<g id="shape22-127" v:mID="22" v:groupContext="shape" transform="translate(375.84,-456.84)">
			<title>Sheet.22</title>
			<desc>arrow-end-22</desc>
			<v:textBlock v:margins="rect(0,0,0,0)" v:tabSpace="42.5197"/>
			<v:textRect cx="48.96" cy="611.64" width="97.92" height="0.72"/>
			<path d="M0 611.64 L97.92 611.64 L0 611.64 Z" class="st1"/>
			<path d="M0 611.64 L97.92 611.64" class="st2"/>
			<text x="15.4" y="615.24" class="st4" v:langID="2057"><v:paragraph v:horizAlign="1"/><v:tabList/>arrow-end-22</text>		</g>
		<g id="shape23-133" v:mID="23" v:groupContext="shape" transform="translate(491.04,-456.84)">
			<title>Sheet.23</title>
			<desc>arrow-end-23</desc>
			<v:textBlock v:margins="rect(0,0,0,0)" v:tabSpace="42.5197"/>
			<v:textRect cx="48.96" cy="611.64" width="97.92" height="0.72"/>
			<path d="M0 611.64 L97.92 611.64 L0 611.64 Z" class="st1"/>
			<path d="M0 611.64 L97.92 611.64" class="st2"/>
			<text x="15.4" y="615.24" class="st4" v:langID="2057"><v:paragraph v:horizAlign="1"/><v:tabList/>arrow-end-23</text>		</g>
		<g id="shape24-139" v:mID="24" v:groupContext="shape" transform="translate(606.24,-456.84)">
			<title>Sheet.24</title>
			<desc>arrow-end-24</desc>
			<v:textBlock v:margins="rect(0,0,0,0)" v:tabSpace="42.5197"/>
			<v:textRect cx="48.96" cy="611.64" width="97.92" height="0.72"/>
			<path d="M0 611.64 L97.92 611.64 L0 611.64 Z" class="st1"/>
			<path d="M0 611.64 L97.92 611.64" class="st2"/>
			<text x="15.4" y="615.24" class="st4" v:langID="2057"><v:paragraph v:horizAlign="1"/><v:tabList/>arrow-end-24</text>		</g>
		<g id="shape25-145" v:mID="25" v:groupContext="shape" transform="translate(30.24,-420.84)">
			<title>Sheet.25</title>
			<desc>arrow-both-b01-e01</desc>
			<v:textBlock v:margins="rect(0,0,0,0)" v:tabSpace="42.5197"/>
			<v:textRect cx="48.96" cy="611.64" width="97.92" height="0.72"/>
			<path d="M0 611.64 L97.92 611.64 L0 611.64 Z" class="st1"/>
			<path d="M0 611.64 L97.92 611.64" class="st2"/>
			<text x="8.23" y="608.04" class="st4" v:langID="2057"><v:paragraph v:horizAlign="1"/><v:tabList/>arrow-both-b01-<tspan
						x="39.89" dy="1.2em" class="st5">e01</tspan></text>		</g>
		<g id="shape26-153" v:mID="26" v:groupContext="shape" transform="translate(145.44,-420.84)">
			<title>Sheet.26</title>
			<desc>arrow-both-b03-e03</desc>
			<v:textBlock v:margins="rect(0,0,0,0)" v:tabSpace="42.5197"/>
			<v:textRect cx="48.96" cy="611.64" width="97.92" height="0.72"/>
			<path d="M0 611.64 L97.92 611.64 L0 611.64 Z" class="st1"/>
			<path d="M0 611.64 L97.92 611.64" class="st2"/>
			<text x="8.23" y="608.04" class="st4" v:langID="2057"><v:paragraph v:horizAlign="1"/><v:tabList/>arrow-both-b03-<tspan
						x="39.89" dy="1.2em" class="st5">e03</tspan></text>		</g>
		<g id="shape27-161" v:mID="27" v:groupContext="shape" transform="translate(260.64,-420.84)">
			<title>Sheet.27</title>
			<desc>arrow-both-b05-e05</desc>
			<v:textBlock v:margins="rect(0,0,0,0)" v:tabSpace="42.5197"/>
			<v:textRect cx="48.96" cy="611.64" width="97.92" height="0.72"/>
			<path d="M0 611.64 L97.92 611.64 L0 611.64 Z" class="st1"/>
			<path d="M0 611.64 L97.92 611.64" class="st2"/>
			<text x="8.23" y="608.04" class="st4" v:langID="2057"><v:paragraph v:horizAlign="1"/><v:tabList/>arrow-both-b05-<tspan
						x="39.89" dy="1.2em" class="st5">e05</tspan></text>		</g>
		<g id="shape28-169" v:mID="28" v:groupContext="shape" transform="translate(375.84,-420.84)">
			<title>Sheet.28</title>
			<desc>arrow-both-b13-e13</desc>
			<v:textBlock v:margins="rect(0,0,0,0)" v:tabSpace="42.5197"/>
			<v:textRect cx="48.96" cy="611.64" width="97.92" height="0.72"/>
			<path d="M0 611.64 L97.92 611.64 L0 611.64 Z" class="st1"/>
			<path d="M0 611.64 L97.92 611.64" class="st2"/>
			<text x="8.23" y="608.04" class="st4" v:langID="2057"><v:paragraph v:horizAlign="1"/><v:tabList/>arrow-both-b13-<tspan
						x="39.89" dy="1.2em" class="st5">e13</tspan></text>		</g>
		<g id="shape29-177" v:mID="29" v:groupContext="shape" transform="translate(491.04,-420.84)">
			<title>Sheet.29</title>
			<desc>arrow-both-b39-e39</desc>
			<v:textBlock v:margins="rect(0,0,0,0)" v:tabSpace="42.5197"/>
			<v:textRect cx="48.96" cy="611.64" width="97.92" height="0.72"/>
			<path d="M0 611.64 L97.92 611.64 L0 611.64 Z" class="st1"/>
			<path d="M0 611.64 L97.92 611.64" class="st2"/>
			<text x="8.23" y="608.04" class="st4" v:langID="2057"><v:paragraph v:horizAlign="1"/><v:tabList/>arrow-both-b39-<tspan
						x="39.89" dy="1.2em" class="st5">e39</tspan></text>		</g>
		<g id="shape30-186" v:mID="30" v:groupContext="shape" transform="translate(606.24,-420.84)">
			<title>Sheet.30</title>
			<desc>arrow-both-b44-e44</desc>
			<v:textBlock v:margins="rect(0,0,0,0)" v:tabSpace="42.5197"/>
			<v:textRect cx="48.96" cy="611.64" width="97.92" height="0.72"/>
			<path d="M0 611.64 L97.92 611.64 L0 611.64 Z" class="st1"/>
			<path d="M0 611.64 L97.92 611.64" class="st2"/>
			<text x="8.23" y="608.04" class="st4" v:langID="2057"><v:paragraph v:horizAlign="1"/><v:tabList/>arrow-both-b44-<tspan
						x="39.89" dy="1.2em" class="st5">e44</tspan></text>		</g>
		<g id="shape31-195" v:mID="31" v:groupContext="shape" transform="translate(30.24,-384.84)">
			<title>Sheet.31</title>
			<desc>arrow-size-0</desc>
			<v:textBlock v:margins="rect(0,0,0,0)" v:tabSpace="42.5197"/>
			<v:textRect cx="48.96" cy="611.64" width="97.92" height="0.72"/>
			<path d="M0 611.64 L97.92 611.64 L0 611.64 Z" class="st1"/>
			<path d="M0 611.64 L97.92 611.64" class="st2"/>
			<text x="18.66" y="615.24" class="st4" v:langID="2057"><v:paragraph v:horizAlign="1"/><v:tabList/>arrow-size-0</text>		</g>
		<g id="shape32-201" v:mID="32" v:groupContext="shape" transform="translate(145.44,-384.84)">
			<title>Sheet.32</title>
			<desc>arrow-size-1</desc>
			<v:textBlock v:margins="rect(0,0,0,0)" v:tabSpace="42.5197"/>
			<v:textRect cx="48.96" cy="611.64" width="97.92" height="0.72"/>
			<path d="M0 611.64 L97.92 611.64 L0 611.64 Z" class="st1"/>
			<path d="M0 611.64 L97.92 611.64" class="st2"/>
			<text x="18.66" y="615.24" class="st4" v:langID="2057"><v:paragraph v:horizAlign="1"/><v:tabList/>arrow-size-1</text>		</g>
		<g id="shape33-207" v:mID="33" v:groupContext="shape" transform="translate(260.64,-384.84)">
			<title>Sheet.33</title>
			<desc>arrow-size-2</desc>
			<v:textBlock v:margins="rect(0,0,0,0)" v:tabSpace="42.5197"/>
			<v:textRect cx="48.96" cy="611.64" width="97.92" height="0.72"/>
			<path d="M0 611.64 L97.92 611.64 L0 611.64 Z" class="st1"/>
			<path d="M0 611.64 L97.92 611.64" class="st2"/>
			<text x="18.66" y="615.24" class="st4" v:langID="2057"><v:paragraph v:horizAlign="1"/><v:tabList/>arrow-size-2</text>		</g>
		<g id="shape34-212" v:mID="34" v:groupContext="shape" transform="translate(375.84,-384.84)">
			<title>Sheet.34</title>
			<desc>arrow-size-3</desc>
			<v:textBlock v:margins="rect(0,0,0,0)" v:tabSpace="42.5197"/>
			<v:textRect cx="48.96" cy="611.64" width="97.92" height="0.72"/>
			<path d="M0 611.64 L97.92 611.64 L0 611.64 Z" class="st1"/>
			<path d="M0 611.64 L97.92 611.64" class="st2"/>
			<text x="18.66" y="615.24" class="st4" v:langID="2057"><v:paragraph v:horizAlign="1"/><v:tabList/>arrow-size-3</text>		</g>
		<g id="shape35-218" v:mID="35" v:groupContext="shape" transform="translate(491.04,-384.84)">
			<title>Sheet.35</title>
			<desc>arrow-size-4</desc>
			<v:textBlock v:margins="rect(0,0,0,0)" v:tabSpace="42.5197"/>
			<v:textRect cx="48.96" cy="611.64" width="97.92" height="0.72"/>
			<path d="M0 611.64 L97.92 611.64 L0 611.64 Z" class="st1"/>
			<path d="M0 611.64 L97.92 611.64" class="st2"/>
			<text x="18.66" y="615.24" class="st4" v:langID="2057"><v:paragraph v:horizAlign="1"/><v:tabList/>arrow-size-4</text>		</g>
		<g id="shape36-224" v:mID="36" v:groupContext="shape" transform="translate(606.24,-384.84)">
			<title>Sheet.36</title>
			<desc>arrow-size-5</desc>
			<v:textBlock v:margins="rect(0,0,0,0)" v:tabSpace="42.5197"/>
			<v:textRect cx="48.96" cy="611.64" width="97.92" height="0.72"/>
			<path d="M0 611.64 L97.92 611.64 L0 611.64 Z" class="st1"/>
			<path d="M0 611.64 L97.92 611.64" class="st2"/>
			<text x="18.66" y="615.24" class="st4" v:langID="2057"><v:paragraph v:horizAlign="1"/><v:tabList/>arrow-size-5</text>		</g>
		<g id="shape37-230" v:mID="37" v:groupContext="shape" transform="translate(33.12,-334.8)">
			<title>Sheet.37</title>
			<desc>arrow-curved-size2</desc>
			<v:textBlock v:margins="rect(0,0,0,0)" v:tabSpace="42.5197"/>
			<v:textRect cx="103.68" cy="597.6" width="207.36" height="28.8"/>
			<path d="M0 597.6 C68.43 600.48 136.86 612 597.2 606.24 L0 597.6 Z" class="st1"/>
			<path d="M0 597.6 C68.43 600.48 136.86 612 597.2 606.24" class="st2"/>
			<text x="56.75" y="601.2" class="st4" v:langID="2057"><v:paragraph v:horizAlign="1"/><v:tabList/>arrow-curved-size2</text>		</g>
		<g id="shape38-235" v:mID="38" v:groupContext="shape" transform="translate(263.52,-334.8)">
			<title>Sheet.38</title>
			<desc>arrow-curved-size4</desc>
			<v:textBlock v:margins="rect(0,0,0,0)" v:tabSpace="42.5197"/>
			<v:textRect cx="103.68" cy="597.6" width="207.36" height="28.8"/>
			<path d="M0 597.6 C68.43 600.48 136.86 612 597.2 606.24 L0 597.6 Z" class="st1"/>
			<path d="M0 597.6 C68.43 600.48 136.86 612 597.2 606.24" class="st2"/>
			<text x="56.75" y="601.2" class="st4" v:langID="2057"><v:paragraph v:horizAlign="1"/><v:tabList/>arrow-curved-size4</text>		</g>
	</g>
</svg>
