<?xml version="1.0" encoding="UTF-8" standalone="no"?>
<!DOCTYPE svg PUBLIC "-//W3C//DTD SVG 1.1//EN" "http://www.w3.org/Graphics/SVG/1.1/DTD/svg11.dtd">
<!-- Generated by Microsoft Visio, SVG Export comprehensive-features-transforms.svg Transforms -->
<svg xmlns="http://www.w3.org/2000/svg" xmlns:xlink="http://www.w3.org/1999/xlink" xmlns:ev="http://www.w3.org/2001/xml-events"
		xmlns:v="http://schemas.microsoft.com/visio/2003/SVGExtensions/" width="11in" height="8.5in" viewBox="0 0 792 612"
		xml:space="preserve" color-interpolation-filters="sRGB" class="st6">
	<v:documentProperties v:langID="2057" v:metric="true" v:viewMarkup="false">
		<v:userDefs>
			<v:ud v:nameU="msvNoAutoConnect" v:val="VT0(1):26"/>
		</v:userDefs>
	</v:documentProperties>

	<style type="text/css">
	<![CDATA[
		.st1 {fill:#cfe2ff}
		.st2 {stroke:#333333;stroke-linecap:round;stroke-linejoin:round;stroke-width:1.008;visibility:hidden}
		.st3 {fill:#000000;font-family:Calibri;font-size:1.00001em}
		.st4 {font-size:1em}
		.st5 {fill:#cfe2ff;stroke:#333333;stroke-linecap:round;stroke-linejoin:round;stroke-width:1.008}
		.st6 {fill:none;fill-rule:evenodd;font-size:12px;overflow:visible;stroke-linecap:square;stroke-miterlimit:3}
	]]>
	</style>

	<g v:mID="6" v:index="6" v:groupContext="foregroundPage">
		<title>Transforms</title>
		<v:pageProperties v:drawingScale="1" v:pageScale="1" v:drawingUnits="0" v:shadowOffsetX="8.50394"
				v:shadowOffsetY="-8.50394"/>
		<g id="shape1-1" v:mID="1" v:groupContext="shape" transform="translate(-234.415,-389.81) rotate(-30)">
			<title>Sheet.1</title>
			<desc>transform-rotation-30</desc>
			<v:textBlock v:margins="rect(0,0,0,0)" v:tabSpace="42.5197"/>
			<v:textRect cx="54" cy="576.9" width="108" height="70.2"/>
			<rect x="0" y="541.8" width="108" height="70.2" class="st1"/>
			<rect x="0" y="541.8" width="108" height="70.2" class="st2"/>
			<text x="0.05" y="580.5" class="st3" v:langID="2057"><v:paragraph v:horizAlign="1"/><v:tabList/>transform-rotation-30</text>		</g>
		<g id="shape2-5" v:mID="2" v:groupContext="shape" transform="translate(-201.314,-286.946) rotate(-45)">
			<title>Sheet.2</title>
			<desc>transform-rotation-45</desc>
			<v:textBlock v:margins="rect(0,0,0,0)" v:tabSpace="42.5197"/>
			<v:textRect cx="54" cy="576.9" width="108" height="70.2"/>
			<rect x="0" y="541.8" width="108" height="70.2" class="st1"/>
			<rect x="0" y="541.8" width="108" height="70.2" class="st2"/>
			<text x="0.05" y="580.5" class="st3" v:langID="2057"><v:paragraph v:horizAlign="1"/><v:tabList/>transform-rotation-45</text>		</g>
		<g id="shape3-9" v:mID="3" v:groupContext="shape" transform="translate(-188.1,136.8) rotate(-90)">
			<title>Sheet.3</title>
			<desc>transform-rotation-90</desc>
			<v:textBlock v:margins="rect(0,0,0,0)" v:tabSpace="42.5197"/>
			<v:textRect cx="54" cy="576.9" width="108" height="70.2"/>
			<rect x="0" y="541.8" width="108" height="70.2" class="st1"/>
			<rect x="0" y="541.8" width="108" height="70.2" class="st2"/>
			<text x="0.05" y="580.5" class="st3" v:langID="2057"><v:paragraph v:horizAlign="1"/><v:tabList/>transform-rotation-90</text>		</g>
		<g id="shape4-13" v:mID="4" v:groupContext="shape" transform="translate(163.054,528.914) rotate(-135)">
			<title>Sheet.4</title>
			<desc>transform-rotation-135</desc>
			<v:textBlock v:margins="rect(0,0,0,0)" v:tabSpace="42.5197"/>
			<v:textRect cx="54" cy="576.9" width="108" height="70.2"/>
			<rect x="0" y="541.8" width="108" height="70.2" class="st1"/>
			<rect x="0" y="541.8" width="108" height="70.2" class="st2"/>
			<text x="6.13" y="573.3" class="st3" v:langID="2057"><v:paragraph v:horizAlign="1"/><v:tabList/>transform-rotation-<tspan
						x="44.88" dy="1.2em" class="st4">135</tspan></text>		</g>
		<g id="shape5-18" v:mID="5" v:groupContext="shape" transform="translate(730.8,659.7) rotate(180)">
			<title>Sheet.5</title>
			<desc>transform-rotation-180</desc>
			<v:textBlock v:margins="rect(0,0,0,0)" v:tabSpace="42.5197"/>
			<v:textRect cx="54" cy="576.9" width="108" height="70.2"/>
			<rect x="0" y="541.8" width="108" height="70.2" class="st1"/>
			<rect x="0" y="541.8" width="108" height="70.2" class="st2"/>
			<text x="6.13" y="573.3" class="st3" v:langID="2057"><v:paragraph v:horizAlign="1"/><v:tabList/>transform-rotation-<tspan
						x="44.88" dy="1.2em" class="st4">180</tspan></text>		</g>
		<g id="shape6-23" v:mID="6" v:groupContext="shape" transform="translate(154.8,-386.1) scale(-1,1)">
			<title>Sheet.6</title>
			<desc>transform-flipx</desc>
			<v:textBlock v:margins="rect(0,0,0,0)" v:tabSpace="42.5197"/>
			<v:textRect cx="54" cy="576.9" width="108" height="70.2"/>
			<path d="M0 612 L54 612 L54 576.9 L108 576.9 L108 541.8 L0 541.8 L0 612 Z" class="st5"/>
			<text x="-90.53" y="580.5" transform="scale(-1,1)" class="st3" v:langID="2057"><v:paragraph v:horizAlign="1"/><v:tabList/>transform-flipx</text>		</g>
		<g id="shape7-26" v:mID="7" v:groupContext="shape" transform="translate(190.8,767.7) scale(1,-1)">
			<title>Sheet.7</title>
			<desc>transform-flipy</desc>
			<v:textBlock v:margins="rect(0,0,0,0)" v:tabSpace="42.5197"/>
			<v:textRect cx="54" cy="576.9" width="108" height="70.2"/>
			<path d="M0 612 L54 612 L54 576.9 L108 576.9 L108 541.8 L0 541.8 L0 612 Z" class="st5"/>
			<text x="17.36" y="-573.3" transform="scale(1,-1)" class="st3" v:langID="2057"><v:paragraph v:horizAlign="1"/><v:tabList/>transform-flipy</text>		</g>
		<g id="shape8-29" v:mID="8" v:groupContext="shape" transform="translate(442.8,767.7) rotate(180)">
			<title>Sheet.8</title>
			<desc>transform-flipx-flipy</desc>
			<v:textBlock v:margins="rect(0,0,0,0)" v:tabSpace="42.5197"/>
			<v:textRect cx="54" cy="576.9" width="108" height="70.2" transform="rotate(180)"/>
			<path d="M0 612 L54 612 L54 576.9 L108 576.9 L108 541.8 L0 541.8 L0 612 Z" class="st5"/>
			<text x="-102.82" y="-573.3" transform="rotate(180)" class="st3" v:langID="2057"><v:paragraph v:horizAlign="1"/><v:tabList/>transform-flipx-flipy</text>		</g>
		<g id="shape9-32" v:mID="9" v:groupContext="shape" transform="translate(478.8,-386.1)">
			<title>Sheet.9</title>
			<desc>transform-no-flip-reference</desc>
			<v:textBlock v:margins="rect(0,0,0,0)" v:tabSpace="42.5197"/>
			<v:textRect cx="54" cy="576.9" width="108" height="70.2"/>
			<path d="M0 612 L54 612 L54 576.9 L108 576.9 L108 541.8 L0 541.8 L0 612 Z" class="st5"/>
			<text x="10.08" y="573.3" class="st3" v:langID="2057"><v:paragraph v:horizAlign="1"/><v:tabList/>transform-no-flip-<tspan
						x="30.35" dy="1.2em" class="st4">reference</tspan></text>		</g>
	</g>
</svg>
