<?xml version="1.0" encoding="UTF-8" standalone="no"?>
<!DOCTYPE svg PUBLIC "-//W3C//DTD SVG 1.1//EN" "http://www.w3.org/Graphics/SVG/1.1/DTD/svg11.dtd">
<!-- Generated by Microsoft Visio, SVG Export comprehensive-features-shapes.svg Shapes -->
<svg xmlns="http://www.w3.org/2000/svg" xmlns:xlink="http://www.w3.org/1999/xlink" xmlns:ev="http://www.w3.org/2001/xml-events"
		xmlns:v="http://schemas.microsoft.com/visio/2003/SVGExtensions/" width="11in" height="8.5in" viewBox="0 0 792 612"
		xml:space="preserve" color-interpolation-filters="sRGB" class="st18">
	<v:documentProperties v:langID="2057" v:metric="true" v:viewMarkup="false">
		<v:userDefs>
			<v:ud v:nameU="msvNoAutoConnect" v:val="VT0(1):26"/>
		</v:userDefs>
	</v:documentProperties>

	<style type="text/css">
	<![CDATA[
		.st1 {fill:#f0f4ff}
		.st2 {stroke:#333333;stroke-linecap:round;stroke-linejoin:round;stroke-width:1.008;visibility:hidden}
		.st3 {fill:#000000;font-family:Calibri;font-size:1.00001em}
		.st4 {font-size:1em}
		.st5 {fill:#cfe2ff;stroke:#333333;stroke-linecap:round;stroke-linejoin:round;stroke-width:1.008}
		.st6 {fill:#d4ecd4;stroke:#333333;stroke-linecap:round;stroke-linejoin:round;stroke-width:1.008}
		.st7 {fill:#ffe8a0;stroke:#333333;stroke-linecap:round;stroke-linejoin:round;stroke-width:1.008}
		.st8 {fill:#ffd4ec;stroke:#333333;stroke-linecap:round;stroke-linejoin:round;stroke-width:1.008}
		.st9 {fill:#bfdfff}
		.st10 {stroke:#003366;stroke-linecap:round;stroke-linejoin:round;stroke-width:1.44}
		.st11 {fill:#ff9966}
		.st12 {stroke:#222222;stroke-linecap:round;stroke-linejoin:round;stroke-width:0.864;visibility:hidden}
		.st13 {fill:#66ccff}
		.st14 {fill:#99dd66}
		.st15 {fill:#ffcc99;stroke:#222222;stroke-linecap:round;stroke-linejoin:round;stroke-width:1.008}
		.st16 {fill:#ffaaaa;stroke:#222222;stroke-linecap:round;stroke-linejoin:round;stroke-width:1.008}
		.st17 {fill:#fff066;stroke:#222222;stroke-linecap:round;stroke-linejoin:round;stroke-width:1.008}
		.st18 {fill:none;fill-rule:evenodd;font-size:12px;overflow:visible;stroke-linecap:square;stroke-miterlimit:3}
	]]>
	</style>

	<g v:mID="1" v:index="1" v:groupContext="foregroundPage">
		<title>Shapes</title>
		<v:pageProperties v:drawingScale="1" v:pageScale="1" v:drawingUnits="0" v:shadowOffsetX="8.50394"
				v:shadowOffsetY="-8.50394"/>
		<g id="shape1-1" v:mID="1" v:groupContext="shape" transform="translate(46.8,-500.04)">
			<title>Sheet.1</title>
			<desc>shape-rectangle</desc>
			<v:textBlock v:margins="rect(0,0,0,0)" v:tabSpace="42.5197"/>
			<v:textRect cx="54" cy="579.24" width="108" height="65.52"/>
			<rect x="0" y="546.48" width="108" height="65.52" class="st1"/>
			<rect x="0" y="546.48" width="108" height="65.52" class="st2"/>
			<text x="14.82" y="582.84" class="st3" v:langID="2057"><v:paragraph v:horizAlign="1"/><v:tabList/>shape-rectangle</text>		</g>
		<g id="shape2-5" v:mID="2" v:groupContext="shape" transform="translate(190.8,-500.04)">
			<title>Sheet.2</title>
			<desc>shape-rounded-rectangle</desc>
			<v:textBlock v:margins="rect(0,0,0,0)" v:tabSpace="42.5197"/>
			<v:textRect cx="54" cy="579.24" width="108" height="65.52"/>
			<rect x="0" y="546.48" width="108" height="65.52" rx="10.8" ry="10.8" class="st1"/>
			<rect x="0" y="546.48" width="108" height="65.52" rx="10.8" ry="10.8" class="st2"/>
			<text x="14.96" y="575.64" class="st3" v:langID="2057"><v:paragraph v:horizAlign="1"/><v:tabList/>shape-rounded-<tspan
						x="31.16" dy="1.2em" class="st4">rectangle</tspan></text>		</g>
		<g id="shape3-10" v:mID="3" v:groupContext="shape" transform="translate(334.8,-500.04)">
			<title>Sheet.3</title>
			<desc>shape-ellipse</desc>
			<v:textBlock v:margins="rect(0,0,0,0)" v:tabSpace="42.5197"/>
			<v:textRect cx="54" cy="579.24" width="108" height="65.52"/>
			<ellipse cx="54" cy="579.24" rx="54" ry="32.76" class="st5"/>
			<text x="22.05" y="582.84" class="st3" v:langID="2057"><v:paragraph v:horizAlign="1"/><v:tabList/>shape-ellipse</text>		</g>
		<g id="shape4-13" v:mID="4" v:groupContext="shape" transform="translate(478.8,-500.04)">
			<title>Sheet.4</title>
			<desc>shape-triangle</desc>
			<v:textBlock v:margins="rect(0,0,0,0)" v:tabSpace="42.5197"/>
			<v:textRect cx="54" cy="579.24" width="108" height="65.52"/>
			<path d="M54 549.76 L11.91 593.98 L96.09 593.98 L54 549.76 Z" class="st6"/>
			<text x="18.96" y="582.84" class="st3" v:langID="2057"><v:paragraph v:horizAlign="1"/><v:tabList/>shape-triangle</text>		</g>
		<g id="shape5-16" v:mID="5" v:groupContext="shape" transform="translate(622.8,-500.04)">
			<title>Sheet.5</title>
			<desc>shape-pentagon</desc>
			<v:textBlock v:margins="rect(0,0,0,0)" v:tabSpace="42.5197"/>
			<v:textRect cx="54" cy="579.24" width="108" height="65.52"/>
			<path d="M54 549.76 L7.78 570.13 L25.43 603.09 L82.57 603.09 L100.22 570.13 L54 549.76 Z" class="st6"/>
			<text x="14.34" y="582.84" class="st3" v:langID="2057"><v:paragraph v:horizAlign="1"/><v:tabList/>shape-pentagon</text>		</g>
		<g id="shape6-19" v:mID="6" v:groupContext="shape" transform="translate(46.8,-399.24)">
			<title>Sheet.6</title>
			<desc>shape-hexagon</desc>
			<v:textBlock v:margins="rect(0,0,0,0)" v:tabSpace="42.5197"/>
			<v:textRect cx="54" cy="579.24" width="108" height="65.52"/>
			<path d="M54 549.76 L11.91 564.5 L11.91 593.98 L54 608.72 L96.09 593.98 L96.09 564.5 L54 549.76 Z" class="st6"/>
			<text x="16.9" y="582.84" class="st3" v:langID="2057"><v:paragraph v:horizAlign="1"/><v:tabList/>shape-hexagon</text>		</g>
		<g id="shape7-22" v:mID="7" v:groupContext="shape" transform="translate(190.8,-399.24)">
			<title>Sheet.7</title>
			<desc>shape-octagon</desc>
			<v:textBlock v:margins="rect(0,0,0,0)" v:tabSpace="42.5197"/>
			<v:textRect cx="54" cy="579.24" width="108" height="65.52"/>
			<path d="M54 549.76 L19.63 558.39 L5.4 579.24 L19.63 600.09 L54 608.72 L88.37 600.09 L102.6 579.24 L88.37 558.39 L54
						 549.76 Z" class="st6"/>
			<text x="17.93" y="582.84" class="st3" v:langID="2057"><v:paragraph v:horizAlign="1"/><v:tabList/>shape-octagon</text>		</g>
		<g id="shape8-25" v:mID="8" v:groupContext="shape" transform="translate(334.8,-399.24)">
			<title>Sheet.8</title>
			<desc>shape-star-5point</desc>
			<v:textBlock v:margins="rect(0,0,0,0)" v:tabSpace="42.5197"/>
			<v:textRect cx="54" cy="579.24" width="108" height="65.52"/>
			<path d="M54 549.76 L47.07 569.7 L25.96 570.13 L42.78 582.88 L36.67 603.09 L54 591.03 L71.33 603.09 L65.22 582.88 L82.04
						 570.13 L60.93 569.7 L54 549.76 Z" class="st7"/>
			<text x="10.6" y="582.84" class="st3" v:langID="2057"><v:paragraph v:horizAlign="1"/><v:tabList/>shape-star-5point</text>		</g>
		<g id="shape9-28" v:mID="9" v:groupContext="shape" transform="translate(478.8,-399.24)">
			<title>Sheet.9</title>
			<desc>shape-star-6point</desc>
			<v:textBlock v:margins="rect(0,0,0,0)" v:tabSpace="42.5197"/>
			<v:textRect cx="54" cy="579.24" width="108" height="65.52"/>
			<path d="M54 549.76 L48.1 569.03 L28.47 564.5 L42.21 579.24 L28.47 593.98 L48.1 589.45 L54 608.72 L59.9 589.45 L79.53
						 593.98 L65.79 579.24 L79.53 564.5 L59.9 569.03 L54 549.76 Z" class="st7"/>
			<text x="10.6" y="582.84" class="st3" v:langID="2057"><v:paragraph v:horizAlign="1"/><v:tabList/>shape-star-6point</text>		</g>
		<g id="shape10-31" v:mID="10" v:groupContext="shape" transform="translate(622.8,-399.24)">
			<title>Sheet.10</title>
			<desc>shape-diamond</desc>
			<v:textBlock v:margins="rect(0,0,0,0)" v:tabSpace="42.5197"/>
			<v:textRect cx="54" cy="579.24" width="108" height="65.52"/>
			<path d="M54 612 L108 579.24 L54 546.48 L0 579.24 L54 612 Z" class="st8"/>
			<text x="15.99" y="582.84" class="st3" v:langID="2057"><v:paragraph v:horizAlign="1"/><v:tabList/>shape-diamond</text>		</g>
		<g id="shape11-34" v:mID="11" v:groupContext="shape" transform="translate(46.8,-298.44)">
			<title>Sheet.11</title>
			<desc>shape-icon-multigeom</desc>
			<v:textBlock v:margins="rect(0,0,0,0)" v:tabSpace="42.5197"/>
			<v:textRect cx="54" cy="579.24" width="108" height="65.52"/>
			<path d="M0 612 L108 612 L108 546.48 L0 546.48 L0 612 ZM10.8 605.45 L97.2 553.03 L97.2 605.45 L10.8 553.03 L10.8 605.45
						 Z" class="st9"/>
			<path d="M10.8 605.45 L97.2 553.03M97.2 605.45 L10.8 553.03" class="st10"/>
			<text x="25.58" y="575.64" class="st3" v:langID="2057"><v:paragraph v:horizAlign="1"/><v:tabList/>shape-icon-<tspan
						x="27.52" dy="1.2em" class="st4">multigeom</tspan></text>		</g>
		<g id="group15-39" transform="translate(200.16,-303.552)" v:mID="15" v:groupContext="group">
			<title>Sheet.15</title>
			<desc>shape-group-3children</desc>
			<g id="shape12-40" v:mID="12" v:groupContext="shape" transform="translate(1.44,-24.372)">
				<title>Sheet.12</title>
				<rect x="0" y="585.792" width="32.4" height="26.208" class="st11"/>
				<rect x="0" y="585.792" width="32.4" height="26.208" class="st12"/>
			</g>
			<g id="shape13-43" v:mID="13" v:groupContext="shape" transform="translate(55.44,-24.372)">
				<title>Sheet.13</title>
				<rect x="0" y="585.792" width="32.4" height="26.208" class="st13"/>
				<rect x="0" y="585.792" width="32.4" height="26.208" class="st12"/>
			</g>
			<g id="shape14-46" v:mID="14" v:groupContext="shape" transform="translate(28.44,-1.44)">
				<title>Sheet.14</title>
				<rect x="0" y="585.792" width="32.4" height="26.208" class="st14"/>
				<rect x="0" y="585.792" width="32.4" height="26.208" class="st12"/>
			</g>
			<g id="shape15-49" v:mID="15" v:groupContext="groupContent">
				<v:textBlock v:margins="rect(0,0,0,0)" v:tabSpace="42.5197"/>
				<v:textRect cx="44.64" cy="585.99" width="89.28" height="52.02"/>
				<text x="12.07" y="582.39" class="st3" v:langID="2057"><v:paragraph v:horizAlign="1"/><v:tabList/>shape-group-<tspan
							x="21.77" dy="1.2em" class="st4">3children</tspan></text>			</g>
		</g>
		<g id="shape16-52" v:mID="16" v:groupContext="shape" transform="translate(334.8,-298.44)">
			<title>Sheet.16</title>
			<desc>shape-arrow-block</desc>
			<v:textBlock v:margins="rect(0,0,0,0)" v:tabSpace="42.5197"/>
			<v:textRect cx="54" cy="579.24" width="108" height="65.52"/>
			<path d="M0 592.34 L64.8 592.34 L64.8 605.45 L108 579.24 L64.8 553.03 L64.8 566.14 L0 566.14 L0 592.34 Z" class="st15"/>
			<text x="8.35" y="582.84" class="st3" v:langID="2057"><v:paragraph v:horizAlign="1"/><v:tabList/>shape-arrow-block</text>		</g>
		<g id="shape17-55" v:mID="17" v:groupContext="shape" transform="translate(478.8,-298.44)">
			<title>Sheet.17</title>
			<desc>shape-cross</desc>
			<v:textBlock v:margins="rect(0,0,0,0)" v:tabSpace="42.5197"/>
			<v:textRect cx="54" cy="579.24" width="108" height="65.52"/>
			<path d="M37.8 612 L70.2 612 L70.2 589.07 L108 589.07 L108 569.41 L70.2 569.41 L70.2 546.48 L37.8 546.48 L37.8 569.41
						 L0 569.41 L0 589.07 L37.8 589.07 L37.8 612 Z" class="st16"/>
			<text x="25.17" y="582.84" class="st3" v:langID="2057"><v:paragraph v:horizAlign="1"/><v:tabList/>shape-cross</text>		</g>
		<g id="shape18-58" v:mID="18" v:groupContext="shape" transform="translate(622.8,-298.44)">
			<title>Sheet.18</title>
			<desc>shape-lightning</desc>
			<v:textBlock v:margins="rect(0,0,0,0)" v:tabSpace="42.5197"/>
			<v:textRect cx="54" cy="579.24" width="108" height="65.52"/>
			<path d="M54 546.48 L21.6 575.96 L43.2 575.96 L27 612 L70.2 582.52 L48.6 582.52 L54 546.48 Z" class="st17"/>
			<text x="16.41" y="582.84" class="st3" v:langID="2057"><v:paragraph v:horizAlign="1"/><v:tabList/>shape-lightning</text>		</g>
	</g>
</svg>
