<?xml version="1.0" encoding="UTF-8" standalone="no"?>
<!DOCTYPE svg PUBLIC "-//W3C//DTD SVG 1.1//EN" "http://www.w3.org/Graphics/SVG/1.1/DTD/svg11.dtd">
<!-- Generated by Microsoft Visio, SVG Export comprehensive-features-lines.svg Lines -->
<svg xmlns="http://www.w3.org/2000/svg" xmlns:xlink="http://www.w3.org/1999/xlink" xmlns:ev="http://www.w3.org/2001/xml-events"
		xmlns:v="http://schemas.microsoft.com/visio/2003/SVGExtensions/" width="11in" height="8.5in" viewBox="0 0 792 612"
		xml:space="preserve" color-interpolation-filters="sRGB" class="st16">
	<v:documentProperties v:langID="2057" v:metric="true" v:viewMarkup="false">
		<v:userDefs>
			<v:ud v:nameU="msvNoAutoConnect" v:val="VT0(1):26"/>
		</v:userDefs>
	</v:documentProperties>

	<style type="text/css">
	<![CDATA[
		.st1 {fill:#ffffff}
		.st2 {stroke:#333333;stroke-linecap:round;stroke-linejoin:round;stroke-width:1.8;visibility:hidden}
		.st3 {fill:#000000;font-family:Calibri;font-size:1.00001em}
		.st4 {fill:#f0f4ff}
		.st5 {stroke:#333333;stroke-linecap:round;stroke-linejoin:round;stroke-width:0.36;visibility:hidden}
		.st6 {stroke:#333333;stroke-linecap:round;stroke-linejoin:round;stroke-width:1.008;visibility:hidden}
		.st7 {stroke:#333333;stroke-linecap:round;stroke-linejoin:round;stroke-width:2.016;visibility:hidden}
		.st8 {stroke:#333333;stroke-linecap:round;stroke-linejoin:round;stroke-width:3.96;visibility:hidden}
		.st9 {stroke:#333333;stroke-linecap:round;stroke-linejoin:round;stroke-width:7.92;visibility:hidden}
		.st10 {stroke:#333333;stroke-linecap:round;stroke-linejoin:round;stroke-width:4.32;visibility:hidden}
		.st11 {stroke:#333333;stroke-linecap:butt;stroke-width:4.32;visibility:hidden}
		.st12 {stroke:#333333;stroke-width:4.32;visibility:hidden}
		.st13 {stroke:url(#grad0-77);stroke-linecap:round;stroke-linejoin:round;stroke-width:4.32;visibility:hidden}
		.st14 {font-size:1em}
		.st15 {stroke:#ff8800;stroke-linecap:round;stroke-linejoin:round;stroke-width:2.88;visibility:hidden}
		.st16 {fill:none;fill-rule:evenodd;font-size:12px;overflow:visible;stroke-linecap:square;stroke-miterlimit:3}
	]]>
	</style>

	<defs id="Patterns_And_Gradients">
		<linearGradient id="grad0-77" x1="0" y1="0" x2="1" y2="0" gradientTransform="rotate(0 0.5 0.5)">
			<stop offset="0" stop-color="#cc0000" stop-opacity="1"/>
			<stop offset="1" stop-color="#0044cc" stop-opacity="1"/>
		</linearGradient>
	</defs>
	<g v:mID="3" v:index="3" v:groupContext="foregroundPage">
		<title>Lines</title>
		<v:pageProperties v:drawingScale="0.0393701" v:pageScale="0.0393701" v:drawingUnits="24" v:shadowOffsetX="8.50394"
				v:shadowOffsetY="-8.50394"/>
		<g id="shape1-1" v:mID="1" v:groupContext="shape" transform="translate(46.8,-541.62)">
			<title>Sheet.1</title>
			<desc>line-pattern-01</desc>
			<v:textBlock v:margins="rect(0,0,0,0)" v:tabSpace="42.5197"/>
			<v:textRect cx="54" cy="595.62" width="108" height="32.76"/>
			<rect x="0" y="579.24" width="108" height="32.76" class="st1"/>
			<rect x="0" y="579.24" width="108" height="32.76" class="st2"/>
			<text x="17.08" y="599.22" class="st3" v:langID="2057"><v:paragraph v:horizAlign="1"/><v:tabList/>line-pattern-01</text>		</g>
		<g id="shape2-5" v:mID="2" v:groupContext="shape" transform="translate(190.8,-541.62)">
			<title>Sheet.2</title>
			<desc>line-pattern-02</desc>
			<v:textBlock v:margins="rect(0,0,0,0)" v:tabSpace="42.5197"/>
			<v:textRect cx="54" cy="595.62" width="108" height="32.76"/>
			<path d="M0 612 L108 612 L108 579.24 L0 579.24 L0 612 Z" class="st1"/>
			<text x="17.08" y="599.22" class="st3" v:langID="2057"><v:paragraph v:horizAlign="1"/><v:tabList/>line-pattern-02</text>		</g>
		<g id="shape3-9" v:mID="3" v:groupContext="shape" transform="translate(334.8,-541.62)">
			<title>Sheet.3</title>
			<desc>line-pattern-03</desc>
			<v:textBlock v:margins="rect(0,0,0,0)" v:tabSpace="42.5197"/>
			<v:textRect cx="54" cy="595.62" width="108" height="32.76"/>
			<path d="M0 612 L108 612 L108 579.24 L0 579.24 L0 612 Z" class="st1"/>
			<text x="17.08" y="599.22" class="st3" v:langID="2057"><v:paragraph v:horizAlign="1"/><v:tabList/>line-pattern-03</text>		</g>
		<g id="shape4-13" v:mID="4" v:groupContext="shape" transform="translate(478.8,-541.62)">
			<title>Sheet.4</title>
			<desc>line-pattern-04</desc>
			<v:textBlock v:margins="rect(0,0,0,0)" v:tabSpace="42.5197"/>
			<v:textRect cx="54" cy="595.62" width="108" height="32.76"/>
			<path d="M0 612 L108 612 L108 579.24 L0 579.24 L0 612 Z" class="st1"/>
			<text x="17.08" y="599.22" class="st3" v:langID="2057"><v:paragraph v:horizAlign="1"/><v:tabList/>line-pattern-04</text>		</g>
		<g id="shape5-17" v:mID="5" v:groupContext="shape" transform="translate(622.8,-541.62)">
			<title>Sheet.5</title>
			<desc>line-pattern-05</desc>
			<v:textBlock v:margins="rect(0,0,0,0)" v:tabSpace="42.5197"/>
			<v:textRect cx="54" cy="595.62" width="108" height="32.76"/>
			<path d="M0 612 L108 612 L108 579.24 L0 579.24 L0 612 Z" class="st1"/>
			<text x="17.08" y="599.22" class="st3" v:langID="2057"><v:paragraph v:horizAlign="1"/><v:tabList/>line-pattern-05</text>		</g>
		<g id="shape6-21" v:mID="6" v:groupContext="shape" transform="translate(46.8,-491.22)">
			<title>Sheet.6</title>
			<desc>line-pattern-06</desc>
			<v:textBlock v:margins="rect(0,0,0,0)" v:tabSpace="42.5197"/>
			<v:textRect cx="54" cy="595.62" width="108" height="32.76"/>
			<path d="M0 612 L108 612 L108 579.24 L0 579.24 L0 612 Z" class="st1"/>
			<text x="17.08" y="599.22" class="st3" v:langID="2057"><v:paragraph v:horizAlign="1"/><v:tabList/>line-pattern-06</text>		</g>
		<g id="shape7-25" v:mID="7" v:groupContext="shape" transform="translate(190.8,-491.22)">
			<title>Sheet.7</title>
			<desc>line-pattern-07</desc>
			<v:textBlock v:margins="rect(0,0,0,0)" v:tabSpace="42.5197"/>
			<v:textRect cx="54" cy="595.62" width="108" height="32.76"/>
			<path d="M0 612 L108 612 L108 579.24 L0 579.24 L0 612 Z" class="st1"/>
			<text x="17.08" y="599.22" class="st3" v:langID="2057"><v:paragraph v:horizAlign="1"/><v:tabList/>line-pattern-07</text>		</g>
		<g id="shape8-29" v:mID="8" v:groupContext="shape" transform="translate(334.8,-491.22)">
			<title>Sheet.8</title>
			<desc>line-pattern-08</desc>
			<v:textBlock v:margins="rect(0,0,0,0)" v:tabSpace="42.5197"/>
			<v:textRect cx="54" cy="595.62" width="108" height="32.76"/>
			<path d="M0 612 L108 612 L108 579.24 L0 579.24 L0 612 Z" class="st1"/>
			<text x="17.08" y="599.22" class="st3" v:langID="2057"><v:paragraph v:horizAlign="1"/><v:tabList/>line-pattern-08</text>		</g>
		<g id="shape9-33" v:mID="9" v:groupContext="shape" transform="translate(478.8,-491.22)">
			<title>Sheet.9</title>
			<desc>line-pattern-09</desc>
			<v:textBlock v:margins="rect(0,0,0,0)" v:tabSpace="42.5197"/>
			<v:textRect cx="54" cy="595.62" width="108" height="32.76"/>
			<path d="M0 612 L108 612 L108 579.24 L0 579.24 L0 612 Z" class="st1"/>
			<text x="17.08" y="599.22" class="st3" v:langID="2057"><v:paragraph v:horizAlign="1"/><v:tabList/>line-pattern-09</text>		</g>
		<g id="shape10-37" v:mID="10" v:groupContext="shape" transform="translate(622.8,-491.22)">
			<title>Sheet.10</title>
			<desc>line-pattern-10</desc>
			<v:textBlock v:margins="rect(0,0,0,0)" v:tabSpace="42.5197"/>
			<v:textRect cx="54" cy="595.62" width="108" height="32.76"/>
			<path d="M0 612 L108 612 L108 579.24 L0 579.24 L0 612 Z" class="st1"/>
			<text x="17.08" y="599.22" class="st3" v:langID="2057"><v:paragraph v:horizAlign="1"/><v:tabList/>line-pattern-10</text>		</g>
		<g id="shape11-41" v:mID="11" v:groupContext="shape" transform="translate(46.8,-440.82)">
			<title>Sheet.11</title>
			<desc>line-weight-0.25pt</desc>
			<v:textBlock v:margins="rect(0,0,0,0)" v:tabSpace="42.5197"/>
			<v:textRect cx="54" cy="595.62" width="108" height="32.76"/>
			<rect x="0" y="579.24" width="108" height="32.76" class="st4"/>
			<rect x="0" y="579.24" width="108" height="32.76" class="st5"/>
			<text x="9" y="599.22" class="st3" v:langID="2057"><v:paragraph v:horizAlign="1"/><v:tabList/>line-weight-0.25pt</text>		</g>
		<g id="shape12-45" v:mID="12" v:groupContext="shape" transform="translate(190.8,-440.82)">
			<title>Sheet.12</title>
			<desc>line-weight-1pt</desc>
			<v:textBlock v:margins="rect(0,0,0,0)" v:tabSpace="42.5197"/>
			<v:textRect cx="54" cy="595.62" width="108" height="32.76"/>
			<rect x="0" y="579.24" width="108" height="32.76" class="st4"/>
			<rect x="0" y="579.24" width="108" height="32.76" class="st6"/>
			<text x="16.59" y="599.22" class="st3" v:langID="2057"><v:paragraph v:horizAlign="1"/><v:tabList/>line-weight-1pt</text>		</g>
		<g id="shape13-49" v:mID="13" v:groupContext="shape" transform="translate(334.8,-440.82)">
			<title>Sheet.13</title>
			<desc>line-weight-2pt</desc>
			<v:textBlock v:margins="rect(0,0,0,0)" v:tabSpace="42.5197"/>
			<v:textRect cx="54" cy="595.62" width="108" height="32.76"/>
			<rect x="0" y="579.24" width="108" height="32.76" class="st4"/>
			<rect x="0" y="579.24" width="108" height="32.76" class="st7"/>
			<text x="16.59" y="599.22" class="st3" v:langID="2057"><v:paragraph v:horizAlign="1"/><v:tabList/>line-weight-2pt</text>		</g>
		<g id="shape14-53" v:mID="14" v:groupContext="shape" transform="translate(478.8,-440.82)">
			<title>Sheet.14</title>
			<desc>line-weight-4pt</desc>
			<v:textBlock v:margins="rect(0,0,0,0)" v:tabSpace="42.5197"/>
			<v:textRect cx="54" cy="595.62" width="108" height="32.76"/>
			<rect x="0" y="579.24" width="108" height="32.76" class="st4"/>
			<rect x="0" y="579.24" width="108" height="32.76" class="st8"/>
			<text x="16.59" y="599.22" class="st3" v:langID="2057"><v:paragraph v:horizAlign="1"/><v:tabList/>line-weight-4pt</text>		</g>
		<g id="shape15-57" v:mID="15" v:groupContext="shape" transform="translate(622.8,-440.82)">
			<title>Sheet.15</title>
			<desc>line-weight-8pt</desc>
			<v:textBlock v:margins="rect(0,0,0,0)" v:tabSpace="42.5197"/>
			<v:textRect cx="54" cy="595.62" width="108" height="32.76"/>
			<rect x="0" y="579.24" width="108" height="32.76" class="st4"/>
			<rect x="0" y="579.24" width="108" height="32.76" class="st9"/>
			<text x="16.59" y="599.22" class="st3" v:langID="2057"><v:paragraph v:horizAlign="1"/><v:tabList/>line-weight-8pt</text>		</g>
		<g id="shape16-61" v:mID="16" v:groupContext="shape" transform="translate(46.8,-390.42)">
			<title>Sheet.16</title>
			<desc>line-cap-round</desc>
			<v:textBlock v:margins="rect(0,0,0,0)" v:tabSpace="42.5197"/>
			<v:textRect cx="54" cy="595.62" width="108" height="32.76"/>
			<rect x="0" y="579.24" width="108" height="32.76" class="st4"/>
			<rect x="0" y="579.24" width="108" height="32.76" class="st10"/>
			<text x="18.16" y="599.22" class="st3" v:langID="2057"><v:paragraph v:horizAlign="1"/><v:tabList/>line-cap-round</text>		</g>
		<g id="shape17-65" v:mID="17" v:groupContext="shape" transform="translate(190.8,-390.42)">
			<title>Sheet.17</title>
			<desc>line-cap-square</desc>
			<v:textBlock v:margins="rect(0,0,0,0)" v:tabSpace="42.5197"/>
			<v:textRect cx="54" cy="595.62" width="108" height="32.76"/>
			<rect x="0" y="579.24" width="108" height="32.76" class="st4"/>
			<rect x="0" y="579.24" width="108" height="32.76" class="st11"/>
			<text x="16.27" y="599.22" class="st3" v:langID="2057"><v:paragraph v:horizAlign="1"/><v:tabList/>line-cap-square</text>		</g>
		<g id="shape18-69" v:mID="18" v:groupContext="shape" transform="translate(334.8,-390.42)">
			<title>Sheet.18</title>
			<desc>line-cap-extended</desc>
			<v:textBlock v:margins="rect(0,0,0,0)" v:tabSpace="42.5197"/>
			<v:textRect cx="54" cy="595.62" width="108" height="32.76"/>
			<rect x="0" y="579.24" width="108" height="32.76" class="st4"/>
			<rect x="0" y="579.24" width="108" height="32.76" class="st12"/>
			<text x="9.85" y="599.22" class="st3" v:langID="2057"><v:paragraph v:horizAlign="1"/><v:tabList/>line-cap-extended</text>		</g>
		<g id="shape19-73" v:mID="19" v:groupContext="shape" transform="translate(478.8,-390.42)">
			<title>Sheet.19</title>
			<desc>line-gradient-red-to-blue</desc>
			<v:textBlock v:margins="rect(0,0,0,0)" v:tabSpace="42.5197"/>
			<v:textRect cx="54" cy="595.62" width="108" height="32.76"/>
			<rect x="0" y="579.24" width="108" height="32.76" class="st4"/>
			<rect x="0" y="579.24" width="108" height="32.76" class="st13"/>
			<text x="3.89" y="592.02" class="st3" v:langID="2057"><v:paragraph v:horizAlign="1"/><v:tabList/>line-gradient-red-to-<tspan
						x="43.33" dy="1.2em" class="st14">blue</tspan></text>		</g>
		<g id="shape20-80" v:mID="20" v:groupContext="shape" transform="translate(622.8,-390.42)">
			<title>Sheet.20</title>
			<desc>line-color-custom-rgb</desc>
			<v:textBlock v:margins="rect(0,0,0,0)" v:tabSpace="42.5197"/>
			<v:textRect cx="54" cy="595.62" width="108" height="32.76"/>
			<rect x="0" y="579.24" width="108" height="32.76" class="st4"/>
			<rect x="0" y="579.24" width="108" height="32.76" class="st15"/>
			<text x="1.19" y="599.22" class="st3" v:langID="2057"><v:paragraph v:horizAlign="1"/><v:tabList/>line-color-custom-rgb</text>		</g>
	</g>
</svg>
