<?xml version="1.0" encoding="UTF-8" standalone="no"?>
<!DOCTYPE svg PUBLIC "-//W3C//DTD SVG 1.1//EN" "http://www.w3.org/Graphics/SVG/1.1/DTD/svg11.dtd">
<!-- Generated by Microsoft Visio, SVG Export comprehensive-features-text.svg Text -->
<svg xmlns="http://www.w3.org/2000/svg" xmlns:xlink="http://www.w3.org/1999/xlink" xmlns:ev="http://www.w3.org/2001/xml-events"
		xmlns:v="http://schemas.microsoft.com/visio/2003/SVGExtensions/" width="11in" height="8.5in" viewBox="0 0 792 612"
		xml:space="preserve" color-interpolation-filters="sRGB" class="st18">
	<v:documentProperties v:langID="2057" v:metric="true" v:viewMarkup="false">
		<v:userDefs>
			<v:ud v:nameU="msvNoAutoConnect" v:val="VT0(1):26"/>
		</v:userDefs>
	</v:documentProperties>

	<style type="text/css">
	<![CDATA[
		.st1 {fill:#f0f4ff}
		.st2 {stroke:#333333;stroke-linecap:round;stroke-linejoin:round;stroke-width:1.008;visibility:hidden}
		.st3 {fill:#000000;font-family:Calibri;font-size:1.00001em}
		.st4 {font-size:1em}
		.st5 {fill:#000000;font-family:Arial;font-size:1.00001em}
		.st6 {fill:#000000;font-family:Times New Roman;font-size:1.00001em}
		.st7 {fill:#000000;font-family:Courier New;font-size:1.00001em}
		.st8 {fill:#000000;font-family:Calibri;font-size:0.666664em}
		.st9 {fill:#000000;font-family:Calibri;font-size:1.5em}
		.st10 {fill:#000000;font-family:Calibri;font-size:1.99999em}
		.st11 {fill:#000000;font-family:Calibri;font-size:3em}
		.st12 {fill:#000000;font-family:Calibri;font-size:1.00001em;font-weight:bold}
		.st13 {fill:#000000;font-family:Calibri;font-size:1.00001em;font-style:italic}
		.st14 {font-size:1em;text-decoration:underline}
		.st15 {fill:#000000;font-family:Calibri;font-size:1.00001em;font-style:italic;font-weight:bold}
		.st16 {fill:#cc0000;font-family:Calibri;font-size:1.00001em}
		.st17 {font-size:1em;font-stretch:ultra-condensed;font-weight:bold}
		.st18 {fill:none;fill-rule:evenodd;font-size:12px;overflow:visible;stroke-linecap:square;stroke-miterlimit:3}
	]]>
	</style>

	<g v:mID="5" v:index="5" v:groupContext="foregroundPage">
		<title>Text</title>
		<v:pageProperties v:drawingScale="1" v:pageScale="1" v:drawingUnits="0" v:shadowOffsetX="8.50394"
				v:shadowOffsetY="-8.50394"/>
		<g id="shape1-1" v:mID="1" v:groupContext="shape" transform="translate(46.8,-529.74)">
			<title>Sheet.1</title>
			<desc>text-plain-singleline</desc>
			<v:textBlock v:margins="rect(0,0,0,0)" v:tabSpace="42.5197"/>
			<v:textRect cx="54" cy="590.94" width="108" height="42.12"/>
			<rect x="0" y="569.88" width="108" height="42.12" class="st1"/>
			<rect x="0" y="569.88" width="108" height="42.12" class="st2"/>
			<text x="5.84" y="594.54" class="st3" v:langID="2057"><v:paragraph v:horizAlign="1"/><v:tabList/>text-plain-singleline</text>		</g>
		<g id="shape2-5" v:mID="2" v:groupContext="shape" transform="translate(190.8,-529.74)">
			<title>Sheet.2</title>
			<desc>text-multiline Line 2 Line 3</desc>
			<v:textBlock v:margins="rect(0,0,0,0)" v:tabSpace="42.5197"/>
			<v:textRect cx="54" cy="590.94" width="108" height="42.12"/>
			<rect x="0" y="569.88" width="108" height="42.12" class="st1"/>
			<rect x="0" y="569.88" width="108" height="42.12" class="st2"/>
			<text x="20.96" y="580.14" class="st3" v:langID="2057"><v:paragraph v:horizAlign="1"/><v:tabList/>text-multiline<v:newlineChar/><tspan
						x="39.57" dy="1.2em" class="st4">Line 2<v:newlineChar/></tspan><tspan x="39.57" dy="1.2em" class="st4">Line 3</tspan></text>		</g>
		<g id="shape3-11" v:mID="3" v:groupContext="shape" transform="translate(334.8,-529.74)">
			<title>Sheet.3</title>
			<desc>text-font-arial</desc>
			<v:textBlock v:margins="rect(0,0,0,0)" v:tabSpace="42.5197"/>
			<v:textRect cx="54" cy="590.94" width="108" height="42.12"/>
			<rect x="0" y="569.88" width="108" height="42.12" class="st1"/>
			<rect x="0" y="569.88" width="108" height="42.12" class="st2"/>
			<text x="18.99" y="594.54" class="st5" v:langID="2057"><v:paragraph v:horizAlign="1"/><v:tabList/>text-font-arial</text>		</g>
		<g id="shape4-15" v:mID="4" v:groupContext="shape" transform="translate(478.8,-529.74)">
			<title>Sheet.4</title>
			<desc>text-font-times</desc>
			<v:textBlock v:margins="rect(0,0,0,0)" v:tabSpace="42.5197"/>
			<v:textRect cx="54" cy="590.94" width="108" height="42.12"/>
			<rect x="0" y="569.88" width="108" height="42.12" class="st1"/>
			<rect x="0" y="569.88" width="108" height="42.12" class="st2"/>
			<text x="18.34" y="594.54" class="st6" v:langID="2057"><v:paragraph v:horizAlign="1"/><v:tabList/>text-font-times</text>		</g>
		<g id="shape5-19" v:mID="5" v:groupContext="shape" transform="translate(622.8,-529.74)">
			<title>Sheet.5</title>
			<desc>text-font-courier</desc>
			<v:textBlock v:margins="rect(0,0,0,0)" v:tabSpace="42.5197"/>
			<v:textRect cx="54" cy="590.94" width="108" height="42.12"/>
			<rect x="0" y="569.88" width="108" height="42.12" class="st1"/>
			<rect x="0" y="569.88" width="108" height="42.12" class="st2"/>
			<text x="17.99" y="587.34" class="st7" v:langID="2057"><v:paragraph v:horizAlign="1"/><v:tabList/>text-font-<tspan
						x="28.8" dy="1.2em" class="st4">courier</tspan></text>		</g>
		<g id="shape6-24" v:mID="6" v:groupContext="shape" transform="translate(46.8,-464.94)">
			<title>Sheet.6</title>
			<desc>text-size-8pt</desc>
			<v:textBlock v:margins="rect(0,0,0,0)" v:tabSpace="42.5197"/>
			<v:textRect cx="54" cy="590.94" width="108" height="42.12"/>
			<rect x="0" y="569.88" width="108" height="42.12" class="st1"/>
			<rect x="0" y="569.88" width="108" height="42.12" class="st2"/>
			<text x="33.63" y="593.34" class="st8" v:langID="2057"><v:paragraph v:horizAlign="1"/><v:tabList/>text-size-8pt</text>		</g>
		<g id="shape7-28" v:mID="7" v:groupContext="shape" transform="translate(190.8,-464.94)">
			<title>Sheet.7</title>
			<desc>text-size-12pt</desc>
			<v:textBlock v:margins="rect(0,0,0,0)" v:tabSpace="42.5197"/>
			<v:textRect cx="54" cy="590.94" width="108" height="42.12"/>
			<rect x="0" y="569.88" width="108" height="42.12" class="st1"/>
			<rect x="0" y="569.88" width="108" height="42.12" class="st2"/>
			<text x="20.4" y="594.54" class="st3" v:langID="2057"><v:paragraph v:horizAlign="1"/><v:tabList/>text-size-12pt</text>		</g>
		<g id="shape8-32" v:mID="8" v:groupContext="shape" transform="translate(334.8,-464.94)">
			<title>Sheet.8</title>
			<desc>text-size-18pt</desc>
			<v:textBlock v:margins="rect(0,0,0,0)" v:tabSpace="42.5197"/>
			<v:textRect cx="54" cy="590.94" width="108" height="42.12"/>
			<rect x="0" y="569.88" width="108" height="42.12" class="st1"/>
			<rect x="0" y="569.88" width="108" height="42.12" class="st2"/>
			<text x="3.6" y="596.34" class="st9" v:langID="2057"><v:paragraph v:horizAlign="1"/><v:tabList/>text-size-18pt</text>		</g>
		<g id="shape9-36" v:mID="9" v:groupContext="shape" transform="translate(478.8,-464.94)">
			<title>Sheet.9</title>
			<desc>text-size-24pt</desc>
			<v:textBlock v:margins="rect(0,0,0,0)" v:tabSpace="42.5197"/>
			<v:textRect cx="54" cy="590.94" width="108" height="42.12"/>
			<rect x="0" y="569.88" width="108" height="42.12" class="st1"/>
			<rect x="0" y="569.88" width="108" height="42.12" class="st2"/>
			<text x="9.29" y="583.74" class="st10" v:langID="2057"><v:paragraph v:horizAlign="1"/><v:tabList/>text-size-<tspan
						x="31.51" dy="1.2em" class="st4">24pt</tspan></text>		</g>
		<g id="shape10-41" v:mID="10" v:groupContext="shape" transform="translate(622.8,-464.94)">
			<title>Sheet.10</title>
			<desc>text-size-36pt</desc>
			<v:textBlock v:margins="rect(0,0,0,0)" v:tabSpace="42.5197"/>
			<v:textRect cx="54" cy="590.94" width="108" height="42.12"/>
			<rect x="0" y="569.88" width="108" height="42.12" class="st1"/>
			<rect x="0" y="569.88" width="108" height="42.12" class="st2"/>
			<text x="19.68" y="558.54" class="st11" v:langID="2057"><v:paragraph v:horizAlign="1"/><v:tabList/>text-<tspan
						x="21.25" dy="1.2em" class="st4">size</tspan>-<tspan x="20.27" dy="1.2em" class="st4">36pt</tspan></text>		</g>
		<g id="shape11-47" v:mID="11" v:groupContext="shape" transform="translate(46.8,-400.14)">
			<title>Sheet.11</title>
			<desc>text-style-bold</desc>
			<v:textBlock v:margins="rect(0,0,0,0)" v:tabSpace="42.5197"/>
			<v:textRect cx="54" cy="590.94" width="108" height="42.12"/>
			<rect x="0" y="569.88" width="108" height="42.12" class="st1"/>
			<rect x="0" y="569.88" width="108" height="42.12" class="st2"/>
			<text x="17.44" y="594.54" class="st12" v:langID="2057"><v:paragraph v:horizAlign="1"/><v:tabList/>text-style-bold</text>		</g>
		<g id="shape12-51" v:mID="12" v:groupContext="shape" transform="translate(190.8,-400.14)">
			<title>Sheet.12</title>
			<desc>text-style-italic</desc>
			<v:textBlock v:margins="rect(0,0,0,0)" v:tabSpace="42.5197"/>
			<v:textRect cx="54" cy="590.94" width="108" height="42.12"/>
			<rect x="0" y="569.88" width="108" height="42.12" class="st1"/>
			<rect x="0" y="569.88" width="108" height="42.12" class="st2"/>
			<text x="17.85" y="594.54" class="st13" v:langID="2057"><v:paragraph v:horizAlign="1"/><v:tabList/>text-style-italic</text>		</g>
		<g id="shape13-55" v:mID="13" v:groupContext="shape" transform="translate(334.8,-400.14)">
			<title>Sheet.13</title>
			<desc>text-style-underline</desc>
			<v:textBlock v:margins="rect(0,0,0,0)" v:tabSpace="42.5197"/>
			<v:textRect cx="54" cy="590.94" width="108" height="42.12"/>
			<rect x="0" y="569.88" width="108" height="42.12" class="st1"/>
			<rect x="0" y="569.88" width="108" height="42.12" class="st2"/>
			<text x="5.86" y="594.54" class="st3" v:langID="2057"><v:paragraph v:horizAlign="1"/><v:tabList/><tspan class="st14">text</tspan><tspan
						class="st14">-</tspan><tspan class="st14">style</tspan><tspan class="st14">-</tspan><tspan class="st14">underline</tspan></text>		</g>
		<g id="shape14-64" v:mID="14" v:groupContext="shape" transform="translate(478.8,-400.14)">
			<title>Sheet.14</title>
			<desc>text-style-bold-italic</desc>
			<v:textBlock v:margins="rect(0,0,0,0)" v:tabSpace="42.5197"/>
			<v:textRect cx="54" cy="590.94" width="108" height="42.12"/>
			<rect x="0" y="569.88" width="108" height="42.12" class="st1"/>
			<rect x="0" y="569.88" width="108" height="42.12" class="st2"/>
			<text x="3.83" y="594.54" class="st15" v:langID="2057"><v:paragraph v:horizAlign="1"/><v:tabList/>text-style-bold-italic</text>		</g>
		<g id="shape15-68" v:mID="15" v:groupContext="shape" transform="translate(622.8,-400.14)">
			<title>Sheet.15</title>
			<desc>text-color-red</desc>
			<v:textBlock v:margins="rect(0,0,0,0)" v:tabSpace="42.5197"/>
			<v:textRect cx="54" cy="590.94" width="108" height="42.12"/>
			<rect x="0" y="569.88" width="108" height="42.12" class="st1"/>
			<rect x="0" y="569.88" width="108" height="42.12" class="st2"/>
			<text x="20.16" y="594.54" class="st16" v:langID="2057"><v:paragraph v:horizAlign="1"/><v:tabList/>text-color-red</text>		</g>
		<g id="shape16-72" v:mID="16" v:groupContext="shape" transform="translate(46.8,-335.34)">
			<title>Sheet.16</title>
			<desc>text-rotation-vertical-90</desc>
			<v:textBlock v:margins="rect(0,0,0,0)" v:tabSpace="42.5197"/>
			<v:textRect cx="0" cy="612" width="0" height="0" transform="rotate(-90)"/>
			<rect x="0" y="569.88" width="108" height="42.12" class="st1"/>
			<rect x="0" y="569.88" width="108" height="42.12" class="st2"/>
			<text x="-612" y="-169.2" transform="rotate(-90)" class="st3" v:langID="2057"><v:paragraph v:horizAlign="1"/><v:tabList/>t<tspan
						x="-612" dy="1.2em" class="st4">e</tspan><tspan x="-612" dy="1.2em" class="st4">x</tspan><tspan x="-612"
						dy="1.2em" class="st4">t</tspan><tspan x="-612" dy="1.2em" class="st4">-</tspan><tspan x="-612" dy="1.2em"
						class="st4">r</tspan><tspan x="-612" dy="1.2em" class="st4">o</tspan><tspan x="-612" dy="1.2em" class="st4">t</tspan><tspan
						x="-612" dy="1.2em" class="st4">a</tspan><tspan x="-612" dy="1.2em" class="st4">t</tspan><tspan x="-612"
						dy="1.2em" class="st4">i</tspan><tspan x="-612" dy="1.2em" class="st4">o</tspan><tspan x="-612" dy="1.2em"
						class="st4">n</tspan><tspan x="-612" dy="1.2em" class="st4">-</tspan><tspan x="-612" dy="1.2em" class="st4">v</tspan><tspan
						x="-612" dy="1.2em" class="st4">e</tspan><tspan x="-612" dy="1.2em" class="st4">r</tspan><tspan x="-612"
						dy="1.2em" class="st4">t</tspan><tspan x="-612" dy="1.2em" class="st4">i</tspan><tspan x="-612" dy="1.2em"
						class="st4">c</tspan><tspan x="-612" dy="1.2em" class="st4">a</tspan><tspan x="-612" dy="1.2em" class="st4">l</tspan><tspan
						x="-612" dy="1.2em" class="st4">-</tspan><tspan x="-612" dy="1.2em" class="st4">9</tspan><tspan x="-612"
						dy="1.2em" class="st4">0</tspan></text>		</g>
		<g id="shape17-100" v:mID="17" v:groupContext="shape" transform="translate(190.8,-335.34)">
			<title>Sheet.17</title>
			<desc>text-rotation-vertical-270</desc>
			<v:textBlock v:margins="rect(0,0,0,0)" v:tabSpace="42.5197"/>
			<v:textRect cx="0" cy="612" width="0" height="0" transform="rotate(90)"/>
			<rect x="0" y="569.88" width="108" height="42.12" class="st1"/>
			<rect x="0" y="569.88" width="108" height="42.12" class="st2"/>
			<text x="612" y="-176.4" transform="rotate(90)" class="st3" v:langID="2057"><v:paragraph v:horizAlign="1"/><v:tabList/>t<tspan
						x="612" dy="1.2em" class="st4">e</tspan><tspan x="612" dy="1.2em" class="st4">x</tspan><tspan x="612"
						dy="1.2em" class="st4">t</tspan><tspan x="612" dy="1.2em" class="st4">-</tspan><tspan x="612" dy="1.2em"
						class="st4">r</tspan><tspan x="612" dy="1.2em" class="st4">o</tspan><tspan x="612" dy="1.2em" class="st4">t</tspan><tspan
						x="612" dy="1.2em" class="st4">a</tspan><tspan x="612" dy="1.2em" class="st4">t</tspan><tspan x="612"
						dy="1.2em" class="st4">i</tspan><tspan x="612" dy="1.2em" class="st4">o</tspan><tspan x="612" dy="1.2em"
						class="st4">n</tspan><tspan x="612" dy="1.2em" class="st4">-</tspan><tspan x="612" dy="1.2em" class="st4">v</tspan><tspan
						x="612" dy="1.2em" class="st4">e</tspan><tspan x="612" dy="1.2em" class="st4">r</tspan><tspan x="612"
						dy="1.2em" class="st4">t</tspan><tspan x="612" dy="1.2em" class="st4">i</tspan><tspan x="612" dy="1.2em"
						class="st4">c</tspan><tspan x="612" dy="1.2em" class="st4">a</tspan><tspan x="612" dy="1.2em" class="st4">l</tspan><tspan
						x="612" dy="1.2em" class="st4">-</tspan><tspan x="612" dy="1.2em" class="st4">2</tspan><tspan x="612"
						dy="1.2em" class="st4">7</tspan><tspan x="612" dy="1.2em" class="st4">0</tspan></text>		</g>
		<g id="shape18-129" v:mID="18" v:groupContext="shape" transform="translate(334.8,-335.34)">
			<title>Sheet.18</title>
			<desc>text-rotation-45deg</desc>
			<v:textBlock v:margins="rect(0,0,0,0)" v:tabSpace="42.5197"/>
			<v:textRect cx="0" cy="612" width="0" height="0" transform="rotate(-45)"/>
			<rect x="0" y="569.88" width="108" height="42.12" class="st1"/>
			<rect x="0" y="569.88" width="108" height="42.12" class="st2"/>
			<text x="-432.75" y="306.75" transform="rotate(-45)" class="st3" v:langID="2057"><v:paragraph v:horizAlign="1"/><v:tabList/>t<tspan
						x="-432.75" dy="1.2em" class="st4">e</tspan><tspan x="-432.75" dy="1.2em" class="st4">x</tspan><tspan
						x="-432.75" dy="1.2em" class="st4">t</tspan><tspan x="-432.75" dy="1.2em" class="st4">-</tspan><tspan
						x="-432.75" dy="1.2em" class="st4">r</tspan><tspan x="-432.75" dy="1.2em" class="st4">o</tspan><tspan
						x="-432.75" dy="1.2em" class="st4">t</tspan><tspan x="-432.75" dy="1.2em" class="st4">a</tspan><tspan
						x="-432.75" dy="1.2em" class="st4">t</tspan><tspan x="-432.75" dy="1.2em" class="st4">i</tspan><tspan
						x="-432.75" dy="1.2em" class="st4">o</tspan><tspan x="-432.75" dy="1.2em" class="st4">n</tspan><tspan
						x="-432.75" dy="1.2em" class="st4">-</tspan><tspan x="-432.75" dy="1.2em" class="st4">4</tspan><tspan
						x="-432.75" dy="1.2em" class="st4">5</tspan><tspan x="-432.75" dy="1.2em" class="st4">d</tspan><tspan
						x="-432.75" dy="1.2em" class="st4">e</tspan><tspan x="-432.75" dy="1.2em" class="st4">g</tspan></text>		</g>
		<g id="shape19-151" v:mID="19" v:groupContext="shape" transform="translate(478.8,-335.34)">
			<title>Sheet.19</title>
			<desc>text-rotation-180</desc>
			<v:textBlock v:margins="rect(0,0,0,0)" v:tabSpace="42.5197"/>
			<v:textRect cx="0" cy="612" width="0" height="0" transform="rotate(-180)"/>
			<rect x="0" y="569.88" width="108" height="42.12" class="st1"/>
			<rect x="0" y="569.88" width="108" height="42.12" class="st2"/>
			<text x="0" y="-723.6" transform="rotate(180)" class="st3" v:langID="2057"><v:paragraph v:horizAlign="1"/><v:tabList/>t<tspan
						x="0" dy="1.2em" class="st4">e</tspan><tspan x="0" dy="1.2em" class="st4">x</tspan><tspan x="0" dy="1.2em"
						class="st4">t</tspan><tspan x="0" dy="1.2em" class="st4">-</tspan><tspan x="0" dy="1.2em" class="st4">r</tspan><tspan
						x="0" dy="1.2em" class="st4">o</tspan><tspan x="0" dy="1.2em" class="st4">t</tspan><tspan x="0" dy="1.2em"
						class="st4">a</tspan><tspan x="0" dy="1.2em" class="st4">t</tspan><tspan x="0" dy="1.2em" class="st4">i</tspan><tspan
						x="0" dy="1.2em" class="st4">o</tspan><tspan x="0" dy="1.2em" class="st4">n</tspan><tspan x="0" dy="1.2em"
						class="st4">-</tspan><tspan x="0" dy="1.2em" class="st4">1</tspan><tspan x="0" dy="1.2em" class="st4">8</tspan><tspan
						x="0" dy="1.2em" class="st4">0</tspan></text>		</g>
		<g id="shape20-171" v:mID="20" v:groupContext="shape" transform="translate(622.8,-335.34)">
			<title>Sheet.20</title>
			<desc>text-rotation-30</desc>
			<v:textBlock v:margins="rect(0,0,0,0)" v:tabSpace="42.5197"/>
			<v:textRect cx="0" cy="612" width="0" height="0" transform="rotate(-30)"/>
			<rect x="0" y="569.88" width="108" height="42.12" class="st1"/>
			<rect x="0" y="569.88" width="108" height="42.12" class="st2"/>
			<text x="-306" y="425.61" transform="rotate(-30)" class="st3" v:langID="2057"><v:paragraph v:horizAlign="1"/><v:tabList/>t<tspan
						x="-306" dy="1.2em" class="st4">e</tspan><tspan x="-306" dy="1.2em" class="st4">x</tspan><tspan x="-306"
						dy="1.2em" class="st4">t</tspan><tspan x="-306" dy="1.2em" class="st4">-</tspan><tspan x="-306" dy="1.2em"
						class="st4">r</tspan><tspan x="-306" dy="1.2em" class="st4">o</tspan><tspan x="-306" dy="1.2em" class="st4">t</tspan><tspan
						x="-306" dy="1.2em" class="st4">a</tspan><tspan x="-306" dy="1.2em" class="st4">t</tspan><tspan x="-306"
						dy="1.2em" class="st4">i</tspan><tspan x="-306" dy="1.2em" class="st4">o</tspan><tspan x="-306" dy="1.2em"
						class="st4">n</tspan><tspan x="-306" dy="1.2em" class="st4">-</tspan><tspan x="-306" dy="1.2em" class="st4">3</tspan><tspan
						x="-306" dy="1.2em" class="st4">0</tspan></text>		</g>
		<g id="shape21-190" v:mID="21" v:groupContext="shape" transform="translate(46.8,-270.54)">
			<title>Sheet.21</title>
			<desc>text-align-left second line third line</desc>
			<v:textBlock v:margins="rect(0,0,0,0)" v:tabSpace="42.5197"/>
			<v:textRect cx="54" cy="590.94" width="108" height="42.12"/>
			<rect x="0" y="569.88" width="108" height="42.12" class="st1"/>
			<rect x="0" y="569.88" width="108" height="42.12" class="st2"/>
			<text x="0" y="580.14" class="st3" v:langID="2057"><v:paragraph/><v:tabList/>text-align-left<v:newlineChar/><tspan
						x="0" dy="1.2em" class="st4">second line<v:newlineChar/></tspan><tspan x="0" dy="1.2em" class="st4">third line</tspan></text>		</g>
		<g id="shape22-196" v:mID="22" v:groupContext="shape" transform="translate(190.8,-270.54)">
			<title>Sheet.22</title>
			<desc>text-align-center second line third line</desc>
			<v:textBlock v:margins="rect(0,0,0,0)" v:tabSpace="42.5197"/>
			<v:textRect cx="54" cy="590.94" width="108" height="42.12"/>
			<rect x="0" y="569.88" width="108" height="42.12" class="st1"/>
			<rect x="0" y="569.88" width="108" height="42.12" class="st2"/>
			<text x="13.36" y="580.14" class="st3" v:langID="2057"><v:paragraph v:horizAlign="1"/><v:tabList/>text-align-center<v:newlineChar/><tspan
						x="26.41" dy="1.2em" class="st4">second line<v:newlineChar/></tspan><tspan x="31.97" dy="1.2em" class="st4">third line</tspan></text>		</g>
		<g id="shape23-202" v:mID="23" v:groupContext="shape" transform="translate(334.8,-270.54)">
			<title>Sheet.23</title>
			<desc>text-align-right second line third line</desc>
			<v:textBlock v:margins="rect(0,0,0,0)" v:tabSpace="42.5197"/>
			<v:textRect cx="54" cy="590.94" width="108" height="42.12"/>
			<rect x="0" y="569.88" width="108" height="42.12" class="st1"/>
			<rect x="0" y="569.88" width="108" height="42.12" class="st2"/>
			<text x="35.33" y="580.14" class="st3" v:langID="2057"><v:paragraph v:horizAlign="2"/><v:tabList/>text-align-right<v:newlineChar/><tspan
						x="52.83" dy="1.2em" class="st4">second line<v:newlineChar/></tspan><tspan x="63.94" dy="1.2em" class="st4">third line</tspan></text>		</g>
		<g id="shape24-208" v:mID="24" v:groupContext="shape" transform="translate(478.8,-270.54)">
			<title>Sheet.24</title>
			<desc>text-align-justify second line third line</desc>
			<v:textBlock v:margins="rect(0,0,0,0)" v:tabSpace="42.5197"/>
			<v:textRect cx="54" cy="590.94" width="108" height="42.12"/>
			<rect x="0" y="569.88" width="108" height="42.12" class="st1"/>
			<rect x="0" y="569.88" width="108" height="42.12" class="st2"/>
			<text x="0em 0.335em 0.833em 1.266em" y="580.14" class="st3" v:langID="2057"><v:paragraph v:horizAlign="3"/><v:tabList/>text<tspan
						x="1.601em" dy="0em" class="st4">-</tspan><tspan x="1.907em 2.386em 2.615em 2.845em 3.315em" dy="0em"
						class="st4">align</tspan><tspan x="3.841em" dy="0em" class="st4">-</tspan><tspan x="4.147em 4.386em 4.912em
							 5.303em 5.638em 5.867em 6.172em" dy="0em" class="st4">justify<v:newlineChar/></tspan><tspan x="0em 0.391em
							 0.889em 1.312em 1.839em 2.364em 2.89em 3.116em 3.345em 3.575em 4.1em" dy="1.2em" class="st4">second line<v:newlineChar/></tspan><tspan
						x="0em 0.335em 0.86em 1.09em 1.438em 1.964em 2.19em 2.419em 2.649em 3.174em" dy="1.2em" class="st4">third line</tspan></text>		</g>
		<g id="shape25-218" v:mID="25" v:groupContext="shape" transform="translate(622.8,-270.54)">
			<title>Sheet.25</title>
			<desc>text-rich-mixed-formatting BOLD italic-red</desc>
			<v:textBlock v:margins="rect(0,0,0,0)" v:tabSpace="42.5197"/>
			<v:textRect cx="54" cy="590.94" width="108" height="42.12"/>
			<rect x="0" y="569.88" width="108" height="42.12" class="st1"/>
			<rect x="0" y="569.88" width="108" height="42.12" class="st2"/>
			<text x="42.56" y="594.54" class="st3" v:langID="2057"><v:paragraph v:horizAlign="1"/><v:tabList/>text-<tspan x="5.453em
							 5.453em 5.453em 5.453em" dy="0em" class="st17">rich</tspan><tspan x="5.453em" dy="0em" class="st17">-</tspan><tspan
						x="5.453em 5.453em 5.453em 5.453em 5.453em" dy="0em" class="st17">mixed</tspan><tspan x="5.453em" dy="0em"
						class="st17">-</tspan><tspan x="5.453em 5.453em 5.453em 5.453em 5.453em 5.453em 5.453em 5.453em 5.453em 5.453em
							 5.453em 5.453em 5.453em 5.453em 5.453em 5.453em 5.453em 5.453em 5.453em 5.453em 5.453em 5.453em"
						dy="0em" class="st17">formatting BOLD italic</tspan><tspan x="5.453em" dy="0em" class="st17">-</tspan><tspan
						x="5.453em 5.453em 5.453em" dy="0em" class="st17">red</tspan></text>		</g>
	</g>
</svg>
