<svg xmlns="http://www.w3.org/2000/svg" width="8.2677in" height="11.6929in" viewBox="0 0 595.28 841.89">
<g transform="translate(-7.09 62.36)">
  <path d="M0 87.87L300.47 87.87L300.47 0L0 0L0 87.87" fill="none" stroke="#000000" stroke-width="1" stroke-linecap="round" stroke-linejoin="round"/>
  <text x="150.24" y="47.54" text-anchor="middle" dominant-baseline="alphabetic" fill="#000000" font-size="12" font-weight="normal" font-style="normal">Master Shape A
</text>
</g>
<g transform="translate(276.38 62.36)">
  <path d="M0 106.3L155.91 106.3L155.91 0L0 0L0 106.3" fill="none" stroke="#000000" stroke-width="1" stroke-linecap="round" stroke-linejoin="round"/>
  <text x="77.95" y="56.75" text-anchor="middle" dominant-baseline="alphabetic" fill="#000000" font-size="12" font-weight="normal" font-style="normal">Page Shape
</text>
</g>
<g transform="translate(68.03 189.92)">
  <path d="M0 80.79L99.21 80.79L99.21 0L0 0L0 80.79" fill="#FFFF00" stroke="#000000" stroke-width="3" stroke-linecap="round" stroke-linejoin="round"/>
  <text x="49.61" y="43.99" text-anchor="middle" dominant-baseline="alphabetic" fill="#000000" font-size="12" font-weight="normal" font-style="normal">Master Shape B
</text>
</g>
<g transform="translate(68.03 291.26)">
  <path d="M0 80.79L99.21 80.79L99.21 0L0 0L0 80.79" fill="#FFFF00" stroke="#000000" stroke-width="3" stroke-linecap="round" stroke-linejoin="round"/>
  <text x="49.61" y="36.79" text-anchor="middle" dominant-baseline="alphabetic" fill="#000000" font-size="12" font-weight="normal" font-style="normal"><tspan x="49.61" dy="0">Master B with</tspan><tspan x="49.61" dy="1.2em">updated text</tspan></text>
</g>
</svg>
